<svg xmlns="http://www.w3.org/2000/svg" xml:space="preserve" id="svg39" width="74.74" height="60.42" viewBox="0 0 19.78 15.99"><path id="path17-5" d="M9.4 15.94c.01-.02.05-.35.08-.72l.09-.84q.15-.6.71-1.44c.33-.5.56-.67.88-.7.21-.01.29.06.5.45.18.32.25.4.46.59q.4.35.51.27.05-.03.2.05c.15.1.49.2.6.2q.05-.01.07-.05 0-.03.25 0c.31.05.54.04.57-.03q-.02-.06.3-.07.5-.03.45-.14-.02-.04.14-.08c.25-.05.55-.15.64-.2.1-.07.06-.12-.23-.41a1 1 0 0 1-.22-.27c0-.08-.2-.26-.39-.37q-.15-.09-.17-.13c0-.06-.26-.22-.42-.25q-.13-.03-.16-.1c-.04-.09-.25-.18-.45-.2a.4.4 0 0 1-.18-.09c-.06-.05-.13-.07-.3-.08l-.28.02q-.06.03-.09-.03c-.02-.04-.06-.04-.28-.02-.31.05-.57.15-.88.36-.27.17-.41.24-.58.25l-.12.01.3-.33c.44-.47.47-.48.82-.48.4 0 .6-.06.9-.26q.21-.17.25-.22c.04-.1-.2-.21-.5-.24l-.13-.01.45-.37c.75-.6.83-.66.94-.72.14-.07.34-.08.38-.03.01.02.04.2.06.42q.04.59.24.64a.3.3 0 0 1 .12.12c.07.16.24.34.3.33q.07 0 .07.02c0 .07.3.32.36.31q.07 0 .18.1c.12.1.34.2.41.18q.05-.02.18.06c.18.13.42.21.46.17q.04-.04.15 0l.32.11c.3.09.33.06.3-.34l.01-.38-.03-.25-.04-.24q0-.09-.08-.26l-.1-.25q-.02-.15-.24-.38l-.16-.21c-.02-.09-.24-.25-.48-.37a.3.3 0 0 1-.14-.12q-.04-.07-.24-.13c-.18-.06-.26-.07-.61-.05q-.43.03-.41 0-.01-.05-.11-.05c-.11 0-.1-.01.22-.24l.47-.32c.16-.1.49-.16.59-.11a1 1 0 0 1 .2.24q.34.57.61.58l.2.08c.18.11.44.2.48.15q.04-.03.25.06a1 1 0 0 0 .42.08c.12 0 .3.01.39.03q.16.03.22 0 .05-.01.23.02.25.07.43.05c.07-.01.02-.35-.07-.51l-.07-.23c0-.1-.14-.35-.24-.42q-.04-.03-.03-.08c.02-.05-.23-.3-.38-.37q-.09-.05-.1-.12t-.22-.15l-.2-.1.15-.07q.14-.07.2-.13L19 7q.13-.08.14-.14t.11-.14c.13-.09.28-.27.28-.35 0-.05-.37-.2-.56-.23a.4.4 0 0 1-.17-.08c-.04-.04-.1-.05-.29-.04q-.21 0-.25-.02c-.03-.04-.26-.02-.37.03q-.09.05-.14 0-.04-.03-.22.08c-.17.1-.19.1-.19.05q0-.06-.03-.08-.04-.01-.04-.12c0-.14-.07-.33-.13-.37-.04-.03-.07-.01-.18.09l-.13.13-.02-.14-.05-.26a.4.4 0 0 0-.1-.19l-.11-.19q-.14-.33-.21-.34-.06 0-.1-.1c-.07-.1-.2-.24-.23-.23l-.22-.17q-.3-.26-.4-.16l-.06.26a1 1 0 0 1-.07.28l-.07.27-.07.28a1 1 0 0 0 0 .33c0 .21 0 .27-.03.27q-.06-.01-.02.21c.01.12.05.27.08.34l.04.21c-.03.12.11.41.3.64.1.11.2.24.2.28.06.2-.07.36-.54.68l-.3.2.03-.14c.03-.24.03-.24-.09-.22l-.1.01.04-.1c.16-.33.22-.8.11-.88-.03-.02-.06-.13-.07-.25-.03-.27-.16-.58-.26-.66a1 1 0 0 1-.17-.24c-.1-.18-.26-.37-.32-.37a1 1 0 0 1-.23-.17q-.2-.16-.26-.15c-.03.01-.13-.02-.21-.08q-.57-.33-.65-.1l-.02.27c0 .1 0 .2-.03.2a1 1 0 0 0-.02.32c0 .16 0 .3-.02.3-.05 0-.06.2-.02.44l.06.39a1 1 0 0 0 .1.32q.1.16.07.17-.1-.01.07.26.1.17.09.2c-.03.03.13.23.28.35.08.07.24.17.36.21.2.09.35.21.35.3q.01.23-.4.54l-1.32 1.06q-.04.02.03-.11c.1-.17.16-.5.12-.6l-.04-.26a1 1 0 0 0-.07-.3l-.07-.2q-.05-.13.05-.1c.21.05.58.08.6.05.06-.05.03-.35-.03-.5q-.05-.13-.03-.18c.03-.06-.08-.29-.2-.43l-.09-.15c0-.08-.21-.33-.34-.4a.4.4 0 0 1-.15-.13c-.04-.1-.27-.2-.57-.27l-.28-.08q-.03-.03.06-.19l.1-.22.05-.17c.06-.13.16-.54.15-.67 0-.09 0-.1-.15-.06l-.3.1-.2.08-.22.14-.25.19a1 1 0 0 0-.19.22l-.1.17-.01-.6c-.01-.5 0-.62.05-.72.09-.18.16-.2.5-.12.38.08.84.07.96-.04l.3-.18c.12-.06.22-.13.22-.16q0-.04.12-.11c.15-.08.4-.28.4-.32l.18-.2c.1-.1.18-.2.18-.22s.05-.1.12-.15c.13-.11.24-.29.2-.32l.17-.23q.16-.2.18-.26c0-.06-.17-.12-.39-.13l-.25-.07c-.06-.04-.13-.06-.3-.05-.1.01-.21 0-.22-.01-.04-.05-.21-.03-.41.03q-.17.06-.23.03t-.32.11c-.15.07-.28.13-.29.12l.1-.28c.14-.31.14-.43.03-.45-.08-.01-.5.06-.6.11q-.06.05-.03-.13l-.03-.22-.08-.28q-.05-.2-.1-.25a.3.3 0 0 1-.1-.16c-.04-.17-.16-.38-.23-.4q-.05-.01-.11-.1C10 .25 9.76-.02 9.7 0c-.07 0-.23.23-.34.45q-.06.16-.1.16-.1.02-.2.3l-.11.21c-.07.07-.12.25-.12.39q0 .1-.04.15-.05.04-.05.22c0 .16 0 .18-.05.16-.3-.1-.57-.11-.6-.03q0 .06.08.23c.05.1.1.22.1.26l.07.13.1.12q.07.1-.05.03-.07-.05-.13-.04c-.02 0-.15-.03-.3-.1q-.24-.1-.32-.08l-.26-.03c-.18-.05-.36-.06-.4-.02l-.27.04q-.24 0-.27.04-.03.03-.2.05c-.23.01-.49.1-.5.15-.03.06.09.22.24.35q.12.11.11.16t.16.2.17.2c0 .03.3.31.35.3q.03.01.05.08c.02.09.18.2.37.28q.1.05.15.11a1 1 0 0 0 .29.18q.23.1.28.17c.02.05.23.12.46.14.14.02.52-.06.76-.16.1-.04.22-.07.25-.06.16.04.3.6.3 1.12l-.01.17-.2-.2c-.27-.26-.54-.46-.62-.45l-.19-.07-.21-.07-.19-.02c-.15-.05-.52-.1-.57-.07q-.1.05.05.37c.04.1.07.22.07.27q-.02.1.12.28c.08.1.13.21.13.24s.05.13.13.21l.14.16-.24.03c-.37.05-.64.11-.65.16q-.01.03-.08.04c-.2.01-.91.63-.9.8q0 .07-.06.12c-.08.07-.26.5-.26.6v.1l.27-.02q.27-.02.27.02 0 .03.24 0 .24-.04.21 0-.01.02.04.02t.03.06l-.05.25c-.01.1-.04.19-.06.19l-.02.08q0 .08-.03.09A.03.03 0 0 1 7 9.18c0-.05-.3-.4-.37-.41q-.13-.04-.21.33l-.05.2-.72-.63c-.68-.6-.73-.65-.78-.82-.1-.28-.08-.3.15-.32q.43-.05.42-.11 0-.04.24-.1.23-.04.29-.12a.4.4 0 0 1 .18-.1c.18-.04.38-.16.4-.23q.01-.06.12-.1c.12-.06.35-.25.35-.3q.01-.05.18-.17a1 1 0 0 0 .23-.2c.05-.08.04-.09-.06-.19l-.32-.19c-.1-.05-.2-.1-.19-.13 0-.05-.3-.13-.45-.12q-.12 0-.17-.04c-.05-.06-.23-.05-.45.03l-.27.04c-.3-.02-.71.54-.83 1.14-.03.15-.08.34-.12.42-.05.09-.1.26-.11.38l-.04.23-.1-.1Q4.1 7.25 4.2 7l.22-.32c.26-.35.36-.59.36-.85l.02-.45q.01-.24-.04-.27-.04-.05-.06-.27 0-.22-.06-.27l-.08-.21-.07-.21L4.4 4l-.1-.24-.1-.26-.1-.2c-.06-.07-.07-.07-.14-.01a1 1 0 0 0-.22.26 1 1 0 0 1-.2.23c-.03.01-.09.1-.12.18l-.1.21-.1.22-.08.2-.05.17-.03.22-.02.1-.11-.15q-.1-.13-.15-.14-.1 0-.19.28l-.06.22q-.01.05-.2-.1-.29-.2-.4-.13-.07 0-.15-.03A2 2 0 0 0 1.05 5c-.62.04-.65.04-.66.08q-.01.13.1.35c.05.09.1.2.1.24l.1.2q.11.14.12.22t.12.2.12.18c0 .06.17.23.32.3l.1.06-.2.05A1 1 0 0 0 1 7l-.13.07c-.1 0-.33.15-.33.2 0 .02-.08.1-.17.15-.1.06-.22.16-.27.22l-.1.11.08.06a1 1 0 0 0 .27.1 1 1 0 0 1 .27.1l.25.07c.1.02.2.05.22.08s.13.05.24.07q.2.01.21.05l-.03.02a1 1 0 0 0-.32.35q-.01.06-.1.16-.22.23-.24.37l-.1.29c-.1.18-.1.24-.08.28q.05.05-.01.23c-.03.09-.06.24-.07.33-.03.22 0 .23.3.14.1-.04.26-.08.34-.08a1 1 0 0 0 .28-.06l.23-.04.25-.07q.16-.08.24-.06.07 0 .28-.11l.25-.12c.05.01.3-.14.38-.24q.07-.08.14-.06c.05 0 .13-.05.33-.26.24-.26.27-.3.36-.57.13-.41.16-.45.32-.46.26-.02.45.1 1.11.68.34.3.62.55.6.56h-.2c-.18-.02-.21-.02-.24.03a.2.2 0 0 1-.11.06l-.2.05q-.23.1.07.34.15.13.18.19c.03.06.35.2.54.22.08.02.3.02.47 0l.33-.01.19.22q.43.5.4.55c-.06.05-.3-.06-.59-.27-.48-.35-.8-.46-1.28-.43-.21.01-.27.03-.3.07q-.06.06-.2.1-.4.1-.47.24a.2.2 0 0 1-.13.11c-.15.05-.44.25-.46.33q-.01.06-.15.16a1 1 0 0 0-.3.32c0 .03-.09.16-.2.3-.1.12-.2.25-.2.28q0 .1.4.2a1 1 0 0 1 .29.1c.07.07.37.14.51.13a.2.2 0 0 1 .16.06c.05.06.1.07.33.06.15 0 .3 0 .33.02.08.03.37-.03.57-.1l.22-.06c.13.02.43-.15.63-.35.1-.1.27-.33.39-.52.26-.4.33-.45.56-.38.21.07.34.2.57.55q.63.98.76 1.7c.04.25.04.33-.02.84-.1.77-.1.84.06 1.04.18.24.4.34.49.23m-.26-.18c-.22-.21-.23-.27-.14-.97a3 3 0 0 0-.04-1.29c-.09-.3-.1-.33-.05-.26q.08.06.1-.08 0-.05-.03-.04t-.01.07v.05L8.85 13a6 6 0 0 0-.72-1.24q-.01.02.18.32c.21.32.5.87.55 1.02q.02.08-.04-.03c-.77-1.43-.9-1.57-1.43-1.65-.5-.08-.7-.08-1.14-.02l-.44.06.28-.07a5 5 0 0 1 1.66-.01 13 13 0 0 0-3.09-3.14 1 1 0 0 0-.32-.06c-.2 0-.22 0-.3.1q-.1.1-.2.41-.1.32-.16.33a1 1 0 0 0-.2.2q-.18.28-.23.16-.03-.03-.22.17-.2.23-.23.16-.01-.05-.23.1c-.21.16-.26.18-.32.13q-.03-.03-.2.06-.24.15-.3.07-.02-.02-.17.05l-.25.06q-.1 0-.35.1l-.26.08a2 2 0 0 1 .12-.55q.05-.1 0-.13-.06-.08.12-.34.08-.11.06-.18-.04-.04.19-.28c.22-.23.24-.27.17-.3q-.02 0 .12-.12.16-.11.23-.1.05.01.09-.02.02-.04.06-.03.02.02-.13.14t-.16.17-.1.11q-.18.14.06.03.13-.06.5-.1l.36-.03-.12.08-.26.18q-.13.1-.32.14c-.2.05-.56.23-.65.34L1 9.46l.09-.06q.15-.1.1-.02-.02.03 0 0l.04-.06c0-.03.53-.27.56-.24.03.02-.43.4-.58.48l-.22.17-.08.1.08-.08c.1-.1.23-.17.25-.14.01 0-.07.13-.18.27q-.33.46-.02.1c.26-.31.55-.61.57-.6 0 .01-.05.17-.13.35-.11.26-.13.3-.06.23a2 2 0 0 0 .17-.37l.13-.32c.05-.06.62-.47.64-.46l-.07.16-.1.27c-.02.16-.15.45-.25.57q-.07.1-.06.12c.02.02.2-.22.27-.38l.1-.3q.16-.54.34-.56.06-.02 0 .06-.1.1-.02.1.03 0 .03-.04c0-.06.16-.24.18-.22q.02.03-.04.13l-.07.16q0 .03.09-.12.08-.17.15-.22L3 8.5l-.07.16c-.05.09-.12.27-.16.41s-.12.33-.17.44q-.15.25-.01.08a2 2 0 0 0 .27-.55c.12-.4.21-.57.32-.61.2-.08.33-.1.3-.06l-.06.04-.11.03-.15.08q-.08.05-.07.07.02.01.26-.12.05-.03.08-.02c.03.03-.17.6-.27.74-.13.22-.14.24-.07.17.11-.1.2-.26.35-.67.12-.3.16-.38.21-.38l.1-.03q.09-.06 0 .11c-.05.11-.13.39-.13.44l.07-.16c.12-.33.16-.4.3-.45l.13-.05-.2.01c-.12 0-.32.05-.46.1q-.38.11-.2 0c.13-.07.68-.18.96-.18.22 0 .28 0 .28-.04 0-.02-.11-.14-.24-.25a1 1 0 0 0-.37-.24c-.24-.06-.32-.03-.53.16-.25.21-.6.42-.84.47-.21.06-.2.06-.2 0 0-.03-.05-.04-.27 0-.25.03-.27.03-.29-.04q0-.08-.16-.06c-.18.01-.39-.03-.39-.09q0-.03-.17-.05c-.21-.01-.27-.03-.27-.08s-.03-.06-.31-.1c-.31-.04-.3-.08.09-.3q.2-.13.16-.16-.03-.03.13-.1l.21-.06q.06-.01.12-.07.05-.07.32-.1.23-.05.25-.08c0-.01.11-.03.24-.04.2-.01.27 0 .4.06q.16.07.17.1c0 .03-.33.05-.35.01q-.02-.02.06 0 .17 0 .01-.06-.07-.01-.1.02t-.08 0l.05.04.28.22.16.12H2.4a.5.5 0 0 1-.28-.1 1 1 0 0 0-.55-.2l-.18-.01.22.04c.21.05.59.23.51.26q-.05 0-.17-.08t-.16-.08q0 .03.12.1t.1.08c-.27.05-.32.05-.55-.03a1 1 0 0 0-.39-.07l-.15.01.14.02.3.07.17.06-.15.02c-.54.1-.91.19-.93.2h.17l.43-.07.25-.03-.16.09-.2.1-.07.03c-.03.05.14 0 .37-.12.2-.1.51-.2.51-.14q0 .03-.04.07-.02.03.08-.03l.16-.08c.06 0-.22.2-.44.31q-.22.12-.05.07c.07-.02.23-.1.37-.19.25-.16.42-.23.43-.18q0 .04-.06.07t-.03.04l.11-.08q.09-.07.1-.04.01.02.1.01h.03q-.04.03-.03.06t-.02.01l-.04.01c0 .05-.24.22-.45.32l-.13.08c.11 0 .38-.14.64-.32.24-.18.31-.22.31-.17l-.09.1q-.1.1.05-.02.2-.17.2-.08 0 .03-.02.03l-.18.16q-.14.15-.13.16c.03 0 .25-.2.38-.34q.05-.05.08-.04c.04.03-.31.36-.5.48q-.17.1-.14.1c.08 0 .44-.24.6-.4.15-.14.2-.17.3-.17q.1-.01.12.02 0 .03-.04.04c-.04 0-.17.11-.25.22q-.03.05.18-.12c.22-.17.24-.18.38-.17l.15.01-.07-.09-.15-.15-.2-.16-.25-.19q-.12-.08-.14-.13 0-.04-.06-.1-.07-.1-.01.01l.03.08c0 .01-.15-.04-.33-.12q-.65-.26-.12 0c.23.1.25.12.15.12q-.15 0 .04.02l.22.07q.1.04-.07.03l-.13-.01.11.04.19.03a.4.4 0 0 1 .17.08l.1.07h-.08a1.7 1.7 0 0 1-1.1-.47l-.16-.17.1-.04c.34-.09 1.07.12 1.08.3q0 .08.03.04.02-.05.15.12l.14.22q.03.06.1.08.1.05.05-.04l-.15-.27-.12-.2.04-.25q.09-.48-.03-.06l-.07.23-.03-.1-.04-.43q0-.26-.02-.2c-.03.36-.04.41-.07.37l-.01-.1q0-.06-.02-.05c-.05.04-.07-.05-.09-.36-.01-.27-.02-.27-.03-.08l-.01.2-.1-.3a1 1 0 0 0-.1-.28l.07.29.06.27-.1-.1q-.08-.12-.09-.1l.11.18a1 1 0 0 1 .17.3l.07.17-.15-.1-.15-.1.1.17c.1.14.15.16.07.03q-.07-.1.05 0l.17.2.06.13-.08-.09-.1-.12q0-.03-.02 0c-.04.07-.24-.05-.3-.18s-.1-.39-.11-.64c0-.17.08-.58.12-.58l.16.18.16.19c.04 0 .31.47.39.68a2 2 0 0 1 .07.47q.02.5.28.84c.1.14.23.21.18.11a4 4 0 0 1-.17-.6q0-.18.05.05c.05.2.18.55.26.68.1.15.46.46.49.43q.01-.03-.02-.2c-.07-.28-.02-.4.23-.5q.11-.05.07-.06l-.18.08c-.15.09-.15.08-.13.03.03-.08.2-.17.4-.21l.2-.04h-.18a1 1 0 0 0-.28.07q-.09.05-.1.03c0-.05.25-.15.4-.17h.56l-.17-.04c-.26-.05-.38-.05-.55.01l-.16.05c-.02-.02.2-.27.28-.32.14-.08.42-.09.69-.01l.3.06c.11 0-.5-.16-.7-.18h-.18l.19-.13c.28-.17.31-.18.7-.07.2.05.4.1.44.09.04 0-.08-.05-.27-.1-.47-.12-.49-.13-.31-.18q.45-.14.6-.05l.27.06.15.01-.17-.04q-.4-.1.04-.11c.16-.01.28-.03.27-.04l-.48.02-.45.01.18-.16.16-.14c-.04 0-.25.15-.35.24-.04.04-.18.1-.31.15l-.3.1q-.05.03-.07.02a2 2 0 0 1 .4-.52q.1-.08.08-.08c-.08 0-.32.24-.44.42q-.25.37-.34.36-.04 0-.07.05c-.06.1-.04.01.03-.14l.14-.2q.08-.07.07-.08-.02-.01-.07.02c-.1.09-.05-.02.07-.16q.22-.26-.05-.03c-.12.12-.28.44-.31.62-.02.12-.08.2-.08.11 0-.16.2-.62.37-.8.1-.13.25-.22.29-.18q.05.03.29-.06c.23-.07.26-.07.3-.03q.05.04.27.04c.28 0 .36.03.36.09q.02.04.19.11c.2.08.39.18.4.22 0 .02-.12.1-.25.2s-.23.2-.23.21q.05.07-.27.21-.2.1-.19.15c0 .07-.25.19-.42.2q-.1 0-.11.07c-.03.08-.07.1-.32.14q-.23.04-.22.08.02.05-.25.06c-.23.02-.26.03-.34.1q-.07.09-.07.14c0 .08.1.4.15.47.02.04.38.38.79.75a21 21 0 0 1 2.23 2.33c.04.05.05 0 .02-.3a4 4 0 0 1 .08-1.14c.05-.23.05-.13 0 .21a4 4 0 0 0 .04 1.26c.04.18.12.32.33.63.15.22.4.63.55.91s.3.51.32.52c.05 0 .08-.11.23-1.02A33 33 0 0 0 9.7 9.6c.03-.27.05-.48.07-.49v-.1q0-.1.03-.1t.02.13l-.02.39c0 .13-.03.45-.06.7-.06.54-.08.84-.06.79s.11-.87.14-1.28.05-.55.07-.54a26 26 0 0 1-.3 3.03l-.06.69c-.05.41-.06.53-.02.55q.04.04.06 0c.03-.1.57-.84.91-1.24.32-.38.4-.49.5-.74a5 5 0 0 0 .3-.97c.05.05-.1.68-.25 1l-.07.17q.01.02.16-.13c.54-.56 1.38-1.29 2.43-2.1l.4-.33c.09-.11.17-.51.18-.89l.01-.38.02.37c.02.34-.01.56-.09.77-.03.09.02.06.32-.15l.7-.48c.61-.42.77-.6.92-1.05q.07-.2.05-.06l-.12.36c-.06.13-.1.24-.08.24.14-.01.76-.53.75-.63 0-.02.08-.12.17-.22q.15-.15.08-.1l-.1.07c-.04-.03.12-.32.23-.45q.15-.18.01-.04-.17.2-.06-.05c.05-.14.1-.41.08-.37l-.1.28-.08.25-.02-.15c-.02-.13-.02-.13-.03.1-.01.12-.05.28-.08.34l-.05.12-.03-.2q-.02-.27-.05-.07a.4.4 0 0 0 .02.22q.03.08 0 .13t-.04-.05q-.01-.11-.01.04a.4.4 0 0 1-.05.2c-.04.06-.05.05-.06-.17-.01-.4.13-.73.48-1.13q.14-.16.17-.13l.05.33a1 1 0 0 1-.04.5c-.1.32-.36.67-.45.62q-.04-.02-.02.01 0 .04-.09.13l-.1.1.16-.03q.15-.03.18 0 .01.03.05.03.03 0 .01-.04-.04-.06.12.01.2.09.07-.02c-.07-.05-.07-.05 0-.08q.07 0 .25.07c.1.05.2.08.2.07l-.15-.1-.16-.07h.15c.09-.01.24 0 .35.02.1.01.2.02.19 0 0-.03-.3-.08-.53-.08-.2 0-.21-.01-.14-.06q.07-.04.03-.04l-.13.06a2 2 0 0 1-.45.17c-.09 0 .38-.26.53-.3.22-.06.55-.02.76.11.28.17.28.2.02.27l-.37.1c-.26.07-.36.07-.73-.02-.29-.07-.42-.05-.59.08l-.38.25c.11-.05.72-.1.72-.07q0 .03-.12.02a3 3 0 0 0-.93.29c-.26.14-.73.46-.8.53q-.03.05-.02.01c.02-.04-.28.15-.4.26q-.07.05.07-.03c.2-.13.17-.06-.03.07l-.16.1.24.01c.39.02.83.18 1.23.46q.15.12.17.07.01-.06.3-.04.39 0 .57.1.07.04.1.03-.01-.03-.2-.1a1 1 0 0 0-.54-.1q-.33 0-.39-.03l-.13-.09q-.1-.05 0-.05.08 0 .08.03t.07.03l.1.04a.1.1 0 0 0 .1.04q.07 0 0-.02l-.1-.08q-.04-.04-.08-.03-.04 0-.1-.05-.07-.06-.1-.02-.01.03-.1.02c-.16-.03-.11-.04.36-.12l.21-.06c.03-.02-.6.06-.69.1q-.07 0-.07-.02c0-.02.12-.06.54-.15h-.2c-.17.03-.34.06-.37.08q-.07.06-.18 0l-.18-.04c-.13 0 .01-.05.26-.11.46-.11 1.2-.06 1.1.08q-.07.04.17.13c.3.12.48.26.44.31q-.03.04.13.18.3.26.27.38c0 .02.04.13.1.24.1.16.12.21.1.26q-.04.05 0 .15c.04.05.07.27.08.54l.03.45-.07-.02-.35-.13c-.15-.06-.28-.1-.29-.07-.02.06-.09.04-.34-.11q-.26-.16-.27-.11c-.04.05-.2-.02-.36-.17l-.22-.13q-.1-.02-.22-.17-.13-.16-.19-.15-.06.03-.19-.22-.13-.23-.19-.23c-.08 0-.12-.13-.15-.48l-.06-.42q-.04-.15.11-.05c.05.03.06.1.08.33l.02.29v-.3c0-.3 0-.3.07-.28.06.02.07.04.08.44.02.42.02.42.04.16a2 2 0 0 0-.01-.4q-.03-.15.02-.13c.04 0 .06.11.08.43.02.23.06.48.08.56q.1.25.04-.02l-.05-.43-.03-.4q-.02-.09 0-.1.09-.01.1.22 0 .13.03.14.03 0 0-.15c-.02-.14-.02-.15.03-.12q.06.04.07.21l.01.17.01-.17.02-.17.08.05c.08.07.12.2.2.76.03.25.06.36.13.48q.15.24 0-.1a5 5 0 0 1-.15-1.02l.24.17.21.18.06.42c.03.26.08.47.12.54q.15.25.05.01a1 1 0 0 1-.1-.36l-.05-.4-.03-.18.23.24c.2.22.22.25.27.48.02.13.08.3.12.37q.06.12.05.07a3 3 0 0 1-.13-.5v-.08l.06.08c.04.04.18.21.3.38l.25.3c.02 0-.14-.24-.34-.52l-.19-.25c-.04-.06.29.08.42.18q.1.07.1.04c0-.05-.25-.21-.43-.27a.6.6 0 0 1-.3-.22l-.22-.26-.09-.1.24.06q.41.11.62.26.14.12.06.02c-.1-.15-.66-.39-.87-.38q-.08-.01-.25-.16l-.22-.16q-.02 0 .05.07.18.19-.17-.06c-.37-.27-.9-.5-1.11-.49h-.28c-.16 0-.21.01-.43.12a1 1 0 0 0-.24.16q0 .03-.1.1l-.34.26-.6.49a15 15 0 0 0-1.85 1.82h.35a4 4 0 0 1 1.35.12l-.25-.04a4 4 0 0 0-1.16-.04c-.43.08-.66.28-1.1.96-.45.69-.56 1-.66 1.78-.03.3-.06.62-.05.71q0 .27-.06.28zm.1-.3.04-.42.03-.39c.04-.27.04-.34.01-.3-.03.06-.1.59-.12.98q-.02.4.04.13m-.1-.26.02-.25.01-.08-.03.08-.02.25.02.16zm-.06-.35a4 4 0 0 0 .05-.6v-.14l-.07.58-.04.45zm.47-1.12a7 7 0 0 1 1.04-1.51c-.05 0-.4.38-.55.6-.2.29-.61 1.03-.6 1.07q.03.02.11-.16m-.44-.16c-.04-.15-.1-.24-.07-.11l.06.16q.03.04 0-.05zm.2-.33.1-.64c.08-.42.08-.57 0-.19-.07.39-.16 1-.14 1.04q.01.01.05-.2zm.23-.81.03-.33-.06.3c-.03.18-.04.32-.03.33zm1.75-.97a15 15 0 0 1 1.39-1.27c.35-.29.43-.38.13-.15-.6.46-1.73 1.51-1.9 1.76l-.05.1zm5.74-.26-.1-.2q-.03-.11-.04-.06c0 .07.13.33.16.33zm-.3 0q0-.03-.04-.04-.03 0-.01.04l.03.03zm-8.67.47-.05-.06.02.06.05.07zm8.98-.63Q17.02 11 17 11q-.01.01.02.05.05.05.02-.02m.29-.05c-.05-.1-.24-.29-.26-.27q0 .04.14.18t.12.09m-.77.07-.06-.09q-.07-.08-.01.02.07.15.06.07m-8.7.33A15 15 0 0 0 5.2 8.54c-.19-.15-.03 0 .4.4.9.8 1.35 1.28 2 2.12q.35.47.28.32m8.5-.9-.04-.28c-.03-.03 0 .27.04.43q.04.1 0-.15m.43-.18-.06-.06q-.09-.05-.01.02t.07.04m-.91-.13-.04-.3q-.04-.14 0 .16.04.51.04.14m.81-.02q-.04-.03-.06-.02 0 .02.04.04.08.01.02-.02m-1.37-.17-.04-.03-.01.03q0 .03.04.03.03 0 .01-.03m.11-.1q0-.05-.02-.01v.06q.03.02.02-.04m.13-.08q0-.1-.02-.05v.1q.02.05.02-.05m-.23.06q0-.06-.04-.1-.08-.04 0 .1.05.1.04 0m1.03-.13-.18-.02c-.02.02.22.07.29.06q.04 0-.11-.04m.3-.05-.05-.02q-.04-.01-.03.01c.02.03.09.04.09.01m-.31-.06-.06-.03q-.03 0 0 .03.01.03.05.03.02 0 0-.03m-.11 0q0-.02-.05-.03t-.05.01.05.03.05-.02m-1.3-.2v-.1.19zm1.12-.11q-.04-.06-.05-.05c-.03.02.02.12.06.12q.03 0-.01-.07m.17.01-.05-.05q-.05-.03-.05 0t.05.05zm-.29-.03q0-.03-.03-.03t-.02.03.04.03.01-.03m.25-.12c-.05-.03-.3-.02-.26.01l.17.02q.15 0 .1-.03m-.3.02-.03-.03a.04.04 0 0 0-.04.04.03.03 0 0 0 .04.03zm-.12.01q-.01-.02-.05-.03a.03.03 0 0 0-.03.04q0 .03.05.03t.03-.04m-14.6.76q.1-.12.09-.14l-.09.1q-.11.18 0 .04m14.13-.98.2-.05-.2.03-.25.06q-.06.04 0 .03zm-13.95.84.08-.2q.04-.06 0-.02c-.04.04-.17.35-.14.35zm14.24-.92q-.04-.02-.07 0 0 .02.05.02.06-.01.02-.03m-13.59.6q.04-.15-.01-.04-.03.05-.02.07zm.51-.06V9.4l-.03.04q-.02.1.03.01zm-1.42.1q.04-.04.01-.04l-.08.04q-.04.03-.02.03zm.2-.1.08-.05-.09.03-.1.06c-.06.05.01.03.1-.03m.8-.19.02-.13-.05.1q-.03.12-.02.14zm-.09-.09q.04-.13-.01-.03-.03.06-.02.07t.03-.04m1.47-.2q.03-.07-.02-.01-.03.04-.02.06.02 0 .04-.04m-.5.06q.02-.03-.03-.01-.08.04-.02.05.03 0 .06-.04m-.8 0q.04-.13-.02-.03-.03.06-.02.07.02.02.04-.04m-.85.01q-.01-.03-.05 0-.05 0-.05.03h.05q.04 0 .05-.03m1.23-.12q0-.02-.03 0-.03 0-.03.03l.03.01zm.97-.12q.07-.16-.02-.04-.05.07-.03.1zm-.29 0q.01-.05-.01-.05t-.05.06q0 .04.02.04t.04-.05m-.13.03q.01-.03-.03-.02-.1.05-.02.05.03 0 .05-.03m-1.16.05h-.12q-.04.02.06.02t.06-.02m-.25-.06q.06-.03.1-.02c.04.02.15-.03.15-.07q0-.03-.06 0l-.12.03-.12.03q-.08.07.05.03m1.59-.17q.06-.14-.05-.05-.03.04-.02.08.03.04.07-.03m-.17.04q.04-.02.03-.05-.02 0-.06.04-.07.09.03.02m-1.03.07q.06-.04 0-.03-.06 0-.08.04-.04.06.08 0zm1.55-.27q.04-.12.03-.15c-.02-.02-.08.14-.08.2l-.04.04q-.04.01 0 .03.03.02.09-.12m-2.01 0q.08-.1.06-.1-.04.01-.11.1-.15.15.05 0m3.15-.32q0-.03-.05-.09t-.05-.03l.05.1q.05.05.05.02m12.8-1q.02-.07-.09 0-.06.04 0 .03.06 0 .08-.03m-14.4.5q.13-.15.12-.16c-.04 0-.36.32-.31.31zm-.57.09L2.6 7.7l-.06.03.01.04zm14.3-1.06q.06-.07-.01 0-.09.07-.05.07zm-14.6.93q.08-.08.06-.08l-.13.09q-.08.07-.06.08zm2.8-.38h-.09q-.03.02.05.02.06-.01.04-.02m-2.78.04q-.05-.06-.08-.06l.05.06.08.06zm-.68.04c-.12-.07-.19-.09-.1-.03l.12.06zm.55-.13-.06-.03q-.03 0-.01.03t.06.03q.02 0 0-.03m-.48 0q-.12-.06-.08 0 .01.03.07.03.07 0 .01-.03m3.7-.3q0-.04-.02-.04l-.05.04q-.01.02.01.03zm-.13-.03q.09-.1 0-.03-.08.05-.08.08 0 .07.08-.05m-.26.04.15-.09q.05-.05-.05 0-.09.04-.1.01-.01-.01-.1.06-.13.14.1.02m-2.97.2c-.11-.06-.18-.08-.1-.02l.12.06q.03 0-.02-.03zm3.88-.47q0-.04-.04-.01-.03 0-.03.03l.03.01zm-.27-.07H5.6q-.02.02.04.02t.02-.02m-.13-.02q-.05-.01-.07 0 0 .02.05.02.06-.01.02-.02m-.14 0-.06.01q-.02.02.04.02.06-.01.02-.03m-2.63.03q-.06-.05-.08-.05l.04.06.08.06zm2.45-.22q.08-.11.02-.1t-.05.05-.04.06a.04.04 0 0 0-.02.06q0 .03.09-.07m1-.02a1 1 0 0 0-.33-.07c0 .02.14.06.27.08zm-.56-.22q.14-.14 0-.05a.2.2 0 0 0-.09.09c-.02.06-.02.06.1-.04m.41-.16.13-.13-.14.11-.14.13q0 .05.15-.11m.39 0 .09-.06c0-.03-.2.06-.22.1q-.02.06.13-.03m-1.01-.01.08-.07-.11.06-.1.07q0 .04.13-.06m.41-.09q.02-.03-.03-.01-.1.04-.02.05.03 0 .05-.04M3.2 6q0-.05-.02-.02-.01.05 0 .07.02 0 .02-.05m10.48 7.63c-.3-.06-.3-.06-.31 0 0 .05-.06.04-.28-.06l-.37-.16q-.1-.06-.12 0c-.08.12-.52-.3-.78-.76a2 2 0 0 0-.29-.41l-.09-.06h.09q.08-.02.16.1.06.11.05.06c-.06-.15-.06-.18-.02-.18.08 0 .24.2.35.44.12.27.28.55.3.52q.02-.02-.04-.1l-.16-.35-.18-.36q-.07-.1-.06-.12c.03-.03.37.06.42.11s.14.22.34.61c.09.17.35.5.43.54q.11.08-.06-.1a3 3 0 0 1-.45-.76 1 1 0 0 0-.15-.24l-.07-.07c0-.04.45.07.55.13.05.03.18.22.31.44.14.23.28.43.36.5.22.19.3.2.1.02a3 3 0 0 1-.47-.65l-.1-.17-.1-.14.34.11.34.11.23.3c.2.25.44.46.53.45q0-.02-.16-.15a3 3 0 0 1-.51-.59l.05.03c.06.04.7.24.96.3l.3.07h.04l-.37-.13c-.3-.09-.33-.1-.25-.13l.34-.03q.21 0 .2-.03a2 2 0 0 0-.43 0c-.35.03-.4.03-.56-.04l-.22-.07c-.09 0 .02-.05.23-.12.12-.04.32-.08.44-.09q.29-.02.08-.04-.23-.04-.63.11l-.2.08-.32-.1c-.17-.07-.3-.12-.28-.13a9 9 0 0 1 .98-.3c-.07-.03-.6.09-.79.16q-.35.15-.35.1t.07-.07q.09-.04.02-.04-.14-.02.05-.1.12-.05.1-.06l-.23.08q-.35.15-.3.07.03-.03.08-.04.07 0 .07-.03.01-.03.1-.07.14-.04.04-.04l-.14.05q-.07.04-.1.01c-.04-.03.23-.18.54-.29l.16-.06-.15.03a2 2 0 0 0-.64.25c-.25.14-.58.18-.46.05q.05-.04.07 0 .02.05.18-.04l.18-.11q.03-.07-.1.02-.09.06-.1.03-.02-.04.1-.11.2-.12-.1 0-.2.1-.07.11.04 0 .05.03c0 .05-.13.05-.14 0q-.02-.03-.09.04-.1.12-.15.06c-.03-.02.3-.26.49-.35q.12-.05.06-.05c-.07 0-.3.13-.58.3q-.15.11-.18.07t-.16 0q-.25.06.08-.13c.41-.25.6-.34.8-.37q.19-.02.19.01 0 .04.35.02c.31-.02.35-.02.35.03 0 .04.04.06.22.08q.42.06.42.17 0 .05.23.13c.26.09.32.12.33.2q.01.06.14.12c.24.11.45.27.41.31q-.03.03.25.31l.27.29c-.03.02-.41.13-.58.17-.26.05-.29.06-.26.13s.01.07-.36.08c-.35.01-.38.02-.37.07s0 .06-.11.05zm.16-.28-.27-.32q-.2-.27-.03.02c.05.08.18.22.29.31l.2.17zm-.4.03-.14-.16c-.02.02.13.22.2.28q.07.04-.05-.12m.77-.04-.21-.19q-.1-.1-.1-.08c0 .04.34.36.38.36q.03 0-.07-.09m-.14.05a2 2 0 0 0-.32-.29c-.05 0 .13.2.25.27q.12.08.07.02m.4-.19c-.26-.24-.26-.25-.23-.2.07.1.24.29.33.33q.06.04-.1-.13m-1.29.13-.23-.31q-.1-.15-.08-.09c.03.11.23.38.35.47q.1.1-.04-.07m1.74-.13-.29-.18q-.16-.13-.11-.04c.04.07.21.19.37.26q.26.1.03-.04m-.3-.02q-.13-.12-.15-.1-.01.05.18.17.16.1-.03-.07m.65.04-.07-.05-.07-.01.07.04zm-.2-.01-.11-.09q-.1-.06-.06-.01c.04.05.17.12.17.1m-2.3.05-.13-.17-.16-.25-.09-.14c-.03 0 .12.29.23.43.1.13.22.24.15.13m.42-.08q-.04-.06-.06-.05t.04.07q.09.08.02-.02m2.08-.13h-.06q-.02.03.04.02t.02-.02m-2.84-.1-.2-.38q-.07-.17-.1-.17c-.01.02.17.44.27.58q.21.31.03-.03m.65.07q-.03-.07-.05-.06l.02.06.06.06zm2.1-.17-.14-.02h-.07l.07.03.14.02h.06zm-.26-.02q.06-.04-.02-.03-.08 0-.06.04c.03.04.02.04.08 0m-2.08 0-.03-.09q-.03-.04-.03-.01l.03.08q.04.03.03.01zm1.5-.19q.13-.04-.02-.03-.1 0-.1.04c0 .04.01.04.13 0m-2.4-.04-.14-.3q-.04-.06.03.11l.11.27q.04.1.07.13.02 0-.06-.21m2.68-.03h-.13q-.04.02.07.02.12-.01.06-.02m-.31-.04q.19-.06.05-.05l-.2.06q-.17.1.15-.01m.24-.09-.07.01q0 .02.05.01.06 0 .02-.02m-.61-.02.1-.05q.02-.02-.1 0-.35.12 0 .05m-.06-.1q.14-.05.02-.03l-.15.03c-.08.04 0 .04.13 0m-.4 0h-.1q-.02.02.05.02t.04-.02zm.12-.04h-.06q-.02.02.04.02t.02-.02m.23-.06q.1-.04.02-.03l-.14.04c-.08.04 0 .03.12-.01m-.47-.12q.1-.05.06-.05l-.15.06c-.12.06-.06.06.09 0m.03-.14-.06.01q-.02.02.04.01.06 0 .02-.02m-1.32-.1q.16-.11.15-.12c-.03 0-.38.22-.38.24q0 .05.23-.12m.7-.06q0-.03-.03-.02l-.03.04.04.01zm-3 .5c.19-1.58.28-2.62.33-3.7l.01-.29.1.08q.1.06.16.05t.1.01c.02.05-.08.38-.13.41-.06.04-.1.24-.1.42q0 .12-.03.16-.03.02-.01.45c.03.52.08.64.46 1.03q.24.27.25.34.01.22-.41.7a16 16 0 0 0-.8 1zm-1.01-.03-.38-.58c-.25-.38-.34-.61-.31-.81.02-.13.12-.22.46-.42.26-.15.5-.4.52-.52l.11-.23q.11-.16.1-.3l.07-.38a1 1 0 0 0 .05-.3l-.05-.51-.06-.5.05-.1c.08-.08.24-.1.3-.04s.07.51.04 1.08a48 48 0 0 1-.52 4.26q-.02.02-.13-.2zm-3.45.6c0-.04-.07-.04-.31-.01-.3.03-.33.02-.32-.03 0-.05-.03-.06-.23-.07q-.46 0-.46-.13 0-.06-.08-.06c-.12.01-.52-.09-.55-.13-.01-.02.07-.14.2-.27.11-.13.2-.25.2-.27-.01-.02.09-.13.21-.23.13-.1.23-.21.22-.24 0-.03.2-.16.5-.3q.12-.05.12-.1-.02-.06.2-.14c.12-.04.26-.07.31-.07q.09-.01.1-.07c.02-.05.04-.06.3-.05.24 0 .35.02.54.1.23.1.76.45.77.5q0 .06-.42-.23l-.25-.16c-.02 0 .33.28.43.34q.1.05.03.05l-.1-.03c-.3-.25-.72-.47-.95-.5q-.16-.02.1.08c.39.17.84.46.71.47q-.06 0-.18-.1-.19-.16-.18-.07l.03.03q.04 0 .12.07.1.07.05.1-.03.02-.07-.02c-.06-.06-.27-.18-.28-.16q-.01.01.1.08t.12.1q0 .07-.2-.06c-.18-.13-.6-.26-.81-.26q-.16 0-.1.01c.28.04.91.28.91.35q-.01.02-.14.05l-.31.1c-.16.06-.18.06-.3 0a2 2 0 0 0-.77-.15l-.2.02.26.03c.14.01.35.05.47.1l.25.06q.16 0-.24.16l-.3.1-.22-.05a2 2 0 0 0-.42-.03l-.2.01.2.02c.2.01.56.08.56.1l-.38.15c-.36.12-.61.23-.52.22l.45-.14.44-.14c.06 0-.22.28-.42.42q-.35.25.03.04a2 2 0 0 0 .35-.3 1 1 0 0 1 .44-.3l.28-.1a4 4 0 0 1-.7.85c.04.03.36-.26.5-.46.32-.42.46-.51.86-.59l.19-.03-.1.08c-.04.04-.16.2-.25.34s-.26.37-.37.5c-.17.19-.2.22-.12.18q.25-.15.59-.68c.19-.3.34-.48.39-.44q.01.03-.05.12l-.06.12q.02 0 .1-.12.1-.13.16-.14c.06 0 .05 0-.03.12-.14.19-.27.45-.23.45q.04-.01.1-.15.06-.15.1-.16.02 0 .03-.04c0-.06.14-.23.2-.23q.02.01-.07.1l-.1.15-.16.27c-.13.2-.17.25-.23.24q-.06 0-.06.03t.05.02q.1-.06-.03.13-.08.1-.05.11c.06 0 .28-.3.45-.59q.31-.54.32-.43 0 .05-.03.06c-.03 0-.23.34-.2.36l.1-.15c.17-.28.22-.33.27-.3q.06.04.17.01l.11-.02-.12.1c-.06.07-.2.24-.3.4-.27.45-.71.85-.8.73q-.01-.06-.16.02a3 3 0 0 1-.53.18q-.03 0-.03-.04zm.02-.3c.15-.13.1-.13-.05.01l-.1.1zm-.15-.02q.2-.2-.08.04-.1.1-.08.1zm-.15 0q.1-.09.07-.1-.03 0-.05.03-.01.03-.1.1l-.07.08zm-.35-.04q.08-.07.07-.08-.02-.01-.11.07t-.07.08zm-.15-.01q.12-.09.1-.1t-.15.09q-.24.2.05.01m1.82-.1v-.05l-.03.04q-.02.1.03.01m-.32 0q.05-.08.03-.07l-.09.07q-.05.06-.02.06zm-.25.05q.05-.03.01-.03l-.06.03q-.03.08.06 0zm-.27-.06q.05-.07-.01-.03-.05.02-.05.05 0 .06.06-.02m.39-.04q0-.04-.02-.04a.03.03 0 0 0-.03.04l.01.03zm-1.73.07.16-.12c.06-.07.04-.06-.19.1q-.23.18.03.02m1.22-.07q.01-.03-.01-.04-.03 0-.04.04 0 .03.02.03zm-.18-.02q.06-.08 0 0l-.06.05q0 .04.07-.05zm-1.18.07q.13-.08.13-.1l-.18.08q-.27.17.05.02m2.49-.19.21-.32.22-.3q.06-.02.04-.05c-.05-.04-.1.03-.32.38-.21.35-.25.42-.15.3m-1.66.13q0-.04-.01-.03l-.06.03.01.03zm1.12-.1a.03.03 0 0 0-.04-.04l-.03.04.03.03a.04.04 0 0 0 .04-.04zm-1.26.07q.01-.02-.01-.03a.03.03 0 0 0-.04.04q0 .03.02.03zm1.5-.16q.03-.04 0-.06-.04-.02-.04.07.02.04.04 0m-1.26.08q0-.02-.02-.03t-.04.04q0 .03.02.03zm1.56-.18.03-.08c-.04 0-.12.14-.1.15q.02.01.07-.07m-.83.11.02-.05q0-.03-.04 0-.04.04-.02.06zm.42-.07q0-.03-.04-.01l-.03.04h.03zm.1-.15q.06-.08.03-.08c-.03 0-.11.14-.1.15q.03.01.08-.07m-2.12.13q.12-.02.13-.05c0-.04-.22 0-.3.06-.06.03-.07.03.17-.01m.32-.16-.11-.02h-.07l.07.03.12.02q.06 0 0-.03zm-.2-.02q-.01-.03-.1-.03-.19.02.01.05.1 0 .1-.02m.75-.17-.12-.05-.08-.01.08.04c.1.05.17.06.12.01m.04-.13-.2-.05c-.04.02.26.11.32.1q.02-.01-.12-.05m-.28.05q-.02-.03-.09-.03-.1 0 0 .03.13.05.1 0m.79-.15c0-.03-.17-.1-.2-.08q0 .02.1.06.09.05.1.02m.43-.1-.08-.04q-.08-.01-.09-.04a1 1 0 0 0-.36-.14l.26.14c.15.07.27.1.27.09m-.23.03a2 2 0 0 0-.47-.18c-.03 0 .4.2.44.2q.03 0 .03-.02m.27-.3-.03-.03-.02.04q0 .02.04.03.03 0 .01-.04m.19-.04q0-.03-.04-.03-.03 0-.02.03l.04.03q.02 0 .02-.03m-.94.04h-.06q-.01.02.04.02.06-.01.02-.02m.83-.1-.03-.03-.03.03.03.03zm-.13-.05c0-.03-.17-.1-.2-.09q0 .02.1.06.09.04.1.03m6.93 1.24q.01-.04.1-.04.08 0 .06.03-.01.03-.1.04-.08 0-.06-.03m-.28.03q.02-.02.07 0 .04 0-.02.02-.06 0-.05-.02m-.03-.1c-.02-.04.15-.1.18-.07s-.06.09-.12.09zm-1.29-.98.06-.06q.07-.08.01 0-.07.1-.07.06m-.5-.33a2 2 0 0 1-.3-.38.7.7 0 0 1-.1-.43l-.04-.27q-.02-.21.01-.22.04 0 .04-.19-.01-.31.06-.34.03 0 .12.09.11.11.03 0c-.1-.13-.1-.15-.06-.3s.05-.14.1-.06q.05.08-.02.06-.06-.03.02.07.07.08.06.12c-.01.02.08.14.21.26l.33.33c.15.18.11.06-.04-.13l-.14-.19c0-.05.08 0 .12.06q.08.15.08.07l-.1-.14q-.16-.16-.1-.18l.16.12.14.13v.38l-.04.45q-.03.06-.03.02c0-.02-.14-.16-.3-.31a3 3 0 0 1-.4-.45c-.13-.22-.14-.16-.01.08q.09.17.4.46c.28.26.31.3.3.38l-.03.14q-.01.14-.11.02l-.1-.08-.09-.05-.06-.02q.02.04.12.1.24.15.2.28-.03.07-.09-.04l-.18-.16a1.4 1.4 0 0 1-.4-.4q-.06-.09-.1-.1c-.06.01.18.3.46.55.26.24.32.32.25.37-.04.03-.15-.13-.13-.17q.02-.04 0-.02-.04 0-.15-.08l-.13-.1q0 .04.11.14c.15.13.27.35.25.43q-.02.08-.07-.03zm-.16-.39q-.04-.06-.06-.05t.04.07q.09.08.02-.02m.6-.04q0-.04-.03-.05h-.03q0 .04.03.06.04 0 .03-.01m-.1-.08-.05-.05q-.06-.05-.03.01c.02.05.08.08.08.04m-.27-.01q0-.02-.06-.06-.08-.05 0 .02.06.07.06.04m.13-.1-.05-.06q-.05-.03-.05 0l.05.06q.06.04.05 0m-.27-.04q0-.04-.05-.07-.08-.07-.02.03.07.11.07.04m-.14-.14-.05-.1q-.05-.05-.05-.02l.05.09zm.53-.49-.12-.1-.1-.09.1.1q.13.14.12.1m-.48-.3-.13-.14c-.03 0 .11.2.18.25q.05.02-.05-.1m.22.03-.08-.06q-.02 0 .04.07l.08.06zm-.2-.3q0-.04-.06-.07-.09-.06 0 .02l.05.07q.01.01.01-.02m1.51 2.05q-.08-.03.18-.03h.27l-.2-.03c-.2-.03-.2-.03-.09-.06h.26c.18.02.23.01.07-.02l-.13-.03.25-.08q.23-.06.25-.1l-.22.03-.22.04.06-.1q.05-.07.12-.09c.1 0 .38.05.45.09.05.03.03.05-.16.17-.12.08-.26.15-.31.17-.12.04-.47.06-.58.03m.71-.21q-.01-.03-.05-.03-.03 0-.01.03t.05.03.01-.03m-.05-.18q.07-.05.04-.05l-.1.05q-.1.1.06 0m-1.53.39c0-.03.22-.2.26-.2a1 1 0 0 0 .24-.17q.12-.16-.02-.04c-.09.08-.19.13-.2.09 0-.02.09-.08.18-.15l.24-.18.06-.08-.1.08c-.14.1-.38.23-.37.19q.02-.04.12-.1l.2-.17c.11-.1.3-.44.28-.47q-.02 0-.07.1c-.07.13-.36.44-.43.44l-.15.11q-.12.11-.12.06c0-.02.12-.14.27-.25.25-.2.44-.41.4-.45q-.03-.01-.06.06c-.03.08-.35.38-.4.38l-.1.08c-.08.07-.08.07-.09 0q0-.06.16-.17c.19-.14.33-.28.33-.32q-.01-.01-.13.1l-.23.2c-.1.06-.1.06-.1 0q.01-.07.16-.2.15-.14.16-.18 0-.04.05-.07a1 1 0 0 0 .18-.3c.17-.36.2-.35.21.1l.01.3a1 1 0 0 1-.06.31l-.1.25c-.06.14-.33.4-.54.52l-.16.11c-.02.04-.08.05-.08.02m.72-1.25v-.07q-.02 0-.04.05 0 .13.03.02zm.1-.19-.01-.1-.03.1q0 .1.02.1t.02-.1m.16 1.23q.02-.03.07-.03t.05-.04.05-.04q.04 0 .03-.03c-.02-.03.08-.1.15-.1.06-.01-.07.12-.2.2q-.2.12-.15.04m-.85-.04q.13-.1.13-.05c0 .04-.18.15-.2.13zm.02-.14q.06-.06.1-.05 0 .02-.06.09-.16.12-.04-.04m-4.08-.23c-.18-.2-.19-.24-.2-.4v-.18l.09.2c.05.1.16.27.24.38l.22.32.06.11-.11-.1zm.59.23c.02-.14.04-.17.24-.3q.15-.1.13-.1-.1 0-.26.15c-.09.09-.14.06-.06-.03q.06-.08 0-.08-.04-.02.03-.04c.36-.15.69-.37.85-.56.1-.11 0-.09-.1.03l-.21.16q-.12.08-.13.11 0 .05-.04.05-.03 0-.01-.03.04-.06-.1.01-.07.04-.06.07 0 .03-.04.01-.06 0-.13.04c-.08.05-.08.06-.09.01q0-.05.05-.07t.05-.05-.03-.01q-.03.01-.04-.03.01-.06.13-.15t.12-.1q-.03-.02-.12.05-.16.15-.1.01c0-.07.2-.22.49-.38.2-.12.47-.35.53-.48q.02-.05-.11.09-.15.15-.5.35c-.2.1-.35.21-.35.23 0 .05-.06.04-.08-.02V9.5q.03-.01.07-.17c.05-.23.1-.3.52-.56a2 2 0 0 0 .47-.38l.15-.18v.13c0 .06 0 .2-.02.29q-.04.17 0 .19.04 0-.03.25a1 1 0 0 0-.06.3c.02.08-.11.34-.24.47q-.07.05-.04.12c.02.06-.2.24-.53.43-.14.08-.27.17-.3.22q-.08.16-.05-.02m.27-.71q.1-.07-.01-.03l-.1.06q-.01.06.11-.03m.16-.1q.02-.02-.03 0-.1.04-.02.04.03 0 .05-.03m.17-.06q.05-.04.03-.04c-.05 0-.13.06-.11.08q.01.01.08-.04m.13-.3q.1-.07-.02-.01l-.07.05q0 .05.09-.04m-.3-.22q.08-.06.05-.07-.04 0-.1.07-.1.13.05 0m-.05-.1.23-.2c.14-.13.02-.05-.17.1l-.2.18q-.05.09.14-.09m.6-.25q0-.04-.02-.04-.04 0-.04.04 0 .03.02.03zm.18-.35.1-.11zq-.15.13-.1.12zM7.5 10.17a1.5 1.5 0 0 1-.3-.8q-.01-.2.03-.19.03 0 .05-.07l.03-.27q.03-.19.07-.13.03.04.05 0c.03-.08.08-.01.08.11 0 .14.11.47.19.57q.05.06 0 .13-.02.1-.06-.02l-.08-.1q-.03-.02.02.07l.06.15q0 .05.03.05t.07.12l.03.12v-.12q0-.12-.04-.13c-.04-.02-.01-.16.03-.16q.03 0 .07.07.05.06 0 .27l-.03.2-.1-.18c-.06-.1-.13-.23-.15-.3q-.05-.15-.05-.04.01.08.05.17.1.17.03.13l-.13-.3-.1-.27.02.17c.03.21.14.47.31.7q.11.15.1.18c-.02.03-.02.04-.15-.14l-.17-.27-.07-.1c-.03.03.08.23.23.43q.13.17.14.23 0 .08-.26-.28m-.13-.43c0-.07-.06-.17-.07-.11l.04.1q.03.03.03 0m.04-.76q0-.06-.02-.02v.06q.03.02.02-.04m-1.53 1.3c-.1-.04-.2-.08-.19-.1q-.01-.05-.19-.18l-.18-.17.2-.07c.1-.02.2-.05.21-.07.06-.1.66.12.7.25q.04.08-.04 0-.08-.05-.02.02.04.04.08.03.05-.01.12.08.11.15-.02.05a.1.1 0 0 0-.1-.05q-.05 0-.2-.15l-.2-.15q-.01.01.08.1c.11.1.15.18.07.13l-.1-.02q-.07 0-.2-.12-.12-.1-.13-.07 0 .04.07.07.15.09-.05.06L5.6 9.9q-.03.01.14.04l.2.03-.1.05-.1.05.16-.01c.24-.02.3-.01.3.01q0 .03-.12.08l-.13.04.14-.02.2-.05c.13-.04.1.03-.04.08-.17.08-.1.1.08.02s.18-.07.18-.03q0 .02-.06.05l.06.01.17.03c.1.06-.6.05-.81-.01zm.19-.4-.1-.08.08.1.1.08zm5.38-.14q.02-.38.12-.4.04 0 .06-.05.02-.09.05 0 .04.06-.09.18-.1.1-.07.1.05 0 .07.06 0 .06.04.07.06 0 0-.1-.03-.04 0-.1.1-.14.09.03-.01.1.01.08c.03-.02.05-.28.01-.27-.03 0-.03-.19 0-.21q.03-.02.05.03t.02-.03.03-.1c.05 0 .05.14 0 .2q-.07.06-.02.15a.2.2 0 0 1 .02.14 3 3 0 0 1-.4.46zm-3.78.28q-.05-.08-.03-.09c.03 0 .15.16.15.2s-.07-.02-.12-.1m11.64-.9c-.23-.07-.27-.07-.3-.03s-.06.04-.28-.02q-.28-.07-.32-.03c-.04.03-.12.02-.34-.07q-.27-.11-.29-.07c-.02.08-.31-.04-.52-.21q-.1-.09-.14-.04c-.06.06-.3-.16-.44-.41a1 1 0 0 0-.24-.29l-.11-.09h.08q.1-.01.2.13.25.33.16.17l-.11-.17c-.08-.1-.05-.16.03-.07l.16.25q.1.16.12.16l-.11-.23c-.07-.11-.12-.22-.11-.23q.02-.04.15.16c.19.3.23.36.33.48q.1.13.14.13l-.05-.1-.16-.25q-.1-.16-.04-.15.06 0 .1.08.07.1.12.11.06.03-.02-.06c-.1-.08-.08-.14.03-.09.09.05.16.04.08-.01l-.14-.04q-.14-.02-.1-.09.03-.01.08.02.14.04.04-.05-.04-.04-.03-.06.05-.08.27.32.25.48.4.54.1.05 0-.04a2 2 0 0 1-.25-.4l-.2-.33q-.04-.01-.02-.04c.03-.03.25.03.27.08q.02.03.02-.02t-.12-.08q-.1-.04-.1-.06c.03-.03.4.14.46.22l.22.34c.08.14.21.31.29.38l.14.1-.11-.11-.24-.36-.2-.31q-.2-.17.26.09c.25.14.3.18.4.34.05.1.15.22.2.27.1.08.1.07-.04-.12l-.17-.24c0-.05.22.08.5.3.27.22.27.22.1.05a4 4 0 0 0-.63-.5c-.04-.03.26.02.4.06q.2.09.07 0a1 1 0 0 0-.43-.1c-.12 0-.61-.24-.56-.28a2 2 0 0 1 .77-.01c.02-.04-.18-.08-.38-.08a1 1 0 0 0-.35.03c-.15.05-.33.03-.3-.03q.02-.03-.04-.01l-.08-.01q-.01-.04.17-.1.29-.1-.2.01-.12.03-.06 0 .07-.07.52-.13l.23-.05c-.04-.03-.49.02-.67.08q-.31.1-.27.04l.04-.02c.06 0 .39-.15.43-.2q.04-.06.04-.03.01.04.08.06.08 0 .14.03t.04-.02q-.03-.03-.1-.03-.12-.02.02-.08c.1-.03.41.06.41.12 0 .03.1.11.2.19q.34.2.29.26 0 .04.1.15c.16.15.25.29.2.32q-.03.03.07.21c.05.1.12.24.14.31.05.15.02.15-.34.06m-.1-.18q0-.02-.06-.06-.07-.06 0 .02t.07.04m-.17-.2-.07-.09q-.04-.02 0 .05l.07.08q.05.02 0-.04m.2-.17-.06-.05q-.08-.05-.02.01.08.09.08.04m-.67.01-.04-.08q-.03-.03-.03-.01l.03.08q.03.04.04.01m-.1 0-.06-.1q-.05-.07-.05-.05l.05.11q.05.07.05.05m.57-.13-.05-.03q-.05-.02-.03.01c.02.03.08.04.08.02m-1.14-.13-.04-.08q-.03-.03-.03-.01l.03.08q.04.04.04.01m-.1-.02q0-.05-.04-.07-.03 0-.03.03 0 .05.03.07.04.01.04-.03m-.3 0q-.06-.05-.07-.04l.05.07q.09.07.01-.02m1.4-.22-.14-.03q-.15.02.07.04.12.01.07-.01m-1.06.07q-.02-.03-.05-.03t-.02.03l.06.03q.03 0 .01-.03m-.11.01c0-.05-.07-.12-.1-.1q0 .03.04.08.05.05.05.02m.76-.08h-.1q-.04.02.05.02.1 0 .05-.02m-.56.03q0-.04-.04-.03-.03 0-.02.03l.04.03zm.36-.26q0-.02-.06-.03l-.05.02.06.03q.04 0 .05-.02m.24-.11c-.06-.02-.34-.02-.31 0l.2.02q.18 0 .11-.02M7 9.89q.04-.1.04.01 0 .06-.03.05T7 9.9zm-.05-.28q0-.16-.02-.14-.02 0-.05-.07v.04l-.01.24q0 .16-.04-.07L6.8 9.3v-.06c-.02.08-.08.08-.08-.01l-.04-.12q-.03-.04 0 .1.02.2-.04.07-.06-.09-.03-.02l.1.27q.08.18.08.21l-.14-.14c-.12-.15-.13-.18-.12-.31l.05-.28.03-.13.1.1c.2.24.23.28.27.38l.05.27c.01.15 0 .17-.04.16-.05-.02-.06-.05-.04-.18m4.9-.25c0-.09.1-.23.16-.24q.05 0 .02-.07l-.05-.16q-.03-.09.03-.04l.08.12c.02.09-.03.23-.08.2q-.02-.02 0 .03c.01.05-.08.22-.13.22q-.02 0-.03-.06m-.4-.1q0-.1.03-.1c.04 0 .05.13.02.17q-.05.07-.05-.07m-3.63.2q-.1-.17-.02-.16.02 0 .03.04 0 .05.03.05.02-.02-.03-.15-.06-.17-.07-.06 0 .08-.03.1c-.04 0-.16-.38-.13-.43l-.01-.06q-.04 0-.01-.09.07-.17.08.07-.01.17.04.1.04-.04.03-.1c-.03-.1 0-.2.04-.15v.08q-.03.04.02.06.1.02 0 .13-.04.05 0 .05.03 0 .02.06t.01.05.02-.09.03-.08.05.03l.05.1q.04.04.03.13t-.04.05l-.02-.1q0-.09-.03-.03-.05.03 0 .14.05.1.02.23l-.05.12zM7.71 9q0-.07-.03-.04l.02.08q.04.04.02-.04m3.82.13q0-.08.04-.09.02.01.03.08t-.03.09q-.03-.01-.04-.08m-.3-.05q-.06-.13 0-.11.02 0 .06.09c.05.12 0 .13-.05.02m-.5-.22q-.03-.11 0-.19.06-.13.04.03 0 .11.06.17a.2.2 0 0 1 .06.14q0 .07.04.06.02-.03 0-.08-.02-.04.02-.03c.04.02.08.17.05.2-.03.04-.23-.19-.27-.3m3.87.02c-.03-.03.24-.11.3-.1q.05.02-.03.07c-.09.05-.25.07-.27.03m-2.71.15c-.03-.06 0-.13.05-.07.04.05.04.12 0 .12q-.03 0-.05-.04m-.25-.06q.07-.12.04.05-.02.09-.05.05-.02-.04.01-.1m-.24.05q0-.03.03-.02l.04.05q0 .03-.04.02-.03-.02-.03-.05m-4.72.34.01-.03.04.03q.01.02-.01.03-.04 0-.04-.03m4.78-.41q0-.03.04-.02.02.02.03-.04t.03-.02q.04.04 0 .09-.09.08-.1-.01m-.4-.03q-.01-.06.05-.01.05.04.05.09.01.06-.05 0-.05-.03-.05-.08m.7 0q0-.05.02-.05l.03.04q.01.05-.01.05t-.04-.04M9.9 8.87c0-.1 0-.2.03-.2q.02.01.02.14l-.01.2q0 .05-.02.05zm1.94 0 .04-.05q.04-.01 0-.03-.05-.02-.05-.05t.07 0q.08.02.03.1-.07.11-.1.04m-.62.04q-.02-.02.03-.01.08.02.02-.05l-.02-.07q.02 0-.04-.05-.08-.1.03-.05c.05.04.1.19.08.23q-.05.06-.1 0m3.15-.32.12-.1q.02.02.02-.04 0-.07.03-.09.03 0 .02-.06-.01-.04-.13.14-.24.33-.07.02c.11-.22.17-.28.31-.37l.13-.07-.02.08c-.07.25-.14.36-.3.48l-.2.12q0-.02.1-.11M12 8.8q0-.02.04-.03.02 0 .03.05 0 .04-.03.03T12 8.8m-.4.07.03-.06q.03 0 .04.03 0 .05-.03.06a.03.03 0 0 1-.04-.03m-.68.04q-.01-.02.03-.03t.07.02q.01.04-.03.04-.05 0-.07-.03m.48-.08q0-.04.03-.03.04.01.04.05l-.03.03q-.04 0-.04-.05m-.3-.02q0-.04.03-.03.04.02.04.07 0 .04-.04.03-.02-.01-.03-.07m.6-.05q0-.03.03-.03.04 0 .04.05 0 .04-.03.03t-.04-.05m-.23 0q0-.05.03-.05t.03.05-.03.05-.04-.05m-.5.06q.02-.02.01-.09-.03-.08.02-.03c.05.04.03.14-.03.14q-.05 0 0-.02M14 8.46c-.02-.06-.08-.1-.3-.2-.34-.16-.62-.37-.6-.45q.03-.06-.06-.17-.16-.2-.1-.26.03-.03-.1-.26-.14-.24-.09-.26.04-.02 0-.12l-.06-.33c-.03-.2-.02-.25.02-.27.03-.03.04-.08 0-.27q-.05-.35.04-.35c.02 0 .03-.13.02-.28q0-.27.03-.28c.05 0 .3.1.48.22q.15.1.22.08.05-.03.25.17.19.21.25.18.05-.05.22.28c.09.17.18.3.2.28.05-.04.24.53.25.8q0 .16.06.15c.06 0 .05.1-.03.41-.05.23-.48.93-.49.8q0-.03.04-.06c.05-.03.35-.52.34-.57q-.01-.01-.16.23-.16.24-.18.23-.01-.04.05-.14l.07-.11.1-.18a1 1 0 0 0 .12-.3l.04-.18q.01-.06-.02-.06t-.03.06c0 .08-.07.27-.1.27q-.02 0-.03-.08t.04-.06 0-.05q-.1-.16-.06.12c.02.19.02.19-.03.08q-.05-.1-.07-.08t.03.12 0 .12q-.03.04-.01.09.04.07-.02.02-.03-.05-.02-.17.03-.13-.02-.07-.04.06-.04.2 0 .13-.02.1c-.06-.08-.03-.2.1-.5.12-.24.15-.35.15-.52l.01-.21-.04.18c-.04.2-.1.36-.12.36V6.9l-.02.11-.04.23q0 .11-.01.05c-.03-.12-.1-.08-.07.04q.02.1-.02.17l-.05.16q-.01.1-.02-.06-.01-.17.02-.12.04.06.01-.08a.3.3 0 0 1 .04-.25c.08-.13.1-.25.02-.14l-.05.13q0 .06-.06.06-.04 0-.04.05 0 .03-.05-.13l-.03-.23-.09-.26a1 1 0 0 1-.1-.6c0-.2-.02-.4-.04-.45q-.04-.1 0 .22c.04.47 0 .47-.24.04-.12-.2-.3-.46-.4-.57q-.28-.31-.13-.1l.4.58c0 .04-.15-.05-.32-.19q-.23-.18-.09-.03c.05.06.18.16.28.22.16.1.2.14.3.33.07.12.13.26.14.3l.03.1-.1-.06-.28-.16c-.1-.05-.24-.15-.32-.22q-.12-.12-.14-.1c0 .07.33.33.58.44l.27.14.2.57-.27-.11a2 2 0 0 1-.69-.42q-.09-.1-.1-.08c0 .1.4.4.7.53.18.07.33.15.35.17.05.05.12.34.09.34q-.03 0-.05-.03l-.06-.02q-.04 0 .06.07.09.07.07.1t-.04 0-.07-.05c-.1.01-.48-.17-.7-.32l-.2-.14.2.17c.12.1.33.23.46.3.14.06.26.13.27.16q.03.05-.05 0t-.09-.03q-.03.02-.07-.04-.06-.08-.05 0 0 .05.07.07c.07.01.1.1.03.1l-.1-.04q-.06-.04-.08-.03c-.03.03.09.11.15.1.07 0 .13.06.1.1l-.07-.02-.16-.06a1 1 0 0 1-.28-.14l-.15-.1.14.12c.08.08.26.18.45.26.17.07.32.15.32.18q0 .04-.03.04-.04 0-.04-.05 0-.04-.04-.04l-.15-.05q-.28-.1.06.1.18.1.2.17c0 .07-.03.22-.04.18zm-.42-.4L13.5 8q-.02.01.04.05l.1.04q.02 0-.04-.04m0-.38q0-.03-.03-.03t-.01.03l.04.03zm.24-.18q0-.06-.04-.08-.1-.04-.01.07.05.08.05 0m-.54.02-.06-.05q-.07-.06-.01.01.07.09.07.05m.4-.07q0-.03-.03-.05-.04-.01-.04.01t.04.05q.03.01.03-.01m.22-.08-.04-.03-.01.03q0 .03.03.03t.02-.03m-.1-.06-.04-.03q-.02 0-.02.03t.04.03.01-.03m.12-.06c0-.02-.33-.19-.36-.19q-.01.01.15.1c.18.1.21.12.21.1m-.23-.01q0-.03-.04-.03-.03 0-.02.03l.04.03q.02 0 .01-.03m.41-.41a2 2 0 0 0 .08-.57v-.3l-.02.25c-.02.24-.1.64-.15.68V7q.01.14.1-.16m-.62.2q-.11-.06-.09 0 .03.03.08.03.08 0 0-.03zm.93-.21q0-.05-.04-.03-.02.01-.03.05 0 .03.04.03.03-.01.03-.05m-.7.08-.08-.05q-.1-.05-.03.01.09.08.1.04m-.54.03-.05-.03q-.05 0-.03.02c.02.03.08.04.08.01m.62-.12c-.03-.04-.3-.16-.31-.14l.16.1q.16.06.15.04m.46-.1q.02-.08-.02-.04l-.02.08q.02.04.04-.03zm-.2-.1a1 1 0 0 0 .04-.28q-.02-.13-.02-.03t-.06.26q-.08.35.04.05m-.32.06-.1-.08q-.12-.08-.07-.02c.05.06.17.13.17.1m.58-.21.02-.06q0-.03-.04.01-.03.04-.02.06zm-.76-.17-.13-.08-.14-.04.14.08zm-.2-.22-.06-.02q-.04-.01-.03.01c.02.03.09.04.08.01m.31-.22q0-.12-.01-.05v.13q.02.04.01-.08m-.63-.13q0-.03-.06-.05-.06-.01 0 .03.06.08.06.02m.3-.34-.06-.09q-.07-.1-.03.01c.02.08.08.13.08.08zm-1.78 3.34a.03.03 0 0 1 .04-.04l.03.03a.03.03 0 0 1-.03.04.03.03 0 0 1-.04-.03m-.73.01q0-.03.03-.03t.03.05q0 .04-.03.03t-.03-.05m-2.68.21.07-.2q.07-.17.1-.14.04.04-.02.09-.07.04-.04.07l.08-.03.11-.08q.06-.03.04-.06-.02-.04-.05 0-.03.06-.07.02t.06-.09l.1-.05v.1q0 .11-.03.12-.04 0-.08.07-.04.06-.07.05t-.05.03-.05.04-.03.04-.03.05q-.04 0-.04-.03m-.18-.06q-.06-.1 0-.1.07.01.08.15 0 .11-.08-.05m1.82-.1q0-.04.03-.05.03 0 .04.05 0 .05-.04.05-.02 0-.03-.05m2.47-.24c-.14-.05-.16-.04-.2 0-.06.05-.08.05-.33 0s-.28-.06-.3-.02c-.03.05-.07.04-.32-.06-.17-.07-.32-.12-.35-.1q-.06.01-.22-.08-.17-.1-.2-.09-.07.06-.26-.2-.11-.16-.12-.13t-.07-.04a.4.4 0 0 1-.04-.4c.04-.08.2-.17.3-.18q.11-.02.06.08l-.02.17q0 .15.02.01c.01-.12.07-.27.1-.25l.03.23q.03.38.14.5.08.1 0-.06a2 2 0 0 1-.09-.41c-.02-.27-.02-.3.03-.27l.1.01.03.07q0 .09.02.02c.01-.07.01-.07.12-.04q.1.02.11.17c.08.4.16.6.33.77q.1.12-.04-.1a2 2 0 0 1-.2-.47c-.09-.35-.09-.36-.03-.32l.14.05c.24.03.3.1.4.39s.22.53.33.59q.09.05-.02-.07c-.1-.11-.25-.44-.3-.63l-.02-.12.13.06q.34.16.35.26c0 .07.25.52.27.5l-.1-.25-.12-.25c.01 0 .18.12.36.29.2.17.35.3.35.28l-.26-.27a1 1 0 0 1-.24-.3q.01-.02-.01 0-.04 0-.1-.03-.1-.05 0-.04l.25.06.2.06c.03-.03-.34-.17-.45-.16q-.1 0-.34-.16l-.24-.17h.24c.13 0 .31.04.4.07q.32.1.03-.04c-.1-.04-.28-.07-.45-.07-.42-.02-.75-.15-.65-.26l.32-.07.3-.05-.3.03a2 2 0 0 0-.4.08c-.1.04-.38.03-.34-.01l.13-.07q.09-.03.05-.04l-.18.06-.16.05c-.06 0 .15-.1.39-.19l.2-.07-.17.02c-.1.02-.27.08-.4.14q-.32.17-.16 0c.2-.18.8-.36.89-.26q.04.04.18.06c.24.02.49.12.47.18q-.02.05.08.09c.14.05.42.3.39.35q-.04.03.08.15c.15.14.28.36.23.38q-.04.02.04.2l.1.32.01.12h-.17c-.1-.02-.24-.04-.33-.07m-.08-.35q-.07-.11-.1-.12a1 1 0 0 0 .16.24zm-.42.04q-.05-.07-.07-.06c-.02.02.07.14.1.14q.02-.01-.03-.08m-.45.02q0-.03-.03-.05t-.01.03q.03.08.04.02m-.14-.18L11.13 8q-.04-.05-.04.01 0 .05.04.08zm1.1-.13-.05-.03q-.04-.01-.03.02c.02.03.09.04.09.01zm-.7-.12-.08-.16q-.02-.01.01.1l.07.15q.03.02 0-.1m.1.03-.04-.07q-.03-.04-.03-.02l.04.08q.03.04.03.01m-1.15-.09q0-.05-.02-.01v.06q.03 0 .02-.05m.57-.1q0-.06-.02-.02v.06q.02.02.02-.04m-.87.03q0-.08-.02-.04v.1q.02.03.02-.06m-.14-.04.03-.26q.02-.1 0-.1c-.04 0-.07.25-.05.4q.02.15.02-.04m.9-.03q0-.07-.01-.04v.08q.02.03.02-.04zm.92-.08h-.06q-.02.02.04.02t.02-.02m-1.29 0q0-.12-.01-.06v.13zm-.14-.06q0-.17-.01-.1v.2q.02.06.01-.1m1.32.04-.12-.02q-.1-.01-.05.01c.05.03.2.04.17.01m-.74.01q0-.05-.02-.02v.07q.02 0 .02-.05m-.1-.06q0-.05-.02-.01v.06q.02 0 .02-.05M10 7.39q.02-.08-.02-.04-.02.04-.01.08 0 .02.03-.04m1.35-.14h-.1q-.03.02.06.02.1-.01.04-.02m.05-.1-.28.01q-.11.02.14 0 .24 0 .14-.01m-.46-.17h-.1q-.03.03.06.02t.04-.02m.19-.04h-.09q-.02.02.04.02.08-.01.05-.02m-.1 1.72c-.05-.05 0-.07.04-.02q.04.05 0 .05zm-.22-.05q-.01-.03.02-.02.04.01.04-.02t.04-.01 0 .04-.02.05q.01.02-.02.02zm-.2 0q-.05-.05-.01-.05l.05-.01q.03 0 .04.04 0 .1-.09.02m-.8.03q.02-.04.03.02t-.02.04zm-1.8.1q0-.03.03-.04.04 0 .04.06t-.03.05T8 8.74m1.87-.17.03-.03q.04 0 .04.05 0 .04-.03.03zm-2 .15q0-.04.03-.05.03 0 .03.05t-.03.05-.04-.05M17 8.05q-.15-.1.05-.04.08.02.09.06 0 .07-.14-.02m-8.42.58c0-.03.13-.13.17-.12q.02 0 .02-.04t.07-.07L9 8.27q.07-.09.13-.1.1 0-.3.31c-.2.18-.25.2-.25.15m-.46-.05q.01-.05.05-.06v.09q-.09.1-.05-.03m1.7-.1q.02-.04.02.01t-.01.05q-.03-.02 0-.07m-1.85.15L8 8.6a.03.03 0 0 1 .04.03L8 8.66a.03.03 0 0 1-.04-.03m1.94-.17q0-.05.03-.04l.04.05q0 .03-.03.04-.04 0-.04-.05m-2.4.12q0-.06.04-.1.08-.02.03.13-.06.11-.07-.03m9.6-.63q-.02-.05.04-.04t.08.05-.04.04-.08-.05m-9.27.63q0-.03.03-.05t.03.02-.03.06-.03-.03m9.11-.65q-.1-.05.01-.04.09 0 .1.05.02.08-.1 0m-8.62.55q.07-.12.13-.1c.02.03-.09.16-.13.17q-.02 0 0-.07m-.65-.01q.06-.04.04.07-.04.09-.04 0-.02-.05 0-.07m9.69-.58q-.07-.03 0-.03l.1.03q.06.02 0 .03zm-7.56.44q0-.04.03-.03t.03.07q0 .04-.03.03t-.03-.07m-1.17.1q.06-.06.1-.05c.02.02-.1.11-.15.12q-.03 0 .05-.07m-.6.02q.05-.04.06-.03c0 .04-.07.12-.1.1zm5.98-.4q0-.04.03-.04t.04.05-.03.03-.04-.05m-4.07.26q.01-.04.02.02 0 .06-.02.05zm-1.78.11q.04-.05.07-.05.02 0-.03.06-.12.1-.04 0m-.37.03q0-.07.03-.03.04.03.02.07-.05.08-.05-.04m9.27-.61q.02-.02.07-.01.04.01-.02.02-.06 0-.05-.01m-3.18.16q0-.04.03-.03l.06.05q.01.04-.03.03zm-5.08.28q.09-.1.09-.02c0 .05-.11.15-.13.1q0-.03.04-.08m-.31.1q0-.03.05-.03t.05-.05q0-.02.02-.01c.02.02-.05.12-.09.12zm8.85-.6q-.02-.04.03-.04t.03.03q0 .03-.03.03l-.03-.03m-.6.04q-.1-.02-.07-.04.04-.02.2 0 .19.04.07.05zm-6.92.4q0-.02.04 0 .03.01.03.04t-.03.02zm7.63-.49a.03.03 0 0 1 .04-.03l.03.03-.03.03a.03.03 0 0 1-.04-.03m-3.44.2q0-.03.03-.04.03 0 .03.05 0 .04-.03.03T14 7.91m-5.57.35q.05-.05.08-.04.02.03-.04.07-.12.09-.04-.03m9.15-.58q.01-.03.1-.03.11 0 .02.02-.12.07-.12.01m-.55.04q-.04-.06.1-.01.1.02 0 .03-.07 0-.1-.02m-7.12.44q-.01-.04.01-.04t.04.04q0 .05-.02.05zm-1.22.07q.04-.06.07-.05c.03.02-.03.11-.08.11q-.02 0 .01-.06m-1.41.12q0-.03-.25 0-.25.04-.25.01-.01-.03-.26 0l-.25.03.02-.08a2 2 0 0 1 .27-.48q.1-.12.09-.16c-.02-.04.2-.26.36-.34q.06-.05.05-.09c-.02-.05.28-.2.43-.21.13-.01.69.14.7.2 0 .04-.14.03-.25-.03l-.16-.06q-.03.01.1.07l.15.06-.18.07c-.16.06-.2.07-.33.05-.16-.03-.52.01-.55.06q0 .03.14 0c.16-.04.44-.04.44 0 0 .05-.45.26-.58.27-.14 0-.37.1-.33.14l.08-.02.19-.06q.16-.04.07.01l-.54.44c0 .02.04 0 .33-.23a1 1 0 0 1 .37-.23c.02-.03.26-.16.47-.26q.1-.04.05.03c-.1.17-.42.57-.52.63q-.1.07-.06.06c.1 0 .31-.2.45-.42.27-.39.27-.4.54-.47q.4-.12.22 0a1 1 0 0 0-.21.3c-.08.13-.22.3-.3.39q-.13.13-.11.13c.07 0 .3-.26.5-.54s.29-.39.38-.4q.06 0 0 .05t-.06.07.08-.05c.09-.09.19-.1.11 0q-.2.25-.02.07.14-.14.2-.16.09-.01-.02.08a1 1 0 0 0-.2.26c-.06.1-.18.26-.26.34q-.24.24.05.02l.23-.28q.26-.41.4-.4.12 0-.04.1l-.18.17-.05.1.1-.1q.2-.2.32-.21.08 0-.04.05l-.16.15q-.09.14.06-.02a1 1 0 0 1 .25-.14c.15-.03.38 0 .38.07q0 .04-.04 0-.05-.03-.2-.03c-.15.01-.21.06-.43.34l-.25.24c-.15.12-.17.13-.2.08s-.05-.04-.2.06c-.17.11-.38.22-.43.23q-.03 0-.03-.05c0-.06-.01-.06-.26.03-.22.09-.38.11-.38.06m-.06-.33.1-.11zq-.15.14-.1.12zm-.33.07c.08-.07.21-.28.15-.23-.04.02-.25.3-.23.3zm.94-.24q.07-.1-.02-.01-.05.05-.04.07.02 0 .06-.06m-.36-.13q.17-.26-.04 0-.1.13-.08.14.04-.02.12-.14m.46-.02q.06-.08-.01-.01l-.06.06q0 .04.07-.05m-.12 0q.01-.03-.01-.03l-.04.03q0 .03.02.03zm.26-.2q.07-.1.06-.11c-.03 0-.18.2-.16.22zm.4-.08q.01-.04-.01-.03-.04 0-.04.03t.02.03zm-1.15.07q.09-.03-.07-.02l-.23.04q-.1.04.07.02c.08 0 .19-.03.23-.04m.48-.22-.19-.04q-.12-.01-.05.01t.19.04.05-.01m-.12-.15h-.06q-.02.02.04.02t.02-.02m-.37.02-.06.01q-.02.02.04.01.06 0 .02-.02m9.52.54q.02-.02.07-.03l.05.02q0 .03-.07.03-.05 0-.05-.02m-3 .15q0-.03.05-.03.05.02.05.06t-.04.03q-.05 0-.06-.06m-4.9.32q.06-.04.04.05-.03.06-.04 0-.02-.02 0-.05m8.85-.54.07-.03h.05c-.02.04-.12.06-.12.03m-1.2.06c0-.04.15-.08.2-.06q.03.02.02.04c-.02.04-.22.05-.22.02M1.66 8.6q.04-.05.15-.05a.3.3 0 0 0 .17-.06q.07-.07.13-.04.08.02-.03.04Q2 8.5 2 8.54h.15q.14-.04.12 0-.04.05-.25.06l-.3.05q-.15.05-.08-.04M9 8.08q.01-.04.07-.04.07 0 .01-.03-.06-.01 0-.12.04-.08.05-.05t-.03.07 0 .03c.07 0 .06.15 0 .2-.07.03-.14 0-.1-.06m-.13-.01q.16-.11.04.03-.06.06-.1.05 0-.03.06-.08m-6.56.51c0-.02.07-.04.12-.04q.13 0 .06-.04-.07-.03.02-.03l.1-.01c.07 0 .05-.06-.01-.08a.1.1 0 0 0-.1.03.1.1 0 0 1-.1.02q-.04 0-.05.02 0 .02.04.03t.03.01c-.03.03-.2 0-.18-.04l.2-.08c.15-.04.19-.04.23 0 .07.06.07.05-.08.16-.12.07-.32.11-.28.05m11.66-.8q0-.06.02-.06t.05.05-.02.05zm-4.19.24q0-.02.04-.01l.03.05q.01.03-.03.01zm-6.84.39q.02-.04.08-.04.07 0 0 .03-.1.08-.08 0m-1.12.07q0-.03.05-.04.05 0 .05-.02c0-.04.16-.12.18-.09q.01.03-.03.04-.05 0-.05.03 0 .04-.05.04t-.05.03-.05.04-.05-.03m14.36-1.1q.09-.1.11-.09.01.03-.07.12-.09.1-.11.09-.01-.01.07-.12m-13.34.97.05-.04q.03 0 .01.03l-.05.04q-.03 0-.01-.03m-.69.04q0-.02.07-.03.1 0 .03.03-.1.06-.1 0m.55-.07q-.02-.02.03-.03.04 0 .06.03l-.03.03q-.04 0-.06-.02m13-1.17q-.45-.51-.32-.59.04-.02 0-.1c-.12-.18-.2-.6-.13-.6q.04-.01 0-.32c-.02-.26-.02-.3.02-.3q.05 0 .04-.06c-.02-.12.01-.47.04-.46.05.03.07-.04.1-.33l.03-.27.24.2q.21.2.28.21.06.01.15.19.11.19.16.16.06 0 .18.4.03.09.09.1c.11.03.15.53.05.7q-.12.22-.04 0 .04-.12.03-.16c-.01-.04-.18.4-.18.46q0 .05-.03.05-.03.01-.1.13-.08.14-.09.07 0-.06.07-.13.13-.15.22-.53.08-.36 0-.18-.05.08-.05.06 0-.04-.03-.03-.03.04-.01.18.02.15-.01.11-.04-.04-.06 0t0 .06c.05 0-.07.3-.11.3-.05.01-.03-.07.02-.14l.04-.1q0-.03-.05.04-.05.1-.05-.09a1 1 0 0 1 .06-.3 2 2 0 0 0 .08-.4q.06-.62-.03-.05c-.03.19-.07.39-.1.44l-.04.1-.04-.18-.08-.32-.02-.27a1 1 0 0 0-.01-.46q-.04-.07-.02.03c.03.12 0 .42-.04.42q-.02 0-.03-.05c0-.07-.26-.66-.28-.64l.1.28c.11.3.24.7.22.72-.03.03-.37-.32-.43-.44q-.05-.1-.07-.09c-.04.04.13.27.33.46.2.2.21.2.25.45l.02.25c-.05 0-.39-.33-.53-.52q-.16-.21-.17-.2c0 .08.23.38.44.57q.36.34.26.34-.03 0-.01.07.03.08-.04.03l-.13-.11q-.07-.12-.04-.01.03.08-.03.05t-.03.02q.02.03.07.02h.05q0 .03.08.07t.09.13-.03.1T16 6.6t-.05-.12q-.1-.07-.03 0 .04.05.03.08a3 3 0 0 1-.5-.43l.03.08c.04.08.18.23.32.34.23.2.23.2.21.32q-.03.14-.07.04l-.15-.14-.11-.06.09.09c.11.11.2.25.2.3q0 .03-.04-.02c-.06-.08-.07 0-.01.1q.01.04-.18-.14-.36-.33.01.08.15.17.16.2l-.04.09q-.02.1-.05-.04l-.14-.24zm.2-.13-.16-.17-.16-.12c0 .06.25.33.3.32l.01-.03m-.01-.3-.18-.14q-.05.02.19.18l.15.1zm.16-.42q0-.04-.07-.09-.11-.08-.04.01.1.13.11.08m-.37-.03c0-.05-.07-.13-.08-.11q-.01.01.03.08.05.05.05.02m.64-.19q.07-.1.01-.12-.04-.02-.01 0 0 .04-.03.1-.05.05-.04.09.01.02.07-.07m-.32-.16-.15-.11-.1-.06.12.1c.11.12.22.16.13.07m.22-.18v-.09q0-.03-.03.05-.02.16.03.04m-.3-.08-.09-.07.06.08.1.07zm.57-.04q0-.05-.02-.01v.06q.03 0 .02-.05m-.24-.1q0-.1-.02-.05v.1q.02.03.02-.06m-.54-.4-.1-.1c-.02 0 .1.18.14.2q.02 0-.04-.1m.01-.18-.04-.03-.01.03q0 .03.04.04.03 0 .01-.04m.24-.13q0-.08-.02-.04v.1q.02.03.02-.06m2.35 2.4q.08-.02-.03-.02t-.07-.03q.04-.05.13-.01.15.07.03.1-.15.03-.06-.03M3.1 8.24q-.01-.02.05-.03t.05.03-.05.03q-.02 0-.05-.03m-.18.02q0-.04.05-.04.04 0 .03.03l-.05.04zm-.1-.01.03-.04q.03-.01.03.01 0 .04-.03.04zm15.62-1.06q.01-.08.07-.06c.03.02 0 .08-.04.08q-.03 0-.03-.03m-15.16.98q0-.04.07-.04.06 0 .07.03 0 .03-.07.03-.06 0-.07-.02m.2-.05a.03.03 0 0 1 .04-.03l.03.03-.03.03a.03.03 0 0 1-.04-.03m-.33 0 .05-.01q.04 0 .05.02 0 .03-.05.02t-.05-.03M3 8.14a.03.03 0 0 1 .04-.03l.03.03-.03.03A.03.03 0 0 1 3 8.14m13.2-.99q.19-.19.03.03-.09.1-.1.09t.07-.12m-2.15.2q.02-.04.02.02t-.01.04q-.03 0 0-.06m-10.3.7L3.63 8q-.09 0 .02.03.08.03.04.05c-.07.03-.15-.05-.11-.11.02-.04.06-.04.22.02q.22.09.12.08a.3.3 0 0 1-.16-.03m14.4-1.03c-.14-.09-.14-.1-.08-.13q.07-.04.19.02l.21.07q.14.04.04-.03l-.11-.04-.22-.09-.18-.1.18-.05c.15-.05.19-.05.28-.01l.29.05c.22 0 .13-.04-.11-.06q-.16 0-.16-.04c0-.01.12-.05.27-.08.43-.08.46-.1.18-.07l-.25.03.05-.09.05-.08-.1.09-.2.12-.12.03.07-.07q.08-.06.05-.07-.03 0-.1.07c-.1.1-.16.09-.07-.02q.06-.08.02-.05-.05.04-.08.03c-.03-.02.08-.12.18-.17q.08-.03 0-.02l-.2.11q-.63.54-.3.17.1-.12.06-.1l-.1.1c-.14.15-.38.31-.28.18q.05-.07-.02-.03-.06.03-.03-.01t.08-.03.21-.17l.17-.17-.13.1q-.25.16-.14.02.05-.07.03-.07c-.04 0-.19.17-.28.32q-.05.07-.08.06 0-.03.1-.2.11-.16.1-.18c-.02-.02-.2.2-.2.24q0 .03-.04.04l-.07.04q0 .05.03.02.05-.03.02.05c-.03.12-.1.17-.07.06q.02-.1-.01-.08-.03.01-.04.04c0 .07-.06.16-.1.15q-.05 0 0-.01.04-.03.04-.08 0-.09.26-.39.25-.29-.02-.02-.14.13-.17.13c-.02-.02.13-.21.25-.3q.1-.1.13-.04c.02.04.05.03.19-.02q.29-.12.3-.05.02.04.26.01c.2-.02.26-.01.29.03q.04.05.15.06c.07.01.23.05.34.09.19.06.21.07.18.13a1 1 0 0 1-.22.2q-.21.14-.18.18c.02.07-.15.16-.38.22s-.25.06-.4-.04m.26.02L18.37 7l-.13-.06q-.1-.05-.12-.04c-.02.02.13.1.24.14q.09.02.07-.01m.21-.14-.19-.08c-.28-.12-.3-.13-.25-.08.07.06.44.22.5.22q.04 0-.06-.06m-.06-.13q-.04-.04-.06-.02-.02 0 .04.03.07.02.02-.01m-.15-.03-.08-.06q-.1-.06-.02.02.05.05.08.05t.02-.01m-.46-.44.04-.06-.1.05q-.06.07-.04.07zm.1.78q-.05-.04-.09-.04l-.09-.06q-.07-.06 0-.08.11-.05.11 0 0 .03-.06.05t.02.02c.09 0 .3.15.2.15zM3.4 8.05q-.02-.02.03-.03t.03.03q0 .03-.03.03zm.42-.18c-.17-.05-.3-.11-.3-.12q.03-.03.13-.06c.14-.03.34.05.51.22.12.1.14.11-.34-.04M3.28 8q.01-.05.06 0 0 .04-.02.03-.04 0-.04-.03m.18-.06q-.02-.03.03-.03t.05.02a.03.03 0 0 1-.03.04q-.03 0-.05-.03m-.12-.03.03-.03a.03.03 0 0 1 .04.03l-.03.04a.03.03 0 0 1-.04-.04m12.85-.88q0-.05.07-.09.06-.03.03-.03-.06.01-.01-.04c.04-.05.04-.13 0-.12q-.03 0-.03.05 0 .04-.03.05c-.05 0-.01-.1.08-.21q.07-.1.07-.05t-.03.05q-.02.02 0 .17.01.17-.04.16-.04 0-.06.06-.04.09-.05 0m1.5-.17q0-.1.07.02.05.07-.02.04-.04 0-.05-.06m-.1.03q0-.04.04-.04.03 0 .01.04l-.03.03q-.02 0-.02-.03m.35-.09-.04-.06c.05 0 .16.06.16.09q0 .07-.12-.03m-.16.06q-.04-.08.06-.06.05 0 .03.04-.04.06-.09.01m-.37-.07q.04-.03.04 0 0 .08-.06.06zm-1.33.13q0-.03.04-.03.03 0 .01.03 0 .03-.03.03zm.04-.17q.02-.03.02.04t-.01.04zm-6.56.34q.03-.01.08.04.1.16-.02.05-.07-.06-.05-.09m-.25.15h.09l-.04.02q-.08 0-.05-.02m-.15-.02h.07q.04 0-.02.02-.06 0-.05-.02m8.97-.7.1-.07q.02 0-.03.07-.05.06-.1.07-.02 0 .03-.06m-8.21.56.03-.03q.03 0 .02.03l-.03.04zm7.73-.53q0-.03.03-.04.03 0 .02.04l-.04.03zm-8.27.5q-.09-.08-.08-.1.02-.02-.03-.02c-.1 0-.27-.08-.24-.12q.02-.04-.06-.01a.4.4 0 0 1-.21-.03c-.17-.06-.54-.4-.53-.48a1 1 0 0 0-.14-.25q-.12-.2-.1-.25 0-.08-.1-.3l-.1-.25q.05-.01.29.05c.14.04.3.08.37.08l.24.08.18.07c.05 0 .54.4.55.44q.03.43 0 .44-.02 0-.03-.05 0-.04-.03-.05v.12q.01.1.04.11t.02-.03q-.02-.03 0-.05.04-.02.05.11v.14l-.14-.16a1 1 0 0 1-.18-.37l-.11-.34L9 5.76c.03.1.09.31.1.43l.03.11-.08-.09-.2-.2a1 1 0 0 1-.17-.25l-.1-.2q-.09-.12.01.09.14.27-.1.05a3 3 0 0 0-.45-.32c-.01 0 .12.12.3.26l.3.28-.45-.11-.06-.02.06.05c.04.03.18.07.31.1.19.05.26.09.38.2l.15.16a4 4 0 0 1-.65-.11q-.03-.01.02.03c.03.02.21.07.4.1q.33.08.36.13l.08.08q.14.1-.26.03c-.43-.07-.44-.07-.28-.02l.36.08c.24.03.3.04.28.06s-.5-.02-.65-.05q-.08-.02-.01.01c.05.03.32.08.49.1.15 0 .28.04.28.09q0 .03-.1.02t-.08.02q.01.02.1.03c.08-.01.2.07.17.1q-.02.02-.05 0c-.02-.04-.14-.08-.14-.05l.1.09c.12.09.06.1-.06 0zm-.17-.2q0-.03-.07-.05c-.08-.02-.09.03-.01.06q.1.04.08-.02m-.1-.39h-.07q-.02.03.04.02t.02-.02m.2-.05-.04-.03v.03q0 .03.03.03t.01-.03M9 6.47l-.15-.02h-.06c.06.03.24.04.21.02m.3-.16q0-.06-.02-.02v.06q.02.02.02-.04m.06-.03-.05-.2-.05-.16v.14q.02.13.04.14.03 0 .04.05zm-.51-.04-.22-.07q-.13-.05-.16-.04c-.02.03.31.14.38.13q.08-.01 0-.02m.19-.15a1 1 0 0 0-.14-.35l.08.24q.07.2.06.1m.35 0-.03-.04q-.03-.01-.03.01t.03.05q.04.01.03-.01M8.21 7.2a1 1 0 0 0-.49-.17L7.61 7q-.06-.03.02-.07c.1-.06.4-.07.58-.03.2.05.52.18.5.21-.02.01-.13-.02-.25-.07a1 1 0 0 0-.28-.08q-.04 0 .08.04l.22.1.08.06h-.09q-.09 0-.1-.03 0-.03-.03.02c-.03.07-.11.08-.13.03m.07-.1-.09-.04q-.02 0 .02.04l.08.02q.03 0-.01-.03m.64-.03c-.1-.06-.51-.17-.6-.17l-.12-.03q-.05-.02.12-.02c.16.01.78.2.85.26.04.05-.15.01-.25-.04m.76-.14q.03-.03.03.06 0 .13-.03.04-.04-.06 0-.1m-.95.14Q8.63 7 8.68 7l.15.05q.1.06.05.07zm1.15-.91-.04-.87.02.87V7a10 10 0 0 1-.06-.98l-.04-.99-.09-.17a3 3 0 0 0-.87-.88c-.37-.27-.4-.3-.32-.26.17.07.78.56.99.78.32.36.32.36.28-.11a4 4 0 0 0-.09-.6c-.05-.17-.4-.84-.36-.68q.04.18-.16-.09-.24-.31-.08-.31c.11 0 .33.16.47.34.12.15.14.2.19.49.03.17.05.33.04.35q0 .02.03-.03l.11-.16q.08-.1.03-.1c-.08 0 .1-.14.2-.16q.09-.02.1-.05l.16-.11q.14-.09.12-.1l-.05.02-.2.08-.19.1q-.03.02-.04 0l.1-.1q.13-.07.04-.04-.09.02-.03-.04c.01-.04.14-.1.27-.15s.27-.11.3-.14c.07-.05.06-.05-.3.09q-.25.09-.17 0l.15-.08q.12-.05.02-.02c-.13.02-.12-.04.01-.07q.14-.03.04-.05t.02-.06l.27-.1c.1-.04.2-.08.2-.1 0-.01-.09 0-.18.05q-.24.09-.19.03l.27-.23.28-.24c.04-.05-.26.16-.38.27q-.21.19-.1-.02c.07-.13.06-.17-.02-.04q-.05.1-.05.14c.01.04-.33.42-.35.4l.03-.15c.06-.17.06-.18.02-.15l-.08.21-.14.38-.09.18.01-.16q0-.23-.02-.05l-.02.17q.01.07-.05.24l-.08.17v-.29c.01-.35.07-.55.25-.8.14-.18.5-.47.6-.48l.19-.06c.2-.08.48-.12.48-.07 0 .07-.12.33-.2.43q-.08.1-.06.14c0 .02-.06.13-.15.24a1 1 0 0 0-.16.24q0 .05-.03.05l-.19.16c-.08.08-.25.2-.37.27-.3.16-.36.27-.36.83 0 .23-.02.43-.03.44q-.02.01 0 .08t.05-.04q.01-.1.05-.1l.01.05.01.03q.04-.02.14-.18c.1-.17.45-.58.45-.53 0 0-.06.1-.14.18-.18.2-.35.47-.4.63a8 8 0 0 0 0 1.08q.03.96 0 .97-.04-.01-.07-.86m-.36-2.9q0-.07-.02-.03v.08q.02.02.02-.04m.91-.1q-.04-.02-.06 0t.04.01q.06 0 .02-.02m-.95-.04q0-.06-.02-.02v.06q.03.02.03-.04zm.55-.1.02-.08q.01-.06-.04.01-.04.1.02.07m.6-.14h-.07q0 .02.05.02t.02-.02m-.27-.15q.1-.24-.02-.04l-.05.12q.02 0 .07-.08M3.33 7.33c-.12-.07-.04-.1.09-.02l.15.08c.06.04-.17-.01-.24-.06m-.28-.05Q3 7.22 3 7.18q0-.02.04.03.05.05.13.03t.03 0q-.06.06.1.11.04.02-.06.01a.3.3 0 0 1-.18-.08m-.13.05c0-.05.1-.03.13.02q0 .03-.06.02t-.07-.04m-.21-.05q-.1-.1-.05-.1t.14.1.05.09-.14-.09m-.23-.02q-.13-.1-.1-.12l.2.12q.15.1.1.12zm7.85-.5.22-.1q.14-.05.08-.06-.06-.02-.14.01-.13.06-.05 0l.21-.12c.15-.07.43-.24.38-.24l-.23.1-.22.08c-.06-.05.15-.25.45-.4q.16-.09.15-.1c-.01-.01-.2.08-.43.2l.2-.2c.27-.3.33-.41.07-.18a1 1 0 0 0-.2.23q0 .03-.02.01-.01-.01.04-.12.04-.1.03-.12l-.14.23c-.07.14-.14.25-.16.24q-.04 0-.04.06a.2.2 0 0 1-.06.11l-.12.16q-.07.1-.08.09l.03-.07.05-.11q.04-.11-.03-.03t-.05-.08q.02-.14 0-.08l-.04.16q0 .14-.03.05-.03-.08-.04.1-.04.36-.05.07c0-.12.02-.22.11-.41q.11-.23.15-.25l.2-.17q.17-.16.2-.16.05 0 .23-.1l.3-.13.1-.03-.07.24-.05.23-.07.15q-.07.14-.06.2c.02.05-.26.43-.33.43q-.06.01-.01-.05.04-.04-.12.04l-.21.1-.12.06q-.17.12-.04-.03m.39-.44q.1-.08-.01-.02l-.08.06q0 .03.09-.04m-.28.04c.04-.05.12-.35.1-.36s-.15.33-.13.36q0 .04.03 0m.48-.15q.1-.07-.02-.03-.07.02-.09.05-.03.07.1-.02m-1.38.52q0-.05.03-.06t.01.07q0 .1.03.03.04-.08.02 0l-.02.1c0 .06-.06-.07-.07-.14m-6.7.48q0-.04-.02-.02-.04.01-.07-.03-.05-.05-.14-.02-.08.02-.11 0-.03-.04.03-.04t.06-.03c-.01-.04.24.05.32.12q.09.08-.02.07-.05-.01-.05-.05m6.78-.67-.09-.23c-.06-.08-.1-.25-.05-.25s.18.28.2.45q.02.34-.06.03m-5.64.43q0-.1.14-.26c.24-.29.26-.35.04-.1q-.42.43 0-.08l.19-.26c-.01-.01-.32.32-.4.43q-.04.07-.04.01c0-.02.04-.1.09-.15.23-.26.42-.58.46-.76q.02-.08-.05.05a5 5 0 0 1-.5.7l.1-.19.15-.22c.04-.1.02-.07-.16.15q-.14.16-.14.11t.1-.17l.14-.22.05-.11-.08.1-.14.2q-.09.15-.1.06l.22-.4c.22-.34.37-.67.37-.78q0-.04-.07.14c-.08.21-.32.6-.4.63q-.03.02-.02.06t-.05.04c-.09 0-.08 0 .07-.19l.14-.15-.13.13-.16.13-.03-.13c0-.11.03-.19.2-.44.2-.32.3-.53.32-.72q.02-.16-.06.09c-.1.28-.2.47-.26.47q-.05 0-.03.05.01.05-.01.04-.04-.01-.1.1-.06.08-.07.06l.07-.15.07-.11-.07.07-.07.06.01-.1.04-.2.02-.14.1-.18c.1-.14.25-.54.21-.57l-.05.1c-.03.15-.21.5-.24.48l.06-.2c.05-.09.08-.18.07-.18q-.02 0-.07.1-.04.13-.06.12l.06-.4.05-.43a6 6 0 0 0-.16.8q-.06.33-.13-.14l-.04-.22v.19c0 .1.03.24.06.32s.05.2.04.27l-.01.16q0 .03-.06-.02-.08-.1 0 .05l.02.1c-.02.05-.13-.18-.2-.37l-.04-.16.02.17q.02.18.13.37t.1.3v.09l-.1-.15q-.1-.15-.12-.13t.03.07c.07.07.17.28.17.35 0 .1-.25-.32-.32-.54l-.07-.23.02.2c.02.1.07.25.11.34q.08.14.06.15-.03-.01-.12-.16l-.13-.2c-.07-.05-.03-.53.04-.54q.04 0 .04-.07c0-.12.07-.36.12-.37.03 0 .07-.09.1-.18q.05-.15.09-.16t.09-.1c.09-.19.27-.44.31-.43.05.01.13.22.13.36q0 .1.06.13c.03.01.07.1.09.18q.04.15.09.18t.06.2q0 .19.06.23.07.04.08.3c.01.14.04.26.06.27q.05 0 0 .3-.05.27-.02.28c.1.05-.12.5-.42.9a1 1 0 0 0-.18.27q0 .04-.02.05zm.43-.78q0-.03-.02-.03t-.03.03q0 .03.02.04zm-.18-.18q.02-.03-.01-.04-.04 0-.03.04l.01.03zm0-.15q.04-.13-.02-.04-.03.06-.02.08zM3.9 5.7q.14-.18.11-.2c-.02 0-.22.29-.2.3zm.19-.79v-.05l-.03.04q-.02.1.03.01m-.48-.23q-.02-.06-.04-.04-.01.01.02.05.05.05.02-.01m.14-.29q0-.06-.02-.02v.07q.02 0 .02-.05m5.77 2.16q-.01-.06.04 0 .06.1 0 .08-.04-.02-.04-.08m-5.82.32q-.01-.07.05 0c.07.08.07.14 0 .09a.1.1 0 0 1-.05-.1zm5.8-.47q0-.03.03-.03t.03.05-.03.03-.03-.05m-5.82.32c-.02-.06.05-.05.07 0q.02.06-.02.05zm.13-.12q.02-.04.02.02t-.01.04 0-.06m-.18-.02q0-.02.04-.03.02 0 .03.05 0 .04-.03.03-.04-.01-.04-.05m-1.7.12q.01-.02.08-.03l.09.01q0 .04-.09.04-.07 0-.08-.02m-.24-.08q.04 0 .07.03.03.04.06 0c.03-.05.13-.09.16-.05q0 .03-.07.05t-.08.06q0 .02-.1-.02-.08-.05-.04-.07m-.18.05q-.31-.18-.28-.25.02-.06-.12-.17-.14-.13-.12-.18.01-.06-.1-.19l-.12-.22a1 1 0 0 0-.12-.27q-.16-.24-.1-.27l.26.02q.23.02.27-.01.04-.04.24 0c.17.05.2.05.22 0 .02-.04.06-.04.24.04.24.1.29.1.25.03-.02-.05 0-.04.22.1a1 1 0 0 1 .22.19c.07.1.04.14-.04.03q-.04-.05-.08-.06-.03 0 .02.06l.06.08q0 .03.05.07t.04.07q-.02 0-.1-.06-.06-.08-.09-.07l.05.08a.2.2 0 0 1 .07.12l.03.1q.02.03 0 .04c-.05 0-.12-.09-.1-.12a.04.04 0 0 0-.01-.06l-.08-.13c-.05-.14-.18-.33-.2-.3l.06.12q.12.2 0 .13l.03.03c.1.07.12.18.03.11q-.05-.03-.07-.01l.07.07q.09.04.1.1c0 .08-.17-.05-.22-.17q-.04-.1-.05-.08l.06.2q.05.15.03.16-.04 0-.22-.4a.6.6 0 0 0-.25-.32q-.07-.05 0 .04.15.15.03.09-.08-.06-.01.01l.06.13c0 .07.15.3.18.3l-.06-.13q-.07-.1-.04-.12.03.02.1.15l.06.16-.2-.1a1 1 0 0 1-.27-.24c-.12-.17-.26-.33-.31-.32q-.03 0 .06.1.1.1.17.2c.06.1.06.1-.25-.07l-.37-.2c-.06-.01.22.16.52.34l.16.09h-.16q-.15 0-.26-.03-.2-.05-.1.01l.34.06q.27.02.4.1l.1.06-.16.03-.25.03q-.07-.02-.05.02c.03.04.34.01.43-.04q.05-.03.11.02c.05.04.03.05-.26.07a2 2 0 0 1-.42-.01q-.07-.01-.07 0c.04.05.32.08.6.06q.24 0 .28.02.04.09-.05.04-.05-.03-.09.01-.04.05.03.08.06.03.07 0 0-.04.06-.02.1.06-.08.08-.12.02-.13-.04c-.03-.08-.11-.11-.14-.06q-.02.02.03.03l.07.04c.03.07-.07.07-.12 0l-.1-.08q-.05-.03.01.03l.06.1q0 .04.04.04l.03.03q0 .03-.05.04-.04 0-.05-.05 0-.04-.05-.06-.09-.02 0 .08.05.05-.06.02-.08 0-.07.02l.11.04q.1 0 .12.06.06.09-.16 0-.05 0 .07.1.23.19-.07.03zm0-.41-.06-.06q-.07-.05-.01.02t.07.04m.06-.4-.06-.03q-.04 0-.05.02 0 .03.06.03zm-.23 0q-.04-.04-.06-.03t.04.04q.07.03.02-.02m.95-.46q0-.03-.04-.03-.03 0-.01.04l.03.03zm1.48.91v-.14l.02.17q.02.16 0 .14-.03-.03-.02-.17m-2.05.22q-.05-.05.03-.05.06 0 .07.05 0 .04-.03.05-.03 0-.07-.05m.15-.02q-.01-.04.01-.04l.06.03q.01.03-.01.04zm-.09-.13.03-.03q.03 0 .06.03.01.02-.03.03-.05 0-.06-.03m.76-.17h-.06l-.03-.04q0-.04.04 0 .05.04.07 0 .01-.06.05 0 .07.1 0 .07zm1.19-.16.02.04q0 .07-.02.04zm.1-.01q.01-.05.05-.06t0 .07q-.08.12-.05-.01M3.64 6q-.05-.1-.02-.09t.03-.02l-.04-.05c-.05-.02-.12-.2-.09-.2.05 0 .14.21.16.35q.03.24-.05 0M2.2 6q-.03-.18.04-.01.05.09.08.1.02-.01-.01-.05Q2.26 6 2.3 6q.02 0 .03.02l.02.1q.05.1-.06.02a.3.3 0 0 1-.1-.13zm-.12.15q0-.04.03-.03t.03.05q0 .02-.03.03t-.03-.05m.38-.09Q2.4 6.03 2.42 6q.03-.01.07.03t.06.03.03.01q0 .08-.12 0zm-.7-.55q-.01-.12.05-.03.05.07 0 .09l-.04.03zm8.9-.9a1 1 0 0 0-.38-.05l-.08.02.06-.07.07-.07.3.06c.18.03.32.04.33.03.01 0-.12-.04-.29-.07s-.3-.07-.3-.08c0-.05.1-.04.39.03.16.04.3.06.3.05l-.3-.08-.3-.1.06-.08q.06-.06.16-.03l.27.06c.25.07.6.11.65.1q.03-.01-.11-.03l-.32-.07q-.15-.06-.26-.07c-.13-.02-.1-.08.06-.1q.1 0 .1-.02h-.15q-.12 0-.17-.03c-.04-.04.11-.15.2-.13q.06.01.01-.02-.06-.02 0-.06.04-.04.16 0l.32.09c.21.06.6.1.57.05l-.1-.01a6 6 0 0 1-.86-.21l.23-.17.23-.16.33.06c.19.04.42.06.52.05l.17-.02h-.18l-.77-.14.3-.16c.3-.15.32-.16.54-.15l.38-.02q.2-.03-.12-.01-.6.03-.03-.16l.53-.2c-.03-.03-.56.14-.9.28l-.39.17-.32.16a1 1 0 0 1-.29.15q0-.03.06-.13l.13-.23.18-.27q.12-.16.04-.1c-.1.07-.35.42-.43.62-.05.13-.1.19-.29.32a1 1 0 0 1-.25.15q0-.02.02-.02.03-.02.1-.15c.07-.15.21-.29.26-.25.02.02.1-.09.1-.13q0-.03-.06.02c-.09.08-.2.14-.23.13-.04-.04.18-.31.31-.39q.24-.13.11-.1l-.1.04c-.06.07-.12.07-.07 0q.04-.05.01-.05t-.08.09q-.12.14-.13.06c0-.05.19-.24.24-.25q.05 0 .03.04 0 .03.1-.05c.16-.14.45-.26.5-.23q.04.04.17-.02c.21-.09.38-.12.38-.08q.01.03.26.02l.23.01c-.03.06.03.07.34.09.15 0 .28.03.28.04s-.08.11-.2.22c-.14.16-.18.21-.15.24.03.04 0 .08-.14.21q-.16.17-.18.23c0 .05-.12.18-.28.3q-.1.08-.1.11c.03.03-.19.2-.4.3q-.13.08-.12.11.02.08-.32.2-.13.05-.15.1c0 .1-.34.1-.78 0zm.66-.15-.07.01q-.01.02.04.02.06-.01.02-.02zm-.34-.15-.11-.02q-.05 0 .01.03l.12.02q.05 0-.02-.03m-.25-.06-.15-.04q-.07 0 .03.05c.14.05.23.04.12-.01m.78-.1-.07.01q-.01.03.05.02.05 0 .02-.02m-.28-.02q-.12-.05-.08 0 .01.04.07.03.07 0 .01-.03m.3-.4-.13-.05q-.15-.02.01.03.2.07.12.01m.08-.1a.4.4 0 0 0-.18-.04q-.22-.03.1.05.14.04.08 0m.14-.1-.09-.02q-.02 0 .02.03l.08.02q.03 0-.01-.03m-.2-.04h-.06q-.02.03.04.02t.02-.02m-.49-.05q.06-.07.01-.03-.05.03-.07.02t-.04.04q-.02.1.1-.03m1.08-.1c-.03-.04-.3-.07-.3-.04q0 .03.05.03zm-.05-.16q-.14-.05-.1.01.02.03.1.02t0-.03m-1 0q0-.03-.04 0-.1.04-.02.04.03 0 .05-.04m.51-.18q.15-.25.04-.13c-.06.08-.15.25-.13.25zm-.41.1q0-.02-.04 0l-.03.03.04.02zm.76-.16.22-.27q.2-.17.04-.07c-.14.09-.42.46-.34.46zm-.2.03q.14-.2.02-.06l-.08.1q.02.02.07-.04zm.99-.06q0-.02-.09-.02t-.1.03c0 .03.17.02.19 0zm-.52-.18q.13-.12.04-.07c-.09.07-.24.22-.2.22zm.53-.09q.04-.03.03-.05l-.06.03q-.07.1.03.02M8.22 4.8q-.15-.02-.15-.08.01-.05-.27-.14c-.22-.08-.28-.11-.27-.16 0-.05-.06-.1-.27-.19q-.29-.13-.26-.2 0-.06-.2-.19-.19-.11-.2-.18t-.18-.19q-.18-.13-.15-.19t-.2-.25l-.2-.2.09-.02c.05-.02.2-.04.35-.05q.27-.03.26-.07c0-.05.06-.05.31-.03.16.02.2.02.22-.02.03-.04.28-.01.45.06q.1.06.12 0c.03-.04.31.07.5.2q.14.08.15.02c.03-.05.07-.03.3.16.14.12.21.24.08.13q-.06-.05-.07-.02c0 .04.12.14.15.11s.12.12.16.29L9 3.8q.01.06-.02.04-.04-.02-.04.04 0 .04-.05-.05-.1-.2 0-.09.06.09.05 0a.1.1 0 0 0-.06-.07 1 1 0 0 1-.17-.26 1 1 0 0 0-.27-.34q-.19-.15-.08-.02.08.15-.04.05-.04-.03-.04 0 0 .04.04.04c.02 0 .1.14.2.3.09.17.17.3.19.3l-.05-.12-.07-.17q0-.06-.02-.06c-.04 0-.16-.23-.13-.25.03-.03.1.08.17.24.03.08.07.18.1.21.06.13.1.24.08.24a1 1 0 0 1-.25-.17c0-.04-.19-.4-.2-.38s.04.15.13.29q.07.11-.03.06a1 1 0 0 1-.19-.27l-.13-.24L8 3.01l-.13-.14q-.03 0 .06.12l.12.2q.03.09.13.24l.1.16-.14-.08-.28-.14a.4.4 0 0 1-.22-.2c-.08-.14-.34-.4-.4-.4q-.02 0 .01.04t.02.06c-.03.03.23.3.26.29q.03 0 .07.06l.02.08-.2-.09-.25-.08q-.04 0-.12-.1l-.2-.16-.12-.08.14.13q.13.12.09.13l-.37-.08q-.7-.16.04.05c.6.16.62.18.22.19l-.4-.01q-.05-.01.04.03c.1.03.22.04.48.03.33-.02.36-.01.6.09.34.14.7.33.67.36l-.2.07-.17.05.17-.02.2-.07q.05-.04.17.05l.13.08-.3.08a3 3 0 0 1-.58.09q-.3 0-.24.04c.1.04.64-.01.92-.1l.26-.07.09.07.08.07-.1.04-.18.04q-.17.06.05.05.15-.02.14.02-.01.08.14 0c.08-.04.19-.03.19.01a3 3 0 0 1-.87.23q-.31.02-.13.05c.16.03.57-.03.83-.13l.25-.06q.09.04-.22.14-.17.07-.17.09l.23-.07c.21-.08.33-.09.27-.03l-.31.13q-.26.09-.25.1l.32-.09c.27-.1.3-.1.34-.04.05.05.05.05-.07.08l-.36.1c-.26.1-.45.12-.67.08zm.22-.47q.09-.04 0-.03-.08 0-.1.04-.04.06.1 0m.18-.04q.07-.04-.03-.03-.06 0-.05.03c.02.04.02.04.08 0m-.75.05-.04-.03-.01.03q0 .03.03.03t.02-.03m.49-.12h-.07q0 .02.05.02t.02-.02m.29-.2h-.07l-.07.03.07.01q.06 0 .07-.03m-.48-.11.18-.07c.02-.03-.38.07-.46.1-.06.04.14 0 .28-.03m-.25-.2h-.1q-.03.03.06.02t.04-.02m.98-.1q0-.04-.04-.03-.03 0-.01.03l.04.03zm-.83.06h-.06q-.02.02.04.02t.02-.02m-.22-.05L8 3.57l-.15.02-.37.06a2 2 0 0 1-.44 0c-.12-.01-.22-.02-.2 0 .05.08.71.07 1-.03m1.01-.11-.05-.1c-.07-.08-.06-.03 0 .07q.05.08.05.03m-1.26.05.18-.05c.03-.04-.3.03-.36.06-.05.04-.05.04.18 0m-.09-.12h-.1q-.05.02.05.01.11 0 .06-.01M8 3.22q-.09-.19-.09-.13c0 .03.11.25.13.25zm.21-.15-.03-.05q-.04-.01-.03.01 0 .03.03.05.03.01.03-.01m-1.36.06h-.08q-.03.02.04.02t.04-.02m-.26-.06-.19-.05c-.05 0 .12.07.24.1q.07 0-.05-.05m.6-.14q-.07-.07-.09-.07 0 .02.07.08l.08.07zm2.74 1.28c0-.3.05-.4.21-.52q.1-.08.06.03l-.08.34q-.19.76-.19.15m-.46-.1-.16-.4q-.14-.22.09-.03c.14.13.18.23.21.53q.06.48-.14-.1m.76.06.05-.16q0-.03.04-.02c.03.01 0 .2-.07.27q-.07.1-.02-.09m-.97-.03-.07-.26-.07-.22c.02-.01.15.27.2.41l.06.18q.04.07-.05 0-.06-.06-.07-.1zm1.4-.05q0-.04.04-.04c.06.02.08.09.02.1a.05.05 0 0 1-.06-.06m-.3.01q0-.03.04-.04.02 0 .01.04l-.03.03q-.02 0-.02-.03M9.1 4q-.02-.09 0-.06l.07.12q.02.1-.01.07zm-.38.15c0-.04.1-.09.13-.06a.04.04 0 0 1 .02.05c-.03.04-.15.04-.15 0zm1.8-.2q.06-.07 0-.09-.04-.02 0-.05.02 0 .03.02t.03.01q.07-.05-.01.1-.05.08-.07.07t.02-.07zm-.12-.06.02-.14-.06.1q-.05.1-.06.07c-.03-.06.05-.19.1-.17q.04 0 .11-.04.07-.05.07-.02t-.06.07-.07.13q0 .13-.05.14zm-1.42.07q0-.03.03-.03.04 0 .04.05 0 .04-.04.03zm1.67-.32q.08-.1.03.07-.04.1-.05.04a.1.1 0 0 1 .02-.11m-1.6.18q0-.02.03-.03t.03.05q0 .04-.03.03-.04-.01-.04-.05m1.3-.14c0-.04.06-.12.08-.1s0 .12-.04.13q-.03 0-.03-.03M9 3.64q-.03-.08 0-.06.05.01.04-.01 0-.03.04-.02.03.01.03.05 0 .03-.03.01-.04-.02-.01.08c.03.1-.03.07-.07-.05m1.48-.07q0-.03.04-.02.02.02.06-.04.08-.1.05.03c-.02.06-.14.08-.15.03m.2-.04q0-.03.05-.08l.06-.1q.02-.06-.04-.04-.04.02.04-.06l.11-.08c.02.01-.16.38-.19.38q-.02 0-.03-.02M9 3.26l-.18-.17-.14-.17q-.06-.05-.07-.11a.4.4 0 0 0-.1-.18.4.4 0 0 1-.08-.17.4.4 0 0 0-.1-.18c-.17-.22-.1-.24.39-.1a1 1 0 0 1 .44.24l.26.28.07.1-.11-.08-.14-.08q-.04-.01-.12-.13t-.09-.08l.04.08q.08.08-.07.06-.1-.01-.17-.14-.07-.12-.06-.08.05.11-.11-.01l-.2-.13q-.07-.02.12.13.2.16.2.19l-.12-.03q-.1-.04-.13-.03 0 .02.16.08t.2.1c.01.05-.06.06-.12.01q-.03-.03-.06-.01 0 .02.09.06.1.05.1.1.01.07-.04.01c-.04-.05-.2-.1-.17-.04l.1.02q.08 0 .02.03-.06.04.04.05.09.01.1.04 0 .03-.07.01-.04 0 .07.07c.15.12.17.14.13.2q-.03.03.05.07c.1.04.34.24.34.28q-.02 0-.19-.11zm0-.09q-.02-.04.03-.02.06.01.04-.01-.03-.03-.08-.02-.07 0-.03.05.08.07.04 0m1.64.23q0-.04.03-.04t.02.03l-.04.04zm-1.7-.01.06.05q.06.1-.02.03-.06-.05-.05-.08m-.84-.14q0-.04.02-.03t.03.05q0 .06-.04-.02m1.57-.35q.03-.1-.03-.03c-.12.1-.1-.32.03-.6l.06-.14.07.13c.1.2.12.32.06.46l-.06.13-.03-.15c-.02-.14-.03-.12-.04.14 0 .24 0 .25-.05.19a.2.2 0 0 1-.01-.13m-2.34.01q-.02-.04.1.06l.11.15c0 .04-.15-.11-.2-.21m2.7-.62q.04-.07.06-.04 0 .04-.03.11t-.05.04zm-.6.1.03-.03a.03.03 0 0 1 .04.03.03.03 0 0 1-.03.04.03.03 0 0 1-.04-.03m-.1.02.03-.03h.04q0 .05-.03.05t-.04-.02m-.07-.23q0-.04.03-.04t.03.03.07.08 0 .02q-.06-.01-.06.05 0 .07-.03-.02zm1-.16a1 1 0 0 0 .15-.44q0-.1-.05.07-.07.23-.13.19-.01-.03.03-.12.1-.22-.06.05-.14.23-.15.11l.05-.1c.06-.08.06-.15 0-.1l-.07.03q-.05-.01-.05.02t.04.02q.06-.03 0 .08-.03.05 0 .08.03.04-.06.15-.16.19-.05-.01c.05-.09.08-.25.04-.25-.05 0-.1.1-.08.13q.01.04-.01.1-.05.08-.02-.02 0-.06-.02-.07c-.06 0-.04-.04.11-.24q.24-.3.28-.57.02-.14-.06.08c-.04.1-.1.23-.15.28l-.15.19-.07.08V1.5c-.02-.27-.01-.3.08-.44l.1-.24Q10 .7 9.93.86l-.1.2c-.06.07-.06.05-.08-.27l-.02 1.07q0 .18-.03.2-.03-.01-.02-.22.01-.22-.02-.23-.03.02-.02.15l-.01.16c-.03.02-.2-.25-.32-.49l-.1-.17c-.03.04.12.36.36.76q.05.09.04.13-.02.03-.06-.04l-.1-.13q-.07-.08-.06 0 0 .03.04.04.03 0 .03.06t.05.07q.04 0 0 .06t-.04 0-.04-.06-.03-.05-.05-.03-.15-.16-.1-.12.04.13q.07.08.02.15-.04.07 0 .1.04.04.04-.05-.01-.12.04-.06.04.03 0 .1-.03.07-.02.1c.04.06-.04.03-.09-.03l-.1-.12q-.04-.06-.01.01t-.03.05c-.05-.01-.13-.34-.08-.37l.06-.26q.03-.22.09-.27l.11-.25Q9.23.8 9.3.8q.06 0 .16-.22.2-.44.25-.44c.03 0 .3.35.36.48q.06.12.1.1c.06-.03.15.15.2.39q.02.15.08.13.1-.02.1.39 0 .2.05.16c.05-.03.02.21-.03.27q-.04.04-.03-.08l.02-.12-.05.12-.13.2-.1.08-.02-.08q-.03-.09.01-.14zm.1.1.03-.08q0-.04.04-.04a.03.03 0 0 0 .03-.04q-.02-.08-.11.08c-.06.1-.06.16 0 .09m-1.26-.1-.06-.11q-.03-.03 0 .05l.05.1q.04.04.01-.04m.45-.32q-.01-.07-.05-.09-.02-.01-.03-.07 0-.07-.03-.07t-.03.03l.08.14q.11.2.06.06m.32-.14q.04-.05.03-.09t-.05.06q-.06.14.02.03m-.79.04-.03-.07-.01.07q0 .05.03.06t.01-.06m1.2-.14q.03-.07-.01-.02l-.02.06q.01.02.04-.04m-.23-.12.05-.14q0-.02-.07.09l-.04.14zm-.39.03-.06-.12-.1-.19q-.1-.2-.06-.04c.03.13.2.44.24.44zm.22.02.02-.06q0-.03-.04.01-.03.04-.02.06zM9.87.8V.74l-.03.04q-.02.1.03.01m.3 1.35c.04-.03.07.02.04.06q-.03.05-.04 0zm-.24.07c0-.06.15-.24.18-.2s-.08.17-.12.15q-.03 0 0 .03 0 .04-.02.06a.04.04 0 0 1-.04-.04m.21-.29c.02-.04.08-.07.08-.04 0 .05-.04.12-.06.1q-.02 0-.02-.06" style="fill:#000;stroke-width:.493961"/></svg>