<svg xmlns="http://www.w3.org/2000/svg" xml:space="preserve" id="svg39" width="15.8" height="57.47" viewBox="0 0 4.18 15.21"><path id="path12-5" d="M1.11 15.15a2 2 0 0 1-.78-.27c-.15-.13-.29-.52-.3-.85 0-.22 0-.4.04-1.12.01-.1.04-.26.08-.35.06-.15.06-.3 0-2.48a54 54 0 0 0-.14-3.66c-.02-.17 0-.23.07-.4.08-.16.1-.28.12-.55.02-.28.04-.36.12-.48q.1-.14.15-.45.06-.3.2-.56a9 9 0 0 0 .53-2.39q.02-.36-.03-.4c-.06-.08-.06-.34 0-.47.06-.11.06-.12-.01-.16S1.09.49 1.1.36q.06-.3.43-.35c.3-.03 1.12 0 1.22.06.16.1.28.5.14.5q-.05-.02.03.21c.06.19.06.21.01.35q-.15.42.2 1.93c.12.56.2.81.34 1.01.08.13.12.25.16.49s.08.36.17.5.12.2.12.42q0 .25.08.45c.15.4.16.45.11.61-.02.1-.05 1.14-.09 3l-.05 2.85.09.22c.04.12.08.3.08.38s0 .4.02.72c.02.5.02.6-.05.8a1 1 0 0 1-.17.35c-.13.14-.45.25-.88.3-.43.07-1.6.06-1.96-.01m1.53-.08c.78-.05 1.14-.17 1.28-.38l.05-.12-.22.07c-.36.16-.58.2-1.47.2-1.01.02-1.37-.03-1.8-.23q-.38-.2-.17.06c.17.24.7.37 1.75.43zM.97 14.9a1 1 0 0 1-.33-.1q-.1-.06-.04-.05.2.07.62.15.29.05.11.05zm2.5-.07c.27-.08.3-.08.18-.02l-.26.07q-.22.04.07-.05m-.13-.14c.17-.04.39-.11.48-.16.17-.08.18-.1.22-.28a1 1 0 0 0 .02-.35A7 7 0 0 1 4 13a1 1 0 0 0-.06-.31c-.06-.1-.07-.23-.06-1.43V9.95l-.14.02-.37.07a8 8 0 0 1-1.12.06c-.78.02-.92 0-1.32-.06-.55-.1-.51-.1-.53 0q-.01.11-.02-.02 0-.09-.06-.11c-.06-.02-.06.03-.04.57l.04 1.3c0 .59 0 .71-.06.83-.06.14-.1.67-.1 1.4 0 .37.05.44.37.54.56.2.82.22 1.7.22.68 0 .86-.02 1.11-.08zm-2.61-.24c.07-.04.15-.04.12 0q-.01.03-.1.04-.1 0-.02-.04m.4.01h.06q.02.03-.05.03-.06 0-.02-.03m.32-.03h.07q.01.02-.05.02t-.02-.02m1.48-.02q-.22-.04-.1-.04c.05 0 .18.02.29.05.22.06.1.06-.19 0M.97 14.4h.07q.03.02-.04.02t-.03-.02m-.63-.06L.3 14l-.01-.28.03.24.06.33q.03.15-.04.04zm.75.04c.05-.05.73-.1.8-.06q.08.04-.18.04zm-.63-.09c-.05-.15-.07-.47-.04-.49q.04.01.06.26.03.41-.02.23m.18-.07-.02-.2v-.18l.03.2c.03.2.03.22 0 .18m3.22-.18q0-.21.02-.11v.25q-.01.08-.02-.14m-.1.04V14v.18zm-3-.4c-.23-.04-.44-.1-.4-.13l.28.04c.53.11.6.15.12.08zm2.56.02.31-.04q.2-.03-.02.02c-.08.03-.22.05-.3.05h-.17zm-3-.35q0-.1.01-.06v.13zm.1-.01q0-.05.04-.06.03 0 .03.06t-.03.05-.04-.05m3.03-.08c.24-.06.24-.06.2-.02q-.06.03-.22.05l-.18.02zM.7 13.19l-.23-.07q-.02-.03.06 0l.39.07q.3.05.14.05zm-.04-.22q-.15-.06-.02-.03c.1.03.22.09.16.08zm-.28-.2q0-.16.03-.19c.03-.02.02.3-.01.33q-.02 0-.02-.15m2.95.08q.31-.1.28-.04l-.2.05q-.17.02-.08 0M.52 12.7q.02-.06.04-.07l.01.07q0 .07-.03.08-.04-.01-.01-.08m3.14-.83.03-1.04a22 22 0 0 1-.01 1.65zM.44 11.3c-.02-.62-.02-1.14-.01-1.15.02-.02.07 1.66.06 2 0 .16-.03-.22-.05-.85m.3.73-.02-.34v-.25l.04.25.02.34-.01.09zm2.77-.6.04-.77q.03-.16.02.52c-.01.4-.03.73-.04.76-.02.02-.02-.2-.02-.52m-2.9-.32q0-.32.02-.19v.38q0 .14-.02-.19m-.04-.66q0-.22.02-.11v.25q-.01.08-.02-.14m2.8-.5c.25-.03.47-.08.5-.1.03-.04.05-.4.06-1.46 0-.77.01-1.43.02-1.46.02-.08.01-.08-.22-.03a14 14 0 0 1-3.27-.03L.2 6.83c-.02.01.07 2.96.08 2.98.02.01.45.12.58.14.64.1 1.82.1 2.5 0zm-1.68-.23c-.31-.03-.8-.17-1-.3-.2-.1-.25-.28-.26-.91-.01-.58.03-.87.12-.96s.6-.24.96-.28a4 4 0 0 1 1.97.24c.2.12.25.3.23 1.04-.02.75-.04.82-.3.93a3 3 0 0 1-.94.24c-.44.03-.5.03-.78 0m1.22-.14c.34-.08.6-.23.67-.35.07-.14.1-1.1.03-1.38-.04-.2-.05-.21-.23-.3A3.7 3.7 0 0 0 .8 7.5c-.3.12-.32.17-.31.93 0 .74.04.83.3.96.11.06.32.13.48.16l.35.08c.16.04 1.07 0 1.28-.06m-1.95-.2q-.05-.04-.1-.03-.04 0-.13-.05l-.08-.07.08-.02q.08-.03.07-.08L.77 9q0-.07-.03-.07t-.02.05c.03.06-.03.1-.1.05q-.06-.03 0-.07.07-.04.01-.06-.05-.04-.03-.08l-.01-.15q-.03-.1 0-.1.04 0 .04.06t.05.05c.08 0 .07-.08-.01-.16q-.08-.07-.1-.01l.01-.23q.01-.02.08 0 .08.06.07 0T.7 8.21q-.05 0-.05-.07L.6 7.98q-.03-.1 0-.05c.05.06.16.03.16-.05q0-.05-.06-.1-.1-.1-.01-.15.04-.02.02 0-.02.04.03.1.06.1.05.01 0-.05.04-.06t.02.07L.8 8.1q-.04.3-.09.3t-.05-.04a.04.04 0 0 0-.04-.04c-.07 0-.03.07.05.11s.1.08.12.3c.03.32.08.47.18.58q.06.09.05.1-.02.02-.06-.03m-.22-.56q0-.05-.04-.07c-.04-.03-.08.06-.05.1q.07.05.09-.03m-.01-.79q-.08-.06-.04.09.02.11.05.02zm2.42 1.4.07-.12q.1-.1.11-.06.03.05.1-.01.07-.08 0-.05-.12.05-.08-.19.03-.17.08-.1.07.02 0 .06-.04.04-.02.06c.04.04.15-.08.12-.14q-.02-.05-.1-.06-.07.01-.07-.1-.01-.15.04-.01.12.22.13-.22.02-.28-.02-.26t-.02.11q.01.08-.02.09t-.03-.05q0-.04-.04-.03-.03 0-.04-.05 0-.05.03-.04.02 0 .02-.02 0-.04.07-.06c.08-.05.08-.14-.01-.14q-.07 0-.08.1-.02.13-.03-.02-.01-.13.07-.12.07 0 .07-.03 0-.04-.04-.04-.05 0 0-.04t.02-.05q-.03-.03-.02-.1l.01-.08-.06.08q-.05.08-.04.14c.05.11-.01.04-.07-.08l-.14-.2q-.14-.12.17 0 .15.07.2.14l.04.65c.02.62-.02.88-.13.93l-.17.08zm.36-.32q-.01-.04-.08-.04-.06 0-.05.03.02.04.08.04t.05-.03M3.36 7.7l-.04-.04q-.04-.01-.04.02t.04.03zM1.09 9.1c-.05-.02-.06-.06-.06-.32 0-.3 0-.3.08-.3q.1.01.07.13c-.02.16.08.16.16.01q.05-.1.13-.1c.07 0 .07 0-.02.1-.12.1-.12.13 0 .3.1.18.1.2.01.2q-.07 0-.13-.1-.18-.35-.15-.09c0 .17 0 .18-.09.16m.6 0c-.09-.05-.16-.23-.12-.34.11-.3.59-.24.59.07 0 .23-.22.36-.46.26M1.97 9c.06-.06.05-.26-.02-.32-.12-.12-.23-.03-.23.18q0 .18.15.19zm.26-.16c0-.27 0-.29.07-.29s.07.03.08.25v.25h.1c.18 0 .1.06-.08.07h-.17zm.42.26a1 1 0 0 1 .09-.28c.13-.32.2-.33.32-.03.14.35.14.34.03.34q-.11.01-.1-.1.02-.1-.1-.08-.12 0-.13.09-.05.13-.1.06m.26-.25c0-.03-.07-.14-.07-.1l-.02.07q-.02.06.03.06t.06-.03m.54-.2q0-.05.03-.05l.01.05q0 .05-.03.05-.04 0-.01-.05m-.08-.1q.02-.06.04-.06l.01.05q0 .05-.03.06t-.02-.06m-2.26-.2v-.3c.01-.29.02-.3.1-.3s.07 0 .07.29 0 .3-.08.3q-.07.03-.09.01m.33 0-.03-.28c0-.24 0-.26.07-.26q.07 0 .2.16l.12.17v-.17c.02-.27.09-.18.09.12a1 1 0 0 1-.03.29l-.2-.19L1.48 8l.01.17q.02.25-.05.18zm.72 0q-.18-.07-.17-.28 0-.26.3-.26.15 0 .14.06t-.06.02q-.08-.04-.15.02c-.17.11-.04.43.17.38q.1-.02.08.03c-.02.05-.2.07-.31.03m.38.01a1 1 0 0 1 .07-.28c.07-.22.1-.26.17-.26.06 0 .09.04.15.22.05.12.1.25.1.28q.04.07-.06.04-.1-.02-.1-.1-.01-.07-.12-.08-.1-.03-.12.1-.03.15-.1.08m.26-.27L2.78 8q-.04-.06-.06.01-.04.14.03.13.05 0 .06-.05M.64 7.86Q.6 7.82.63 7.8l.04.04q.02.1-.03.02m.18-.24q-.12-.04.1-.1.14-.02.06.06c-.05.08-.06.08-.16.04m2.59-.79.5-.05.07-.21.06-.2-.1-.23a2 2 0 0 1-.12-.58c-.02-.28-.04-.37-.11-.45q-.16-.22-.21-.6a1 1 0 0 0-.13-.38q-.18-.33-.31-.9l-.12-.48-.13-.82c-.08-.6-.08-.62-.02-.8.06-.17.06-.2.01-.31L2.75.67 2.74.59c0-.03-.67-.06-.98-.05h-.23l-.2.01-.04.18c-.12.43-.07.48.5.52.35.02.4.03.24.03-.32.02-.42.02-.57 0l-.13-.03-.02.4a10 10 0 0 1-.2 1.33c-.01.07 0 .08.17.06L1.56 3q.12-.01.06.02l-.17.04q-.14-.01-.03.04c.13.08 1.43.06 1.35-.02a2 2 0 0 0-.45-.06L1.89 3l.5.01c.5.01.64.05.56.13-.1.09-1.12.12-1.52.04-.08-.02-.1 0-.15.24-.03.14-.08.27-.1.3q-.04.03-.01-.08l.05-.14.05-.18c.02-.13 0-.15-.08-.19l-.1-.03-.13.42a3 3 0 0 1-.22.58 1 1 0 0 0-.14.43 1 1 0 0 1-.2.58c-.07.1-.08.17-.08.4 0 .14-.03.32-.05.39-.17.42-.17.43-.13.63.02.1.06.2.09.2l.62.09c.14 0 .26.03.27.03.05.05 1.83.03 2.29-.02M.29 6.66q0-.06.02-.02.02.05 0 .07-.02.01-.02-.05m.26-.01C.34 6.6.21 6.52.41 6.56l.51.07.37.05h-.3zm2.74.02c.12-.04.52-.07.48-.04a1 1 0 0 1-.3.05zM.4 6.4q0-.08.03-.05v.1Q.4 6.47.4 6.4m-.12-.07.05-.16q.04-.03.01.09l-.06.15q-.03.04 0-.08m3.48.08q0-.07.02-.02v.06q-.02.02-.02-.04m.11-.04q0-.06.02-.02.01.05 0 .07-.02.01-.02-.05m-3.3-.2L.34 6.1q-.02-.03.03-.01l.26.04q.19.03.2.06c0 .04.01.04-.25-.02m2.66.02c.24-.03.47-.04.5-.04.15.02-.4.1-.67.09-.27 0-.26 0 .17-.05M.39 6l.06-.22.05-.2-.01.18c-.01.1-.04.2-.06.21zm.2-.14V5.8q.03.07 0 .13zm2.96.06-.02-.18q0-.1.04.05c.04.15.02.27-.02.13m.11 0-.02-.2q-.01-.15.04.04c.04.16.03.3-.02.16M.93 5.56h.29c.08.01 0 .02-.16.01q-.25 0-.13-.01m2.33.02h.07q.03.02-.04.02t-.03-.02M.48 5.51l-.07-.03h.07l.18.03.11.03h-.1zm2.98.04h.11q.04.01-.06.01t-.05-.01m.13-.26q-.05-.13-.03-.15c.04 0 .12.17.1.23q0 .05-.07-.08m-3.1 0c.03-.13.09-.2.07-.1l-.02.13q0 .05-.04.05t-.02-.08m.38-.2-.22-.06c-.02-.03.33.02.47.06s.01.04-.25 0m2.27 0h.11l-.06.01q-.1 0-.05-.02M.71 4.67c.01-.26.06-.48.09-.44.01.01-.03.3-.08.58q-.03.14-.01-.14m.1.1q.05-.27.05-.04 0 .12-.04.15t-.01-.11m2.47-.2q0-.15.01-.09v.16l-.01-.08M.86 4.41q0-.07.03-.1.07-.04 0 .1-.04.12-.03 0m2.48-.05-.06-.13q-.02-.03.01-.01c.04.02.13.24.1.24zm-.13-.04q-.03-.07.02-.02.04.05.03.07-.02 0-.05-.05m-2.07-.19h.09q.03.02-.04.02t-.05-.02m1.92-.34-.05-.17-.06-.21q-.06-.16-.04-.19c0-.01.07.14.13.33.11.36.13.49.02.24m-2-.13.14-.46c.03.03-.13.6-.17.62zm.36-.91.02-.18q.04-.15.03-.02l-.03.18q-.02.1-.02.02m-.1-.16c.04-.29.09-.44.06-.2l-.05.28q-.03.08 0-.08m.32-.3c.01-.2.03-.38.05-.4.03-.07 0 .4-.04.61q-.02.12 0-.21m-.17 0q0-.07.03-.03v.07q-.03.02-.03-.05m1.24-.07q0-.06.02-.02.01.05 0 .07-.01.01-.02-.05m-.05-.32-.02-.44q0-.18.04.2c.03.44.02.63-.02.24m-1.14-.04v-.12l.01.25zm-.12.09q0-.11.02-.06V2q-.01.04-.02-.06m1.17-.08q0-.12.02-.06v.14q-.02.04-.02-.08m-1.13-.2q0-.12.02-.07v.13q-.02.04-.02-.07M2 1.13h.11q.04.02-.06.02T2 1.13m.04-.07h.13q.04.02-.07.02t-.06-.02m-.65-.1A.3.3 0 0 1 1.4.79q.04-.11.04.09 0 .27-.05.08M2.7.95q.05-.27.05-.04 0 .12-.04.15-.02.01-.01-.11M2.6.94q.03-.1 0-.13-.01-.03.02 0c.05.02.03.23-.02.23zM1.51.82q0-.11.01-.06v.12zM1.48.4q0-.07.07-.08.1-.03 0 .03-.08.06 0 .1.05.06.11 0 .05-.04.04-.1c-.04-.08.04-.04.08.05.06.12.2.11.22 0q0-.1.1-.08.15 0 .02.02-.15.03 0 .12c.09.04.2-.02.16-.1q-.01-.05.04-.04.06 0 .04.05-.02.1.13.13.08.01.05-.1-.02-.07 0-.08.04 0 .06.08 0 .09.14.08.13.01.14-.01L2.8.3C2.7.12 2.57.1 1.89.1c-.53.02-.6.03-.6.18l-.03.14q-.05.07.1.05.13 0 .12-.07M1.35.37q0-.07.03-.02v.07q-.03 0-.03-.05M1.8.36q0-.04.05-.04t.06.02l-.06.03Q1.8.38 1.8.36m.9 0q.01-.02.05-.03.03 0 .01.04L2.72.4z" style="fill:#000;stroke-width:.352276"/></svg>