<svg xmlns="http://www.w3.org/2000/svg" xml:space="preserve" id="svg39" width="63.76" height="50.57" viewBox="0 0 16.87 13.38"><path id="path13-8" d="M7.22 13.33a8 8 0 0 1-4.18-2.08A9.3 9.3 0 0 1 .38 6.12 3 3 0 0 1 .5 4.45c.1-.22.06-.28-.27-.29-.48 0-.14-.34.43-.42q.55-.08.48-.53c-.04-.27.08-.55.27-.6.24-.05.32-.2.2-.34q-.2-.25-.01-.49c.07-.08.08-.15.03-.29-.16-.41.24-.88.73-.85.2 0 .3.06.53.3.3.3.42.32.6.05.16-.26.53-.18.64.13q.02.1.12 0c.15-.14.44-.09.51.1.09.23.33.17.33-.08C5.1.81 5.47 0 5.62 0c.02 0 .05.22.08.49.05.62.09.74.25.7.13-.05.4-.08.6-.09.07 0 .22-.1.33-.24.2-.22.24-.23.53-.2s.32.02.47-.21C8 .25 8.1.19 8.39.1c.52-.14.79-.04.9.33q.07.28.28.37l.36.24c.1.08.33.15.54.18l.38.05v-.2c0-.52.27-.75.68-.56.24.1.24.1.3-.06q.06-.17.06-.23c0-.04.1-.1.2-.16.32-.17.59.07.59.52 0 .2.01.21.21.18l.4-.07c.32-.08.49.25.3.6-.06.12-.04.17.21.4.25.21.29.29.3.52 0 .16.02.3.04.32s.14-.02.26-.1a1 1 0 0 1 .3-.12c.14 0 .35.27.35.44 0 .14.03.17.17.18.09 0 .28-.06.42-.13.62-.31 1.1.07.84.66q-.07.16-.12.17-.06.01-.12.13c-.06.1-.03.16.22.34.44.32.55.87.2 1.14-.12.1-.14.2-.17.82a8 8 0 0 1-2.25 5.1 7 7 0 0 1-2.3 1.62 6 6 0 0 1-3.24.6c-.7-.01-1.37-.03-1.48-.05m3.37-.34a7 7 0 0 0 3.54-2.04 8 8 0 0 0 1.97-3.72c0-.03-.12.07-.24.22a7 7 0 0 1-3.2 1.9c-2.52.69-4.8.7-7.51.06A8.2 8.2 0 0 1 .76 6.9a8 8 0 0 0 .68 1.8 8.4 8.4 0 0 0 3.06 3.37 7.6 7.6 0 0 0 4.36 1.1 6 6 0 0 0 1.73-.19m-3.8-.28q.08-.03.12 0 .02.04-.09.04-.12-.01-.04-.04m-.88-.2a4 4 0 0 1-1-.45c.01-.01.18.04.37.12.2.08.59.23.88.32.3.1.46.18.37.17s-.37-.08-.62-.17m5.37 0c.28-.09.53-.14.54-.13.04.04-.73.29-.9.28-.1 0 .06-.07.36-.16m-6.16-.59q-.13-.06-.03-.06t.2.07c.11.08.01.08-.17 0m-.6-.2a4 4 0 0 1-.81-.48c0-.02 1.18.53 1.24.58.07.07-.19 0-.42-.1m7.95.15.33-.13.16-.04-.16.09-.33.13-.16.04zm-.38-.08c.05-.05.93-.36.95-.33.03.03-.8.36-.9.36q-.08 0-.05-.03M4.6 11.3q.08-.03.13 0 .02.04-.09.04t-.04-.04m-.48-.17q-.23-.12-.2-.13c.1 0 .61.26.53.27a1 1 0 0 1-.33-.14m8.64.1c.83-.37 1.23-.52 1.08-.4-.09.07-.4.21-.67.32-.53.2-.75.24-.4.09m-9.38-.47q-.7-.43.05-.06.53.29.34.28c-.03 0-.2-.1-.4-.22m.58-.02-.39-.18q-.13-.06-.12-.1c.02-.02.22.06.45.18s.39.2.35.2c-.03 0-.17-.04-.3-.1m8.75.2c.07-.08.63-.28.67-.24q-.01.03-.26.13c-.45.18-.48.19-.41.1m.75-.28.49-.26c.25-.13.4-.2.33-.13a4 4 0 0 1-.8.41q-.04 0-.02-.02M2.92 10.2c-.16-.1-.27-.17-.25-.17.07 0 .58.27.58.32s0 .04-.33-.15m.11-.24a3 3 0 0 1-.5-.31c0-.03 1.04.51 1.1.58.1.09-.16-.03-.6-.27m10.69.27.65-.36.3-.17-.2.17c-.2.17-.94.56-1.05.55-.03 0 .1-.09.3-.2M3.38 9.78c-.3-.17-.19-.16.16 0 .14.08.22.14.16.14a1 1 0 0 1-.32-.14m10.01.25.16-.06q.05 0-.03.06l-.16.06q-.05 0 .03-.06m.62-.28a8 8 0 0 0 .88-.52q.13-.08 0 .05c-.11.12-1.1.7-1.2.69-.04 0 .1-.1.32-.22M2.83 9.52c-.25-.15-.22-.2.04-.05q.35.18.2.16zm.7-.05q-.24-.12-.02-.06c.18.06.39.17.29.17zm-1.35-.35q-.29-.2-.28-.24c.03-.03.69.4.69.44 0 .06-.11 0-.41-.2m.5-.04a5 5 0 0 1-.75-.5l-.23-.2.3.2c.16.11.53.34.82.5s.49.29.45.29c-.05 0-.31-.13-.6-.3m1.05.17a9 9 0 0 1-2.36-1.41c-.07-.08.07 0 .3.18.47.36 1.28.82 2 1.13.67.28.7.35.06.1m10.49.05.75-.44q.33-.23.32-.18c0 .07-.98.7-1.27.82q-.73.31.2-.2m-.28-.2c.42-.2.92-.49 1.1-.63q.71-.52.34-.16a8 8 0 0 1-2.13 1.17c-.05 0 .27-.17.69-.38m-4.17.57c3.47-.24 6.05-1.6 6.53-3.42.1-.43.06-.9-.09-.84l-.16.04c-.03 0-.06.13-.05.3 0 1.16-1.27 2.36-3.15 2.98-1.47.48-2.62.62-4.45.57a12 12 0 0 1-4.17-.72 6 6 0 0 1-2.49-1.5c-.7-.7-.97-1.46-.78-2.19.08-.34.08-.35-.07-.46-.15-.1-.16-.1-.21.06-.34.9-.15 1.8.55 2.59.96 1.1 2.82 2 4.9 2.37 1.24.22 2.52.3 3.64.22m-1.57-.64a3 3 0 0 0-.42-.3l-.48-.3c-.08-.08-.16-.09-.33-.04-.35.1-.53.07-.72-.13a1.4 1.4 0 0 0-.5-.28l-.52-.18c-.28-.12-.57-.03-.6.18-.01.12-.06.15-.25.14A1 1 0 0 1 3.91 8c-.13-.06-.25-.1-.27-.07q-.04.02-.12-.04-.08-.08-.12 0c-.04.07.05.12.78.4q.44.15.5.1.04-.04.16.09.13.15.15.06.02-.1.16.04c.14.13.14.12.1 0q-.1-.2.1.01.39.35.05-.1a1 1 0 0 1-.2-.38c0-.12.02-.11.2.06.2.22.27.39.08.23q-.08-.06.04.1.16.17.2.15.03-.03.12.05c.13.12.82.2.92.13q.09-.08.04.04c-.06.17.08.13.16-.04q.11-.22.04 0c-.03.13 0 .15.31.18.72.07.91.07.88 0zm-2.56-.47q-.03-.06.03-.07.06 0 .07.07 0 .06-.03.07-.03 0-.07-.07m3.8.46c.55-.14.81-.28.95-.5s.16-.45.06-.45q-.06.02-.19.22c-.13.24-.53.46-.92.52q-.25.04-.1-.02.18-.06-.07-.1-.15-.02.13 0 .36.03.2-.04-.18-.1.01-.04a.4.4 0 0 0 .26-.06q.11-.08.07-.09c-.02 0 .09-.14.25-.3q.48-.5.54-.07c.03.22.48.56.76.56.19 0 .23-.03.52-.44.12-.19.41-.22.56-.07q.1.1.12 0c.02-.05.1-.17.18-.27l.14-.17.3.13c.17.07.34.17.37.24.06.1.08.1.3-.01.26-.14.29-.2.11-.27a1 1 0 0 1-.34-.28l-.23-.23-.23.11a2.7 2.7 0 0 1-1.55.22c-.66-.05-.73-.04-1.03.11a6 6 0 0 1-1.48.38c-.07 0-.37.12-.66.26l-.53.27.17.17.17.18.32-.3q.5-.48.87-.3.24.08-.1.06a1 1 0 0 0-.57.21c-.3.2-.42.37-.2.29l.27-.07q.22-.04-.03.05-.2.08-.26.13c-.08.09.45.07.85-.03m1.6-1.13.13-.18q.05-.02-.04.13c-.13.2-.2.23-.1.05M10.53 9c.33-.03.65-.08.72-.11q.2-.04-.13-.13a2 2 0 0 1-.39-.18c-.1-.09-.14-.08-.3.09-.1.1-.31.22-.46.28-.35.11-.2.13.56.05m1.5-.3a.14.14 0 0 0 .15-.1q.04-.12.1-.02c.04.07.08.08.23.01.18-.08.16-.13-.12-.26-.16-.08-.19-.07-.32.13q-.12.18-.1.1c.05-.19-.05-.15-.14.04q-.07.18 0 .12a.3.3 0 0 1 .2-.03zM8.3 8.3c.3-.17.36-.23.27-.27-.06-.02-.2 0-.32.06-.2.1-.24.1-.66 0-.66-.18-1.04-.41-1.28-.79a1 1 0 0 1-.21-.47c0-.2.21-.46.45-.56.38-.15 1.1.07 1.48.45q.13.11.18.09.2-.16-.4-.41l-.7-.37c-.3-.18-.54-.2-.84-.08-.51.22-.69.73-.43 1.27.2.42.84.94 1.17.95.14 0 .36.08.5.18s.3.17.33.17.24-.1.46-.22M6 7.22a1 1 0 0 1-.1-.43q0-.32.07.07c.03.17.1.34.14.4q.06.09.04.13-.05.02-.14-.17m-.03-.72q0-.08.09-.2.09-.11.1-.06l-.1.2q-.09.1-.1.05m-.64 1.69q-.07-.07-.07-.01c0 .09.08.17.12.13q.03-.04-.05-.12m7.6.18q.05.03.05-.06c0-.1-.12-.23-.16-.18l-.07.22q-.06.26.05.09.09-.1.14-.07m-6.42-.28a3 3 0 0 1-.47-.4c-.28-.3-.36-.3-.11 0 .28.32.64.62.7.57q.06-.05-.12-.17m6.66.17c0 .11.1.04.11-.1q.02-.11-.11-.06-.12.03-.13-.05 0-.08-.03-.05c-.02.02-.02.13 0 .23q.06.25.1.06.06-.11.06-.03m-4.84-.31-.13-.2q-.12-.15-.1-.22c.06-.1-.08-.08-.16.03q-.09.1-.15.1-.05-.02.1-.2c.15-.15.16-.2.09-.26s-.16-.02-.42.18a2 2 0 0 1-.38.26c-.03 0 .1-.12.29-.26s.33-.28.33-.3q0-.11-.43.2l-.32.24.3-.27c.38-.35.22-.35-.24 0-.2.15-.37.26-.38.24-.02-.01.15-.16.36-.31.32-.24.37-.3.29-.35a.2.2 0 0 0-.2 0 .2.2 0 0 1-.21.04q-.1-.05-.07 0T6.86 7c-.1.1-.19.11-.12.01q.05-.07-.1 0-.26.15-.15.28.07.08.29-.09c.27-.2.46-.3.25-.12l-.28.22q-.27.19.27.45c.47.23 1.32.35 1.32.19m-.52-.08q0-.07.06-.1.06-.04.03.06-.09.17-.1.04zm-.3-.27q.05-.08.25-.22l.2-.15-.12.15c-.14.17-.4.34-.34.21m-.96-.44q.08-.08.12-.05.02.04-.08.09-.14.05-.04-.04m.64-.25q.04-.05.1-.06t.03.07q-.04.05-.1.06t-.03-.07m-4.03.74c-.2-.15-.22-.16-.24-.06-.03.13.1.25.23.2q.08-.02.08.04.01.06.07.03.05-.05-.14-.21m1.06.02a1 1 0 0 0-.41-.06q-.05.03-.05-.04t-.07-.03q-.06.02-.06-.02-.02-.06-.23-.19c-.35-.2-.81-.71-1.02-1.13-.11-.21-.2-.33-.2-.26 0 .28.69 1.34.89 1.34.04 0 .12.05.16.1.12.16.6.4.7.37q.08-.02.09.03c0 .09.28.12.43.05.1-.06.07-.08-.23-.16m5.28.2a3 3 0 0 0 1.63-.72c.44-.36.6-.62.6-.91 0-.17-.02-.15-.17.16-.2.41-.46.63-1.23 1-.82.39-1.55.49-1.96.27q-.15-.1-.04.02c.04.05.18.13.3.18.18.07.32.07.87 0M2.84 7.5c0-.05-.1-.21-.23-.35a1 1 0 0 1-.23-.31q0-.05-.07-.02c-.12.07-.06.4.1.57.14.14.18.15.27.07q.14-.13.06.07-.04.15.03.11.06-.05.07-.14m2.9.14q-.02-.1-.16-.03-.24.13.04.13.17.01.12-.1m-.26-.14c.12-.05.15-.4.04-.47-.03-.02-.16 0-.27.07-.3.15-1 .07-1.46-.17A2.2 2.2 0 0 1 2.8 5.8c-.15-.45-.13-.6.1-.83.17-.18.22-.2.47-.15.3.06.5.21.5.4q.02.13-.18.12c-.25-.01-.28.04-.17.26.2.4.83.75 1.24.68.19-.04.23-.07.23-.2 0-.23.26-.29.59-.13.23.12.4.11.4 0s-3.4-1.8-3.49-1.75c-.03.02-.1.17-.16.33-.25.66.02 1.63.6 2.2.34.32.98.67 1.42.78.3.07.93.06 1.13-.01m4.37-.03c1.18-.37 2.12-1.41 1.6-1.77-.4-.28-1.08-.22-1.91.18-.63.3-.96.57-1.18.96-.43.75.22 1.02 1.5.63m-1.25-.1q-.38-.25.2-.8.6-.58 1.41-.78.7-.16.95.13c.36.41-.52 1.2-1.63 1.47-.5.12-.74.12-.93-.02m.45-.25q.01-.43-.25-.05c-.15.21-.13.27.1.28.12 0 .15-.03.15-.23m.66.07c.21-.06.38-.13.38-.16s-.07-.16-.16-.3c-.1-.14-.15-.28-.13-.32q.04-.05-.08-.04-.11.04-.1.12.02.08-.1.04c-.18-.08-.35.14-.34.47s0 .33.53.19m-.24-.37c.14-.14.26-.26.28-.26l-.19.27c-.11.14-.24.26-.28.26-.03 0 .05-.12.19-.27m-.6 0a3 3 0 0 1 1.72-.83c.22-.01.41 0 .44.05q.01.06-.24.05c-.23-.01-.28 0-.28.11q0 .13.09.16t.04-.1q-.05-.15.03-.02.05.1.04.15t.03.09c.06.04.15-.14.1-.22q-.01-.05.06-.05.1-.01.03.17l-.06.18.14-.16c.17-.2.16-.32-.04-.46-.5-.34-2 .3-2.36 1.01-.13.27-.07.24.27-.13m1.48.07-.2-.22c-.2-.2-.2-.12 0 .12.08.1.2.17.2.1m.4-.2a1 1 0 0 0-.2-.22c-.11-.1-.2-.22-.2-.27 0-.1-.12-.13-.25-.04s-.04.3.2.51c.15.14.22.17.32.11q.12-.06.13-.1zm3.7.88a2 2 0 0 0-.23-.86q-.06-.02-.2.15c-.13.19-.13.2-.01.24.11.04.4.32.33.31l-.27-.13c-.24-.13-.5-.14-.5-.01q.02.07.2.22c.34.26.6.3.68.08m-2.65-.19q0-.1-.09-.08a.4.4 0 0 1-.21-.02.3.3 0 0 0-.25.03c-.11.08-.1.09.16.12l.34.04q.04 0 .05-.09m.2.03q0-.09.06 0c.08.07.4.04.39-.04q.02-.04.15-.02c.2.05.95-.3 1.23-.56.33-.32.48-.57.6-.98.12-.43.13-.48.04-.48q-.07.01-.07.16c0 .22-.3.77-.55 1.02-.34.33-1 .6-1.78.75-.19.03-.3.23-.14.23q.05 0 .06-.08zm2.74 0q0-.05-.06-.02a.1.1 0 0 0-.07.1q0 .07.07.03a.1.1 0 0 0 .06-.1m-12.8-.9q-.12-.15-.1 0c0 .07.04.2.09.3l.08.2.02-.2a.4.4 0 0 0-.08-.3zm3.37.45a.5.5 0 0 0 .24-.32c.06-.2.05-.25-.05-.34q-.11-.1-.13-.2 0-.05.12.04.21.2.21.06c0-.11-.39-.3-.53-.25q-.11.04-.12.19c0 .2-.3.33-.6.27a2 2 0 0 1-.93-.58c-.14-.18-.22-.22-.34-.2q-.14.02-.2-.04-.02-.07.1-.07.14 0 .17-.11t.27-.13q.45 0 .16-.22a.6.6 0 0 0-.72-.04c-.2.14-.19.51.03.96.32.66.93 1.03 1.72 1.06.24 0 .49-.02.6-.08m-1.06-.1c-.03-.03-.05-.13-.05-.22 0-.18.15-.17.19.02.02.14-.07.27-.14.2m.51-.19c-.06-.16-.05-.16.1-.16q.11 0 .12.03c0 .08-.08.24-.13.24q-.04-.01-.09-.11m-.97-.03q-.03-.04.05-.14.08-.09.05-.17-.03-.06.03-.02t.04.18q-.07.23-.17.15m1.42-.06q-.02-.05.04-.06t.04-.1q-.18-.42.01-.14c.08.12.14.23.14.25 0 .08-.19.12-.23.05m-1.8-.28q.01-.04.1-.14c.13-.13.21-.06.1.08-.08.1-.2.14-.2.06m-.26-.44q.01-.06.13-.06t.13.03q-.01.02-.13.05-.12.02-.13-.03m-.07-.73q.01-.05.24-.02.51.1.03.1c-.15-.01-.27-.04-.27-.08m11.85 1.72c0-.14-.1-.1-.18.08a.5.5 0 0 0-.03.28q.04.15.13-.08c.04-.1.08-.24.08-.28m-8.31-.2c.19-.28.2-.3.05-.25q-.37.11-.37.44c0 .24.06.2.32-.18m6.21.3c.82-.32 1.24-.71 1.42-1.33q.28-.94-.66-1.44c-1.08-.58-2.85-.03-3.46 1.1-.11.2-.11.2 0 .21.07 0 .28-.18.47-.4.9-1.04 2.66-1.17 3.21-.23.5.84-.46 1.93-1.77 2q-.37.03-.49.17c-.11.13-.11.13.4.1.29-.02.67-.1.88-.18m-4.96-.24c-.26-.22-.77-.44-.83-.35-.03.06.22.2.35.21.03 0 .18.1.34.2.36.26.45.22.14-.06m7.28 0c-.05-.14-.15.03-.15.25v.17l.1-.17q.07-.16.05-.25M1.79 6.5q-.01-.12-.1-.17-.15-.08-.06.18c.06.15.16.14.16-.01m10.63.16c.18-.05.42-.13.54-.19.2-.1.2-.12.14-.33-.16-.47-.41-.59-.95-.44-.2.05-.35.1-.35.12l.07.23c.05.16.05.26-.03.44l-.1.24h.18c.1.01.32-.03.5-.07m.11-.38q0-.15.03-.08a.3.3 0 0 1 0 .17q-.02.05-.03-.09m2.41.13c.38-.1.5-.24.54-.66.05-.4.14-.55.33-.53.37.04.56 0 .72-.15.3-.29.23-.52-.35-.97-.23-.19-.22-.3.07-.57.47-.45-.02-.97-.57-.6-.22.14-.65.16-.73.04l-.05-.22a.3.3 0 0 0-.13-.21c-.17-.11-.3 0-.58.48-.28.5-.27.49-.46.5q-.13.01-.13.1.01.08-.05.17c-.09.1-.03.23.12.23q.1.02.06-.2-.04-.18.02-.2c.04 0 .07.11.07.25 0 .19.04.28.13.35.19.12.24.07.28-.31.03-.19.09-.45.14-.6.1-.25.1-.24-.01.33q-.06.38.15-.01.1-.18.14-.17c.01.02-.08.24-.2.48-.33.61-.27.76.15.34.18-.18.3-.34.3-.37-.06-.09.16-.5.31-.6q.2-.12.03.05l-.2.34-.12.22.31-.23c.3-.23.8-.52.8-.46a6 6 0 0 0-1.57 1.36c-.1.2.07.4.26.32l.27-.04q.07.01-.12.08c-.23.08-.23.09-.23.48s.01.4.2.44q.31.06-.05.05c-.2 0-.24.03-.24.14 0 .08-.05.21-.1.3q-.1.17-.07.27.03.14.17-.03c.07-.07.25-.16.4-.2zm-.01-.72q.08-.03.12 0 .03.05-.08.04t-.04-.04m.19-.47q.08-.02.13.01.03.04-.1.03-.1 0-.03-.04m.06-.17q.08-.09.16 0 .1.1-.08.09-.17 0-.08-.09m-.6-.27c.06-.1.68-.25 1-.24.29.02.28.02-.16.1-.25.04-.54.1-.64.14-.22.09-.26.09-.2 0m.48-.36c0-.04.41-.29.48-.29.04 0-.05.08-.18.17-.24.16-.3.19-.3.12m.56 2c.17-.35.24-1.06.1-.97-.03.02-.05.15-.05.29 0 .24-.04.4-.23.74q-.09.16-.12.06-.03-.07-.04.06c-.01.27.17.17.34-.19m-14.1-.17L1.45 6q-.07-.13 0-.36C1.54 5.4 1.5 5 1.39 5c-.03 0-.07.11-.1.25q-.03.22-.07.17a1 1 0 0 1 .03-.3q.07-.24-.02-.36c-.09-.12-.1-.11-.16.06-.1.27-.09.4.03.31.08-.06.08-.04.02.15-.08.27 0 .8.09.65q.06-.11.06.08c0 .17.1.34.21.34q.05-.01.05-.1m-.2-.74q.01-.12.05-.04.03.08 0 .13-.04.03-.04-.1zm7.23.85c.1-.15.1-.18.02-.33q-.15-.2-.82-.44-.08-.02-.07-.06.05-.02.25.04.5.16-.04-.2c-.17-.11-.29-.2-.25-.2.12 0 .67.4.94.68q.25.28.32.21l.29-.18q.21-.12.2-.25a2.3 2.3 0 0 1 .07-1.1q.1-.23.07-.06l-.07.37q-.04.26.04.05.06-.13.1-.15.02.02-.03.15c-.1.27-.13.62-.07.7.1.17.38 0 .51-.32.07-.16.22-.4.34-.53l.2-.24-.18-.1q-.27-.14-.38-.57a.3.3 0 0 0-.18-.2c-.12-.04-.2 0-.38.23-.21.25-.25.27-.56.26l-.58-.01-.53-.04c-.23-.02-.26 0-.28.15-.04.43-.06.45-.4.49q-.64.07-.65.58 0 .36.4.5c.08.02.28.12.42.2s.42.22.6.28c.2.07.37.16.39.2.06.1.19.06.3-.11m-.88-.52-.16-.06h.16a1 1 0 0 1 .3.06l.13.06h-.13zm1.01-.53.08-.3q.05-.1-.05-.08c-.11.04-.32-.06-.32-.16q0-.06.1 0 .12.05.24.03c.15-.04.16.2.02.49q-.14.3-.06.02M7.31 5.1q-.13-.06-.03-.07.1 0 .2.07c.11.08.01.08-.17 0m.65 0c-.17-.1-.29-.27-.29-.4q0-.1.04-.01.03.07.1.05.04-.02.12.1c.03.07.11.18.17.24q.16.19-.14.02m-.07-.23q-.04-.1-.07-.07-.02.03 0 .1.12.17.07-.03M2 6.12a3 3 0 0 1-.07-.64c-.02-.6-.14-.83-.61-1.15q-.28-.19-.19-.2c.07 0 .3.18.5.4.37.35.4.37.4.21 0-.23-.24-.52-.56-.68a1.7 1.7 0 0 0-1.05-.09c-.1.04-.05.07.23.19.7.27 1.24 1.1 1.01 1.55q-.17.33.13.45.32.15.21-.04m11.5-.08c0-.06-.27-.16-.31-.11-.02.01 0 .1.04.18q.08.16.17.07t.1-.14m-7.15-.37c-.03-.07-.13-.14-.2-.14-.2 0-.77-.34-.85-.5a.5.5 0 0 1-.04-.3c.04-.16.67-.67.74-.6q.04.05.01.07l-.3.2c-.27.17-.4.4-.32.6.05.14.52.39.73.4.15 0 .17-.03.17-.24s-.02-.23-.2-.24q-.22-.01-.24.13-.04.13-.1.13-.13 0 .06-.22c.11-.12.1-.12-.05-.09q-.14.03-.08 0 .07-.04.04-.13c-.03-.08-.01-.08.15 0q.36.23.66 0c.1-.07.32-.14.49-.16s.3-.06.3-.09c0-.12-.18-.29-.42-.38Q6.64 4 6.8 4a1 1 0 0 1 .3.06c.14.05.2.04.28-.06.11-.13.11-.13-.14-.14a1 1 0 0 1-.38-.07c-.19-.08-.03-.14.2-.08.26.08.53.04.58-.09.06-.16-.21-.66-.47-.87-.25-.2-.25-.2-.31 0-.06.19.18.42.31.3q.11-.09.07.05c-.02.07 0 .22.07.33q.08.17.07.23h-.05l-.13-.24c-.13-.25-.68-.68-.78-.62q-.07.06-.04.3c.03.24.02.26-.09.18q-.23-.15-.3-.7c-.04-.24-.02-.3.1-.36.49-.26 1.71.77 1.62 1.37q-.03.22.05.22a1 1 0 0 1 .27.1c.1.07.2.1.21.09a1 1 0 0 0-.09-.32C7.63 2.36 6.5 1.64 5.28 1.87c-1.2.23-1.61 1.59-.82 2.77.25.38.53.59 1.22.9.63.3.79.33.68.13m-.33-.41q0-.06.07-.07a.1.1 0 0 1 .07.07q0 .06-.07.07a.1.1 0 0 1-.06-.07m-1.38-.54q-.14-.17-.12-.2c.01-.02.1.05.17.17q.27.38-.05.03m.85 0q0-.08.06-.11.07-.03.07.02a.1.1 0 0 1-.06.11q-.07.03-.07-.03m1.36-.35q-.16-.1-.18-.16.02-.05.22.08c.34.21.3.29-.04.09m-2.12-.22c-.2-.23-.21-.97-.02-1.34.18-.38.5-.58.73-.47.16.08.68 1.07.6 1.15-.01.02-.13-.07-.25-.21s-.26-.25-.3-.26c-.14 0-.28.32-.26.58l.03.26.27-.01q.54-.03 0 .28-.54.3-.8.02m.69-.06.16-.13-.18.04c-.15.03-.2 0-.25-.14a.5.5 0 0 0-.25-.24l-.17-.06h.18q.3.01.06-.2-.15-.12 0-.05.1.02.15-.02.03-.07-.1-.1-.12-.06-.13-.13 0-.08.08 0c.12.13.27.11.22-.02q-.04-.11.06-.07c.14.06.26-.12.16-.25q-.06-.1-.04-.15c.02-.02.13.12.25.31.27.46.32.4.08-.07-.15-.27-.23-.36-.36-.38-.23-.03-.55.29-.64.63-.08.28 0 .9.13 1.06.12.14.4.13.59-.03m8.32 1.63c.08-.2.1-.52.05-.58-.02-.02-.14.02-.26.1a1 1 0 0 1-.31.13q-.08-.02.14-.16c.34-.2.35-.22.21-.37q-.12-.15-.2-.06-.1.08-.05-.04c.08-.21-.1-.11-.28.17-.3.46-.31.47-.2.43a.2.2 0 0 1 .19.03q.1.06-.19.06c-.15 0-.28.02-.28.06q.02.06.15.07.15 0 .22.07c.07.07.53.27.66.28q.07-.01.15-.2m-.42-.08q-.28-.07-.04-.06l.27.07c.1.07.05.07-.23-.01m.1-.18h.24q.08.04-.12.04-.19 0-.11-.04m-1.32.11q.1-.03.02-.1t-.27.03c-.25.13-.27.26-.02.17zm-1.35-.4c.25-.38.95-.7 1.68-.76l.55-.05h-.59c-.44.01-.67.05-.9.16a2.6 2.6 0 0 0-.96.8c-.12.23.05.12.22-.14zm1.2.1c.34-.2.74-.55.74-.66q-.01-.05-.19-.07-.18 0-.27.17c-.16.3-.65.46-.83.27q-.08-.06-.2-.04-.15.04-.01.12.12.08-.03.03c-.12-.05-.37.1-.37.22q.02.1.56.14.26 0 .6-.18m.35.1q0-.09-.06-.1c-.08 0-.14.1-.1.16q.14.11.16-.05m.15-.13q-.04-.1-.1-.07-.04.04 0 .14.03.08.08.06.05-.04.02-.13m.21-.14q-.03-.09.06-.1c.13.01.38-.36.29-.42q-.07-.05-.12 0l-.22.27q-.17.2-.14.31.05.1.1.08.06-.05.03-.14m-8.37-.4c-.1-.1-.36-.83-.4-1.13 0-.1-.04-.21-.07-.24q-.05-.02-.01.25l.06.48c.01.1.05.22.08.27l.06.15c0 .08.31.4.35.37q.03-.04-.07-.14zm7.54.21c.2-.06.38-.29.3-.37-.04-.05-.7.2-.73.29q-.02.07.1.1l.12.05zm-8.1-.61a3 3 0 0 0-.42-.67c-.33-.37-.6-.53-1.11-.67q-.42-.1-.05-.05c.13.01.24 0 .24-.03 0-.07.36.12.65.35.12.09.23.16.24.14.02-.01-.18-.36-.44-.77-.46-.74-.43-.84.05-.12.13.2.25.35.27.34.01-.02.05-.22.07-.45l.06-.43.02.5.03.7c0 .11.04.22.09.23q.07.04.07.14t-.03.03-.1-.09q-.04.01.02.13c.11.19.22.05.27-.34a2 2 0 0 1 .91-1.28c.18-.1.18-.11.08-.17q-.12-.07-.05-.12c.12-.07.01-.5-.11-.45l-.33.09q-.24.08-.18-.03c.03-.09-.15-.3-.26-.3q-.08.01-.18.19c-.19.32-.35.32-.67-.03a2 2 0 0 0-.45-.36c-.22-.06-.47.06-.64.29-.12.15-.12.2-.04.42s.07.25-.04.37c-.1.12-.1.15-.01.35q.18.4-.18.53c-.19.06-.31.27-.25.43.05.13.36.3.54.31.1 0 .14.08.2.3q.12.5.29.33c.1-.1.25-.09.54.05.14.07.3.13.33.13q.08.01.2.1.14.16.04-.03a2 2 0 0 0-.63-.62q-.17-.12-.15-.15c.06-.06.78.56.9.76q.09.17.15.14.04-.02.04.04 0 .07.06.08c.04 0 .02-.14-.04-.3zm-.9-.3c-.16-.13-.3-.26-.3-.28 0-.04.59.4.63.48.06.1-.02.05-.33-.2m.78-1.33a3 3 0 0 1 0-.92c.03-.06.05.13.05.43v.53zm-1.7-.8-.08-.45q-.03-.1.07.1c.05.12.1.32.08.44q-.02.29-.06-.1m.79-.63q-.27-.29-.07-.15c.14.1.39.4.32.4zm-.7 3q-.07-.14-.14-.11-.04.04.06.2c.13.18.19.11.08-.1m9.4-.2c.34-.13.38-.16.4-.36.02-.26-.06-.27-.36-.05-.22.17-.41.17-.41 0 0-.04.12-.2.27-.34.14-.15.24-.22.21-.17q-.05.1.04.06t.08-.1c-.02-.11.3-.35.47-.34q.44 0 .48.67c.03.4.04.42.22.42.19 0 .19 0 .19-.39 0-.72-.23-1.14-.8-1.48-.33-.2-.4-.2-1.01-.22-.57-.02-.7 0-1.01.15a3 3 0 0 0-1.28 1.18c-.2.4-.27.86-.15.87q.26.03.34-.09.05-.08.05.01.02.07.22-.14c.2-.21.27-.24.32-.23.15 0 .14-.11-.02-.16q-.12-.04-.13-.1c0-.1.2-.16.3-.08.11.1.19-.04.09-.17-.1-.12-.03-.22.08-.1q.2.19.14-.1-.03-.15.03-.16.07.01.08.1t.07.1.04-.13q-.03-.12.02-.13.05 0 .06.06.02.07.18.16c.15.08.18.14.17.33q-.02.21-.12.31-.29.18-.1-.05c.14-.13.18-.43.08-.5-.11-.07-.52.15-.66.35l-.14.2.17.21c.09.12.17.26.17.32s.1.2.21.33l.22.2.21-.15a4 4 0 0 1 .59-.3m-2.36-.47c.11-.56.7-1.2 1.25-1.37q.55-.17.82-.05c.16.06.13.45-.08.93q-.4.86-.07-.04c.31-.78.25-.93-.37-.81q-.94.17-1.44 1.23-.17.35-.11.11m1.61-.98.04-.13c0-.06.2-.02.24.06q.05.08-.06.03-.1-.04-.11.05-.01.1-.07.1-.07-.01-.04-.1M1.9 3.9l-.06-.15q-.06-.12-.16-.02-.23.2.06.21.15 0 .16-.04m-.37-.2q.04-.1-.07-.15c-.11-.05-.29.04-.33.16-.04.13.36.11.4-.01m7.04-.29a4 4 0 0 1 .34-.74c.25-.38.84-.86 1.2-.96l.26-.08-.23-.04c-.2-.03-.23-.06-.23-.23s-.06-.23-.33-.38C9.3.82 9.24.75 9.19.53 9.11.18 8.91.1 8.44.23c-.28.1-.38.16-.5.37-.16.26-.18.26-.45.22-.21-.04-.3-.03-.39.05-.1.1-.24.5-.24.67q0 .06-.1.18c-.1.11-.1.13.18.25.46.22.88.66 1.15 1.2l.23.5-.04-.4c-.07-.57-.1-.64-.64-1.2-.41-.44-.43-.47-.14-.21.2.16.37.32.39.36q.03.05.1.02c.02-.02.13.11.22.3.16.3.17.3.13.09A4 4 0 0 1 8.43 1c.07-.25.16-.47.2-.5.08-.04.08-.05-.08.41a6 6 0 0 0-.1 1.75c.02.02.16-.14.32-.33.16-.2.36-.41.45-.47s-.02.09-.24.34c-.38.42-.54.69-.3.49q.1-.08-.04.14a1 1 0 0 0-.18.46c0 .14-.03.31-.05.4-.06.3.03.14.16-.28M7.72 1.9c-.13-.13-.2-.24-.16-.24s.15.11.25.24a1 1 0 0 1 .15.24zm.1-.22-.08-.28q-.04-.17.02-.1c.08.07.18.5.13.5q-.03 0-.07-.12m1.47-.11a1 1 0 0 1 .2-.2q.2-.11-.04.13-.32.35-.16.07m3.25 2.01c.04-.33-.04-.62-.23-.72a.5.5 0 0 0-.54.1q-.12.13.06.06c.22-.07.18 0-.06.12-.3.14-.62.4-.56.46.02.03.15-.01.27-.09.18-.1.28-.12.5-.08.25.04.27.06.14.1q-.13.06-.14.19c0 .11.04.14.26.14.25 0 .26 0 .3-.28m-.5-.4q.01-.07.1-.03t.06-.04.05-.04c.14.05.1.15-.06.17q-.13.01-.15-.06m1.19.34-.06-.27v.33q0 .3.05.27c.03-.04.04-.18 0-.33m-3.4-.28q0-.03-.07-.08-.05-.03-.06.03t.06.07q.06 0 .07-.02m4.03.05c.07-.12-.09-.23-.2-.14q-.09.08-.1.15c0 .08.25.08.3-.01m0-.72c.2-.34.17-.48-.18-.77-.28-.23-.32-.4-.19-.7q.15-.39-.27-.24c-.26.1-.52.1-.6-.03a1 1 0 0 1-.06-.3q0-.36-.3-.37c-.16 0-.29.17-.29.4 0 .15-.29.25-.4.13-.13-.13-.43-.1-.5.04-.1.18-.1.75 0 .75q.08 0 .03-.3-.04-.3.03-.27c.03.02.06.16.06.3 0 .34.13.36.14.02l.01-.25.03.26c.03.24.04.26.22.24.1-.02.2 0 .2.02 0 .04.44.2.56.21.03 0 .13-.1.21-.23a1 1 0 0 1 .3-.3q.15-.1-.07.18c-.32.42-.32.4 0 .77.18.19.35.44.39.55q.06.2.16.17.1-.04.06.18l-.04.22.17-.2c.09-.1.24-.32.33-.47m-.63.15q.01-.04.11-.12.14-.13.03.03-.14.16-.14.09m.1-.53q.04-.1.08-.09.02.05-.04.12-.1.1-.04-.03m-1.67-.94q0-.12.04-.04.03.08-.01.13-.04.03-.03-.1zm-5.1 1.5c.14.08.17.06.24-.08s.06-.17-.15-.26a1 1 0 0 0-.4-.1c-.13-.01-.16.02-.15.17 0 .1.02.26.04.35l.04.16.12-.15c.1-.13.13-.15.27-.08m-.16-.21q-.03-.1.02-.1.07.01.07.1t-.03.1-.06-.1m2.18.28q0-.06-.06-.03a.1.1 0 0 0-.07.11q0 .06.07.03a.1.1 0 0 0 .06-.1m5.41.1q-.03-.09.06-.1.09 0 .1-.06-.02-.15-.22.05-.15.2.04.22.05-.01.02-.1M5.16 1.68l-.06-.14q-.06-.11-.16-.02c-.13.11-.06.27.1.23q.11-.03.12-.07m1.43.01c.19-.19 0-.22-.48-.08q-.19.03.03.09c.25.08.36.08.45 0zm-.93-.12q-.08-.15.09 0c.17.17.17.14 0-.23a3 3 0 0 1-.17-.67C5.54.35 5.52.32 5.45.42c-.13.19-.24.76-.2 1.02.05.2.07.23.25.24q.23.01.16-.11m-.26 0q-.04-.06-.04-.16-.01-.13.07.02c.07.13.05.22-.03.13zm.07-.41c-.03-.02-.05-.14-.04-.25V.7l.07.23q.09.36-.03.23m.96.23c.17-.02.3-.07.3-.1 0-.08-.54-.03-.7.06q-.15.08-.01.07zm4.3.01a1 1 0 0 0-.4-.07q-.32 0-.16.06c.19.09.68.1.56.01" style="fill:#000;stroke-width:.6489"/></svg>