<svg xmlns="http://www.w3.org/2000/svg" xml:space="preserve" id="svg39" width="20.1" height="62.07" viewBox="0 0 5.32 16.42"><path id="path11-3" d="M5 16.36c.21-.12.28-.31.3-.87a2 2 0 0 0-.07-.88 9 9 0 0 0-.37-1 5.4 5.4 0 0 1-.52-2.82c.01-.66-.04-1.54-.14-2.5a5 5 0 0 1 .06-1.57q.28-1.32-.3-2.06c-.08-.1-.15-.22-.14-.27q0-.08-.18-.18c-.57-.32-.57-.32-.64-.56-.1-.33-.13-.63-.11-1.1q.05-.97.57-1.58c.17-.18.2-.2.38-.2.17-.01.22-.03.27-.11.1-.13.1-.46.03-.58-.05-.08-.09-.1-.21-.07-.2.05-.35.14-.64.4-.46.4-.86 1.33-1 2.35-.08.6-.35 1.12-.63 1.2a4 4 0 0 0-.68.36q-.06.05 0 .1c.03.05-.01.11-.2.32-.39.43-.57.88-.71 1.81-.14.87-.05 3.02.16 4.13a10 10 0 0 0 1.16 3.14c.47.79.98 1.27 1.86 1.76l.78.46c.63.4.77.44.97.32m-.38-.31-.15-.21c0-.09-.06-.37-.08-.35v.2c.07.4-.04.17-.12-.25l-.04-.23v.2q0 .34-.1.1-.05-.1-.08-.05c-.04.06-.13-.13-.18-.37l-.03-.16v.2c.01.25-.08.24-.13-.01q-.07-.37-.05-.1 0 .15-.03.16c-.05 0-.15-.14-.2-.31q-.05-.19-.05-.05c.01.14 0 .14-.14.04q-.1-.08-.1-.2.01-.16-.04 0l-.03.1-.14-.15-.17-.15-.14-.13c-.1-.1-.13-.17-.13-.3v-.17l-.03.15-.03.15-.07-.1-.06-.25v-.15l-.03.15q-.03.18-.08.08a1 1 0 0 1-.07-.31l-.02-.25-.02.21c-.02.32-.1.2-.11-.18l-.02-.31-.02.3-.02.4q0 .1-.05.06-.03-.03-.02-.13.02-.1 0-.12-.04-.04-.04-.16t-.02-.06-.06.05c-.02 0-.02-.17 0-.37l.04-.35-.07.3c-.06.3-.07.3-.11.19-.04-.09-.04-.19 0-.43a1 1 0 0 0 .03-.32c-.03 0-.09.22-.1.39q0 .11-.04.12c-.06 0-.1-.22-.07-.46l.02-.23-.05.19c-.08.29-.14.16-.12-.24.02-.29.02-.3-.02-.14l-.06.21c-.04.04-.06-.3-.03-.49q.04-.2 0-.13l-.05.16q0 .1-.05.08c-.02-.02-.03-.16-.02-.31q0-.25-.02-.19c-.04.2-.13.06-.12-.18q0-.1-.03-.08c-.06.04-.09-.1-.06-.26q.03-.14 0-.08-.01.07-.06.05C.68 10.8.7 10.6.8 10.3c.12-.34.1-.4-.02-.1q-.08.2-.11.23c-.07 0-.01-.35.1-.63q.1-.27.06-.23a1 1 0 0 0-.14.28q-.1.24-.12.14c-.05-.1 0-.27.18-.68.09-.2.15-.36.14-.37 0 0-.1.15-.2.34-.13.29-.17.34-.19.28q-.03-.15.24-.67c.16-.31.17-.33.1-.26-.04.03-.14.2-.22.38q-.14.31-.18.29-.1-.12.25-.7c.12-.2.2-.37.2-.38-.02-.02-.17.2-.3.47q-.13.24-.16.18c-.04-.07.07-.35.28-.7q.16-.27.16-.32a2 2 0 0 0-.23.34l-.21.36V8.4c-.01-.16.01-.21.4-.83q.1-.14.02-.08l-.25.35-.2.28v-.15c0-.1.07-.23.23-.49q.57-.86 0-.08c-.18.25-.22.28-.21.2 0-.06.11-.26.26-.48q.29-.4.1-.18l-.28.33q-.13.19-.1.06c0-.05.09-.21.2-.37l.28-.39.08-.11-.11.11a2 2 0 0 0-.27.33q-.16.22-.17.15-.02-.13.36-.6.48-.58-.04-.02c-.25.28-.27.3-.27.2.01-.13.1-.27.45-.65.17-.2.19-.22.08-.14-.07.05-.22.2-.32.33q-.19.21-.2.16c.01-.1.31-.48.55-.68q.19-.16.2-.2c-.03-.02-.34.26-.5.44l-.15.14c-.12.01.24-.43.54-.67q.17-.12.18-.17c0-.05-.24.13-.44.34q-.13.12-.16.1c-.04-.03.26-.34.48-.5s.22-.23 0-.08c-.23.17-.24.11-.01-.06l.2-.19c.05-.06-.1.02-.2.12q-.09.08-.12.06 0-.03.17-.17.17-.13.17-.16c-.03-.04-.26.13-.44.3-.1.1-.19.18-.2.16s.1-.14.24-.29c.34-.35.53-.37.46-.05q-.07.24.32.06c.13-.06.27-.1.3-.1q.09 0 .27.15c.1.09.2.16.22.16s.12-.1.21-.23l.17-.23h.33c.32.01.34.01.49.17.08.08.2.29.28.46.12.28.13.34.12.76q0 .46-.08.75a9 9 0 0 1-.71 1.82c0 .08.3-.48.44-.8l.15-.34.01.3.09.96c.1 1 .12 1.82.1 2.6-.02.43-.02.78.01.9.06.28.06.29-.05.14q-.09-.1-.1-.08 0 .05.04.09c.05.05.74 1.63.85 1.94.24.69.3 1.06.22 1.49-.05.27-.17.48-.3.48q-.06-.01-.2-.16zm.39-.27c.06-.25.05-.58-.01-.91s-.32-1-.44-1.16c-.03-.05 0 .06.08.23a3.4 3.4 0 0 1 .33 1.61v.36zm-.14-.35c0-.42-.09-.97-.2-1.17q-.08-.12-.06-.05l.1.38q.1.38.15 1.07zm-.8-.16q0-.1-.04-.13-.07-.03 0 .17.03.12.03-.04M3.08 14a5 5 0 0 1-1.2-2.04c-.1-.31-.03.07.08.43a4 4 0 0 0 .85 1.42c.42.46.63.61.27.19m1.1-.36c0-.09-.18-.74-.21-.78-.05-.04-.05-.04.08.47q.12.47.12.3m-.15-.08-.04-.17-.1-.45c-.06-.27-.13-.47-.13-.35 0 .2.25 1.13.27.97m-2.18-.44q0-.15-.01-.08l-.01.17q.02.05.02-.1m1.85-1.22-.16-.33-.1-.27a4 4 0 0 1-.17-.88q-.06-.44-.07-.24c-.04.55.27 1.63.53 1.85q.07.06-.03-.13m.32-.92-.04-.43-.05-.8c0-.32-.03-.62-.04-.65q-.03-.06-.03.13l.03.71c.02.53.08 1.18.12 1.22q.02.01 0-.19zm-2.69-.37c-.1-.34-.16-.87-.23-2.4a4 4 0 0 0-.07-.77c-.03.21.05 1.9.1 2.36s.14.83.19.86q.04.03.01-.05M3.14 8.4c.03-.15.04-.28.03-.3-.03-.02-.1.44-.09.51.01.03.04-.07.06-.21m.58.12.07-.18q.05-.15.03-.16c-.04 0-.16.3-.13.34q.02.02.03 0m-.08-.13.1-.27q.12-.23 0-.06c-.03.05-.1.18-.12.27q-.09.29.02.06M3.3 7.37a3 3 0 0 0 .14-.96c0-.44-.07-.7-.21-.89l-.1-.12.06.12q.21.4.18 1.06c-.01.23-.04.51-.07.62q-.08.3 0 .17M1.29 6.18l.17-.6c.13-.41.18-.47.5-.59l.2-.07-.18.04c-.24.04-.37.14-.5.39-.1.22-.25.77-.24.94q.01.1.05-.1m2.77-.1q0-.12-.01-.06v.13zm-2.44.17q.12-.1-.01-.02-.09.03-.1.07t.1-.06zm2.3-.23c0-.2-.07-.53-.18-.78-.1-.22-.37-.58-.34-.45q.05.12-.05.02-.24-.21-.04.07.24.3.14.1c-.06-.13-.01-.14.07-.01.15.23.3.62.34.9q.04.32.05.15M1.67 6q.12-.08.12-.11c-.03-.02-.26.12-.3.17q-.04.1.18-.06m2.36-.18c.03-.33-.27-.98-.5-1.1q-.09-.04.08.16c.2.25.32.5.37.83q.04.26.05.1M1.7 5.76q.11-.07.1-.09c-.02-.02-.27.12-.27.15q0 .05.17-.06m.16-.27q.23-.12.2-.14c-.05-.02-.48.19-.48.24v.03zm-.13-.14c.04-.03.15-.08.24-.11q.19-.07.06-.06c-.1 0-.44.17-.44.2q0 .07.14-.03m.2-.23q.25-.1.03-.04l-.2.07c-.1.06 0 .04.18-.03m1.32-.2c-.04-.1-.19-.24-.21-.22s.08.16.18.24q.1.1.03-.02m-.16 0c-.04-.1-.2-.24-.2-.19q0 .06.12.16.12.13.08.04m-.18-.05q-.06-.07-.1-.08l.06.09.08.08q.02 0-.04-.09m1.15 10.94-.46-.3a1 1 0 0 1-.26-.2c0-.05.07-.05.1 0s.32.2.36.17q.04-.02.1.06.08.07.12.08c.06 0 .29.21.28.27s-.02.06-.24-.08m-.55-.59q-.02-.05.08.02.1.06.1.1c0 .06-.16-.05-.18-.12m-.43-.02q-.03-.04-.15-.1-.13-.05-.14-.1-.01-.04-.14-.1c-.16-.07-.58-.5-.58-.57a.04.04 0 0 0-.05-.05c-.06 0-.21-.24-.2-.35q-.02-.11.09.03.09.11.09.18 0 .05.06.06t.06.03c0 .05.43.5.5.53l.2.14q.16.13.2.13c.04 0 .24.21.24.26 0 .04-.15-.03-.18-.1m.12-.24c.04-.04.23.14.22.21q0 .09-.12-.06-.11-.11-.1-.15m-.28-.19q-.05-.09.04-.03c.08.04.16.16.15.23 0 .04-.15-.11-.2-.2m-.26-.14c-.05 0-.18-.2-.15-.23.04-.03.34.29.33.35q0 .06-.07-.03t-.11-.09m-.32-.3q-.03-.1-.1-.1c-.05 0-.12-.12-.11-.23q0-.09.06-.02.05.05.05.13t.07.07c.06 0 .16.15.15.23 0 .06-.08 0-.12-.08m-.37-.48c0-.08.1 0 .11.1q.01.14-.05.02zm-.48-.3a1 1 0 0 1-.16-.37q0-.08-.04-.06c-.06.04-.11-.12-.1-.32q0-.21.06-.12.06.05.05.22 0 .18.03.1.03-.14.1 0a.4.4 0 0 1 .06.22q-.01.13.05.1.05-.04.08.08c.03.23.05.25.08.19.04-.06.08.13.07.3q.02.15-.06 0zm-.46-.9a1 1 0 0 1-.04-.32q.04-.16-.03-.05c-.05.08-.07.05-.17-.26a10 10 0 0 1-.54-2.8L.2 8.6c-.02-.28-.02-.37.03-.48q.05-.11.1-.11c.03.02 0 .27-.05.4q-.05.1.03.05c.07-.03.07 0 .05.2-.02.11-.02.21 0 .2.05 0 .03.19-.02.33q-.05.11 0 .08c.05-.04.11.17.07.3q-.03.12.02.08.04-.03.04.15l.03.26c.06.13.1.44.09.66q-.01.2.03.13.03-.08.07.12l.07.27c.09.23.17.53.17.63q0 .1.03.1.04 0 .04.06t.02.07c.07.03.16.34.15.54q0 .18-.03.21zM.16 8.02c0-.09.1-.31.14-.31s.03.15-.03.25q-.1.15-.11.06m.06-.96q.1-1.38.49-1.8.29-.26.08.08c-.14.22-.3.56-.32.7-.06.35-.1.5-.16.6q-.1.15 0 .05.08-.09.07.06 0 .1-.06.2t0 .1c.06.03.04.15-.04.27q-.05.08-.04.12.01.02.03-.02 0-.05.04-.05c.05 0 .04.15-.02.25-.1.19-.11.07-.07-.56m2.12-2.37c-.21-.15-.3-.16-.52-.05-.2.1-.24.09-.22-.03s-.1-.27-.2-.27q-.14-.02 0-.1c.02-.01.1.01.14.05q.22.16.07-.02l-.09-.1.14-.02.2-.01q.08 0 .08-.06a.4.4 0 0 1 .08-.16c.08-.1.09-.1.11-.03q.05.17.16-.08.13-.3.09-.03-.03.13 0 .1c.07-.03.14-.32.15-.53 0-.19 0-.19-.05-.08-.08.13-.08.13-.07-.16 0-.2 0-.22.05-.16q.04.07.06.06l.06-.43c.04-.37.04-.39-.02-.18-.05.23-.12.35-.11.2.02-.33.26-1.1.48-1.54A2 2 0 0 1 3.3.57c.34-.35.74-.55.62-.32Q3.83.4 3.9.38q.04-.01.04-.08c0-.04.03-.1.06-.1.05-.03.05 0 .02.33-.01.12-.1.14-.1.03Q3.93.49 3.9.53l-.2.1c-.19.08-.46.34-.62.62-.15.25-.38.87-.38 1q0 .15.03.04c.02-.05.03.16.01.48q-.02.58-.06.51l-.03-.03-.03.1q-.03.07.04.04.06-.03.06.03l.01.13q.02.06-.02.07-.04 0-.04-.08t-.03-.06-.01.15a.4.4 0 0 1 0 .19v.06c.04 0 .16-.3.14-.35q-.04-.07.02 0 .06.04 0 .15-.06.12 0 .08.05 0 .1.13.04.14.16.18a1 1 0 0 1 .26.15l.22.15q.1.03-.16.06-.23.01-.29-.02-.12-.12.04-.1.08.02.05-.03c-.04-.07-.3.01-.42.14l-.1.11.11-.1c.12-.1.26-.13.2-.06q0 .05.03.05.04 0-.07.04a1 1 0 0 0-.24.2l-.13.16zm.17-.2c.01-.14 0-.26-.02-.27-.05-.03-.06.3-.02.42q.03.1.04-.16m-.57.04q.01-.03-.02-.04l-.04.05.01.04zm.19-.03q-.05-.02-.08 0t.05.02.03-.02m-.23-.12c.15-.13.19-.15.3-.13q.14.01.12-.04c-.02-.1-.27-.05-.4.07-.1.1-.23.27-.2.26zm.3.01a.04.04 0 0 0-.04-.04q-.03 0-.02.05l.04.04q.02 0 .02-.05m.7-.16c.06-.08-.03-.14-.14-.1-.11.03-.15.11-.05.1l.11.03q.05 0 .09-.03zm-.23-2.17q0-.08-.02-.03t0 .08.02-.06m.1-.35q0-.07-.03-.02v.08q.03 0 .03-.06m.26-.55Q3.16.9 3.1.96c-.08.1-.24.42-.23.43q.02-.01.16-.25M3.5.53q.16-.16.15-.18l-.2.18q-.31.35.05 0M1.2 4.36c.01-.04.12-.02.19.04q.11.07-.06.02zm.94-.6q-.01-.06.03-.06.06 0 .04-.09 0-.08.03-.09.04-.01.05-.1 0-.1.04-.11t.04.08.04.06q.04-.01.04.02 0 .04-.06.04c-.05 0-.16.22-.13.27q0 .04-.04.04-.06 0-.08-.06" style="fill:#000;stroke-width:.401934"/></svg>