<svg xmlns="http://www.w3.org/2000/svg" xml:space="preserve" id="svg39" width="50.55" height="53.11" viewBox="0 0 13.37 14.05"><path id="path4" d="M5.77 13.98a8 8 0 0 1-2.24-.78c-.46-.28-.89-.74-.92-1.02a5 5 0 0 0-.27-1.07 1 1 0 0 1-.08-.33 1 1 0 0 0-.1-.3 1 1 0 0 1-.13-.43 1 1 0 0 0-.08-.36 1 1 0 0 1-.12-.37 3 3 0 0 0-.15-.53 2 2 0 0 1-.12-.5 1 1 0 0 0-.08-.35 2 2 0 0 1-.16-.6.4.4 0 0 0-.1-.22L1.1 7l-.36.25c-.2.14-.39.24-.42.22-.08-.03-.05-.49.06-.92a5 5 0 0 1 .28-.74c.11-.22.2-.43.2-.47s.06-.13.13-.21l.13-.16-.3-.38-.57-.67C.11 3.75 0 3.58 0 3.52s.14-.28.31-.48c.43-.52.6-.56 1.36-.3.47.15.51.19.8.64.06.11.12.2.13.19s-.05-.31-.12-.67c-.14-.65-.14-.66-.06-1.05.04-.21.17-.59.29-.83.17-.35.25-.46.42-.58.33-.21.7-.39.76-.36.04.02.2.57.38 1.22.46 1.8.43 1.72.44 1.1.01-.55.06-.9.13-.93q.05-.04.05-.13c0-.13.22-.3.44-.32.1 0 .3-.05.45-.09.34-.09.36-.07.54.5l.05.14.2-.3c.21-.33.52-.61.8-.75.3-.15.84-.3.95-.25.14.05.2.3.14.62l-.08.49c-.03.21-.03.21.1.16.09-.04.18-.03.4.02a1 1 0 0 0 .29.06l.2-.72c.1-.39.21-.75.24-.8.07-.14.24-.13.66.02.48.19.62.31.87.82.27.53.28.62.12 1.59l-.09.64s.14-.19.29-.44c.26-.42.28-.44.44-.43.2.02 1 .34 1.11.44.06.05.07.2.06.62 0 .74-.08 1.1-.3 1.46-.1.16-.17.31-.17.33q.01.04.14.14c.27.18.64.66.63.83q0 .06-.29.05l-.29-.01-.04.37c-.05.42-.13.65-.32.9-.13.17-.34.76-.4 1.14-.03.13-.09.33-.14.45a2 2 0 0 0-.13.46c-.02.13-.08.3-.12.37a1 1 0 0 0-.1.34 1 1 0 0 1-.17.53l-.1.28-.1.36q-.16.46-.2.91a1 1 0 0 1-.37.76c-.42.4-1.03.66-2.15.92-.43.1-.58.12-1.5.09zm1.51-.26.2-.13-.2-.02c-.16-.02-.29.01-.55.15q-.47.23.03.11h.04l-.04.07c0 .07.3-.04.52-.18m.07.16q.08-.04.11 0c.04.09.35-.06.52-.25l.15-.15-.2.03c-.3.04-.94.4-.72.41q.07 0 .14-.04m-.73-.18.27-.13-.22-.03c-.17-.02-.3.01-.55.12l-.32.14.27.01a1 1 0 0 0 .55-.11m1.73.03c.12-.05.5-.41.44-.42-.15 0-.54.2-.73.37l-.23.21.2-.04zM6 13.61l.3-.15-.32.01c-.37.01-.8.15-.7.22.14.09.43.06.72-.08m-.56-.1.27-.12-.3-.01a2 2 0 0 0-.72.1q-.08.03.07.07c.27.08.4.07.68-.04m3.48.15c.14-.09.4-.42.37-.46-.05-.06-.31.11-.54.34-.22.23-.23.23-.09.22zm.85-.49q.27-.32-.09-.12c-.17.08-.45.37-.53.55-.04.1.52-.29.63-.43m-4.92.17.2-.05-.2-.06c-.32-.09-.92-.01-.68.1.14.06.46.07.68.01m3.05-.02c.38-.07.45-.1.45-.29s-.02-.19-.72-.1a8 8 0 0 1-1.07.03l-.58-.03v.13c0 .13-.02.12.63.28.2.05.99.04 1.3-.02m-.11-.14q.05-.01.1.01 0 .03-.07.03-.09 0-.03-.04m-1.29-.1q.07-.02.1 0 .01.03-.07.03-.09-.01-.03-.04m1.39-.05q.06-.01.1.01 0 .03-.07.02-.09 0-.03-.03m.2-.04q.06-.02.09 0t-.06.03-.03-.03m-2.21.1c-.02-.12-.05-.16-.17-.18q-.24-.08-.16.18.03.13.16.15c.18.04.19.03.17-.15m-1.57.03c.08-.03.04-.06-.2-.14a3 3 0 0 1-1.16-.72q-.17-.2-.22-.18c-.05.02.02.1.08.16q.12.1.05.06-.07-.06-.04.03c0 .04.09.13.18.2q.13.1.1.13c-.04.01.08.08.25.14q.3.12.2.13-.17-.02-.04.06.08.06.15 0a.2.2 0 0 1 .16-.03q.1.03-.03.03-.17-.02-.03.08c.1.09.38.11.55.05m1.16-.04-.04-.15a3 3 0 0 0-.96-.32 4 4 0 0 1-.58-.19q-.43-.2-.38-.03c.04.26 1.09.7 1.82.77q.14 0 .14-.08m-1.62-.48c-.36-.2-.28-.22.1-.02.17.1.28.17.24.16-.04 0-.2-.06-.34-.14m6.37.34a1 1 0 0 0 .19-.32c-.04-.04-.43.37-.56.59l-.1.17.13-.07c.06-.05.22-.21.34-.37m-1.56.25q.1-.34.02-.35c-.1 0-.22.11-.26.26-.03.13-.02.15.1.15q.1 0 .14-.06m.46-.1c.3-.07.87-.37 1.06-.55.13-.12.13-.12.02-.14a1 1 0 0 0-.3.07c-.1.05-.38.15-.62.21a1 1 0 0 0-.44.17q.02.04.23-.02l.26-.04q-.01.02-.22.09-.24.06-.28.17c-.05.13-.04.13.29.05m1.56-.45q.09-.14.1-.22c0-.13-.16.07-.35.42l-.16.3.16-.17c.08-.1.2-.24.25-.33m-3.86.12c.18-.06.26-.14.13-.15q-.07 0 0-.05.08-.04.05-.12c-.03-.09-.4-.14-1-.13-.14 0-.49-.06-.77-.13-.79-.2-.78-.2-.78-.1 0 .25.05.3.45.47.22.08.5.18.62.21.3.07 1.06.07 1.3 0m-.41-.1q.06-.02.1 0 0 .03-.07.03-.09-.01-.03-.03m-1.27-.14q-.16-.05-.14-.07c0-.02.12.01.24.06.24.09.16.1-.1.01m1.51.1a.2.2 0 0 1 .13 0q.04.03-.06.03t-.07-.03m-.29-.12q.06-.02.1 0 .01.03-.07.03t-.03-.03m1.06.13c.04-.22 0-.27-.17-.24q-.14.02-.14.15l-.03.2q-.06.1.13.08c.15 0 .17-.03.2-.19m1.22.1a3 3 0 0 0 .56-.2c.27-.12.32-.17.36-.32L9.6 12c-.01-.02-.17.02-.36.09-.36.13-.75.2-1.33.23l-.34.01v.41l.41.02c.23.01.53 0 .67-.03m-.9-.12.3.01q.1.02-.16.02-.26-.02-.14-.03m-.07-.16h.17q.06.03-.08.03-.16 0-.09-.03m1.43-.03.17-.07q.04.01-.08.07l-.17.07q-.04 0 .08-.07m.1-.2.17-.07q.04 0-.07.07l-.18.07q-.04-.01.08-.07m-5.84.08q-.06-.1-.12-.11l-.16-.04q-.14-.06 0 .05.1.07.14.06t.02.02.05.11q.16.12.07-.09m1.01.06-.06-.24c-.02-.16-.03-.17-.22-.22-.13-.04-.13-.04-.1.13q.06.33.16.35.04 0 .05-.08 0-.11.05.02.04.12.1.13.05 0 .02-.1zm-.24-.27q-.03-.09 0-.11.01-.01.05.06.03.08 0 .12-.01.01-.05-.07m-.21.03q-.04-.1-.1-.11c-.09 0-.86-.3-.84-.33 0 0 .2.05.43.13s.44.14.45.13q.16-.05-.57-.31c-.3-.1-.58-.2-.62-.23q-.11-.06-.04.14c.06.24.15.33.43.46.28.11.8.26.85.24q.03-.03 0-.12m6.03.03.03-.22c-.03-.05-.27.08-.27.14l-.04.24c-.03.16-.03.16.1.1q.12-.04.18-.26m.74.13c0-.06-.15-.02-.22.05-.13.13-.08.18.07.07zM5.8 11.9c-.03-.14-.06-.18-.18-.2l-.16-.02v.23c.02.19.03.2.17.23.19.02.2 0 .17-.24m2.3.2.37-.13.05-.17c.03-.16.03-.17-.13-.17a2 2 0 0 0-.46.06c-.26.05-1.03.07-1.85.04-.2 0-.21 0-.18.14l.05.16c.06.08.7.19 1.2.2.48 0 .63-.02.94-.13zm-1.85-.08h.12q.04.03-.06.03t-.06-.03m-.2-.07.1.01q.02.03-.07.03-.08-.01-.02-.04m.52-.03a.4.4 0 0 1 .18.01q.05.03-.1.02t-.08-.03m3.95.21q.33-.12.43-.5l.03-.14-.43.21c-.23.12-.43.24-.43.28l-.03.18c-.04.14-.02.13.43-.03m-5.15-.17q0-.05-.06-.05t0-.05c.12-.07.03-.2-.17-.27l-.68-.16a5 5 0 0 1-.85-.25c-.2-.09-.37-.14-.39-.12-.06.06.13.4.27.48a5 5 0 0 0 1.88.42m-.6-.16h.12q.04.03-.06.03t-.06-.03m-1.15-.28q-.1-.05-.02-.05t.14.06c.1.06.01.06-.12 0m-.22-.12q-.06-.05-.02-.05a.1.1 0 0 1 .1.05q.05.1-.08 0m.1-.13q-.11-.07-.07-.08l.17.09q.11.07.07.07zm5.35.79.07-.26c.03-.2.03-.21-.1-.22-.14 0-.15.02-.2.32-.03.18-.02.2.1.2q.1 0 .13-.04m1.06-.25c.34-.09.64-.3.72-.54l.04-.2c-.01-.02-.18.02-.37.08l-.77.23c-.44.12-.49.16-.5.44 0 .08.03.1.31.07.17 0 .43-.05.57-.08m-.73-.2.1.01q.01.03-.07.03-.09-.01-.03-.03m.24-.04a.2.2 0 0 1 .13.01q.04.03-.06.02t-.07-.02m.76-.03c.23-.12.31-.12.12 0l-.22.1q-.05-.01.1-.1m.09-.21q.05-.06.09-.03.01.02-.06.06-.1.04-.03-.03m-3.43.2c.23-.07.26-.1.26-.21 0-.26-.08-.3-.59-.28l-.48.03c-.05.03-.9-.11-1.18-.2l-.44-.12-.17-.04.02.19c.02.1.07.22.12.26.1.07.83.35 1.07.4.3.06 1.14.04 1.4-.03m-1.82-.22-.3-.1-.11-.07.12.03c.36.09.64.17.64.19q-.02.04-.35-.04zm1.51.07.3-.06.2-.02-.2.07-.3.05h-.1zm-1.47-.26a.2.2 0 0 1 .13.01q.04.03-.06.02t-.07-.02zm2.46.39c.08-.39.08-.45 0-.45q-.07.01-.12.11-.04.15-.04.02 0-.1-.1-.08c-.12.02-.15.49-.03.52q.23.06.29-.12m-4.35-.15-.06-.22c-.02-.1-.24-.27-.29-.22-.02.03.08.36.14.45s.25.1.21-.01m-.4-.18-.08-.23a.4.4 0 0 0-.16-.2q-.2-.13-.06.18c.08.23.39.47.3.25M2.55 11q.01-.05.05-.02.05.04.05.06t-.05.02-.05-.06m6.46.4c.37-.1.77-.3.77-.37q0-.06-.08-.05-.08.02.02-.03c.1-.05.19-.24.14-.3a9 9 0 0 1-2.17.42q-.03.02-.04.18-.01.2.1.21c.2.05 1 .02 1.26-.05m-1.1-.1.25.02q.08.02-.14.02-.22-.01-.11-.03m1.3-.16c.14-.05.22-.05.12 0l-.14.05q-.08 0 .02-.05m-.06-.13c.05-.05.64-.25.61-.2a1 1 0 0 1-.3.13q-.4.15-.31.07m-5 0c-.02-.25-.03-.25-.22-.35l-.14-.07.03.25q.04.38.28.4c.07 0 .08-.04.06-.23m6.8.16.04-.25q-.01-.02-.1.03c-.14.06-.2.48-.08.46q.08-.02.14-.25m-7.24-.36-.06-.24a2 2 0 0 0-.45-.19 5 5 0 0 1-.72-.32 1 1 0 0 0-.34-.15c-.01.02.02.14.08.27.17.42.68.71 1.43.82.07 0 .08-.03.06-.19m-.47-.22q-.23-.09-.22-.1c.03-.04.5.1.55.15q.1.1-.33-.05m-.73-.13c-.21-.18-.13-.17.13 0q.17.13.12.14c-.05 0-.16-.07-.25-.14m.06-.18q-.07-.05-.03-.05l.12.05q.07.05.03.06zm7.65.65c.08-.19.13-.41.1-.42q-.25 0-.33.32c-.09.33-.08.35.06.29a.4.4 0 0 0 .17-.19m-2.58.04c.46-.06.95-.21 1-.3q.05-.1.09-.26c.03-.16.03-.17-.11-.18a3 3 0 0 0-.56.09c-.43.09-.74.1-1.36.04l-.63-.04c-.27 0-.3 0-.28.11s.06.13.38.2c.2.04.47.09.6.1q.25.01.07.04c-.08 0-.33-.02-.56-.07q-.56-.1-.44.01c.05.06.95.26 1.22.28.15.01.41 0 .58-.02m.3-.26a.1.1 0 0 1 .12-.02q.06.02-.05.05t-.07-.03m.26-.06q.05-.02.09 0t-.07.03q-.08-.01-.02-.03m-1.76-.13h.17q.06.03-.09.03t-.08-.03m1.66-.03q.06-.02.1 0 0 .03-.07.03-.09 0-.03-.03m.2-.05q.06-.01.1.01 0 .03-.07.03-.1-.01-.03-.04m-2.59.16-.04-.29h-.2c-.2-.02-.2 0-.13.33.05.22.06.23.23.24h.19zm5.46.3q.01-.14-.05-.04c-.06.1-.06.22 0 .18q.05-.03.05-.14m-5.89-.23-.03-.09-.04-.1-.01-.14c-.01-.1-.36-.2-.95-.27a2 2 0 0 1-.79-.25c-.62-.3-.61-.3-.52-.1a1 1 0 0 0 .27.28q.18.1.2.14-.02.01-.2-.1c-.2-.11-.27-.07-.09.08.2.16.85.44 1.12.5.4.06 1.04.1 1.04.05m-1.77-.45q-.06-.05-.03-.05l.13.05q.06.05.02.05zm-.07-.21q-.04-.1.12 0 .1.06-.01.05-.08 0-.11-.05m-.2-.12q-.03-.04.05-.01.13.06.03.07-.05 0-.08-.06m7.6.9q.55-.16.54-.54v-.14l-.34.16c-.18.09-.38.15-.44.15-.13 0-.14.02-.19.32q-.03.22.03.18c.04 0 .22-.07.4-.13m-1.75-.13.08-.29c.03-.16.02-.16-.14-.17-.16 0-.17 0-.22.25l-.06.28q.02.03.15.03.15.02.19-.1m.74-.14c.39-.08 1.13-.44 1.14-.55L11 9.8c.1-.27.1-.28-.14-.14l-.4.17q-.41.14-.35.22c.04.07-.04.06-.1-.01-.09-.1-.72.1-.72.22l-.03.2c-.03.15.08.16.56.07m-.3-.32c.08-.04.21-.08.3-.1l.14-.02-.12.07a1 1 0 0 1-.3.08l-.18.03zm.86-.01.15-.08q.17-.08.03.02c-.08.07-.24.12-.18.06m.3-.15q0-.03.1-.08.09-.05.1-.02-.01.03-.1.07t-.1.03M2.89 10l-.07-.33q-.02-.18-.16-.26-.12-.06-.17-.06c-.03.01 0 .17.04.35q.1.35.2.38.24.13.16-.08m3.83.15.34-.06q.1-.03.11-.07-.01-.05-.1-.07h-.12l.11-.03q.12 0 .12-.17v-.16l-.41.02a5 5 0 0 1-1.94-.2q-.87-.28-.86-.16 0 .05.08.06t.03.04-.03.18c.03.22.5.47 1.16.61.3.07 1.2.07 1.51.01m-.36-.17.32-.02h.17l-.2.04-.32.02q-.17.01.03-.04M4.7 9.83c-.23-.1-.13-.1.15 0q.19.09.12.08zm1.77-.03h.12q.05.03-.06.03t-.06-.03m-1.58-.13q.06-.01.1.01.01.03-.07.03t-.03-.04m-.48-.14c-.1-.06-.01-.06.12 0q.1.06.02.06zm-.23-.11q-.01-.05.05-.02.13.07.03.07-.04 0-.07-.05m3.4.81c.02-.03.04-.19.06-.34.03-.26.02-.27-.1-.27-.1 0-.12.02-.13.24l-.01.25-.02-.25c-.02-.37-.1-.3-.1.08l-.01.34h.15q.13.01.17-.05m1.6-.2c.35-.06.6-.15.6-.2l-.03-.11q-.04-.09-.2-.02l-.22.04q-.05 0 .1-.06t.15-.1-.04-.05l-.17.04q-.16.03-.07-.03a.3.3 0 0 1 .16-.05q.08 0 .09-.05t-.09-.03l-.73.08c-1.06.09-.95.06-.98.3v.27c.02.06 1.03.04 1.44-.03zM7.96 9.9l.35.01q.14.03-.16.02-.31-.02-.19-.03m1.64-.13h.12q.04.03-.06.03t-.06-.03m-1.11-.1q.08-.02.15 0 .04.03-.1.02-.12 0-.05-.02m.32-.04h.12q.04.03-.06.03t-.06-.03m.3-.04q.06-.02.1 0 .01.04-.07.03-.09 0-.03-.03m-6.7.13-.05-.25c-.02-.14-.07-.2-.23-.3-.18-.12-.2-.13-.17-.03l.06.27a.4.4 0 0 0 .18.28q.27.2.22.04M4 9.79l-.06-.35-.06-.26a1 1 0 0 0-.35-.12c-.04.03.1.66.15.72q.05.06.05-.02t.05.02q.06.09.15.1.11 0 .07-.1m-.17-.11-.03-.16q-.04-.13.03 0 .04.1.03.16-.03.07-.03 0m-.14-.1q0-.1.03-.04v.1q-.04.03-.03-.07m.05-.32q0-.09.03-.03v.1q-.03.02-.03-.06m7.5.77c.05-.09.17-.58.14-.6-.05-.06-.18.14-.2.3l-.05.26c-.04.1.04.13.1.04m-7.78-.7q-.03-.37-.2-.37c-.2 0-.88-.33-1.17-.55l-.34-.24c-.1 0 .1.6.25.75a4 4 0 0 0 1.35.61c.13.01.14 0 .11-.2m-.4-.01-.13-.05h.12l.25.06.12.05-.12-.01zm0-.21q-.08-.06.08-.02.28.09.1.08a.4.4 0 0 1-.17-.06m-.81-.17q-.15-.12.02-.02.1.05.1.08.01.07-.12-.06m.03-.18-.32-.24q-.13-.14.19.09c.18.12.33.23.33.25s0 .02-.2-.1m8.1.68.62-.9a8 8 0 0 0 1.11-2.45 9 9 0 0 0-1.06.6l-.2.08-.14.04.17.04c.15.03.12.04-.2.06a4 4 0 0 0-.64.1l-.42.12q-.12.02-.13.08-.02.04-.17.04c-.14 0-.4.07-.33.1l.5.1.46.08-.62-.05-.64-.06h-.17q-.2 0-.05.06.11.06-.08.02a5 5 0 0 0-1.48-.08l-.23.06.32.05c.8.13 1.96.92 2.76 1.86.15.18.28.35.28.38 0 .13.08.04.34-.33m-.7-.41A6 6 0 0 0 8.34 8c-.2-.13-.35-.23-.33-.23a5 5 0 0 1 1.94 1.59zm.7.03c.05-.1.58-.85.6-.85s-.37.62-.51.78q-.12.13-.1.07m1.04-1.48.08-.18q.06-.1.07-.08l-.07.18q-.08.1-.08.08m-1.72-.3a.4.4 0 0 1 .18.01q.05.03-.09.02t-.09-.03m1.88-.06q0-.06.1-.23.12-.2.07-.05c-.04.14-.18.36-.18.28zm-.02 2.43q0-.06.02-.07.04-.03.07-.16.05-.15-.03-.11c-.08.03-.18.32-.19.5q-.02.15.08 0 .07-.09.05-.16m-.95-.14q.07-.3-.1 0-.2.29-.02.19.08-.06.12-.2m-5.01-.1q0-.06.05.02.06.1.03-.13l-.03-.31c0-.09-.04-.12-.22-.17l-.23-.07.03.32.05.36c.04.06.32.05.32-.02m2.37.01c.18-.02.47-.08.64-.14.25-.08.33-.12.34-.21.02-.14.03-.14-.31-.05-.15.04-.28.06-.3.04q0-.03.28-.1c.17-.04.32-.1.34-.13q.03-.04-.07-.03-.83.21-1 .2-.16-.01.04-.04c.1-.02-.26-.05-.8-.07a4 4 0 0 0-.9 0q.06.04-.2 0c-.29-.04-.29-.04-.26.08l.03.21c0 .22 1.22.35 2.17.24m-1.4-.14h.23q.07.03-.11.02-.19 0-.11-.02m-.36-.07h.15q.04.03-.1.03-.12 0-.05-.03m1.9.03q.06-.01.1.01.02.03-.06.02-.1 0-.03-.03m3.6-.16c.08-.09.26-.62.2-.63l-.25.14c-.13.07-.36.2-.52.27s-.29.15-.29.18c0 .06-.01.06.38-.07l.35-.1a2 2 0 0 1-.63.25q-.2.02-.2.33c0 .08.06.06.43-.1.24-.1.48-.23.53-.27m-.86.3q0-.03.07-.05t.05.02c-.03.05-.12.07-.12.03m.44-.2.1-.07.1-.03q0 .03-.1.08-.09.04-.1.03m-6.2-.12-.03-.23q0-.1-.77-.18-.15-.02-.14-.05c.01-.02-.11-.08-.28-.13l-.8-.24a2 2 0 0 0-.47-.12l.05.22c.05.17.1.23.36.38q.36.2 1.18.43c.06.02.29.04.51.06l.42.02zm-.59-.21a.2.2 0 0 1 .13 0q.04.03-.06.03t-.07-.03M3.09 8.6q-.14-.1-.12-.1l.22.1q.16.1.13.11zm-.32-.18q-.02-.05.04-.02.13.07.03.08-.04 0-.07-.06m6.44.8a.3.3 0 0 0-.09-.23q-.11-.14-.1-.02L9 9.2c-.04.15-.03.16.08.15q.12 0 .13-.14m.16.06-.05-.08q-.04-.03-.05.05 0 .07.05.08zm-6.85-1q-.07-.27-.21-.38c-.19-.15-.2-.15-.17.02.07.33.2.6.32.61l.12.02zm-.22-.18q-.04-.1-.03-.14l.07.12q.08.24-.04.02m4.08.45a9 9 0 0 1-.76-.55 2.3 2.3 0 0 0-.97-.53q-.09 0-.01.08c.07.1.93.8 1.12.91.17.11.64.27.81.29.13 0 .1-.02-.19-.2m-.84-.1c-.16-.1-.5-.38-.76-.6a6 6 0 0 0-.66-.5c-.24-.13-.47-.2-.47-.14s.67.82.89 1c.28.25.71.43 1.02.45h.27zm-.47-.02q-.1-.06-.09-.09.05-.01.17.06c.16.1.1.11-.08.03m-.5-.31q-.46-.4.01-.05.32.26.23.24zm2.75.52a6 6 0 0 0-1.71-1h-.23c0 .05 1.15.87 1.36.97.13.06.34.11.48.12l.25.01zm-1.12-.5c-.27-.2-.37-.31-.16-.16.3.2.49.36.44.35q-.07-.01-.28-.19m2.1.6-.27-.15a4 4 0 0 1-.54-.32 3 3 0 0 0-1.02-.54q-.42-.08.05.23c.12.07.32.22.46.32.34.24.53.35.75.42.24.07.64.1.58.04zm-1.08-.45q-.14-.13.02-.03.1.06.1.09.02.06-.12-.06m-2.55.18q-.01-.05-.1-.1a4 4 0 0 1-.63-.59c-.53-.57-.6-.63-.93-.77-.23-.1-.23-.1.16.44.32.44.77.87 1.02.97.2.09.48.11.48.05m-1.02-.6-.27-.3.3.28.3.3q.01.1-.33-.28m5.03.74c0-.04-.3-.2-.44-.23a3 3 0 0 1-.74-.4l.3.15c.17.1.33.17.36.16s-.12-.12-.33-.24c-.32-.19-.39-.2-.43-.14q-.05.1-.04-.02-.01-.07-.1-.12c-.11-.04-.21 0-.17.07s.95.62 1.17.7c.2.08.42.12.42.07m-6.63-.43q-.02-.07-.2-.2a1 1 0 0 1-.22-.2q-.03-.07-.07-.08c-.1 0 .06.22.26.38.23.18.23.19.23.1m9.33.2q.16-.43-.09-.03c-.15.25-.16.3-.06.26q.07-.03.15-.23m-8-.48-.54-.7a1 1 0 0 0-.31-.34q-.08-.01.01.15c.35.6.89 1.2 1.14 1.25 0 0-.12-.16-.3-.36m-.21.02a5 5 0 0 1-.55-.71c-.31-.5-.4-.47-.1.03.24.4.5.71.7.85q.38.28-.05-.17m8.41.55c.05-.04.2-.47.17-.5-.05-.06-.18.12-.23.31q-.08.31.06.19M2 7.86c0-.06-.13-.23-.27-.36l-.26-.25.03.18.04.19.2.17q.3.3.26.07m-.28-.21-.17-.17.19.15q.23.19.17.18zM2.9 8l-.22-.27a3 3 0 0 1-.37-.58c-.12-.26-.16-.3-.29-.31q-.13 0-.14.03c0 .06.38.75.47.83.14.14.55.36.55.3m-.57-.4q-.06-.12-.02-.1c.05.04.16.24.13.24zm9.54.54q-.02-.05.03-.02t.13-.15q.15-.32-.06-.14c-.12.1-.23.47-.12.4a.1.1 0 0 0 .02-.09m-9.99-.92c-.12-.2-.23-.32-.24-.3q-.02.07-.1 0-.11-.13 0 .13.04.13.1.14.03 0 0-.06t.03-.03q.05.05.05.1c0 .07.29.36.35.37.03 0-.06-.16-.19-.35m9.93.48c0-.07-.15 0-.2.08q-.1.14.08.03zm-5.74-.2-.27-.67a10 10 0 0 1-.39-1.04 3 3 0 0 0-.28-.69l-.25-.46a3 3 0 0 0-.92-.76l-.16-.1.03.15c.04.19.77 2.4.96 2.91.24.63.2.6.6.6.18 0 .34.02.34.04q.02.03.17.05.17 0 .18-.02m-1.05-.35q-.06-.21.03-.06.04.1.03.12-.03.02-.06-.06m.32-.22q0-.05.05-.02t.05.06L5.4 7q-.05 0-.05-.06m-.56-1.26q-.1-.18.01-.04l.07.15q0 .12-.09-.1m-.3-.65q0-.05.05-.02t.05.06l-.05.02q-.05 0-.05-.06m-.11-.2c-.05-.05-.04-.2.02-.24q.05-.02.02.04-.02.07.05.16.1.1.01.09-.07 0-.1-.04M.83 6.99a3 3 0 0 1 2.27-.12c.08-.08-.78-.56-1.14-.63-.23-.05-.23-.06-.1-.08l.15-.03-.18-.05a2 2 0 0 0-.4-.04q-.21 0-.23-.03c0-.05.42-.09.54-.04q.1.03.1-.02.02-.12-.38-.14-.28 0-.2-.05l.25-.03c.26 0 .2-.1-.07-.12q-.29-.02-.04-.04c.16-.03.16-.03.06-.12q-.1-.12-.2-.05c-.32.16-.71.93-.8 1.55-.04.3-.04.31.06.23.05-.04.19-.13.31-.18m-.07-.13c.06-.05.24-.15.41-.22.26-.12.4-.15.73-.15.22 0 .34.01.26.02-.5.06-.79.12-1.07.25-.42.2-.45.2-.33.1m5.56.55-.05-.14q-.07-.15.05 0 .09.14.12.08.04-.05.14-.05.09 0 .1-.07 0-.14-.65-1.7a13 13 0 0 1-.63-1.78c-.07-.08-.27.58-.24.8l.02.17-.07-.18c-.07-.16-.06-.2.06-.5l.13-.4c0-.14-.64-.35-.94-.3a1 1 0 0 0-.35.2l-.21.17.17.07a3 3 0 0 1 1.36 1.49c.04.07.12.29.18.48.15.51.67 1.69.75 1.69q.05 0 .06-.03m.07-.66q-.11-.31.03-.07.07.15.04.18t-.07-.11m-.37-.02q-.06-.22.02-.06.04.08.03.12-.02 0-.05-.06m-.8-1.88-.02-.1q.02 0 .08.1.04.1.02.1t-.07-.1m-.42-.88c0-.05.14-.12.17-.08q.01.05-.08.07t-.1.01M4.78 7.2a1 1 0 0 0-.17-.32q-.13-.18-.09-.21c.03-.01-.05-.16-.17-.34q-.3-.4-.06-.13c.3.32.2.08-.15-.33s-.97-1.25-1.67-2.24a3 3 0 0 0-.56-.66C1.56 2.81.9 2.72.73 2.81c-.1.06-.53.62-.53.7 0 .05.13.25.3.44l.93 1.16c.69.88.87 1.08 1.01 1.1q.09 0 .1-.02l-.24-.33-.37-.52-.14-.21.16.16c.08.1.2.24.25.34q.1.16.14.15c.02-.01.12.08.22.2l.2.23L2.54 6q-.2-.2-.21-.17c0 .08.56.68.6.65 0-.02.1.07.18.19.22.3.29.27.07-.04q-.27-.37.07.05c.13.16.28.3.33.3l.19.06q.12.07-.06-.17l-.23-.29q-.07-.07-.07-.12c0-.03.13.1.3.3.4.5.46.46.06-.05-.31-.4-.31-.4.1.07.45.54.62.61.22.1A35 35 0 0 1 2.6 4.9q-.62-.94-.77-.94l-.4-.12a2 2 0 0 0-.52-.13c-.28 0-.66-.12-.66-.2q0-.04.1 0l.54.1c.23.03.54.1.69.15.31.11.36.12.32.05a1 1 0 0 1 .06-.28A1 1 0 0 0 2 3.21q-.03-.1.03-.05.08.03.03.31c-.07.4-.06.43.15.7l.43.6q.64.96 1.43 1.84c.29.32.52.6.52.64q.01.05.1.06.12.01.08-.11m-.4-.41q-.15-.22-.07-.15c.11.1.32.4.29.4zM3.26 6.5c-.2-.28-.3-.45-.12-.23s.33.46.3.45zm1.02-.06-.14-.18.16.16q.2.21.14.2zm-2.2-.67-.38-.5q-.1-.14.02-.03c.1.09.73.92.7.92a3 3 0 0 1-.34-.4m1.81.28-.1-.12.12.1q.15.15.09.15zm-.86-.32-.17-.2.19.19q.24.24.16.21zm-.05-.73-.34-.42L3 5c.2.21.35.4.33.4 0 .02-.17-.16-.35-.38m-.96-.6-.17-.21.2.21q.2.2.2.23-.01.08-.23-.22m-.6-.36c-.17-.08-.29-.16-.26-.16.03-.01.2.06.37.15.39.2.33.22-.1.01m-.64-.1q-.15-.14-.11-.15c.02 0 .11.07.19.16q.26.3-.08 0m.2-.01q-.05-.08 0-.08.04.01.1.08t.01.08q-.04-.01-.1-.08m-.43-.76q.01-.05.11-.14l.12-.1-.1.13-.12.15zm.73-.07q.07-.01.1.01.01.03-.07.03-.08-.01-.03-.04m.2.01q.05-.02.03-.08t.02-.02c.09.06.07.14-.03.13q-.08 0-.02-.03m-.41-.1c-.1-.08-.1-.09 0-.12q.08-.02.14.03t0 .06-.04.05q.06.1-.1-.03m11 4.52.2-.17q.07-.12-.07-.1c-.33-.02-.56.25-.3.34zM1.4 7.01q-.03-.04-.08-.06-.04 0 0 .09c.08.08.14.07.08-.02zm5.73.18.18-.04c.07-.05.9-1.22 1.1-1.56a6 6 0 0 1 .45-.62c.18-.21.4-.53.51-.7.2-.35.55-1.1.52-1.14s-1 .16-1.24.26c-.25.11-.29.15-.48.52-.2.38-.38.63-1.29 1.77q-.53.66-.35.67.05-.02.18-.2t.16-.2q.01.02-.13.23-.17.23-.13.35c.04.16.06.17.19.05q.14-.13.02.04c-.1.14-.12.28-.05.24q.05-.02.02.07-.01.1.02.1.05.02.03.12c-.03.1-.02.1.07.08zm-.1-.14q.04-.1.07-.1.02 0-.03.1t-.08.1q-.01-.01.03-.1m.3-.46c.05-.1.15-.23.2-.3l.1-.12-.08.16c-.05.1-.15.23-.21.3l-.12.14zm-.37-.24.1-.13c.04 0-.08.2-.13.23q-.04.02.03-.1m-.18-.08a.4.4 0 0 1 .11-.14q.06-.04 0 .07l-.1.14q-.08.03 0-.07m.34.09q0-.02.1-.09.1-.1 0 .02t-.1.07m.36-.6q.17-.08.12.01-.03.05-.11.05-.12 0-.01-.05m.56-.9a.2.2 0 0 1 .09-.16q.1-.08.02 0a.3.3 0 0 0-.06.15q0 .09.12-.03t.11-.17.12-.08c.1 0 .1.01-.1.2-.26.22-.3.23-.3.1zm1.15-.93q.01-.06.13-.2l.14-.14-.12.18C9.2 4 9.2 4 9.2 3.93m-.68-.33c.06-.07.37-.18.44-.15q.01.02-.23.12-.26.09-.21.03m-.65 3.2q.56-.75.47-.58c-.07.15-.46.68-.57.78s-.14.23-.06.23c.02 0 .17-.18.33-.4s.3-.4.32-.4-.03.09-.28.44c-.13.18-.22.34-.2.36q.03.02.05 0c.29-.37.5-.64.52-.64q.04 0-.21.33c-.2.25-.25.33-.2.33.03 0 .17-.14.3-.31l.32-.39c.14-.17-.02.08-.24.37-.31.4-.23.41.09.01.14-.18.27-.33.29-.33.03 0-.3.45-.38.52-.07.06-.08.14-.02.14a4 4 0 0 0 .95-1.48c.06-.2.2-.57.3-.83q.32-.8.3-1.36l-.02-.28-.17.41c-.19.46-.43.86-.82 1.34-.14.17-.37.5-.5.72-.13.23-.4.63-.6.9l-.37.51c0 .1.1 0 .4-.4m1-.35q.04-.09.07-.1.02.01-.03.1t-.08.1zm.56-1.27a.3.3 0 0 1 .05-.16c.06-.09.06 0 0 .13q-.04.1-.05.03M9.2 4.9l.05-.05q.05 0 .02.05l-.05.05zm.45-.38q.01-.09.03-.03.02.07 0 .1t-.03-.07m.06-.2q0-.1.03-.03v.1q-.04.01-.03-.07m-.75 2.83q.06-.06.13-.04c.03.02.16-.06.28-.16q.19-.16.12-.08-.08.12-.07.14.06.12.45-.38l.48-.56.18-.2-.17.24a6 6 0 0 1-.44.54q-.41.47-.05.2.12-.08.15-.06c.12.13.46-.25 1.35-1.54a15 15 0 0 0 1.44-2.31c.01-.13-.01-.15-.22-.21l-.46-.2-.24-.12-.1.11-.22.35c-.23.39-.88 1.32-1.12 1.62a9 9 0 0 0-.73.93c-.12.19-.37.84-.37.98 0 .04-.13.22-.27.41s-.27.36-.27.38c0 .06.09.04.15-.04m.1-.1c0-.05.53-.7.65-.79.04-.03-.06.12-.24.34-.4.5-.4.5-.4.45m.66-.54c.09-.12.2-.25.26-.28s-.02.07-.15.22l-.26.28zm.63-.2.24-.26c.03 0-.28.38-.37.46q-.07.04.13-.2m-.74-.3.14-.16q.09-.08-.03.1c-.12.18-.2.22-.11.07m.1-.47.12-.13q.04-.03-.04.1-.17.23-.07.03m.16-.23q0-.02.1-.08.1-.1 0 .02t-.1.06m.45-.27q.13-.08.16-.04t.13-.07c.1-.13.67-.52.75-.52.06 0-.26.24-.32.24q-.06.02-.28.23-.22.23-.3.2t-.12.02q-.03.03-.08.04-.04-.01.06-.1m1.46-.9q.08-.08.12-.06.02.04-.09.1-.14.08-.03-.04m.05-.38q0-.05.05-.08t.05.05q0 .07-.05.08zm-.35-.48.24-.37c.12-.21.33-.3.32-.15q0 .07-.08.04t-.29.27c-.1.17-.22.32-.25.34q-.04.02.06-.13m.97-.17q.06-.1.1-.1.02 0-.03.1-.06.09-.1.1-.03-.01.03-.1m0 3.87c.12-.13.17-.33.08-.34-.1 0-.5.15-.5.2q0 .03.06.05.06 0-.02.05-.12.07.13.06.08 0-.07.06t-.13.1c.05.06.34-.05.46-.18m-1.68-.48q.13-.16.1-.06c-.04.11.13-.05.37-.35q.08-.12-.04.1c-.1.13-.14.24-.11.24q.06-.01.13-.12a.4.4 0 0 1 .24-.15.5.5 0 0 0 .27-.14c.12-.13.7-.98.9-1.31.15-.27.28-.85.3-1.31 0-.34-.1-.37-.11-.03q0 .21-.03.15c-.04-.14-.09-.1-.25.17-.2.36-.19.34-.8 1.25-.3.46-.68 1-.84 1.21-.35.47-.37.51-.31.51q.04-.01.18-.16m.21-.31c.06-.09.17-.22.25-.3q.15-.19-.04.09l-.24.3q-.06.04.03-.1m.72-.33q.16-.2.19-.2c.02.03-.29.43-.33.43q0-.02.14-.22m-.2.1c.05-.13.27-.44.29-.42s-.05.13-.14.25q-.16.2-.15.16m-.15-.26q0-.02.1-.09.1-.1 0 .02t-.1.07m.2-.07.1-.13q.08-.04 0 .07l-.1.14q-.06.04 0-.08m.4-.33q.01-.06.05-.04.05.02.02.08-.07.1-.07-.04m.01-.2q0-.1.03-.04v.1q-.03.03-.03-.07m.3-.1.05-.12q.04-.06.04-.03L12.3 5q-.03.06-.04.03m-.29-.17q0-.14.03-.07a.3.3 0 0 1-.01.16q-.02.05-.02-.1zm.46-.35q0-.23.02-.11v.26q-.03.08-.02-.15m-.21.12.04-.2.05-.13v.13a.4.4 0 0 1-.05.2q-.06.1-.04 0m.2-.45.05-.05.05.05q-.01.05-.05.05zm-.02 2.39q.24-.1.23-.2c0-.1-.02-.1-.11-.08-.12.03-.39.26-.4.33 0 .05.02.05.28-.05m.11-.47c.13-.05.3-.07.59-.07.07 0 .07-.03-.07-.22a2 2 0 0 0-.35-.36l-.2-.15-.09.12q-.18.25.02.19l.1-.03-.1.09-.14.2c-.04.11-.03.11.17.05q.49-.14.06.05c-.14.06-.26.13-.26.14l-.04.12q-.06.14.06 0zm-6.05-.33q-.01-.14.03-.03.14.2-.07-1.16l-.2-1.43c-.04-.32-.1-.7-.14-.86a4 4 0 0 1-.06-.7c0-.23-.02-.4-.05-.4q-.04 0 0-.06.03-.06-.1-.03l-.4.06a1 1 0 0 0-.35.1c-.14.1-.24.55-.25 1.1-.01.77 0 .85.23.92.33.1.42.23.56.77a4 4 0 0 0 .33.94c.06.19.14.33.17.33q.04 0 .05.04c0 .02.04.18.1.35q.1.28.14.23t.01-.17m-.1-.49q0-.09.03-.03.02.07 0 .1t-.03-.07m-.14-.1q0-.1.03-.04v.1q-.04.02-.03-.07m.1-.13q0-.11.03-.06a.2.2 0 0 1 0 .13q-.03.04-.03-.07m-.05-.29q0-.1.03-.03.02.06 0 .1-.03.03-.03-.07m-.54-2.12q-.01-.06.03-.15.05-.11.05.06 0 .22-.08.09m-.66-.3.05-.04q.05 0 .02.05t-.05.05zm-.11-.26q-.02-.04.02-.11.05-.1.05.04 0 .18-.07.07m.09-.34.03-.19q0-.09.05-.1c.05 0 0 .31-.06.35q-.06.03-.02-.06m.2-.32q.08-.05.26-.08a1 1 0 0 0 .3-.1q.15-.14 0 .02a.5.5 0 0 1-.25.14l-.25.05q-.1.02-.05-.03zM4.15 5.4l-.29-.88c-.1-.33-.2-.67-.2-.76.01-.27.57-.68.84-.61.15.03.15.04 0-.44L3.93.53C3.9.41 3.85.31 3.83.31a1 1 0 0 0-.23.26c-.36.53-.48 1.48-.3 2.39.32 1.54.55 2.32.75 2.56.08.1.16.19.17.18.01 0-.02-.14-.07-.3m-.32-.57q-.04-.1.03-.02.04.05.03.1-.03 0-.06-.08m.5-2-.03-.16q-.04-.13.03 0 .04.1.03.16-.03.06-.03 0m-.98-.24q0-.14.03-.06v.15q-.03.05-.03-.1m.87-.12q-.07-.21.02-.06.05.08.03.12-.02 0-.05-.06m-.27-.43-.04-.25q0-.1.07.12c.07.26.06.34-.03.13M3.88.98q-.04-.1-.1-.08c-.08.03-.1-.06-.02-.1.05-.03.22.23.18.27q-.03.01-.06-.09M1.3 5.18q0-.1-.15.04c-.14.12-.13.18.02.09q.12-.08.13-.13m5.47.32q.07-.09.05-.15-.02-.07.06-.04.09.05.04-.09-.07-.31-.3-1.9a7 7 0 0 0-.46-1.9l-.07-.2-.02.29c0 .18.02.46.07.7s.13.65.16.93l.2 1.34c.06.44.1.87.1.95q-.01.24.16.07zm-.54-3.4q-.06-.21.03-.06.04.09.03.12-.03.02-.06-.06M3.62 4.72c-.1-.28-.44-1.85-.44-1.97h-.1q-.08.01-.12-.03-.02-.06 0-.05c.15.03.16-.02.15-.51 0-.4.02-.61.12-.96l.1-.45-.16.08c-.14.08-.13.07.32-.3.19-.17.13-.23-.08-.08-.42.27-.69.67-.62.92q.02.11-.02.05-.04-.08-.13.2c-.14.46-.16.69-.08.98l.15.67c.04.22.12.5.19.65.12.27.19.34.11.12-.06-.17-.06-.19 0-.18q.05 0 .06.09c0 .12.17.54.18.45l-.05-.18q-.04-.1-.03-.16c.02-.06.18.4.2.58.02.1.13.23.18.2q.03-.01.07.1.04.13.07.14c.03 0 0-.16-.07-.36m-.3-.67c-.06-.2-.1-.36-.09-.38q.04.02.13.34c.05.19.09.36.07.37s-.07-.13-.12-.33m-.2-.24q-.04-.13.01-.06a.1.1 0 0 1 .03.12q-.02.05-.05-.06m-.2-.76q-.08-.08-.05-.08l.15.08q.08.08.04.08zm-.21-.8q0-.09.03-.03v.1q-.04.02-.03-.07m.25-.11q0-.11.03-.06v.12q-.03.05-.03-.06m-.35-.05q0-.09.03-.03.02.07 0 .1T2.6 2.1m.05-.21q0-.1.1-.1.1.02.1.1 0 .1-.1.1t-.1-.1m.3-.08q.02-.13.03-.06a.3.3 0 0 1 0 .16q-.02.04-.02-.1m4.3 3.12c.1-.1.13-.27.25-1.08.2-1.37.32-1.96.56-2.62.3-.82.29-.77.18-.77S7.57.6 7.38.7c-.2.1-.57.48-.75.79l-.17.27.12.42c.06.23.13.61.16.85a4 4 0 0 0 .1.56c.02.07.04.2.04.3q0 .16.03.21c.02.02.03.12.02.21q-.01.16.06.26.07.09.07.33 0 .23.03.2zm.03-1.06q0-.13.03-.06a.3.3 0 0 1 0 .16q-.03.04-.03-.1m-.15 0q0-.1.03-.04v.1q-.03.02-.03-.07m.06-.34q0-.11.02-.06a.2.2 0 0 1 0 .13q-.02.04-.02-.07m.15 0q0-.1.02-.06a.2.2 0 0 1 0 .13q-.03.04-.02-.06m.05-.3q0-.11.03-.07a.2.2 0 0 1 0 .13q-.03.05-.03-.06m-.35-.54q.04-.11.14-.12.09 0 .12-.15.04-.17.04-.04 0 .26-.13.27-.08 0-.15.08-.08.13-.02-.04m-.43-.81c0-.07.15-.4.18-.4s0 .1-.05.2q-.12.29-.13.2m.85-.44q.06-.07.03-.23c-.01-.08 0-.17.02-.18.06-.04.1.29.04.4q-.04.08-.1.09-.05 0 .01-.08m2.5 3.42c.03-.08.15-.56.26-1.06.1-.5.24-1.1.3-1.33.12-.51.13-.76.04-1.17-.14-.58-.4-1-.73-1.1-.09-.04-.1-.01-.16.2L9.3 1.8l-.29 1.23c0 .07.37.05.66-.05.17-.05.21-.05.31.02s.12.12.11.52q0 .44-.14.94c-.15.57-.14.54-.1.54zM9.3 2.7q.08-.29.07-.1a.4.4 0 0 1-.05.18q-.05.1-.02-.08m.09-.33c0-.17.13-.68.14-.54l-.07.39q-.07.24-.07.15m.86-.22.02-.08q.05-.03.05.05 0 .14-.07.03m-.56-.42.05-.2c.05-.13.05 0 0 .18q-.05.15-.05.02m-.15-.11q0-.1.03-.03.02.06 0 .1-.03.01-.03-.07m.26-.38q0-.11.03-.06a.2.2 0 0 1 0 .13q-.03.04-.03-.07m-.15-.05q0-.12.03-.07a.2.2 0 0 1 0 .13q-.03.04-.03-.06M7.71 4.32a.2.2 0 0 1 .06-.14c.07-.06.14-1.77.08-1.77s-.19.8-.2 1.29l-.06.64c-.04.24-.04.25.04.16a.4.4 0 0 0 .08-.18m2.73-.2q.1-.22.1-.12t.08-.08c.04-.1.1-.18.12-.16.12.08.4-1.01.28-1.1l-.13-.24c-.05-.1-.12-.2-.15-.2s-.12.25-.2.6c-.17.75-.3 1.41-.3 1.5 0 .12.1 0 .2-.2m-.04-.25q0-.11.02-.07a.2.2 0 0 1 0 .13q-.02.05-.02-.06m.14-.08a1 1 0 0 1 .08-.28q.08-.2.07-.06a1 1 0 0 1-.07.28q-.09.2-.08.06m-.04-.33a1 1 0 0 1 .08-.34l.07-.2-.04.2-.07.34-.04.13zm.3-.12.05-.2.04-.1v.1l-.04.2-.05.1zm-.1-.13q0-.12.03-.07a.2.2 0 0 1 0 .13q-.02.05-.02-.07m-2.56.38c.03-.11.46-.42.58-.42.04 0 .08-.24.06-.38q0-.03.04 0 .1.07.21-.54c.03-.17.07-.35.09-.39q.03-.07-.06-.06a1 1 0 0 1-.29-.08c-.17-.07-.2-.06-.32.02a2 2 0 0 0-.3.32L8 2.3l.02.71q.03 1 .13.6zm.5-1.07-.1-.22q.04 0 .14.17c.06.1.1.2.08.21-.01.02-.07-.06-.13-.16m-.06-.59q-.04-.1.03-.03.05.06.03.1-.03.01-.06-.07M8.86 3q-.01-.06-.02.03 0 .1.02.07.03-.04 0-.1m2.3-.97c.07-.5.05-.83-.06-.8q-.05 0-.04-.06c0-.04-.05-.18-.11-.31a1 1 0 0 0-.35-.4q-.42-.25-.2.03c.18.23.4 1.1.35 1.37-.04.17.06.35.14.24q.04-.08.03.01c-.02.1.1.42.15.42.02 0 .06-.22.1-.5m-3.1-.25a.4.4 0 0 1 .06-.2q.06-.1.02 0-.01.08.02.13c.04.03.07-.1.13-.58.02-.15.05-.32.07-.36q.03-.1-.03-.04a1 1 0 0 0-.11.3l-.1.36c-.03.06-.08.2-.11.33l-.09.3q-.03.1.06 0a.4.4 0 0 0 .08-.24" style="fill:#000;stroke-width:.495728"/></svg>