<svg xmlns="http://www.w3.org/2000/svg" xml:space="preserve" id="svg39" width="38.69" height="55.59" viewBox="0 0 10.24 14.71"><path id="path18-7" d="M.21 6.2c.4.6.69.84.96.78l.11-.02v.1c.02.17.01.7 0 1.18-.02 1.1.13 1.73.63 2.5.93 1.43 1 1.53 1.38 1.84.28.23.3.27.25.48-.06.3.04.73.26 1.1.06.07.12.21.15.3.08.22.16.28.36.24a1 1 0 0 0 .28-.15l.29-.2c.2-.09.4-.23.48-.33.07-.08.15-.33.17-.5s.07-.3.12-.31l.26-.03q.39-.05.66-.26c.13-.1.38-.42.5-.63l.11-.18c.03.03-.1.4-.2.61a1 1 0 0 0-.13.66c.03.21.1.33.3.43a.4.4 0 0 1 .2.17q.15.29.42.17l.25-.04c.25 0 .41-.2.36-.42l.01-.21.02-.17c-.02-.06-.01-.06.13-.01l.23.16q.33.33.68.02c.2-.16.23-.2.23-.3l.1-.24q.25-.38-.11-.63l-.18-.2q-.1-.2-.41-.3l-.25-.1-.07-.04h.06l.26.03q.34.02.47.19c.09.1.1.1.15.02q.08-.11-.1-.25a1 1 0 0 0-.5-.16q-.3 0-.32-.08c0-.03.2-.32.48-.67.27-.32.62-.88.72-1.13.11-.27.15-.42.2-.9l.06-.42-.1-.4c-.08-.38-.1-.45-.23-.72a4 4 0 0 0-.64-.93l-.1-.11-.14-.63-.1-.63q.02-.01.2.05a1 1 0 0 0 .4.05c.18-.02.22-.03.26-.07.1-.13-.02-.28-.44-.62a3 3 0 0 1-.37-.34l-.43-.46c-.13-.14-.26-.3-.28-.35a7 7 0 0 0-.86-1.43l-.34-.32-.36-.33a2 2 0 0 0-.62-.39 3 3 0 0 0-.7-.1c-.37-.01-.5-.04-.9-.2a4 4 0 0 0-2.1-.34q-.8.1-1.23.68-.1.13-.18.14c-.2.02-.42.22-.55.5-.12.26-.3 1-.4 1.6-.05.34-.04.8.03 1.55.04.41.04.57-.02.9a1 1 0 0 0 .17.8M.2 5.43a3 3 0 0 0 .05-.66q0-.25.09.02.07.26-.03.17-.06-.08-.01 0c.08.15.08.18.02.28q-.12.2.01.05.07-.09.1-.06.04.02-.02.09l-.08.06q-.03 0-.02.06-.01.09.04 0l.1-.11c.06-.05.06-.05.1 0s.05.04-.13.19q-.06.06-.1 0-.08-.05-.01.05.04.05 0 .06-.02 0 0 .06c.04.07 0 .1-.03.03L.24 5.7a1 1 0 0 0 .17.27q.04.07.03.09l-.1-.08c-.1-.13-.08-.05.04.13.11.16.12.17.09.18s-.2-.26-.25-.38a1 1 0 0 1-.02-.48m.18.35q0-.03.04-.02c.03.02.01.1-.02.1q-.05 0-.02-.08m.08.11c.03-.03.1.04.07.07s-.08.01-.09-.02q0-.03.02-.05m-.04-.32q.04-.07.07-.02.04.04-.01.09c-.08.1-.14.03-.06-.07m.13.62q.02 0 .03.03l.03.07q.05.06-.03 0-.09-.1-.03-.1m.04.16.04.02v.03l-.04-.02zM.55 6c.05-.03.13.09.1.12Q.6 6.13.57 6.1.48 6.02.54 6M.5 5.67q.04-.04.08 0 .05.03-.01.07-.05.05-.08.04-.06-.04 0-.11m.15.76.03.02q.03.02 0 .03l-.04-.02zm.08.1.05.05q0 .03-.04 0-.05-.03-.05-.05-.01-.03.04 0m-.15-.75q.06-.04.08 0l.03.05c.01.02-.08.1-.11.08-.05-.02-.05-.09 0-.12M.2 4.09c-.05-.56-.04-.93 0-.9q.03 0 .01-.03c-.03-.05.01-.34.12-.78l.08-.33L.52 2q.13-.06.14-.02c.03.04-.02.1-.07.08-.07-.02-.16.1-.14.19.02.1-.01.26-.06.29q-.04.01 0 .1.04.08-.05.12-.07.05-.03.04c.04 0 .04 0 .03.08l-.05.1-.02.06q0 .04.03.02t.03.06c0 .15 0 .15-.06.12q-.04-.04 0 .1.05.23-.04.15-.04-.03 0 .02c.05.08.1.3.06.3q-.03 0 0 .07V4l.02.12.02.08-.05-.07q-.08-.1-.03-.01.11.27.08.3t0 .1q0 .16-.05.07c-.04-.05-.06-.18-.1-.5m.48 2.05q.06-.04.06.05-.01.04-.04.03-.06-.03-.02-.08m-.14-.67q.06-.1.2.09l.18.18q.07.04-.03-.06l-.22-.26-.15-.18a.08.08 0 0 1 0-.14q.05-.03.09.02l.37.4c-.05 0-.03.1.04.14q.14.12.16.2c.02.07.12.19.18.2q.05.01.1.11l.07.1q0-.03-.04-.1-.07-.16.02-.13.08.02-.04-.06l-.06-.05.03.05c.04.08-.04.08-.14-.01q-.15-.15-.05-.14.06.01-.02-.05-.12-.1-.05-.08.02.01.02-.01t-.04-.03l-.1-.02q-.06-.03-.03-.1V5.5c-.03 0-.41-.4-.42-.44q0-.03.04-.05.04-.05.14.06l.1.1c.01 0-.06-.1-.14-.18L.6 4.82c-.07-.08-.07-.1-.04-.14q.03-.06.08 0 .04.03.04.07 0 .02.02.02l.1.08c.1.12.07.04-.05-.1-.1-.12-.1-.14-.07-.17q.05-.04-.02-.02c-.08.02-.12-.05-.06-.1.04-.03.06-.02.17.1l.16.18C1 4.8.9 4.67.8 4.54S.7 4.4.74 4.38q.05-.02-.01-.02a.1.1 0 0 1-.1-.04q-.04-.05.02-.08.07-.06.1.03l.12.11q.09.08 0-.04L.7 4.16q-.08-.08-.08-.12t-.05-.06 0-.08c.04-.04.05-.03.17.1q.12.15.17.18c.05.03-.06-.1-.17-.24q-.09-.09-.06-.12T.67 3.8c-.06.01-.1-.07-.06-.12q.05-.05.09.01.04.05.04.08t.03.03c.05.02.06.02-.06-.15-.1-.15-.1-.19-.01-.2.04 0 .11.09.11.15q0 .06.03.02.02-.02.05-.01v-.02l-.02-.12v-.08l.06.07q.11.14 0-.04-.05-.08-.05-.15.02-.13.15.07c.1.14.08.06-.03-.1-.1-.14-.1-.17 0-.3q.05-.06.06-.1c0-.02-.14.1-.16.16q-.01.04-.04.03l-.15-.21c-.02-.05.09-.03.13.02q.04.08.01-.03a.3.3 0 0 0-.08-.14q-.08-.05-.02-.08.06-.07.14.09.05.08.07.08c.02 0-.1-.24-.15-.27l-.03-.06c-.02-.08.08-.07.13 0q.04.08.1.12.06.08-.01-.04l-.06-.14q0-.04-.04-.06c-.08-.05-.07-.12.02-.12q.02 0 .02-.02-.01-.03-.08 0-.09.04-.1-.04.01-.13.1-.04.05.06.03 0 0-.04.04-.06.06 0-.01-.03c-.05-.03-.05-.03 0-.09l.04-.1q-.01-.03.05-.05.05-.02.04-.05-.04-.09.05-.09.05.01.06.08l.02.07.02-.08c.03-.1.01-.18-.02-.13l-.06.03c-.05-.02-.07-.08-.04-.1s.2.03.26.1q.05.05.02 0l-.06-.16q-.06-.13.02-.1l.1.04q.02.03.05 0l.11-.02q.07 0 .03-.01-.07-.01-.02-.04.03-.03-.1-.01c-.06 0-.2 0-.32-.02l-.3-.01q-.07 0-.03.02c.09 0 .04.07-.07.07q-.1 0-.06.03c.05.02.05.1 0 .11q-.04 0-.02.06t-.04.06q-.08.02.02.02.06 0 .08.03 0 .03.03-.01.02-.06.01 0 0 .02-.12.08L.5 1.8q-.06.06 0-.08.18-.51.4-.65C1 1 1.33.96 1.8.95c.46-.02.52 0 1.08.42q.44.33.62.4.31.12.18.17c-.09.05-.4.01-.74-.09-.1-.02-.1-.02-.1.01q.01.04.12.1c.07.02.24.15.38.28q.4.36.98.62l.43.2c.2.09.4.24.7.54l.47.37c.35.25.44.35.14.15l-.2-.1q-.03.03-.07 0L5.73 4c-.04.02-.38-.13-.45-.2l-.1-.06.1.1.1.12-.18-.14-.17-.14c-.02 0 0 .03.14.16l.08.1c-.03 0-.2-.16-.32-.3l-.1-.1q-.07-.02.07.13.08.08.08.11c-.02.02-.14-.08-.24-.2q-.08-.08-.06-.04.13.2 0 .1l-.13-.14q-.05-.08-.07-.08t.04.09q.1.15 0 .1l-.13-.12q-.06-.08-.07-.06l.05.08q.04.05.01.05-.07 0-.2-.2l-.07-.1.08.15q.07.12.06.14-.03 0 .05.07.08.05.07.07c-.02.03-.13-.03-.19-.1-.07-.1-.07-.1-.01-.1l-.02-.01Q4.1 3.45 4 3.31q-.1-.17.01.08.05.07-.04.05c-.08-.02-.07 0-.2-.23l-.11-.15.09.19.08.18.03.06q.04.02-.03.01c-.06 0-.09-.05-.03-.06q.02 0-.03-.04l-.08-.1-.05-.09-.08-.14c-.09-.17-.06-.05.04.15l.06.18c-.01.02-.16-.07-.17-.11q-.01-.05-.06-.03-.03.04-.1-.11c-.05-.13-.05-.13 0-.1l.07.1q.01.04.04.04t0-.05l-.07-.18c-.04-.14-.1-.19-.07-.06q.01.09-.03.04l-.1-.13q-.04-.1-.03-.03.02.15-.12-.05-.09-.16-.06-.04.02.1-.04.04l-.09-.12-.04-.1.02.09.07.14c.04.06.1.26.07.23l-.08-.14q-.09-.16-.04-.02c.06.16-.04.11-.1-.06q-.07-.15.03-.07.04.02.04 0l-.09-.07a.2.2 0 0 1-.1-.16q-.02-.09-.02-.03-.01.12-.08 0-.07-.17-.05-.07c.02.13-.07.05-.1-.09q-.01-.08-.03-.03v.11q-.04 0 .02.07c.06.06.09.2.05.21s-.15-.24-.18-.36q-.01-.08-.04-.04-.03.03.07.26c.1.26.12.32.08.28a2 2 0 0 1-.22-.4l-.06-.07Q2 2.27 2 2.16t-.03-.1c-.05 0-.02.2.06.4.08.24.15.34.08.14l-.02-.12.09.13.12.17q.09.09 0 .08c-.05 0-.12.13-.17.29-.03.13-.1.67-.1.79a11 11 0 0 1-.23 1.72v.1l-.09-.12q-.09-.14-.1-.07c-.03.05-.03.05-.16 0l-.18-.1q-.06-.07.05 0 .17.07-.03-.07-.11-.06-.14-.05c-.02.03.13.2.24.25a.3.3 0 0 1 .16.17q.04.1.03.13l-.01.04q0 .03.02 0l.06.03q.08.1-.04-.17-.1-.23.04-.06.07.1.03.02l-.05-.11q-.04-.05 0-.04t.1.11l.06.11-.1.25c-.05.14-.1.27-.13.3q-.03.08-.1-.07-.05-.1-.09-.1t-.02.03q0 .03-.06.04l-.06-.01-.1-.08Q1 6.1 1.06 6.07q.02-.04-.04-.05H.95l.06-.07q.08-.1-.03-.02C.93 5.96.8 5.9.8 5.86q0-.04-.06-.07a.1.1 0 0 1-.04-.08q0-.04-.03-.04-.04 0-.09-.07c-.07-.08-.07-.09-.04-.13zm.51-.35q.04.02.01-.04t.03-.11l.06-.07-.07.02q-.1 0-.07.1 0 .09.04.1m.18.2.1.04q.02-.04-.15-.1-.12-.05.05.05m0-.09q.14.03.05-.03c-.04-.02-.11-.02-.1 0zm-.2-1.05q0-.04-.02-.06v.04q.01.05.02.01zm.16.59q.03.05.03.1 0 .04.14.15a1 1 0 0 1 .34.42q.03.08.06.1.04 0-.06-.16-.03-.05.02-.04.08.02 0-.06-.02-.05-.02 0 .01.05-.04 0-.09-.05-.01-.07.02-.01-.18-.16-.36-.26-.15-.16l.15.05.07.01-.08-.04-.16-.1q-.1-.04-.06-.07t-.02-.04q-.1-.03-.03.07m.12-.3q.1.02.11 0c0-.02-.16-.06-.2-.05q-.02.02.09.05m-.01.22.05.01q.02 0-.02-.03l-.04-.01zm0-.47c.06.04.14-.01.14-.09q-.01-.15-.04-.02-.04.15-.09 0-.02-.13-.04-.04-.06.1.03.15m-.2-1.04.07.02q.05 0-.01-.03c-.05-.02-.09-.1-.05-.1l.07.03q.04.03.02 0c-.03-.06-.15-.04-.15.01zm.18.59.04-.01c0-.04-.06-.06-.07-.03q0 .03.03.04m.07-.13c.1.06.21-.01.19-.12-.02-.08-.07-.07-.06 0q.01.07-.08.07-.14-.01-.05.05m.3.97.26.32c.01-.03-.09-.19-.18-.28q-.08-.08-.07-.11t.04.03.06.04a.04.04 0 0 1 .05.02q.02.01 0-.05l-.09-.11q-.06-.05 0 .02.09.12-.02.05-.05-.05-.06-.02L1.6 4.5q-.12-.07.04.1m.1.36q.05.1.08.1v-.04l-.06-.14q-.03-.09-.07-.1-.05-.04.05.18M1.3 2.98q.08.08.06-.06-.04-.1.07-.1.14-.02.03-.05t-.16.06q-.06.08 0 .15m.33 1.03c.08.11.19.23.23.26l.09.06-.11-.12-.18-.25q-.11-.2-.16-.18c-.03 0-.02.02.13.23m-.39-1.5a.1.1 0 0 0 .1 0q.04-.03 0-.04-.1 0-.12-.12 0-.05-.03-.06c-.05 0 0 .18.05.21m.01-.35q.1.04.02-.05-.04-.03-.06 0 0 .02.04.05m.6 2.59q.04.05.02-.01 0-.04-.04-.04-.05-.01.02.05m-.05-.29V4.4zq0 .04.01.01zm-.07-.48q.06.08.06.04c0-.06-.08-.18-.11-.17q-.06-.01.05.13M1.1 1.16c.04.02.26.04.5.04l.19.02H2q.2-.03.07-.04l-.43-.01c-.19 0-.39-.02-.45-.04q-.17-.03-.08.03m.5 2.2c.02 0 .1.1.17.2s.15.18.16.18c.05.01-.24-.37-.32-.42q-.11-.06-.01.03m.07.23q.03.03.03.01l-.04-.06q-.03-.03-.03-.01zm.15.34q.06.15.08.13c0-.04-.16-.4-.18-.4q-.03 0 .1.27m-.2-1.15c.03.02.1.15.18.29q.25.41.08.06a2 2 0 0 0-.27-.43q-.05.01.02.08m.14.5.1.18q.04.1.06.1c0-.02-.13-.33-.16-.35q-.05-.04 0 .07m-.26-1.2q.02 0 .02-.05t.05-.07q.12-.01.1-.1c-.01-.07-.06-.07-.06 0q0 .05-.07.07-.09.01-.07.07 0 .06.03.08m.17.59.18.29q.14.22.1.12a2 2 0 0 0-.28-.47q-.11-.1 0 .06m.12.51.05.08q.04.02 0-.06c-.05-.1-.1-.13-.05-.02m-.17-1.7q.34 0 .1-.04c-.16-.02-.3-.02-.3 0s.1.03.2.03m.1.97.15.26q.19.36.2.28c0-.03-.2-.38-.33-.57q-.07-.1-.07-.05zm-.1-.8q.08.05.16 0 .12-.07.02-.04-.07 0-.09.03 0 .03-.05 0c-.04-.04-.13-.07-.13-.04q0 .03.09.05m0-.57q.38 0 .34-.01a2 2 0 0 0-.5-.02zm.33 1.56c.05.08.1.16.11.15.03 0-.03-.14-.14-.32q-.11-.18-.08-.07zm-.05-.8c.03.03.2 0 .19-.03h-.08q-.16.03-.07-.07c.05-.05.05-.05 0-.1q-.07-.05-.04 0 .02.05 0 .07c-.05.02-.04.1 0 .13m.18-.22.06.1q.02.05.05.05.02 0 0-.07c-.04-.08-.12-.15-.14-.12q-.01.01.04.04m.48.27c.16.12.3.22.3.2l-.28-.23-.3-.2zm-.27-.32q.03.03.07 0l.1.07c.06.08.15.13.15.1L2.5 1.6q-.12-.1-.18-.1-.12 0-.02.05m.26.6q.04.02.06 0c.02-.02-.06-.09-.1-.08q-.04.01.04.08m.02-.59c.13.14.26.24.28.2q.01-.01-.07-.05l-.2-.18q-.16-.17-.15-.12zm.16.04.04.02q0-.02.06.02t.05.06l.03.04q.03.01.01-.01c-.05-.06.02-.06.08 0q.13.1 0-.04-.05-.07-.08-.07-.04.01-.15-.07-.18-.11-.04.05m.58.85c.18.15.4.29.4.26l-.3-.23-.3-.2zm-.16-.67c.09.07.08.02 0-.06q-.06-.05-.07-.03.01.04.07.09m.12 0q.18.12.17.08c0-.03-.25-.18-.25-.15zm.64 1.18c.06.04.24.06.23.02l-.1-.02q-.08 0-.12-.05-.06-.05-.07 0 0 .02.06.05m.25-.08.2.08-.16-.1L4 2.8zm.73.47.2.09q.12 0 0-.02l-.18-.11q-.11-.1-.13-.07zm.45.31c.14.1.26.16.28.13l-.1-.05a.4.4 0 0 1-.16-.1q-.1-.11-.14-.09 0 .02.12.11M.44 5q.02-.08.05 0 .03.04 0 .07Q.37 5.15.44 5M.8 6.63l.14.07.11.07-.03-.07L1 6.63l.1.06.09.09-.1.03q-.11.02-.2-.05-.15-.12-.08-.13M.67 5.9l.04-.02.05.06q.05.08.02-.01-.03-.06 0-.04l.1.08.1.12c.02.08.09.14.28.3.16.12.16.12.15.05q-.02-.07-.05-.05-.03 0-.08-.03-.06-.05.02-.03.06 0 .07-.03.01-.1.1.07c.04.1.05.11 0 .17q-.03.07-.06.07l-.07.08q-.11.16-.2-.04c-.02-.06-.1-.11-.1-.08q-.02.03-.07-.01c-.08-.06-.06-.12.02-.1s.14.08.13.11q0 .03.04 0h.08q.01.03.04.03t0-.03l.02-.07q.07-.06-.03-.02-.09.03-.16-.05l-.18-.25-.11-.17-.06.02q-.04.04-.08 0Q.6 5.97.66 5.9zm-.3-1.26c.04 0 .08.07.06.1H.39c-.03-.03-.04-.1-.02-.1m.39 1.58q.03.02.04.06 0 .04.03.04c.04-.03.12.1.1.12q-.05.04-.14-.09C.73 6.3.72 6.21.76 6.22M.5 4.77q.06.02 0 .07c-.04.04-.1 0-.06-.06q.02-.04.06-.01M.38 4.4l.06.03q.04.05 0 .07c-.05.03-.11-.06-.06-.1m.5 2.16q.09.09 0 .06l-.03-.06q-.02-.06.04 0m-.09-.5c.04 0 .13.13.1.16-.01.02-.14-.09-.13-.13q0-.02.03-.03m-.21-1.2H.6l.03.05c.03.04-.05.09-.1.05s-.03-.1.04-.1zm-.04-.31q.06.05 0 .08-.03.06-.08 0t0-.08q.03-.06.08 0m-.07-.37c.04.01.04.08 0 .1-.06.03-.1-.03-.06-.08q.04-.03.06-.02m-.1-.08q.04.01 0 .05-.03 0-.02-.01zm1.16 5.32q.03 0 .08.06l.11.11c.06.04.08.12.03.13-.04 0-.18-.12-.2-.19l-.04-.1zm.19.34q.11.1.12.13-.04.08-.12-.04-.06-.08-.05-.05c.01.07-.05 0-.07-.06-.02-.07-.01-.07.12.02M1.5 9.2l.13.1c.1.1.12.12.1.17-.03.05-.03.05-.11-.02a.3.3 0 0 1-.12-.25m-.03-.33q0-.03.08.05t.05.12l-.02.06.03-.01q.04-.08.1 0 .05.05.01.13-.02.06-.04.07l-.1-.08c-.08-.08-.1-.1-.1-.2zM.5 4.3q.05-.01.08.01.06.06-.01.11t-.08 0q-.07-.08 0-.12m.47 2q.1.14 0 .06Q.9 6.32.9 6.28l.06.03M.44 3.97c.05-.03.13.02.1.07q-.06.08-.11.02-.05-.07 0-.09m-.05-.14.04.03q.06.08 0 .07-.04 0-.06-.05 0-.05.02-.05m1.36 6.24.09.1q.07.1.16.16t.07.07c-.03.03-.17-.08-.25-.19q-.12-.14-.07-.14m.09-.06.14.15H2q.05-.01.1.01.07.03.04.08-.05.1-.17-.01a1 1 0 0 1-.28-.34zM.34 3.48q.03 0 .04.03 0 .04-.02.06t-.03-.03zm1.12 5.11q.02-.03.14.14.15.19.1.21c-.02.05-.1.01-.16-.07s-.1-.23-.08-.28M.57 4.08q.02 0 .06.04.06.05 0 .09-.05.05-.1-.01-.06-.05 0-.08.03-.05.05-.05M.4 3.62q.02-.01.06.01.03.06-.05.08c-.03 0-.04-.07 0-.1m1.54 6.8.17.1q.06.03.07.07c0 .03 0 .03-.08-.01l-.1-.05.05.05.09.1.13.13q.08.06.07.07c-.06 0-.25-.14-.32-.24l-.12-.19q-.13-.18.04-.04M.48 3.72q.04-.04.08.02t.03.08c-.01.04-.1.04-.13 0q-.05-.06.02-.1m-.1-.45c.04.02.03.08 0 .09q-.03 0-.03-.06t.04-.03m1.1 5q-.01-.1.07.06l.11.2q.07.08.03.12-.03.05-.1-.04a.5.5 0 0 1-.1-.34M.46 3.4c.05-.01.07.1.01.11q-.04.02-.05-.05 0-.05.04-.06m1.36 6.3c.04-.04.13.04.1.08q-.02.04-.07 0-.08-.04-.03-.09m-.04-.23q.03-.04.08 0 .06.02 0 .08-.08.08-.1 0 0-.05.02-.08M.59 3.54q.08.08-.03.1-.1 0-.05-.1.03-.04.08 0M1.9 9.9c.05-.03.13.04.12.09q-.01.09-.1.03-.08-.08-.02-.12m-.15-.65q.05-.09.11-.03c.03.03-.06.14-.1.13q-.04-.01-.01-.1M.42 3.05q.1.08.02.1-.04 0-.05-.08-.03-.1.03-.02m1.32 5.92q.04-.06.07-.01.05.02 0 .08-.04.05-.07.04-.08-.03 0-.1m-.24-.96a.3.3 0 0 1 .05-.16c.04-.05.04-.05.08.12.03.14.03.18 0 .23q-.04.05-.04.08t.06-.04l.05-.07.02.07c.02.1-.03.22-.07.2q-.03-.01-.04-.08l-.04-.07c-.04-.02-.07-.16-.07-.28M.47 3.18q.02-.02.07.02.07.08-.04.1c-.05 0-.07-.1-.03-.12m.12.1.06.06q.06.05.02.08-.1.06-.14-.01c-.01-.04.02-.12.06-.12m-.13-.45q.04.04.02.07-.06.03-.07-.05t.05-.02M1.9 9.56c.03-.04.11-.03.12 0 0 .06-.05.13-.1.12q-.09-.04-.02-.12m.03-.27q.12-.01.04.1-.05.08-.1.04-.07-.02-.02-.08.04-.05.08-.06m-.22-.6q.03-.04.08 0 .06.06.01.1-.03.06-.07.05c-.05-.02-.06-.1-.02-.15M.49 2.95q.03 0 .08.03.06.05.01.08-.03.06-.08 0-.09-.07-.01-.1M2.3 10.9q.3.17.06.09l-.2-.15zM2 9.78h.08q.05.02 0 .07l-.07.04c-.06-.02-.07-.1-.02-.11m-.52-2.2q0-.05.05-.06.04 0 .03.04l-.03.15-.01.1-.02-.09zm-1-4.98q.04.05-.02.08c-.03 0-.06-.09-.04-.1q.02-.01.05.02m1.65 7.79c.04-.04.13.04.1.09q-.02.03-.07 0-.08-.05-.03-.1m-.27-1.32q.04-.07.09-.01.04.03 0 .08c-.03.05-.11.05-.12 0zm-.15-.64q.03-.07.06-.01c.03.05 0 .14-.05.12q-.05-.03 0-.11M2.07 10q0-.04.1 0 .08.03.05.08l-.03.06-.06-.02q-.1-.03-.06-.12m-.24-1.17q.08-.09.12 0 0 .09-.1.1-.08-.02-.02-.1m-.32-1.45q.06-.08.06.01 0 .05-.04.06-.06 0-.02-.07M.62 3.1l.07.04c.03.05-.05.1-.09.05q-.06-.08.02-.1M.5 2.7c.03-.02.11.04.12.09 0 .02-.08.04-.1.02q-.06-.06-.02-.1m1.88 8.33q.13.06.11.12l-.1-.05q-.16-.12 0-.07m-.9-3.9q0-.05.04 0c.02.05.02.12-.02.13-.03 0-.04-.08-.02-.13m.79 3.45c.04 0 .1.06.07.1-.01.02-.1-.03-.1-.07q-.02-.02.03-.03m-.08-.34.07-.02q.08 0 .03.09-.01.06-.07.03-.09-.03-.03-.1m-.13-.61q.05-.09.14-.04.04 0 0 .09-.06.09-.1.05-.11-.03-.04-.1m-.24-1.12c.04-.05.14-.07.15-.02l-.05.07q-.05.03-.03.03v.03c-.02.04-.08.02-.1-.03q0-.04.03-.08m-.07-.64q.1-.09.08.02-.02.04-.05.01 0-.03-.03.06t-.05.07q-.05-.05.05-.16m-.12-.11.05-.03q.08-.02.01.13l-.04.07-.02-.09zm0-.17q.09-.14.09-.01c0 .05-.06.12-.1.12q-.04.01.02-.1zm.61 2.26q.1.02.05.08-.03.06-.1.01-.1-.02-.05-.08.03-.06.1-.01m-.2-.5q.03-.08.09-.02.06.03 0 .1-.05.06-.09.06-.06-.03 0-.13M1.77 8.1q.05-.08.08 0c0 .06-.06.16-.09.14s-.02-.09.01-.14M1.5 6.92l.03.03-.02.04q-.02.01-.03-.02t.02-.05M.7 3.23c.05-.02.13.04.12.1v.08q.02.09-.1-.03-.1-.12-.02-.15m-.1-.37c.03-.02.15.08.14.11-.01.04-.1.04-.12 0Q.57 2.9.6 2.87m0-.35q.05.05 0 .08c-.04.03-.1-.02-.07-.08q.02-.04.07 0m-.1-.13q.04 0 .04.03t-.02.04-.04-.03q0-.05.02-.04m2 8.84q.16.09.08.1c-.03 0-.19-.1-.18-.13zm-.19-.75q.09 0 .06.1 0 .04-.06 0c-.06-.03-.05-.1 0-.1M2 9.18q.03-.03.08-.03t.01.07q-.04.05-.07.05-.08-.02-.02-.1m.02-.33h.06c.06.02.06.02 0 .12q-.08.12-.12.07-.04-.02 0-.1zM1.8 8.3q0-.04.06-.03.07 0 .02.07c-.05.08-.12.05-.08-.04M.46 1.9c.1-.13.28-.2.3-.1q0 .06-.09.08l-.15.07q-.17.11-.06-.05m1.28 5.43-.02.08-.06.1.02-.1zM1.6 7.2q0-.02.03 0l-.02.05h-.03q0-.03.02-.05m-.03-.14q.07-.03.02.04-.03.04-.04.01 0-.03.02-.05M.63 2.64c.04-.03.14.04.12.09-.01.03-.1.04-.13 0q-.05-.06.01-.1m-.07-.5q.03 0 .04.06c.01.06-.05.08-.08.03-.02-.04 0-.11.04-.1m2.05 9.24.2.08c.06 0 .1.08.03.09l-.08-.03q-.03-.02-.07-.02c-.03.02-.19-.1-.2-.15q0-.03.12.03m-.2-.58q.11.05.1.1t-.07-.01q-.11-.1-.04-.09m-.11-.73.07.03q.07.02.03.07c-.05.1-.18.05-.14-.05q.02-.05.04-.05m-.33-1.4q.04-.03.08-.02c.06.02 0 .16-.07.14-.06-.01-.07-.08-.02-.12M.76 3.03c.06-.02.12.07.1.14q-.03.12-.1 0-.08-.14 0-.14m1.7 7.65.06.06q.03.09-.08.01c-.07-.04-.05-.1.02-.07m-.1-.38c0-.02.1.01.1.03l-.03.07q-.02.07-.07.03-.06-.02-.02-.08zm-.58-2.74q.02-.02.07 0 .06-.02 0 .12l-.08.1c-.02 0-.02-.18 0-.22M.6 2.28c.04-.02.1.07.05.1L.6 2.4c-.04-.02-.03-.1 0-.12m1.63 7.43q.06-.1.15-.04.04.03-.01.11-.04.1-.1.06-.12-.04-.04-.13m-.06-.26q.03-.07.1-.06.12.01.02.12-.05.06-.1.05-.08 0-.02-.11m0-.27.08.02q.07.01 0 .07-.06.07-.1.04c-.06-.02-.06-.02-.03-.08zM.67 2.42c.04-.02.12.03.13.08 0 .04-.12.04-.14.01q-.06-.06 0-.09zm2 9.11c.06.03.14.12.1.13a.4.4 0 0 1-.16-.12q0-.03.05 0m.14-.36q.45.15.86.1.26-.04-.07-.02c-.27 0-.35-.02-.11-.04l.17-.03q0-.01-.14 0-.31.03-.39-.1-.05-.08-.01-.1.03-.01-.04-.03c-.06-.03-.13-.14-.08-.15.07 0 .27.06.35.12q.17.16.3-.05c.1-.12.43-.29.53-.27h.16q.1-.03.1.01-.01.04-.16.06c-.14.01-.44.16-.43.2 0 .01.08-.02.16-.07.16-.08.33-.12.34-.08 0 .02-.22.18-.38.26l-.07.04.09-.02.24-.14c.15-.1.28-.15.3-.1 0 .02-.2.2-.28.24q-.05.03-.02.04l.16-.1q.2-.12.18-.02-.01.03-.1.08-.07.04-.06.06c.02.02.23-.12.27-.18q.02-.03.05-.02c.03 0 .02.06-.01.06l-.1.1q-.12.18.04.05l.08-.07q.06 0-.03.1-.06.05-.01.03c.18-.1.25-.05.13.09q-.07.08-.02.06l.1-.1q.06-.08.11-.06c.07 0 .11.07.08.1q-.02.02-.01-.01c.01-.05-.04-.04-.06.01q-.03.04-.1.07-.08.02-.06.04l.1-.03q.16-.07.05.06l-.11.12q-.08.08.03 0l.17-.17q.13-.16.15-.1c0 .02-.03.13-.08.21l-.05.1.08-.09q.08-.08.11-.06c.06.02.04.11-.02.1q-.06-.01-.04.07.02.06.06.09.06.02.02.11a.3.3 0 0 1-.09.14l-.06.05.08-.03q.06-.02.1-.06.02-.08.14-.03.14.04.02.1-.05.04-.04.05c.03.03.14-.09.14-.14q0-.05.06-.05c.07 0 .1.06.03.07q-.04 0-.03.03c.02.02-.04.22-.07.23q-.02 0-.05-.03l-.06-.02q-.04 0 .03.05c.06.05.14.04.13 0l.02-.08q.04-.09.04.06c0 .1.01.1.05.1.07 0 .13-.09.12-.14q0-.06-.05.02-.09.14-.09 0c0-.09.04-.24.07-.27.03-.02.03-.03-.18-.09q-.17-.06-.17-.08.02-.04.24.01c.26.08.28.08.25.05a.06.06 0 0 1 .06-.11q.06 0 .1-.05.03-.07.08-.03.06.03.09-.04.02-.06.07-.05c.05.01.06.06.01.06s-.17.2-.23.37c-.14.37-.18.43-.28.51s-.43.2-.73.29q-.27.08-.37.3c-.06.14-.06.16.06.57.03.12.03.16-.02.27q-.1.22-.05.22c.02 0 .1-.2.15-.33l-.01-.17-.02-.1.16-.01c.15 0 .18-.02.22-.07q.05-.06.02-.06t-.02.03c0 .03-.38.08-.4.05q-.02-.02.07-.04.27-.04.26-.06 0-.02-.09-.02t-.08-.02.02-.03c.1.02.3 0 .3-.02q-.02-.03-.06-.03-.06 0-.08-.02-.02-.01.13-.03.2 0 .07-.02L5.28 13H5.2q-.05 0-.06-.03t.04-.01l.16.02q.1.01.2.05c.08.03.11.02.28-.03l.25-.1q.08-.04.12-.04c.07.02.2-.09.24-.2q.03-.06.08-.05a.1.1 0 0 0 .08-.04l.12-.14q.1-.08.07-.09c-.06.01 0-.07.09-.13q.09-.05 0-.04c-.1.01-.08-.07.02-.08H7c0 .04-.1.23-.24.44q-.14.2-.33.33c-.18.13-.19.13-.51.18-.4.07-.44.1-.49.33-.12.61-.14.64-.63.89l-.32.2c-.07.05-.26.14-.27.12l.05-.18q.04-.15 0-.13l-.02.08c.01.04-.08.21-.1.17q0-.04.03-.07l.03-.06q0-.02-.04 0-.09.1 0-.07c.05-.11.06-.18.01-.11s-.06-.03 0-.15q.04-.1.03-.12-.02 0-.05.06-.02.07-.05.08c-.05 0-.04-.1.01-.17q.06-.06.03-.07c-.04-.01-.06-.08-.03-.09v-.09c-.02-.08-.01-.09.1-.14q.18-.09.1-.09l-.13.06-.1.05q-.02 0-.02-.05c-.01-.05.1-.14.23-.2q.11-.04-.04 0-.16.03-.2-.05.01-.02.13-.04l.2-.05q.13-.04-.06-.01-.13.02-.17 0c-.01-.02.16-.11.27-.14q.05-.02-.07 0c-.15 0-.26-.03-.2-.08.04-.03 0-.12-.06-.15q-.18-.08.14-.02c.22.04.48.02.48-.04q.01-.04-.06 0c-.09.05-.1.05-.22-.04q-.12-.07-.14-.06c-.03.02-.19-.02-.2-.06q0-.02.11-.02.16.01.06-.04c-.05-.04-.07-.04-.16 0-.08.03-.1.03-.14 0-.04-.05-.12-.06-.08-.01s-.05.03-.1-.01q-.06-.05 0-.03h.08l.15-.04q.18-.01-.05-.02-.24-.03-.24-.07 0-.03.05-.05H3.7q-.23.02-.12-.07c.07-.05.32-.06.4 0q.09.04.02 0-.09-.1.05-.02.1.06.05.1-.05.03 0 .02h.06q.02-.01.01.01c0 .04.07.08.12.07q.02 0 .03.03c0 .08.22.11.45.07.22-.05.43-.12.5-.17q.1-.08-.1.01c-.17.07-.66.16-.7.13q-.03-.03.08-.04c.16-.02.47-.12.5-.15q.02-.03-.03 0c-.1.03-.46.11-.55.1q-.16 0-.18-.05.02-.02.23-.04t.2-.03H4.5l-.26-.01q-.06-.03-.04 0 .01.04-.04 0c-.06-.03-.08-.08-.02-.05s.38-.02.54-.08q.28-.12-.04-.03c-.25.09-.57.06-.6-.04q.02-.02.23-.05l.23-.04-.25.01c-.2.01-.26 0-.3-.03l-.05-.06.18-.03q.17 0 .26-.04.15-.05-.05-.03h-.14l-.03-.05q-.04-.04.1-.06h-.18l-.42.02c-.1 0-.2-.03-.2-.07l.4-.07.42-.04-.43.03c-.35.02-.42.03-.44.07q-.01.04-.14.03-.2-.02-.04-.07.12-.02-.04-.06-.45-.08-.46-.15c0-.03.01-.03.11 0 .18.05.73.1.87.08l.23-.04q.15-.04-.16 0a2 2 0 0 1-.95-.11c-.19-.07-.23-.1-.25-.15zm.41-.04q.05 0 .02-.02l-.05.01zm.14 0q.06 0 .03-.01l-.08.01zm.8 2.55.1-.07q.07-.05.03-.05c-.04 0-.16.12-.12.12zm.13.12.04-.03q0-.03-.03-.03-.04 0-.04.03t.03.03m.15.39c.02 0 .09-.3.08-.33l-.1.3zm.06.05q.02-.03 0-.05l-.02.04q0 .06.02.01m.2-.02.13-.1c-.02-.02-.22.1-.25.15q0 .03.12-.05m-.37-1.39q.05.03.05.01 0-.03-.06-.05l-.06-.01zm.28 1.3.03-.08q.03-.1-.02 0c-.05.05-.06.11-.01.08m0-.15q.06-.01.08-.05 0-.03-.03 0-.08.05 0-.13.06-.11.05-.13c-.03-.02-.08.09-.12.23l-.04.1zm.19-1.42c.13-.03.28-.07.34-.1q.08-.04.03-.03l-.33.08q-.5.13-.04.05m.13 1.51c.07 0 .3-.17.3-.21q0-.05-.02-.02l-.17.14q-.12.09-.1.1m-.4-2.04.03-.05q0-.03-.03-.01c-.04.02-.04.08 0 .06m-.06-.72a.2.2 0 0 0 .12-.07q.05-.07-.01-.05-.04 0-.05.03t-.08.03q-.05 0-.06.04zm.58 2.16q.08.01.1.04 0 .02-.04.02l-.04.01c0 .05.1.02.12-.04q.04-.1-.15-.06l-.08.02zM5 12.6l.24-.06c.07-.05-.2 0-.33.06q-.11.04.1 0m.27 1.11v-.04q-.05-.05-.03.02 0 .03.03.02m-.29-1.9q.05.02.09-.03.05-.11-.02-.04-.04.04-.06.01a.04.04 0 0 0-.06.03q.01.03.05.04m.18.03.02-.03q0-.03-.03-.01l-.02.03zm.83.06q.03-.03.02-.05-.04 0-.06.06.01.03.04-.01m-3.5-1.37q.1.04.05.1-.03.03-.08.01t-.04-.08.07-.03m-.39-1.5q.03-.03.08-.03t.01.07q-.03.05-.07.05-.08-.02-.02-.09m-.13-.68c.04-.04.12-.04.13 0s-.07.12-.12.1q-.1-.02-.01-.1m-.08-.39q.04-.03.06-.02c.03.03-.02.1-.07.11q-.06-.01.01-.1m-.12-.54q.06-.07.04 0 0 .04.02.04t.02.03q-.01.04-.03 0h-.05q-.08.04 0-.07m.82 3.61.04.05-.06-.01q-.05-.03-.04-.05zm-.17-1.09q.07.02.04.07l-.03.06-.07-.01q-.08-.02-.03-.08.03-.06.1-.04m-.5-1.8H2q.06 0 .02.05-.02.04-.06.04c-.04 0-.06-.06-.03-.09m-.09-.38h.03l-.02.04q-.02.01-.03-.01t.02-.03m-.1-.69q.05-.03.06-.02c0 .02-.08.13-.1.13s0-.07.05-.11M.67 2.1q.04-.02.07.04t-.02.06c-.09 0-.13-.08-.05-.1m2.2 9.62.19.06q.07 0 .02.06c-.03.04-.1.04-.09-.01q0-.03-.01-.02-.03 0-.03.03t-.13-.05l-.1-.1q.02-.01.15.03m-.62-3.03q.07.02.04.07-.08.1-.16.08-.06-.03 0-.1c.05-.07.06-.07.12-.05m-.16-.17.1.01c.07.03.01.09-.08.08S2 8.53 2.1 8.5m.5 2.36c.05.01.11.08.1.1-.02.04-.11-.02-.12-.07q0-.03.02-.03m-.1-.5c.03-.04.03-.04.19 0q.35.06.05-.02l-.18-.06.04-.09.05-.08-.07-.01q-.12-.03-.05-.1.02-.04.16 0 .14.02.14.09.03.08-.07.06-.16-.02.03.03a.4.4 0 0 1 .18.08q.07.07.09.04 0-.02-.04-.04-.08-.02.03-.08c.1-.07.13-.07.2 0 .06.06.27.13.3.1l-.12-.05-.2-.11q-.12-.1-.15-.02-.03.05-.09.06t-.1-.08q-.02-.1-.17-.11-.13-.04-.13-.09 0-.08-.05 0c-.04.04-.04.04-.1 0q-.06-.03 0-.11c.06-.07.07-.08.18-.06q.26.02-.03-.04c-.23-.06-.26-.07-.24-.13l.08-.1.03-.03.01-.06a.2.2 0 0 1 .11-.07q.07 0 .07-.05c-.02-.07.05-.24.1-.26q.08-.05-.01-.08-.03 0-.03.04.01.04-.02.04c-.06 0-.1.1-.08.2s.01.1-.18.04q-.08 0-.04-.06t-.02 0-.1 0q-.07-.03 0-.09c.04-.05.04-.05.13-.02l.1.02-.07-.03q-.14-.04-.03-.15.1-.11-.07.03-.06.07-.1.04t0-.05l.1-.1c.05-.1.05-.1.17-.06q.13.03.06 0l-.1-.05c-.04 0 .05-.1.1-.1q.06 0 .13.15l.04.08v-.09q-.01-.08.01-.09t-.02-.03c-.08-.04-.09-.16-.01-.16h.15l.14.01q.02 0-.03-.02l-.09-.03q-.03 0-.05-.1-.04-.1.04-.08h.06l-.07-.03a.2.2 0 0 1-.08-.11c-.02-.09-.02-.09.1-.05q.09.03.1.1.02.1.02.01-.02-.07.07-.05.1 0 .01-.02c-.08-.04-.1-.05-.1-.16q-.03-.13.05-.07a.2.2 0 0 1 .1.1q.03.08.01 0t.04-.05q.07 0 0-.03c-.05-.03-.1-.14-.07-.18h.07q.09.04 0-.02-.1-.05-.08-.13 0-.12.1-.07.04 0 .06.2.05.31.04.02c0-.18 0-.34.02-.36h.06q.05 0 .05.1l.03.27q.03.21.02.04v-.32c0-.2.06-.53.1-.54q.03 0 .04-.09.02-.13-.09-.12-.02 0-.02-.05 0-.07-.02-.03-.01.04-.15-.02l-.15-.07c-.03-.01.04-.1.1-.1.02 0 .17.05.3.11.28.13.3.13.29.1a.03.03 0 0 0-.04-.03c-.01 0-.14-.05-.27-.12-.22-.1-.26-.13-.23-.17q.05-.09.43.09c.2.09.21.1.14.03a1 1 0 0 0-.26-.12c-.16-.06-.16-.06-.1-.09q.08-.04.18.01.18.07.1 0-.07-.01.07-.13l.1-.1q-.03-.02-.13.08-.17.15-.2.09l.11-.13q.11-.08.1-.11-.02 0-.13.1c-.12.1-.23.15-.25.1q0-.03.08-.1.07-.06.06-.08l-.15.12q-.33.28-.05-.07l.18-.2-.28.25q-.3.28-.33.25-.06 0 .18-.26c.12-.13.21-.24.2-.25-.01 0-.42.4-.44.45-.01.04-.1.06-.12.03l.13-.16q.2-.2.09-.13-.06.03 0-.02.15-.14.08-.15-.07-.02-.3.2-.2.19.02-.07c.13-.14.21-.18.44-.25l.15-.04-.2.03c-.22.04-.29.01-.1-.04l.22-.07q.1-.05-.1 0c-.15.02-.18.01-.2-.02-.02-.05.05-.1.1-.06q.05.02.05-.02 0-.05.1-.05.08-.02.08-.04t-.12 0q-.12.04-.14 0-.1-.08.05-.08l.1-.02-.08-.06-.07-.08q.01-.03.15-.05l.17-.03-.2.01c-.14.02-.19.01-.23-.03q-.09-.05 0-.06c.03-.02.14-.04.25-.06q.25-.03-.09 0c-.25.03-.28.02-.32-.02-.06-.08-.02-.1.27-.14.25-.03.26-.04.2-.08l-.06-.02-.21.06c-.19.04-.2.04-.25-.02q-.05-.05-.04-.07l.24-.05q.25-.03.24 0 .01.05.02 0 .01-.03.07-.04.1 0 0-.03c-.06-.02-.07-.02-.04-.1l.01-.1c0-.09.02-.28.04-.28.1-.01.11.03.1.28-.02.31.02.63.07.66q.03.01 0-.17a2 2 0 0 1 0-.77q-.01-.01.02-.03.03 0 .06.05.02.04.1.06.09 0 .1.03l.07.02q.06 0 .1.03c0 .03 0 .04-.12.08l-.08.08c-.03.09-.01.28.02.27q.03 0 .02-.04 0-.03.06-.05.07 0 .08.05c.02.08-.01.2-.05.2l-.04.01v.06q-.01.03.02.04.02 0 .02-.05 0-.04.03-.03c.03 0 .04-.06.05-.26.01-.28.03-.34.11-.33q.05 0 .09-.03t.06 0q.05.03.01.05c-.03.03 0 .11.04.1q.03 0 .05-.04t.1-.02h.12q.05 0 .1.04.1.07-.08.06-.13 0 .07.02c.22.02.25.03.27.08.01.06.05.04.04-.02q0-.05-.03-.05l-.06-.06q-.06-.07 0-.07c.06 0 .2.14.14.15q-.04 0 0 .01l.13.1q.12.13.01-.03-.03-.04.01-.05.09 0 .18.12l.05.04q0-.02-.05-.08-.08-.08.02-.07.06-.02.14.07.14.15.05.04-.1-.15.08-.04l.1.08-.07-.08q-.07-.08-.13-.09t-.13-.08l-.07-.07.06.01.09.04h.03s.09 0 .18.04c.4.12.7.09.71-.06 0-.13-.06-.2-.4-.47l-.64-.53a3 3 0 0 0-.92-.57l-.2-.1.2.03q.17.04.14.01a1 1 0 0 0-.4-.09c-.09 0-.2-.06-.19-.08s.31.02.46.06q.25.06.04-.02a2 2 0 0 0-.52-.08q-.06 0-.16-.07l-.09-.07h.08l.63.11q.05.02.05 0c0-.04-.28-.1-.56-.12a1 1 0 0 1-.3-.06q-.07-.05-.01-.05c.09 0 .47.04.59.07q.2.05.05-.03c-.1-.05-.09-.18.03-.2q.08.01-.02-.05-.13-.08.04-.06h.07q-.01-.03-.08-.04c-.11 0-.13-.1-.06-.2q.06-.1.16-.08.1 0 .1-.03-.01-.03.05 0h.09c.06-.03-.2-.08-.29-.05a.3.3 0 0 1-.18-.02q-.15-.08-.08-.15.05-.06.22.05.08.05.02-.02l-.1-.06q-.12-.03-.01-.1c.07-.07.1-.07.19-.03q.07.03.05.07-.02.03.03.1l.06.05-.03-.07q-.04-.08.04-.06.16.03-.08-.09l-.15-.07.07-.05c.1-.06.62-.06.63 0q.01.01.07 0l.07-.02-.07-.02-.5-.04c-.05 0-.1-.1-.05-.1l.2.03q.35.05.04-.04H4.5c-.1.03-.23 0-.22-.05Q4.3.82 4.37.8q.15-.04-.01-.07Q4.2.71 4.25.61q.02-.03.15.04c.19.1.2.1.2.06Q4.59.67 4.5.65a2 2 0 0 1-.45-.22q0-.03-.03-.01C4 .45 3.83.4 3.82.36q0-.03-.05-.01-.06 0-.11-.02Q3.6.29 3.58.3c-.04 0-.15-.02-.15-.04-.01-.05.09-.04.43.05a4 4 0 0 1 1.08.44c.16.07.33.2.65.47.22.19.53.4.58.4l-.07-.06-.1-.07.18-.03q.2 0 .13-.02h-.2a.4.4 0 0 1-.22-.04c-.1-.05-.13-.11-.04-.08l.2.02h.16l-.07-.06q-.13-.1 0-.1.05 0 .05-.03t-.07 0A.1.1 0 0 1 6 1.12q-.12-.09.08-.1.11-.03.07-.03l-.1-.03Q6 .94 6 .97q0 .07-.15 0-.1-.05-.01-.05l.09.02q.04.03.05-.01.03-.05-.04-.05T5.87.84Q5.86.8 5.82.79T5.79.75c.04-.06.71.27.72.35q0 .03.03.03l.1.08q.1.09.02.06-.23-.06 0 .04a1 1 0 0 1 .26.15l.08.08-.2-.03q-.37-.06.06.04c.19.05.27.08.35.15q.08.07.08.09l-.2-.06-.27-.07q-.06 0 .1.05c.16.06.27.14.23.16l-.08-.01q-.06-.02-.05 0t.04.03c.05-.01.2.09.2.13q.01.03-.04.01-.17-.06.03.05.12.07.13.1 0 .04-.08 0-.03-.03-.05-.01l.12.08.22.11q.12.07-.04-.05-.24-.19-.09-.15.05.02-.05-.05T7.3 2q-.04-.07.07-.02.06.03-.06-.05-.23-.17-.03-.1.08.02.2.18c.18.26.4.62.54.9l.26.54c.33.68.44 1.05.66 2.18.17.92.18 1.07.11 1.71-.05.5-.06.52-.12.26l-.05-.19c-.01.01 0 .14.04.3.04.22.05.29.02.39l-.04.12L8.86 8l-.06-.27q-.03-.04.01.18l.06.33a2.4 2.4 0 0 1-.71 1.37c-.04 0-.05-.07-.02-.1v-.03q-.01-.04.04-.1l.05-.1-.02.12v.11c0 .01.05-.23.05-.35q0-.09-.02-.01-.08.2-.12.17 0-.04.03-.1.04-.08 0-.03-.1.04 0-.08l.04-.1q0-.03-.06.03-.08.1-.11.05c0-.04.08-.13.14-.15q.1-.02.17-.55l.06-.32q.12-.22.09-.78-.02-.26-.04.13a5 5 0 0 1-.12.72c-.11.44-.13.51-.22.6q-.1.1-.16.1-.13-.02-.05-.08c.1-.06.27-.19.2-.16q-.13.03-.01-.06.05-.04.04-.06l-.09.04a.2.2 0 0 1-.14.05H7.8l.06-.1q.1-.14.03-.1-.02.01-.09-.01t-.03-.08q.03-.08-.04 0c-.03.03-.11.01-.12-.03-.02-.08.1-.13.17-.06q.02.02.05-.03.03-.04 0-.02h-.09L7.7 8.1l.05-.09c.04-.1.1-.25.06-.2l-.08.15c-.07.13-.07.14-.14.1q-.06-.01 0-.08l.09-.17.03-.1-.05.09q-.05.09-.1.07-.13-.03-.03-.1c.05-.06.05-.06-.06-.1q-.1 0-.05-.08l.07-.09q.04-.01-.04-.03-.2-.02-.13-.12c.02-.07.02-.07-.05-.09l-.1-.01q-.06 0-.04-.13l.02-.08-.12-.02-.2-.04q-.06-.03-.1 0-.02.01 0 .03h.1c.01 0 .08.13.06.14l-.24-.1q-.14-.08-.01-.08.07.01-.02-.02c-.08-.02-.33-.21-.3-.24 0-.03.2.02.26.07q.1.06-.01.04t-.01.02l.2.03q.17 0 .04-.02l-.16-.07-.08-.06.15-.02.14-.02H6.7q-.14 0-.2-.05l-.08-.07.11-.03q.15-.03-.02-.01-.2 0-.22-.07l.06-.03.1-.04-.23.02q-.3.05-.33.02-.06-.03.01-.06.08-.03-.04-.01l-.16-.01q-.08-.03 0 .02c.5.25 1.05.95 1.37 1.7.09.21.17.5.34 1.15.29 1.11.44 1.5.76 1.9.05.07.05.08-.02.17a.6.6 0 0 1-.43.25c-.16.01-.28-.04-.24-.1l.08-.06q.05-.02-.02-.01-.06 0-.1.04 0 .04-.16-.14c-.16-.17-.17-.2-.12-.22q.02-.02-.02 0-.05 0-.1-.07l-.12-.15q-.13-.11.02-.12.1-.02.08.04 0 .05.02.05l.02-.05c0-.07-.1-.1-.18-.06q-.06.04-.11-.02l-.06-.03c0 .03.15.2.23.28q.1.09.06.12-.05.08-.12.02-.05-.09.04-.05.14.08-.12-.15c-.25-.22-.82-.54-.88-.5q-.04 0-.11-.03-.1-.06-.02-.06c.07 0 .4-.17.39-.18q0-.02.09-.08.2-.13-.04-.02-.12.06-.2.04-.09 0 .08-.08c.15-.06.21-.13.09-.09l-.18.02h-.1l.07-.05.09-.08q0-.03-.06.02c-.06.04-.2.06-.22.02l.06-.09q.1-.1-.04.01-.1.08-.18.07-.18 0-.02-.11l.08-.08q-.03 0-.14.07c-.1.07-.12.08-.19.06q-.16-.03.03-.12l.13-.1q.02-.07-.05 0l-.15.09c-.12.06-.14.07-.2.04-.07-.04-.08 0-.02.03q.04.03-.02.05t-.12-.04l-.06-.06.19-.1c.1-.05.2-.1.21-.12q.02-.04-.1.03c-.26.14-.3.15-.37.08q-.07-.07-.03-.1l.09-.03.13-.05.09-.05-.1.02-.17.05q-.09.03-.12 0-.06-.07.12-.12a.3.3 0 0 0 .16-.08q.07-.09-.03-.02c-.14.08-.41.01-.44-.1q0-.04.09 0l.13.03.12.01q.06 0 .07-.02l-.07-.02q-.12 0-.04-.06c.07-.04 0-.04-.07 0-.09.04-.24.02-.25-.05q0-.03-.04-.03l-.02.02c.02.08.18.38.27.53.14.2.14.2.1.2s-.2-.2-.32-.41q-.22-.41-.14-.19l.12.24.08.15q-.01.03-.2.03-.2 0-.16.03h.23l.18-.02.07.1q.06.08.05.1c-.01.02-.24.05-.45.05q-.22-.01-.1.04c.08.03.6-.03.66-.08q.04-.04.09.01c.06.07.06.07-.01.12q-.1.05.03.02.09-.03.15.02.08.04-.01.07h-.11q-.05-.04-.02.02.05.06-.11.08c-.28.04-.38.03-.44-.04q-.1-.09.1-.06l.2-.03q.08-.03-.09-.01h-.26q-.2-.06-.05.06.08.05.06.08l.08.08q.1.05.1.03c0-.04.12-.04.23 0l.09.03-.1.02q-.1.01-.14 0-.04-.03-.08 0-.04.04-.01.03l.11.04q.16.09.1 0-.08-.03.07-.03c.12 0 .27.03.28.07 0 .03-.14.04-.22.02l-.15.02-.09.03h.09l.18.05.1.03-.1.03q-.12.02.11.03t.09.02-.04.04h.22q.24-.02.25.03 0 .02-.03.02-.18-.05-.15-.01.02.02-.1.05-.16.03.05 0 .33-.02.35.03 0 .02-.13.04-.12 0-.1.03c.02.03.43-.02.4-.05l.06-.04.1-.06q.07-.04-.1-.02-.1.01-.14.04 0 .03-.06 0-.04-.01-.03-.03l.05-.02.08-.03.05-.05-.07.01a.3.3 0 0 1-.27.03q-.1-.03-.03-.04l.07-.05q.02-.03-.04 0h-.09q-.03-.03-.16-.01c-.12.01-.24-.02-.25-.07l.21-.03q.21 0 .2-.03l-.07-.02-.19-.04-.14-.04.07-.03q.12-.03-.03-.01c-.1 0-.23-.04-.24-.09l.1-.04c.1-.02.12-.02.24.07a2 2 0 0 0 .52.25q.15.04.28.1l.24.1c.19.07.43.2.42.23q0 .03.03.02c.03 0 .1.07.08.09h-.11q-.13.01-.07-.04c.04-.03.02-.03-.15-.02q-.22.03-.13-.01l.1-.07h-.06q-.24.08-.3.02-.05-.03.06-.03.08 0 .08-.02-.02-.01.04-.05.06-.03-.1 0-.16 0-.15.03 0 .02-.13.07-.32.1 0 .05.18-.03.22 0t-.1.04l-.12.02.11.01h.22c.15-.02.15.03 0 .06q-.16.04.05.01.17 0 .12.02t.14.02.2-.04c.04-.05.17-.05.18 0q.03.05-.08.04-.09 0-.1.02 0 .02-.13.03-.15 0-.09.02h.23q.16 0 .2.02 0 .02-.05.01-.05 0-.05.02t-.1.02q-.11 0-.1.02t.11.02q.23-.02.23.03l-.08.04h.08q.24 0 .1.09-.1.03.02.01.16 0 .17.05 0 .02-.12.02a1 1 0 0 1-.33-.1c-.2-.12-.63-.28-1.16-.44a3 3 0 0 1-.92-.45q-.52-.37-.74-.8l-.1-.18.06.18q.04.16.08.24c.08.15-.2-.07-.38-.3q-.1-.11-.1-.09l.07.13.05.09q0 .02.06.05.09.05.02.05c-.06.01-.26-.14-.28-.2l-.03-.04c-.05-.02.02.1.08.18q.07.07 0 .06-.08.02-.15-.08l-.06-.05.07.12q.12.16-.03.07t.02.1c.1.14.33.31.4.3q.1 0-.03.12l-.09.09-.09-.05q-.15-.07-.08.01c.03.04.24.1.3.1q.04 0-.02-.03-.12-.04.14-.13c.23-.1.44-.1.46-.01 0 .04-.1.04-.14 0q-.09-.07-.07.01.01.04-.08.04-.09-.01-.13.04-.08.06.11.01l.17-.02-.22.1c-.2.07-.37.16-.36.19l.18-.08c.25-.12.5-.18.5-.12q-.02.03-.09.05a3 3 0 0 0-.45.2l-.13.1c-.1.1-.1.1-.2.03l-.23-.08-.2-.06q-.05-.04-.07-.01l-.1-.02-.07-.02h-.06q-.08-.04-.05-.1 0-.03.17 0c.21.05.3.03.09-.02-.22-.05-.39-.1-.4-.13l.03-.07zm.05-.9h.08l-.04-.02h-.08zm.44.36.06.02-.13-.16c-.04 0 .01.1.07.14m.25.67a.2.2 0 0 0 .13.02h.08l-.08-.02-.13-.04q-.1-.04 0 .04m-.27-1.15q.04.07.07.08l.05.04q.02.05.06.05.09 0-.05-.1-.09-.07-.08-.12t-.03-.07q-.08-.03-.02.12m0-.53q.06 0 .06.04 0 .05.03.05c.04 0 .04-.1 0-.13Q3 8.74 3 8.71q0-.09-.08.02c-.06.08-.06.08.01.09m.2.28q.04.01.03.05.01.07.06 0c.01-.02-.08-.11-.1-.09zm-.02-.48q.1.12.06-.04-.03-.08.02-.09.04-.01.09-.08t.08-.09.09-.07.1-.04q.13.06.1-.02c-.03-.07-.2-.06-.24.02q-.04.05-.07.06l-.1.1-.1.09c-.06 0-.07.1-.03.16m.42.66q.04.06.1.06.06.01-.02-.04c-.08-.06-.11-.15-.05-.16.05 0 .04-.05-.02-.06q-.06 0-.02-.06.02-.08-.03-.04c-.04.04 0 .24.04.3m.2-.42c.09.06.28.13.4.14q.05 0-.09-.04l-.28-.12q-.24-.1-.04.02M3.8 9c.13.08.4.17.46.16.03 0-.05-.03-.16-.07l-.32-.13q-.2-.1.02.04m-.06-.25c.11.06.25.1.27.08l-.02-.01-.19-.08c-.17-.08-.22-.08-.06 0m-.03-.17.13.07q.03 0 .02-.01l-.13-.09q-.21-.13-.02.03m-.12-.84-.01-.17c-.03-.16.03-.54.11-.72q.12-.24.03-.14c-.06.08-.16.37-.18.54s.02.6.05.49m.12.23q.08-.05.11.05l.07.1c.04.01-.03-.15-.08-.2-.04-.04-.16-.01-.17.04q0 .03.07 0zm.36 1.29c.15.04.31.05.3.02q0-.02-.07-.01l-.2-.03L4 9.2zm.15.35.26-.01.13-.02H4.2l-.12.03zm-.02-.2c.15.02.24.01.17-.02a1 1 0 0 0-.3 0zm-.42-1.94a2 2 0 0 1 .04-.43q.04-.17.02-.16c-.08.1-.11.38-.07.63l.03.2zm.1-.15a2 2 0 0 1 .09-.4l.07-.23-.07.14q-.14.32-.13.53 0 .19.03-.04M3.71 5.4c.35.06.36.06.32.04a2 2 0 0 0-.55-.1zm.59 3.1q.05.07.05.12t.02.05l.02-.04q-.01-.04.06-.02.15.04 0 .1l-.08.04.1-.02q.09-.03.15.03l.06.05h-.1q-.12 0-.07.02l.11.04q.07 0 .13.02l.06.01-.06-.04q-.07-.03-.04-.06t-.04-.05q-.13-.04-.05-.1.06-.04-.01-.03c-.07 0-.2-.05-.22-.09l-.05-.06-.06-.09c-.02-.07.02-.16.05-.15q.03.02 0 .06-.03.05.02.03c.05-.03.02-.12-.04-.12-.12-.01-.13.16-.02.3zm-.1-.59q.02-.05.06-.06t.03-.04c0-.03-.1-.02-.12.03q-.03.02-.01.08 0 .09.04 0m-.07-.3q.05.05.02-.05-.05-.11.07-.11.12-.02.08-.09-.03-.08.07-.06.15-.02 0-.05-.15-.01-.13.08.01.06-.04.06c-.13.02-.18.16-.07.23zm-.3-2.05H4l-.15-.03H3.7zm.12.7c.03 0 .28-.18.27-.19q-.03 0-.16.09zm-.4-1.95q.03 0 .08.3l.05.28-.04-.3a1 1 0 0 1 0-.34q.03-.05-.01-.05c-.07.01-.13.09-.09.1m.43 1.4.3.05q.13.02.13 0a2 2 0 0 0-.53-.09q-.03.02.1.04m.3.9q.23-.32.1-.17a2 2 0 0 0-.24.35zM3.9 5.23H4h-.02c-.07 0-.14-.07-.11-.11q.02-.05.03 0 .03.07.05-.03 0-.12-.09-.03-.08.1.04.17m.22 1.11.07-.04q.05-.05.18-.12.12-.07.1-.07c-.04 0-.27.14-.33.19zm.27.35q.28-.32.44-.35.09-.02.05-.03-.05 0 0-.03.03-.03-.01-.03c-.1.01-.35.22-.47.4q-.18.25 0 .04m-.04-.31c.07-.05.2-.12.3-.15l.16-.05-.16.03c-.15.03-.38.14-.42.22q0 .03.12-.05m-.11-.52a6 6 0 0 1 .78.18l.16.03a2 2 0 0 0-.46-.15.03.03 0 0 1-.04-.03.02.02 0 0 1 .03-.02q.01-.02-.1-.12a3 3 0 0 1-.4-.54l-.04-.04c-.02.03.29.47.4.57q.18.17 0 .12c-.1-.03-.4-.05-.45-.03zm-.07-.3q.08.1.12.11.02 0-.04-.06t-.03-.1 0-.03H4.2l-.06-.02q-.12-.08.04.11zm.56 2.65q.03.02 0-.03a.1.1 0 0 1 .01-.1q.03-.03.08.01.1.08.02-.04-.1-.1-.14.01-.03.11.03.15m.12.51.1-.07q.14-.15-.04-.01-.1.1-.06.09m.14.16.14-.11q.06-.07-.08.03-.23.18-.06.08m-.86-3.9q.03 0 .03-.07 0-.06-.03-.05c-.04.01-.03.13 0 .12m.47 1.68.19-.2c.1-.07.12-.08.32-.1q.2 0 .17-.03h-.22a.5.5 0 0 0-.27.1c-.12.08-.28.27-.27.3q.01.02.08-.07M4.43 6a2 2 0 0 1 .64.14l.16.05c.02-.02-.27-.14-.42-.18s-.45-.05-.44-.02zm.26 1.13q.04 0 .04-.04 0-.06.05-.05T4.83 7c-.01-.04-.16-.01-.17.04q0 .06.03.07m.42 1.92a1 1 0 0 0 .26-.2q0-.02-.1.05-.2.15-.16.15m-.86-4.25c.03.06.17.1.19.05l.04-.05h-.06c-.1.03-.11.03-.13-.02q-.03-.06 0-.08.02-.04 0-.09t.04-.06q.1 0-.02-.03l-.09-.03.01.1v.12q-.01.03.02.1m.44 1.91.18-.15q-.02-.04-.12.08-.08.06-.06.07m-.27-1.75h.15l.1.01q.01.02.06.02h.21l-.1-.02q-.07-.03-.1-.07 0-.07.23-.03.04 0-.08-.03l-.13-.05v-.1q0-.14.2-.05.08.05.08.02c0-.03-.38-.14-.51-.14h-.12l.15.03q.15.03.15.05v.05c.01.02-.13.03-.27 0q-.05 0-.03.02l.15.03c.16.02.2.1.06.1h-.1l.1.02c.16.03.1.08-.1.1q-.31.03-.1.04M5.3 9.1c.03 0 .33-.21.34-.24 0-.03 0-.03-.11.05s-.26.19-.23.19m-.68-3.57c.13.17.35.38.4.37l-.1-.1-.28-.3q-.3-.35-.02.03m.27 1 .06-.03q.03-.02 0-.02l-.05.03q-.03.03-.01.03M4.6 5.17q.03 0 .04-.03t.14-.03h.12l-.11-.02q-.19-.04-.21.05 0 .03.02.03m.99 3.97c.1-.06.19-.15.16-.14l-.25.18zm-.25-1.38c.14.06.38-.02.36-.13q-.02-.07-.07.03-.02.06-.12.06a.2.2 0 0 1-.17-.03q-.11-.09-.08 0 .01.03.08.06m.04-1.11q.35-.04.29-.06a2 2 0 0 0-.59.07q-.04.03.3-.01M5 6.24q.05-.02.03-.02h-.07q-.02.02.04.01m.25 1.06q.05.04.1.03.04 0-.02-.03-.1-.06-.02-.07.05 0 .01-.03c-.04-.03-.14 0-.13.04q0 .03.06.06m.12-.5c.11-.02.3-.03.39-.02q.3.03.1-.02c-.1-.02-.72.01-.71.04zM4.9 5.47c.13.21.48.6.5.55l-.1-.12a2 2 0 0 1-.38-.47q-.08-.14-.08-.1 0 .06.06.14m.32.99h.26q.24 0 .02-.03l-.26.01-.15.03zm.3.44.37.01.16.01c.03-.03-.3-.07-.53-.05l-.24.03zm.68 3.37q.22-.04.17-.07l-.17.05-.16.05zm-.13-.03c.06 0 .33-.16.36-.2.04-.06-.1.01-.32.15q-.08.06-.04.05m-.21-.9q.03 0 .1-.09.06-.07.05-.08-.03 0-.1.1-.07.07-.05.08m.02-.13c.07-.05.16-.15.13-.15q-.03 0-.1.1-.06.07-.03.05m.4 1.13.2-.08q.09-.05.1-.02.03.02.07-.04.06-.12 0-.05-.03.03-.07.02l-.06.01-.16.08c-.18.07-.24.12-.09.08M5.21 5.62l.28.32q.17.15.17.18l.08.04.1.03-.1.03-.1.03h.1a.2.2 0 0 1 .18.04q.07.06.15.03.06-.01.07-.04l-.13-.12-.34-.32-.2-.2c0 .04.19.25.34.39l.14.15c.02.09-.31-.14-.53-.36l-.22-.28q-.1-.13-.1-.11.01.04.11.19m.82.6.05.04c0 .04-.08.05-.13.01q-.04-.03 0-.04zM5.8 8.17c.04.03.1.02.09-.01l-.03-.02q-.04 0-.04-.08t-.04-.07c-.05.02-.03.14.02.18M4.5 1.81l.19.06c.06.05.17.08.16.04l-.03-.03-.1-.04c-.06-.04-.32-.09-.34-.06zm.01.41.05.05q.03 0 0-.04v-.07q0-.04.13.02c.15.08.19.07.04-.02q-.19-.1-.09-.18.02-.02-.03-.02t-.08-.02l-.06-.02q-.02 0 .02.04.13.08.06.14-.09.03-.04.12m.76 3.1q.18.12.25.06.05-.04.04-.06-.01-.05-.07.01c-.03.05-.21-.03-.23-.1q-.01-.08.16-.04.07 0 .05-.03 0-.04-.07-.04c-.09.01-.17-.05-.15-.12a.1.1 0 0 0-.01-.1q-.03-.03-.03-.07t-.03-.03q-.02 0 0 .1c.03.13.04.28.03.33q0 .04.06.09m.19.81h.11q.1 0-.04-.02-.17-.01-.07.02M4.89 2.7c.28.1.28.1.25.07a2 2 0 0 0-.47-.16zm.02-.15c.29.1.28.1.25.07a2 2 0 0 0-.47-.16zM5.8 7h.12q0-.02-.1-.02h-.13q0 .02.1.02m-.35-1.4q.05.02 0-.06-.05-.04-.03 0 0 .05.03.06m1.16 5q.06.04.02 0l-.07-.1-.03-.07.01.07zm-.08-.23-.01-.05q-.03-.01-.01.03.01.05.02.02m-.39-1.79c.03.05.15.03.16-.03q.04-.14-.04-.03-.05.1-.08.03-.02-.05.01-.1c.05-.08.01-.1-.04-.03q-.07.08 0 .17M5.3 4.73q.03 0 0-.03 0-.03-.03-.02v.02q0 .03.03.03m-.4-1.94c.08.04.41.17.42.16s-.24-.13-.4-.18q-.1-.04-.02.02m1.7 7.63.01-.03h-.03q-.02 0-.02.02t.03.01zm-.1-.37q.04 0 .06-.03.03-.05-.02-.04-.08.02-.03.07m-.6-2.94.17.01.21.03q.17.04.02-.03a1 1 0 0 0-.45-.03zM4.6 1.17q.09-.08 0-.09a.04.04 0 0 0-.05.03q-.01.12.05.05zm.17.6q.08.06.04-.03-.03-.07.04-.05.06.01.04-.02c-.02-.04-.14-.04-.15 0q-.04.07.03.1m1.93 8.72q.1-.04.07.03 0 .05.04.07c.05.03.16.04.15.01l-.06-.01q-.1-.01-.05-.07.03-.01.03-.04t-.03-.01h-.04a.03.03 0 0 1 0-.05q.06-.05-.04-.05-.12 0-.05-.1.02-.04 0-.04t-.06.08.02.09 0 .07q-.07.05.02.02m-.2-.75.02-.11q0-.1-.03-.01l-.01.1q0 .07.02.02m-1.26-6.7c.2.1.2.1.08.02-.14-.1-.29-.16-.28-.13zm-.27-.66q.06.02.06.06t.02.04.01-.04c0-.05-.12-.13-.14-.1zm1.07 4.87.15.02.2.04.1.03c0-.03-.24-.1-.36-.1-.13-.02-.19 0-.09.01m-.52-2.43.21.06.16.02c0-.03-.4-.12-.42-.1zm-.8-3.67.06.02c.02-.03-.05-.08-.08-.06q-.03.01.02.05m.9 3.57.17.02q-.01-.02-.14-.04-.31-.04-.02.02m.9 4.47c.06.06.07.06.13.01a.1.1 0 0 0 .06-.11q.01-.11-.05.02c-.06.1-.13.08-.08-.03q.07-.18-.06-.04l-.06.1zm-.04-.16q.03 0 .03-.1V8.8q0-.04-.02-.04-.04-.02-.04.19 0 .08.03.09m-1.61-7.7q.06-.02.03-.02h-.08q-.03.02.05.02M6.25 7.4c.07 0 .18.03.24.05q.2.07 0-.02c-.12-.05-.3-.09-.33-.07q-.03.02.1.04m.1.13.29.11q.15.08.09.03c-.1-.09-.52-.24-.51-.2q.01.03.13.06M5.07 1.46h.21a1 1 0 0 0-.36-.02zm.89 4.37c.18.19.22.23.23.22.01 0-.04-.07-.1-.13l-.18-.2q-.06-.06-.05-.03.01.05.1.14m-.88-4.62h.2c.02-.01-.14-.04-.3-.05-.17 0-.1.03.1.05m1.72 8.5.06.08.03-.07.03-.1q-.01-.05-.04.01-.01.07-.05.04l-.06-.1q0-.05-.03-.04-.04.05.06.18m.1.48c.05.04.2 0 .22-.07q.05-.13-.04-.02c-.05.07-.14.1-.16.04q0-.04-.03-.04c-.03 0-.02.07 0 .09M5.87 5.17h.06c0-.03-.11-.06-.13-.04q0 .02.07.04m-.83-3.84q.06 0 .03-.01h-.08q-.03.02.05.01m.98 4.08.18.05-.15-.07-.17-.05zm-.83-3.24q.07.04.04-.06-.06-.08.04-.05.07 0 .02-.02c-.05-.04-.13 0-.12.06q0 .05.03.07zm1.93 8.77q.03 0 .02-.03v-.07q0-.08-.02 0-.05.1 0 .1M6.06 5.5l.14.02c0-.01-.27-.09-.28-.08zm-.15-.44c.06 0 .17.05.25.08q.12.06.1.03a1 1 0 0 0-.42-.15q-.02.02.07.04m.61 2.7q.1.04.22.13.1.07.13.06a1 1 0 0 0-.37-.24q-.15-.05.02.05M5.2 1.62l.1.01q.06 0-.01-.03h-.1q-.05 0 .01.02m.94 4.17q.07.05 0-.01l-.06-.06v.02q0 .03.06.05m-.9-4.44h.1l-.09-.03-.1.01zm2.07 9.82q0-.03-.02-.05v.03q.01.05.02.02m-.56-3.15c.2.15.27.16.08 0-.13-.08-.25-.16-.25-.13zm-.48-1.76q.05 0 .02-.01h-.05q0 .02.03.01m-.21-1.05q.06.01.03-.01T6 5.19q-.02.01.04.02M6 4.95l.3.13.08.04-.1-.06c-.09-.06-.37-.18-.36-.15zm1.37 6.31q.1-.01 0-.04-.03 0-.05.02 0 .03.05.02m-.14-.59c.04.05.1.05.09 0 0-.04-.12-.1-.13-.07zm-.4-2q.03 0 .02-.06-.04-.12-.06 0 0 .06.04.06m.04-.42q.13.12.14.1a1 1 0 0 0-.26-.25q-.1-.04.12.15m.5 2.64c.05.04.16.02.15-.03 0-.03-.05-.02-.06.01-.02.05-.07 0-.06-.05q0-.05-.02-.05c-.05 0-.04.08 0 .12m.33.54q.15-.02.08-.02l-.17.02zm-.15-.32q.14-.03.1-.05-.03-.01-.1.04l-.09.04zM7 8.51l.08.06-.06-.08-.09-.08q-.05-.01.07.1M5.53 1.95l.07-.01q.06-.03 0-.04c-.06-.02-.12.03-.07.05M7.16 9.3q.09.04-.02-.07-.05-.06-.04 0zm.57 2.02q.15.02.17-.01t-.08-.03h-.17l-.08.01zm-.14-.12q.04 0 .04-.03t-.04 0l-.04.02zm-.56-2.57.02-.01q0-.03-.04-.04Q7 8.57 7 8.59t.04.04m.07.09q.03.03.02 0l-.03-.04q-.06-.03 0 .04m.15.59q.03 0 0-.03-.04-.06-.03-.01zm-.08-.36q.03.03.03.01l-.04-.06q-.03-.03-.03-.01zm.51 1.73c.08.17.2.35.22.32l-.16-.31q-.28-.47-.06 0M6.06 3.13q.02 0 .02-.03c-.02-.05.06-.03.13.03q.14.12.04-.02c-.08-.11-.26-.13-.23-.03q0 .05.03.05m.11-.5.37.16a2 2 0 0 0-.49-.24c-.24-.1-.16-.04.12.09m-.1-.17.3.13q.2.1 0-.03a2 2 0 0 0-.5-.2zm-.17-.22q.05.03.07.01l-.06-.04q-.13-.03-.01.03m.8 3.56.1.04q0-.02-.06-.06-.08-.03-.07-.12 0-.13-.03.02-.04.06.06.12m.07.28c.07.02.16-.01.15-.05q0-.03-.06 0c-.08.03-.13-.04-.1-.1q.03-.05 0-.04c-.03 0-.06.09-.05.14zm-.8-3.94.08.02-.06-.05q-.08-.03-.1-.02zm.14.18.12.04q0-.02-.1-.06T6 2.28zM7 6.64l.06.05.05.06c.01.04.1.04.12 0q.01-.04-.02-.02c-.03.01-.13-.06-.21-.16q-.07-.06 0 .07m-.92-4.79c.08.04.37.36.55.62.23.34.36.56.51.88q.1.22.1.15a6 6 0 0 0-.8-1.35c-.12-.14-.4-.38-.4-.33zm.65 2.49.09.04q.02 0-.05-.05c-.07-.05-.07-.1 0-.05.08.04.05-.02-.02-.07-.11-.07-.14.04-.02.13M6.08.9q.06 0 .03-.02h-.06q-.02.02.03.02m1.35 6.24.07.02c.04 0 .12-.14.11-.17 0-.05-.05-.02-.06.03 0 .07-.07.1-.1.07l-.03-.06q0-.02-.02-.02c-.03 0-.01.1.03.13M6.23 1.6c.03.02.2 0 .19-.03l-.22.01zm1.04 4.64c.05.04.13.02.12-.03q-.01-.04-.05-.02h-.08q-.08-.04 0 .05M6.3 1.29q.06 0 .03-.02h-.07q-.02.02.04.02m.94 3.94.15.05-.14-.08q-.29-.12 0 .03m-.72-3.5q.24-.04-.04-.03-.11 0-.11.03zm-.24-.6q.05-.01.01-.02l-.04.01zm.95 4.21.27.14.2.1-.15-.1-.27-.15q-.2-.07-.05.02m-.6-3.45.16-.01q-.01-.02-.14-.02l-.16.01q.01.02.14.02m.1.15.15.01q.07.01 0-.01C6.83 2 6.62 1.98 6.63 2zm.58 2.2q.2.15.16.1l-.3-.25q-.22-.13.14.15m.66 3.6c.09.02.2-.13.15-.2q-.03-.02-.04.03c-.01.1-.08.14-.13.08q-.07-.06-.04.01 0 .06.06.07m-.71-3.8q.3.23.04-.01c-.1-.08-.23-.17-.22-.14zm-.11-.25.13.13q.07.08.07.01c0-.03-.32-.28-.32-.24zm-.08-.24.15.17q.12.17.02-.03l-.05-.14q0-.05-.02 0-.02.04-.06-.02l-.08-.06q-.1-.03.04.08m.23.85.26.2c-.07-.1-.34-.32-.35-.3zm-.48-2.25h.12l-.1-.03h-.11zm.93 3.84.28.27c.01-.03-.18-.23-.34-.35l-.15-.1zm-.37-1.33.23.21q.19.23.06.02c-.06-.1-.41-.39-.4-.34q.01.04.11.11m-.58-2.42.12.02q.04 0-.03-.02t-.11-.02q-.02 0 .02.02m1.53 6.94V9q-.01-.05-.03.07c0 .17.01.25.03.1m-.9-4.3q.28.27.37.53l.05.16-.03-.15-.1-.25a3 3 0 0 0-.35-.39q-.08-.03.06.1m.4 1.4q.26.23.14.09a1 1 0 0 0-.27-.23zm.07.27.2.23q.05.1.06.07a2 2 0 0 0-.31-.39q-.18-.14.05.09m-.18-.8.09.07zl-.08-.08q-.04 0 .07.1m-.71-3.17c.06.04.23.1.24.08l-.09-.05c-.16-.07-.25-.08-.15-.03m1.43 6.56c.01-.08-.03-.42-.05-.37l.01.23q.02.17.04.14m-1.17-5.5V3.6q-.03-.02-.01.03 0 .05.02.02zm.78 3.33q.09.1.05.02c-.04-.07-.14-.17-.12-.13zm-.9-4.21q.07.01.17.07l.08.02a1 1 0 0 0-.3-.13zM8.52 9l-.01-.06q-.03-.02-.01.03t.02.03m-.65-3.1q.07.07.01 0-.03-.06-.05-.06t.04.06m.65 2.97-.02-.09q-.03-.04 0 .05 0 .08.02.04m-.04-.19q.04.08.03 0-.02-.06-.04-.07l-.02.01zm-1.11-5.7.17.09c0-.02-.12-.1-.25-.16q-.2-.08.08.08m.74 3.6.07.07-.08-.12-.06-.06zM7.5 3.74l-.01-.05q-.03 0-.01.04.01.05.02.01m1.1 5.02c0-.1-.03-.26-.04-.25q-.01.03.01.16zM7.58 3.98q.15.35.26.82c.04.19.09.35.1.37q.04.01-.08-.44a3 3 0 0 0-.22-.71q-.22-.46-.06-.04M7.4 2.42q.2.06.03-.02l-.1-.03q-.02.02.07.05m1.3 6.14-.05-.19q-.02-.07 0 .1.05.16.04.09m-.39-2.4.23.3-.18-.27-.16-.2q.02.05.11.17m-.05-.37q.13.16.14.14c0-.04-.25-.33-.27-.32-.02 0-.03 0 .13.18M7.73 3.6l.06.06c.02-.02-.07-.16-.1-.17q-.06-.01.04.11m1.04 4.78c0-.07-.05-.4-.07-.37zm-.44-2.36q.12.16.14.16c.01-.02-.25-.34-.27-.34-.01 0-.02 0 .13.18m.08.43.14.21c.01-.02-.17-.34-.2-.36h-.03zm-.85-3.88.1.1q.05.09-.02.04l-.06-.02.13.1q.13.07.16.06l-.04-.03a.4.4 0 0 1-.13-.13c-.08-.12-.17-.2-.18-.18zm.62 2.8q.05.05.05.02t-.06-.07-.04-.02zm-.06-.22q.03.03.03 0l-.04-.04q-.05-.03.01.04m-.56-2.69c.06.09.22.2.2.16q-.01-.03-.08-.08t-.08-.09l-.06-.06q-.08-.06.02.07m.95 4.38q.03 0 .01-.03l-.03-.02v.02q0 .03.02.03m-.03-.13q0-.03-.02-.05v.04q.01.04.02.01m-.2-1.1q.05.06.06.04l-.07-.09q-.07-.05-.06-.03zm.42 2.01-.01-.06q-.02-.02 0 .03 0 .06.01.03M8.13 4.8q.08.12.04-.04l-.04-.09c-.04 0-.03.07 0 .13m-.1-.5q.04 0-.03-.09-.04-.07-.02.02zm-.2-.9q.03-.02.02-.06-.05-.13.17.04l.16.12c.03 0-.19-.2-.27-.23q-.11-.06-.1.08-.01.07.02.05m.04-.4.15.1-.14-.1q-.12-.1-.14-.1 0 .03.13.1m.08.5.19.12q.15.11.17.1c.01-.01-.27-.23-.35-.26q-.04-.01-.04.01t.03.03m.84 3.73q.03.03.02 0l-.03-.04q-.06-.03 0 .04m-.8-4.02.1.07zl-.1-.07q-.05 0 .1.08m.18.55q.29.18.23.12l-.3-.2q-.16-.07.07.08m.62 3.17q.05.1.05.06l-.07-.15c-.07-.14-.06-.06.02.09m.06.22.07.17.04.14-.03-.16q-.03-.17-.07-.19-.08-.03-.01.04m-.13-.8q.13.15.07.17-.08-.01.1.38.1.24.04.05L8.9 6.8c0-.06.05-.05.06.01q.02.06.03.04l-.05-.17q-.1-.23 0-.3l-.03-.1-.04-.1q0-.04-.02-.04l-.1-.05-.06-.05.06.08q.07.1.03.14-.02.06-.06.05h-.05zm.1.23c.04-.02.08.07.06.14q-.01.08-.05-.01-.06-.12 0-.13m-.02-.3q.02-.07.05-.01c.03.04 0 .2-.04.17-.03-.02-.04-.1 0-.15m-.17-.4.09.08.13.12.1.08-.07-.09L8.82 6l-.1-.08-.1-.1-.04-.02zM8.3 4l.16.1-.17-.15q-.3-.2.01.04m.2 1.37q.03.03.06.02t.08.04c.08.08.2.18.19.15l-.11-.11c-.1-.09-.1-.1-.09-.17q.01-.08.07-.04.06.05 0-.02-.03-.05-.02-.15c0-.09 0-.1-.05-.15q-.07-.03-.07-.19v-.18q0-.06.07 0 .04.04-.02-.04c-.1-.1-.1-.1-.05-.16.03-.04.01-.06-.17-.2q-.23-.16-.1-.04l.17.14q.07.05.06.1-.01.09-.1-.02-.04-.05-.08-.05-.03 0 0 .04.04.05.03.09 0 .05.03 0c.09-.1.15.16.11.46l-.02.16q0 .05.03-.04l.04-.09.05.05c.05.05.05.07.02.2q-.04.18-.1.15h-.05zm.25.44.09.07-.18-.18c-.03 0-.03 0 .09.1m-.02-.15.08.07-.06-.08q-.05-.08-.09-.08c-.03 0-.03 0 .07.09m-.06-.84q.02.01.02-.02-.01-.04-.04-.06-.03 0-.02.03 0 .04.03.05m-6.23 5.38c.01-.06.07-.08.1-.04.04.04-.03.14-.07.13q-.07 0-.03-.09M.73 2.21q.03 0 .07.04.04.06 0 .07H.73q-.06-.08 0-.1m1.86 8.5q.08 0 .1.07.03.09-.07.04-.05-.02-.05-.06 0-.05.02-.05m-.66-3.1q.05-.05.1-.03c.05.03.05.03 0 .1q-.06.06-.1.07c-.04 0-.05-.1 0-.14m-.13-.47.03.01-.02.03h-.03q0-.03.02-.04m1.12 4.71c.06.03.24.07.4.1.3.03.4.02.14-.03q-.22-.03-.13-.1c.03-.03.28-.04.28 0l.13.14.11.14c0 .02-.4 0-.4-.03l-.08-.03q-.08 0-.09-.03t-.04 0c-.06.02-.27-.03-.35-.1q-.16-.15.03-.06m-.61-2.59c.04-.03.15-.04.16 0 .01.05-.08.12-.13.11q-.11-.03-.03-.1M2 8h.03q0 .03-.02.05H2zm.01-.2q.02.1-.03.07-.04-.02-.01-.06.02-.06.04 0M2 7.39h.08c0 .05-.1.16-.15.15-.07-.02 0-.13.07-.15m.1.78q.08-.08.12.01.01.1-.1.1-.09-.02-.01-.1m-.18-.93q.05-.04.06-.02c.01.03-.07.12-.09.1q-.06-.03.03-.08m-.15-.53h.03l-.02.04-.03-.01q0-.03.02-.03m-1-4.8q.05 0 .05.04c0 .07-.08.1-.1.02Q.7 1.91.75 1.9m2.07 9.69.05.01.05.02.05.02c.03.04-.06.06-.11.03q-.08-.06-.04-.08m-.65-3.2.06-.03q.01-.04.09-.02l.07.02-.06.06q-.07.09-.16.05c-.05-.01-.05-.07 0-.07m-.45-1.95h.03q0 .03-.02.05t-.03 0q0-.03.02-.05m.98 4.5c.01-.05.09-.03.1.03q0 .08-.08.04-.03-.01-.02-.07m-.6-3.03c.03-.04.15-.05.16-.02 0 .03-.12.16-.15.16-.05.01-.06-.08-.01-.14m-.16-.88q.03-.04.05-.03l-.04.08q-.05.05-.05.03zm-.03-.17c.03 0 .02.06-.02.07q-.02.02-.02-.03 0-.03.03-.04m-.1-.3h.03q0 .04-.02.04l-.03-.01zM3 12.03c.03 0 .18.06.18.09q0 .05-.13 0-.1-.07-.06-.09m-.02-.55q.1.01.05.08-.03.03-.1.01-.08 0-.04-.06a.1.1 0 0 1 .1-.03m-.25-.69q.01-.04.07 0c.06.03.04.1-.03.09q-.07 0-.04-.09M2.1 7.67c.02-.04.17-.04.18 0l-.05.04-.1.1-.05.06v-.08zM.86 1.73l.07.01c0 .04-.06.1-.1.1-.07-.03-.04-.1.03-.11m1.98 9.37q.06.01.06.06c-.02.03-.08 0-.08-.03a.02.02 0 0 1 .02-.03m-.56-2.55h.09q.07.02.04.06c-.03.07-.12.07-.13 0zm-.24-1.3c.03-.03.34-.01.35.02l-.02.07c-.03.05-.03.06-.15.03l-.17-.03q-.09 0-.01-.09M.8 1.5l.03.03-.04.03q-.03 0-.03-.03zm2.09 9.47.07.01c.03.04-.04.1-.09.09-.06-.01-.04-.1.02-.1m-.8-3.51q.04-.07.11-.04l.07.01-.05.08q-.05.08-.1.06-.09-.01-.02-.11m.06-.42q.14-.03.04.08c-.05.06-.14.08-.18.05s.06-.12.14-.13m1.07 5.17q.2.1.18.15h-.05q-.04 0 0-.04.03-.02-.01-.02c-.06 0-.23-.08-.24-.11q0-.02.12.02m-.94-4.07q.04 0 .06.02v.03l-.06.02q-.04.02-.04-.02-.01-.05.04-.05m-.03-.15q.08-.08.07.04 0 .08-.05.06-.1-.01-.02-.1m-.3-1.25q.08-.06.1-.01c-.02.04-.1.1-.11.07l.02-.06m-.03-.33q.06-.01-.01.08t-.03-.01zm-.06-.06.03.01q0 .03-.02.03h-.03zM.9 1.6q.04 0 .07.02.04.08-.08.08c-.07-.02-.06-.1 0-.1m-.1-.2.03.01q0 .03-.02.04l-.03-.01zm2.28 10.26q.04-.02.04.02-.01.03-.05.05-.04.01-.04-.02 0-.04.05-.05m-.76-3.39q.04.01 0 .05-.03 0-.02-.01zm.58 2.56q.03 0 .05.05.01.08-.05.04c-.04-.02-.04-.08 0-.09m-.5-2.39q.03-.07.1-.07.05-.01.08.1l.02.1-.24-.05zm-.15-.67.05-.02-.01.05v.04q.01.05-.05.01-.05-.02.01-.08m.88 4.05.06-.03c.14.03.13.02.09.07l-.1.04q-.1-.01-.05-.08m-.15-.64.06.02q.06.02 0 .02l-.07-.01zm-.9-4.28q.11-.04.03.04-.05.03-.05 0t.03-.04M.95 1.48q.1 0 .05.06c-.03.02-.1 0-.11-.03q0-.03.06-.04M3 11q.03-.02.05.06t-.02.07c-.05 0-.07-.11-.03-.13m-.68-3.53c.03.06-.01.13-.07.12q-.04 0 0-.09.06-.08.07-.03m.12.69q.12-.01.08.1-.01.04-.07.06c-.08 0-.09-.14-.01-.16M1.96 6q.02 0 .01.02l-.04.03q-.02 0-.01-.02zM.92 1.37c.04 0 .1.04.1.05-.02.03-.1 0-.11-.03zm2.35 10.72.03.04q0 .03-.02.03l-.04-.04q0-.03.03-.03m-.08-.42h.23l.41.01c.18 0 .22 0 .24.04.01.05 0 .05-.12.06h-.14l.04.08q.06.14-.13 0a.5.5 0 0 0-.28-.1c-.25-.01-.28-.02-.28-.05q0-.02.03-.04m-.76-3.71q.08-.02.07.07c.01.1.02.1-.06.09q-.07-.01-.07-.08-.02-.08.06-.08m-.19-.86q.14-.07.37 0l.1.04-.01.08q0 .09-.06.05l-.26-.05-.2-.06zm-.1-.35.04-.04-.03.06-.05.04zm.22 1q.01-.1.11-.06.04.02.03.12c0 .11 0 .12-.09.08q-.08-.01-.05-.14M2.3 6.9q.13 0 .06.05c-.08.08-.23.06-.17-.01q.02-.04.11-.04M1 1.28q.05 0 .06.03-.01.06-.08.04-.06-.05.02-.07m1.03 4.78h.04q.01.03-.02.03-.07 0-.02-.03M3.2 11.2l.04.02h-.06q-.05 0-.04-.02zm-.83-3.68c.02-.08.11-.1.14-.03s-.03.15-.1.14c-.06-.01-.06-.01-.04-.1m-.14-.8q.06-.05.1-.02.08 0-.02.07c-.12.09-.19.06-.08-.04zM2 5.68q.05.02 0 .07-.03.01-.03-.03T2 5.67m1.45 6.72.03.02q0 .03-.03.02l-.03-.03zM2.02 5.84h.03l-.01.05H2zm1.47 6.65.12.07.26.23c-.02.01-.4-.24-.4-.28zm-.05-.33q.04.03.03.05-.04.04-.07-.05-.02-.06.04 0M2.2 6.56l.03.01-.02.03q-.02.03-.03 0t.02-.04m1.51 6.87q.04.02 0-.03-.09-.14-.04-.17a.1.1 0 0 0 0-.09c-.03-.08.03-.08.08 0q.06.1.01.12-.06.07.02.14c.04.03.03.1-.02.07q-.04-.02.04.12l.01.08c-.02.07-.08.01-.1-.12q-.04-.14 0-.12M2.6 8.21h.06q.07 0 .08.1.04.1-.06.1c-.08 0-.08 0-.09-.1zm-.16-.93q.12-.03.1.08c-.01.06-.09.09-.13.06-.03-.02 0-.13.03-.14M2.1 5.9c.03-.02.07.03.06.06-.01.04-.07.02-.07-.02zm-.06-.36q.03-.03.04 0l-.03.04L2 5.6zM1.1 1.32c0-.06.08-.03.12.03q.09.1-.05.08-.07 0-.07-.05zm2.74 12.46q.11.09.06.15 0 .06-.03 0l-.04-.07-.04-.09q-.02-.08.05 0m-.3-1.4.04.03q.04 0 .08.03l.02.04c-.05 0-.2-.1-.18-.11zm-.06-.1.03.03v.02l-.04-.02zM2.57 8q.12-.01.13.1-.01.11-.1.06C2.56 8.13 2.54 8 2.57 8m-.02-.21q.01-.04.07-.03.07-.01.06.1.02.16-.07.1t-.06-.17m-.05-.86.16.04q.11.02.08.08c-.01.05-.02.05-.16.02L2.38 7c-.07-.01.04-.1.12-.09zm0-.18q.06.02 0 .07-.09.08-.16.04c-.04-.02.12-.13.17-.11m1.36 6.93q.02 0 .04.04.01.05.05.06.04.02.04.04t-.09-.02q-.12-.08-.04-.12M2.3 6.55h.03l-.02.04H2.3q0-.03.02-.04zm1.62 7.38c.02-.06.08-.02.06.05q0 .05.02.05c.03 0 .05.14.01.15q-.03.03-.1-.17zm-.1-.43c.03-.03.07.02.06.06s-.06.01-.07-.02zm-.07-.5.02.06q-.01.02-.04 0-.03-.04-.02-.06t.04 0m-.01-.23.08.08c0 .02-.1-.04-.14-.08q-.09-.1.06 0M2.55 7.5c.02-.03.1.02.12.07q.02.13-.07.11-.05 0-.05-.09zm-.23-1.4c.02 0-.03.1-.06.1q-.02 0 0-.06zm-.22-.67h.03l-.02.04-.03-.01q0-.03.02-.03m1.75 7.85q.02 0 .03.05t.04.05.04.05-.02.05-.03-.03l-.06-.08q-.07-.07 0-.09m-.13-.45.03.03q0 .02-.02.01t-.03-.02.02-.02m-.07-.53q.07.06-.02.04-.05 0-.03-.04 0-.03.05 0M2.46 6.56l-.01.04q-.05.05-.08.05l.02-.04q.03-.04.07-.05m-.06-.15q.06-.01.02.02c-.04.04-.1.05-.1.01q.02-.03.08-.03m-.14-.37.02.01-.02.03h-.02q0-.04.02-.04m-.07-.27h.05c.03.04.02.12-.02.1q-.06-.05-.03-.1m-.1-.5q.02 0 .03.03t-.02.03l-.03-.03zm1.97 8.94q.04-.05.04.02.01.1-.04.07t0-.09m-.15-.62q.06-.04.06.05-.01.05-.04.03-.06-.03-.02-.08m-1.3-6.27q.06-.03.07.1 0 .08-.06.04-.07-.01-.05-.07zm1.22 5.8q.04 0 .04.03t-.02.03-.04-.04q0-.03.02-.03m-.04-.2q.06-.03.1.07 0 .03-.05.04c-.05 0-.1-.08-.05-.12m-.09-.39q.08.01.1.1.02.03-.05-.01-.1-.07-.05-.09M2.21 5.59h.03l-.02.04-.03-.01q0-.03.02-.03m1.83 8.25.04.02-.02.03q-.03 0-.04-.02 0-.03.02-.03m0-.15q.03 0 .02.04 0 .02-.04.01L4 13.7q.01-.02.04-.01m-.13-.47c.03-.03.07.02.05.06 0 .03-.06.01-.07-.02q0-.03.02-.04M2.73 7.8h.08q.08.01.1.12c.02.12.02.12-.08.1Q2.75 8 2.74 7.9zm-.17-1c.05-.04.08-.04.2 0 .14.03.36.11.36.13L3.1 7c-.02.05-.03.04-.2-.02l-.3-.08q-.16-.04-.05-.1m-.06-.2q.04-.04.03 0t.05.01q.15-.04.08.06-.04.05-.12.02-.11-.02-.04-.08m-.05-.35q.05-.05.08-.04c.02.01-.07.13-.1.14q-.06 0 .02-.1m-.12-.35.07.03c.04.04.02.11-.04.09-.04-.02-.06-.12-.03-.12m0-.2q.07.1 0 .07l-.02-.04q0-.02-.02-.02t-.01-.02.05.01M4 13.5q.03 0 .04.04 0 .04-.02.03-.04 0-.04-.04 0-.02.02-.03M2.73 7.56l.09.01q.08.02.07.1c0 .1 0 .1-.1.08q-.08-.02-.07-.1zm-.46-2.09q.02 0 .03.04l-.01.04q-.03 0-.04-.04 0-.04.02-.04m1.64 7.57q.05.01.03.06-.02.01-.03-.02zm-1.4-6.6q.01-.02.02 0 0 .03-.02.03h-.03l.02-.04M2.45 6q.02.05-.04.08-.03 0 0-.04T2.46 6m1.56 7.3q.08.03.02.08-.03.02-.05-.03 0-.05.03-.05m0-.19v.07q0 .06-.03.01c-.04-.04-.01-.1.02-.08M2.73 7.35c.02-.04.13.04.14.1q.03.12-.09.07-.07-.02-.06-.1zM2.4 5.58c.04.01.06.09.03.09l-.06-.03c-.04-.03-.01-.09.03-.06m-.23-.86q.03 0 .03.04l-.01.06q-.02.01-.04-.04 0-.04.02-.06M4 12.92l.05.06c0 .06-.07.06-.09 0q-.04-.1.04-.06m-.1-.34q.1.05.06.07c-.03 0-.1-.05-.1-.07q-.01-.02.05 0m-.07-.62q.15.12.08.13c-.03 0-.2-.17-.19-.2zm-1.2-5.53q.05.02 0 .07-.11.06-.06-.02.04-.05.06-.05m-.14-.36q.04-.06 0 .01l-.02.07-.02-.02zm-.08-.25.09.02q.08.04.03.09-.03.06-.08 0-.09-.08-.04-.1zm-.13-.54.03.02q.03.02 0 .03l-.03-.02zm-.14-.72q.02-.05.05 0 .06.06-.02.08-.06.01-.03-.08m1.8 8.2c.04 0 .16.08.14.12q0 .03-.08 0-.12-.09-.07-.12m-.6-2.86c.05 0 .2.08.2.12q0 .06-.15-.02-.13-.08-.04-.1m-.6-2.72q.01-.04.08-.01l.08.03v.08q-.02.09-.09.05-.11-.04-.07-.15m-.12-.91q.04-.01.02.04-.03.04-.07.05t-.01-.04.06-.05m-.25-.9c.05 0 .12.07.08.1s-.1 0-.11-.05q0-.03.03-.04m-.08-.3.04.06q0 .03-.02.04-.03 0-.04-.05 0-.05.02-.04m.34.9.11-.18c0-.03.1-.07.13-.04q.04.03 0 .07l-.18.2-.15.15q-.06.01.1-.2M4.16 13q.04.01-.02.07-.04.05-.07.04c-.04-.02.04-.12.09-.1m-1.3-6c.1.03.1.03.08.08-.05.09-.2.04-.17-.05q0-.07.1-.03m0-.36q.11.01.04.06c-.05.06-.06.06-.16.03l-.08-.02.06-.04q.06-.05.14-.03M2.5 5.7q.04 0 .07.03.06.04 0 .06l-.07-.01q-.06-.07 0-.08m-.23-1.02.03.02q0 .05-.02.05l-.03-.02q0-.03.02-.05m-.08-.33q0-.02.03-.03c.04 0 .04.07 0 .11q-.04.06-.03 0zm1.87 8.24q.06.05.05.07-.01.01-.07-.04c-.1-.06-.07-.1.02-.03M2.93 7.62q.09 0 .12.1.02.15-.08.08c-.03-.02-.06-.18-.04-.18M2.7 6.48q.05-.04.05-.01l-.06.1c-.05 0-.04-.06 0-.1m-.2-.98q.09.01.06.08-.01.03-.07 0-.07-.06.01-.08m-.1-.28c.06 0 .08.06.03.07l-.05-.04q0-.04.03-.03zm.02-.17c.05.05.01.09-.04.04q-.05-.05-.02-.06t.06.02M1.45.65q.02 0 .01.03l-.03.03L1.4.7zm.82 3.81q.06-.07.08.01 0 .1-.06.08t-.02-.09M1.52.73q.07-.02.03.03c-.03.06-.1.08-.1.03q0-.04.07-.05zM3.9 11.95c.03 0 .15.12.14.14-.02.02-.15-.08-.15-.11zm-.43-2.14c.06 0 .18.08.13.1q-.05 0 0 .01c.06.02.18.1.19.13l-.03.02c-.05 0-.23-.1-.24-.15q0-.04-.05-.04c-.06-.02-.06-.07 0-.07m-.54-2.34q0-.04.06-.05c.04 0 .05 0 .05.08 0 .11 0 .11-.06.1q-.07-.02-.05-.13M2.81 6.3q.07-.01.01.04l-.1.05q-.07.01 0-.04zm-.31-.98q.02-.02.06.03.06.07 0 .06c-.09.01-.13-.06-.06-.1m-.11-.49q.04-.01.08.01.06.04 0 .07t-.08.03a.06.06 0 0 1 0-.1m1.16 5.24.08.01c.06.03.01.07-.06.05-.07 0-.08-.05-.02-.06M2.76 6.5l.08-.04q.07-.01.01.05c-.03.06-.1.1-.1.05zm.04-.37q.06-.07 0-.03h-.04l.1-.04q.1 0 .03.02l-.1.1q-.06.08-.1.08l.02-.04zm-.18-.32q.04 0 .03.02l-.03.03q-.02 0-.03-.02t.03-.03m-.11-.66q.08 0 .06.08-.03.03-.07 0-.07-.06 0-.08m-.26-.94.02.05q-.01.03-.02-.02zm0-.17q.03 0 .04.03 0 .03-.03.05-.04 0-.03-.04 0-.04.03-.04m.7 3.23q-.02-.08.07-.05c.05.03.03.17-.03.16q-.06 0-.05-.1m-.3-1.66c.08-.01.15.08.1.11s-.16-.04-.15-.08q0-.03.06-.03M2.4 4.59q.04-.05.06 0 .07.05.02.08c-.03.03-.1.01-.11-.02zm.12.35q.04-.03.1.02t0 .07l-.1.02c-.06-.01-.06-.08 0-.11m-.17-.64q.02 0 .03.03t-.02.05q-.02 0-.03-.04t.02-.04m-.1-.41q.04-.02.04.02t-.02.04l-.03-.02.02-.04M1.6.56c.08-.07.13-.07.06 0q-.11.12-.13.1 0-.03.07-.1m2.74 12.12q.08.02.1.05 0 .04-.2-.02-.1-.04-.04-.05zM2.6 5.45q.01-.02.08.03t0 .05q-.14-.01-.08-.08m-.25-1.32.03.04q0 .04-.03.04-.04 0-.03-.03 0-.05.03-.05M1.63.74q.04-.03.05.01 0 .03-.04.05h-.06q0-.03.05-.06m1.36 6.34h.05c.04.01.03.09-.02.1-.04 0-.06-.07-.03-.1m-.05-.36q.04-.04.15 0c.1.03.11.03.08.1-.02.06-.02.06-.14.02q-.2-.06-.09-.12m-.03-.19q.06-.03.1-.02.08 0 0 .06c-.04.06-.14.07-.15.02q0-.02.05-.06m-.28-1.26c.08 0 .12.09.05.1q-.09 0-.1-.06 0-.04.05-.04m-.21-.86c.03-.03.09.03.07.07-.02.03-.08 0-.1-.03zm-.14-.64.03.01q0 .03-.02.03h-.03zm.6 2.58a.1.1 0 0 1 .1-.02q.06 0 0 .05l-.1.05q-.07-.01 0-.08m-.23-1.28c.06 0 .14.05.12.08s-.12.03-.16 0q-.07-.06.04-.08m-.12-.36q.05-.04.1.02t.02.08q-.07.05-.13 0t.01-.1m-.16-.74q.02 0 .04.03 0 .04-.04.05-.07-.02 0-.08m-.06-.44c.04.01.01.06-.03.07q-.05.01-.02-.04.02-.04.05-.03m1.39 6.59c.03-.03.15.02.13.05s-.14.02-.15-.01zm-.06-.3.18.08.15.1q.02-.01.03.02t-.05 0l-.13-.04q-.07-.03-.07-.06 0-.04-.03-.03c-.03 0-.1-.04-.11-.06zm-.55-2.5q0-.09.07-.06c.06.03.1.14.07.17s-.14-.01-.14-.03zm-.65-3.06c.04-.02.1.04.06.07-.02.02-.08 0-.08-.03q0-.03.02-.04m.34 1.32c.07 0 .15.04.13.08q-.06.04-.14 0-.09-.06.01-.08m-.23-1.04q.03.01.04.05.01.06-.04.02c-.05-.03-.05-.1 0-.07m-.22-.91.03.02q0 .03-.02.03l-.03-.02q0-.03.02-.03m-.03-.19q.04 0 .03.03l-.03.03q-.03 0-.03-.03t.03-.03M1.72.6q.03 0 .03.02-.01.03-.05.03T1.67.63 1.72.6m2.5 11.7.03.02q0 .03-.02.01-.03 0-.03-.02zM3.11 7.14q0-.04.07-.02.1.04.06.1-.01.05-.08.02-.1-.03-.05-.1m-.3-1.73.05.05q-.02.04-.1 0c-.06-.04-.02-.1.04-.05m-.01-.52.06.06-.07.03q-.07.03-.13-.02c-.06-.06-.06-.06 0-.09q.07-.04.13.02m-.25-.54q.03 0 .05.04-.01.07-.08.03-.04-.04.03-.07m-.07-.28q.05-.01.05.02 0 .09-.06.07-.07-.05.01-.1m-.08-.24.03.02q0 .03-.02.03t-.03-.02.02-.03m.38 1.36c.07 0 .18.07.16.1-.03.04-.16.04-.2 0q-.07-.09.04-.1m-.37-1.5q.03 0 .03.02l-.04.02q-.06-.03.01-.04M1.8.72q.03 0 .03.03-.01.02-.05.03T1.75.76 1.8.72M3.14 7q.02-.07.09-.03.1.02.04.11-.02.06-.08.03-.1-.02-.05-.11m-.07-.41c.04-.04.06-.04.15 0 .2.07.2.07.17.14-.04.06-.04.06-.16.01-.23-.08-.23-.1-.16-.15m-.04-.2q.04-.02.1-.01.04 0 0 .07-.04.04-.1.04-.07-.02 0-.1m-.55-2.46q.08.02.02.07-.04.02-.04-.03 0-.04.02-.04m.25.77q.08.04.05.07t-.09-.02c-.08-.07-.05-.12.04-.06m-.1-.22c.04-.03.13.02.14.08 0 .02-.11.04-.14.02q-.06-.06 0-.1m-.06-.28c.05-.02.11.04.07.08q-.07.04-.1-.03zm-.16-.69.03.02q0 .03-.02.03l-.03-.02q0-.02.02-.03m.52 1.51q.05.03.06.07c.01.05-.12.06-.2 0q-.08-.03.02-.06.08-.05.12 0M2.5 3.75q.05 0 .05.02 0 .06-.06.04-.05-.04.01-.06m.45 1.93q.04 0 .04.02t-.03.03-.05-.02.04-.03m-.03-.16c.05 0 .12.03.13.07 0 .03-.09.04-.13 0q-.07-.06 0-.07m.02-.2c.06 0 .17.05.15.08s-.15.04-.2.02q-.1-.07.05-.1m-.35-1.3q.03-.01.05.04 0 .05-.03.06t-.05-.05q0-.05.03-.06M1.87.58q.05-.01.04.02 0 .05-.05.06-.04.01-.04-.03.01-.03.05-.05M1.84.42q.03 0 .03.02-.01.03-.05.03T1.79.45t.05-.03m1.38 6.4q.05-.07.08-.02.04.03.03.09c-.02.06-.02.06-.09.05q-.09-.04-.01-.13m-.54-2.5q.12.02.06.08-.09.04-.1-.04-.01-.04.04-.04m-.16-.71q.03-.01.03.02l-.03.05q-.03 0-.03-.02zM4 10.07q.13.02.11.05c0 .01-.2-.03-.2-.05zm-.68-2.9.04-.2q.02-.16.08-.13.07 0 .02-.03c-.05-.04-.04-.12 0-.13q.11.02.1.11 0 .05-.02.05c-.02 0-.1.37-.1.41q0 .07-.08.06-.08-.03-.04-.14m-.26-1.33q.02 0 .01.02l-.03.03Q3 5.9 3 5.87zM2.6 3.86l.04.03q0 .08-.05.05c-.04-.02-.03-.08 0-.09M1.93.73q.05 0 .03.03l-.03.03Q1.9.79 1.9.76zm1.3 5.5h.06c.01.04-.08.1-.13.1-.06-.02-.01-.1.07-.1m-.49-2.08q.05 0 .09-.03c.04-.05.12-.02.1.04s-.15.09-.23.05c-.05-.02-.02-.07.04-.06m-.2-.7q.05 0 .05.03t-.03.03-.05-.02q0-.03.04-.03m.44 1.68q.13-.01.17.1c0 .03-.14.03-.2 0q-.12-.09.03-.1m-.17-.72c.12-.04.23-.05.24-.02q.02.1-.12.12c-.17.02-.25-.06-.12-.1m-.18-.72c.06 0 .06.07 0 .1q-.04.01-.04-.04t.04-.06M2.01.6q.05-.01.02.04l-.06.05q-.07 0-.02-.05zM1.95.3q.03 0 .03.03-.01.03-.07.04-.07 0-.02-.03zm.78 3.68q.05-.01.05.04c0 .07-.08.09-.1.02q0-.06.05-.06m-.3-1.3q.13.05.16.14l.05.12q.04.07 0-.05l-.03-.1.08.06a.3.3 0 0 1 .1.14q.01.09.01 0l.01-.06q.08.02.17.18.08.15.03.02-.02-.07 0-.08c.04 0 .19.13.2.2q.02.07.03 0-.01-.07.1.02c.1.06.22.25.2.28q-.03 0-.1-.04l-.14-.09-.67-.4c-.18-.1-.18-.11-.21-.24q-.03-.13 0-.1zm.49 1.57c.13-.01.15 0 .15.03q0 .03-.04.04l-.1.03q-.13.03-.16-.05 0-.03.15-.05m-.26-.7q.04 0 .06.02v.03l-.06.02q-.03.02-.04-.02 0-.05.04-.05m-.12-.42.05.02q0 .03-.02.03t-.05-.02q0-.02.02-.03M2.04.72q.09 0 .06.05C2.08.8 2 .77 2 .75q0-.02.05-.03m.7 3.1h.05c.02.01 0 .1-.04.1-.05 0-.06-.07-.02-.1m-.24-1.3c.04.04.08.22.04.19a.3.3 0 0 1-.07-.18q0-.06.03-.01M2.07.46q.04-.01.01.04-.01.04-.05.03Q2 .5 2.07.47M2.03.34q.02 0 .01.03L2 .4q-.02 0 0-.03zm.11.26q.1 0 .04.06c-.03.03-.11 0-.1-.03q0-.02.06-.03m2.72 12.62H5q.02.03-.08.05-.11 0-.12-.03-.01-.05.05-.02m.01-.09q.11.03.06.06-.12 0-.12-.04 0-.02.06-.02m-.6-2.73q.13.01.1.04c-.02.02-.16 0-.17-.02q0-.02.08-.02M2.88 3.93q.09-.02.07.05-.02.06-.07.08-.07.02-.06-.05 0-.06.06-.08m-.1-.3q.06-.04 0 .08-.02.09-.03 0 0-.07.03-.09m1.58 6.88.1.01q.02.02-.08.03h-.1q0-.03.08-.04M2.84 3.8c.01-.06.1-.06.12 0q.01.06-.06.06-.09.02-.06-.06m-.05-.3.03.02q0 .02-.02.03t-.03-.02.02-.03m-.18-.92c.04.04.1.2.07.2q-.02 0-.05-.07l-.05-.1q-.02-.06.03-.03M2.22.74q.12 0 .07.06c-.02.04-.11.02-.12-.04q-.01-.03.05-.02M2.2.48q.06 0 .07.02c0 .03-.08.07-.12.06Q2.09.5 2.2.48M2.1.25 2.3.2q.18-.03.13 0c-.05.04-.33.09-.33.06zm2.8 12.8.07.02q.01.02-.03.03-.05 0-.06-.02t.03-.03M2.97 4.12c.02-.04.1-.08.12-.06h.1q.1-.03.07.08c0 .06-.13.07-.14.01q0-.06-.03 0l-.06.06q-.09 0-.06-.09m-.1-.47c.02-.02.09 0 .1.03l-.05.03q-.08 0-.05-.06m-.07-.36.03.02q0 .03-.02.03l-.03-.02q0-.03.02-.03M2.23.63 2.34.6q.1-.01.03.05a.1.1 0 0 1-.1.05Q2.15.68 2.23.63M2.2.32q.04 0 .03.02t-.05.04-.03-.03zm1.26 5.84h.05q.01.02-.03.04-.08.02-.02-.04m1.53 6.82q.1 0 .02-.03-.07-.04-.02-.06c.04-.03.14-.04.15 0l-.03.06c-.04.06-.18.1-.19.05q0-.03.07-.02M3.05 3.9q.07 0 .06.03V4l-.06.02q-.08.01-.07-.05 0-.05.07-.06zm1.48 6.69q.05 0 .07.02c.03.03-.05.08-.11.07q-.06 0-.03-.05zM3.17 4.36q.08-.01.06.03v.07q0 .02-.06.03-.08.01-.07-.05-.01-.07.07-.08M2.34.76c.04-.04.17-.02.18.03q0 .08-.13.06-.12 0-.05-.08M2.3.4h-.06zm2.3 10.35q.05 0 .07.02c.03.03-.08.1-.14.09q-.06 0 0-.06zM2.42.5c.07.01.05.06-.05.07q-.1.01-.05-.04Q2.34.5 2.4.5m2.67 12.57q.08.03-.01.04-.05 0-.04-.02 0-.02.05-.02m-1.9-8.85q.05 0 .07.03.01.08-.08.06c-.07-.01-.07-.08 0-.09m-.12-.47q.09-.01.08.06c-.01.06-.1.06-.12 0q-.01-.06.04-.06m-.01-.29q.04.04-.06.03-.07 0 0-.03zm0 .18.07.02q.06.02-.01.02-.05.01-.07-.01 0-.03.02-.03m.14.17q.04 0 .03.03 0 .04.02.06c.04.02.03.12-.02.12h-.06c-.04-.03 0-.2.03-.21M2.45.6c.06-.04.17-.05.2-.02S2.56.7 2.49.7Q2.36.68 2.45.61M2.44.26q.1.01 0 .07c-.06.03-.12 0-.08-.03zm.08.62.1.02.15.04q.16.02.13.07c-.01.03-.4-.07-.41-.1q0-.03.03-.03M2.46.4q.07-.01.09.01 0 .03-.08.04-.07 0-.08-.02T2.46.4m.7 3.14q.06.03.05.05l-.08-.02q-.1-.08.03-.03m-.18-.72.07.13q.06.12 0 .07t-.08-.13q-.02-.09.01-.07M2.66.77q.16 0 .1.07-.02.07-.16.03Q2.52.85 2.55.8t.1-.04m2.05 9.9.04.04q0 .03-.02.02l-.04-.04q0-.03.02-.02M3.25 3.73q.15.01.04.04-.1 0-.1-.03zm1.97 9.08q0-.03.03-.05.04-.03.03.01l-.02.08q0 .08-.06.04-.02-.02 0-.03zm-.38-1.9q.04.03-.02.03-.07.01-.04-.02.02-.04.06-.01M2.76 1.03q.1.03.11.06 0 .04.17.1l.2.06q.02 0-.01-.03c-.04-.04-.04-.06.06-.2l.1-.14.08.05q.15.12-.06.12h-.1l.1.03q.1.02.08.08 0 .06.03.01c.03-.03.05-.03.14 0q.12.02.08.07-.02.04-.07.03-.04-.01-.01.03v.1c-.04.04-.04.05-.14 0q-.1-.04-.08-.07c.03-.05.01-.09-.03-.04-.03.05-.06.04-.34-.05q-.3-.1-.27-.12.04-.03-.04-.04c-.07-.01-.14-.05-.13-.07zm0-.5h.05q.03-.02.1-.01.07 0 .04.05-.05.05-.17 0L2.64.56l-.1-.01.1-.02q.08-.02.12 0m2.08 10.26h.08l-.02.04q-.04.02-.08 0-.08-.05.02-.04M3.32 3.92c.03-.02.14.04.12.06-.02.03-.12 0-.13-.02zm-.04-.28q.04 0 .04.02t-.03.01-.05-.02zm-.17-.74.03.02-.02.04q-.02.02-.03-.02t.02-.04M2.58.3q.07 0 .03.02t-.06.02Q2.49.31 2.58.3m2.3 10.68h.08q.04.02 0 .04l-.07.03q-.06-.02 0-.07M2.67.64q.05-.03.17 0 .29.05.29 0L3.07.62q-.1 0-.06-.07c.04-.05.16-.03.15.02q0 .05.03 0 .04-.03.1 0 .08.01-.02.05l-.14.12Q3.06.81 3 .81 2.86.79 2.9.7t-.05 0q-.03.06-.12.03-.15-.03-.06-.1m.5 2.32c0-.06.06.03.1.14q.08.15-.02.07a.2.2 0 0 1-.07-.11zm2.16 9.9.06.02q.06.03 0 .03-.07 0-.07-.02zM2.69.17q.06.04-.05.07-.07.01-.02-.04.03-.05.07-.03m.81 3.74q.04.02 0 .03c-.05 0-.1-.03-.06-.05zm-.08-.12.05.04q.01.03-.03.02c-.05-.02-.07-.07-.02-.06m.04-.1c.05 0 .07.05.03.06q-.11 0-.1-.05.02-.02.07-.01M2.8.43q.04.05-.1.03-.07-.02 0-.03zM5.45 12.8c.1 0 .13.05.04.06l-.06-.02q0-.03-.04-.03h-.04q.01-.02.1-.01M2.87.83q.18 0 .13.09-.03.05-.12.02c-.12-.03-.13-.1 0-.11M2.7.3l.04.01-.03.03h-.05q0-.03.04-.04m2.27 10.5a.03.03 0 0 1 .04.03l-.02.03q-.03 0-.03-.02zm-.29-1.66q.13.04.03.08-.08.03-.09-.06-.01-.05.06-.02M3.15 1.3q.22.07.2.1c-.02.04-.24-.02-.35-.1l-.08-.06zm2.5 11.62q.2 0 .1.03c-.06.03-.3.01-.28-.02zm-.56-1.9c.05-.04.09 0 .05.03q-.07.06-.08 0l.03-.04M2.85.15c.08-.01.04.06-.05.08q-.11.04-.04-.02zm.72 3.63q.04 0 .06.03c0 .02-.06.04-.09.01q-.06-.05.03-.04M2.93.3q.09 0 0 .06-.06.04-.1.03c-.08-.02.02-.1.1-.09M5.5 12.68q.05 0 .06.02t-.05.04l-.06-.02q0-.03.05-.04m-1.93-8.8.07.03q.04.04 0 .04l-.06-.01q-.05-.05-.01-.07m.05.1.06.03q.06.04-.01.04-.05 0-.07-.03 0-.04.02-.04M3.03 1c.06 0 .16.03.17.06q-.02.08-.14.03-.15-.07-.04-.1m2.24 10.06q.06 0 .01.08c-.04.04-.1.02-.07-.04q.02-.04.06-.04m-.06-.1q.05.02-.01 0-.05 0-.04-.02zM3.53 3.38l.13.07.13.07.1.03.17.07.14.07.05.03.08.01c.09.03.41.28.42.32q-.01.05-.2-.09l-.11-.06q-.02 0 .06.07l.08.07a4 4 0 0 1-.74-.36c-.04.04-.23-.07-.27-.15q-.09-.15-.04-.15m.45.33q.03.03.03 0l-.04-.06q-.03-.03-.03 0zM2.96.42v.03q0 .02-.05.03t0-.03zm2.67 12.41h.11c.08.02.02.06-.08.06s-.12-.05-.03-.06m-.32-1.3q.11.01.1.05c0 .04-.1.04-.11 0zM3.77 4.38c0-.03.14-.1.15-.08q.02.02.01.1 0 .1-.06.1-.11.01-.1-.06zM5.5 11.7q.09.01.1.04.01.08-.14.03-.12-.03-.08-.06.01-.04.12-.01m-.2-.44c.03-.03.1 0 .1.04-.02.04-.12.05-.13.02zM3.68 3.83c.04 0 .13.04.14.07 0 .03-.08.04-.13 0q-.06-.05-.02-.07M3.41 1.5c.28.1.28.1.25.04q-.01-.04.03-.12c.04-.07.05-.07.13-.04q.15.07.06.19l-.05.07.15.07q.15.07.13.11l.01.12q.04.08-.03.08t0 .03c.1.02 0 .06-.16.04q-.26-.02-.13-.07.04-.03.06-.1.01-.05.04-.07c.05 0-.12-.1-.35-.2a1 1 0 0 1-.4-.21s.12.02.26.07zm.54.53q.05 0 .02-.01h-.05q-.01.02.03.02M3.1.86q.24-.3.44-.24.08.03.02.07-.04.04-.08.03-.04 0-.06.06t-.09.1-.07.07L3.24 1c-.03.02-.2-.02-.2-.04zM3.07.2q.07 0 .04.01-.04.02-.04.04c0 .03-.1.05-.14.03-.03-.02.05-.07.14-.08M5.4 11.44c.04-.03.12-.01.12.02q0 .07-.1.06-.05 0-.05-.04 0-.02.03-.04M3.77 3.96l.06.02Q3.85 4 3.8 4q-.04 0-.06-.02 0-.03.03-.03m1.63 7.18q.06.07-.04.06-.05-.02-.03-.05t.07 0m-.12-1.23q.12.04.02.1-.07.05.03.02.17-.07.18-.02.01.02-.05.07-.09.04 0 .02t.18-.04.06-.03c-.07 0-.19-.09-.14-.1l.1.03q.07.04.13 0l.18-.05h.1l-.06.04-.16.06q-.08 0-.07.03.03.05-.12.07-.1 0-.01.09.05.07-.03.04c-.08-.02-.27-.1-.44-.2l-.13-.08.08-.04q.07-.03.15 0m-1.4-5.84q.04.04-.05.03-.07-.02 0-.03zM3.09.34q.04 0 .04.03c.01.03-.08.05-.1.02-.04-.02.02-.06.06-.05M5.7 12.71c.02-.03.1 0 .08.02q0 .03-.04.03-.07 0-.04-.05m-.58-2.98c.03-.02.15.04.16.08q-.02.05-.14 0-.1-.04-.02-.08M3.7 2.11l.3.02q.09 0 .1.05c0 .04 0 .05-.14.03l-.3-.02q-.16 0-.21-.04c-.06-.05-.03-.06.24-.04m1.76 9.2q.04 0 .06.03 0 .02-.04.03-.04.02-.06-.02 0-.05.04-.04m-.15-.89q.07 0 .08.02c0 .03-.1.05-.14.03q-.05-.04.06-.05M3.15.47q.05.04 0 .02-.05 0-.05-.03zm2.71 12.14q.08.02-.01.03h-.1c-.03-.04.05-.05.11-.03m-.26-1.15q.1.04.04.1-.02.02-.08 0-.07-.02-.03-.07.03-.03.07-.03M3.9 3.93h.06v.03c0 .03-.09.02-.1-.02q0-.02.05-.01M3.18.28q.06 0 .06.03c-.02.03-.15.02-.14-.02zM5.9 12.85q.07 0 .03.02-.09.07-.1.02.02-.03.07-.04M4 4.04q.04.02 0 .03c-.05 0-.1-.03-.06-.05zm1.96 8.7q.08.02.16-.03c.08-.06.15-.04.08.02s-.2.08-.21.06q-.01-.03-.07-.01-.12.02-.07-.03.03-.03.1 0m-.43-1.53q.03 0 .04.03l-.03.03q-.03 0-.04-.03 0-.02.03-.03m0-.13q.04 0 .01.03-.02.04-.05.04-.03-.05.04-.07M4.04 4.1l.06.04c0 .03-.08.04-.12.02q-.03-.06.07-.05M5.2 9.68c.02 0 .15.04.16.06q0 .06-.1.02-.1-.06-.06-.08M3.43 1.4q.02-.01.09.02.1.09-.04.06-.11-.02-.06-.08M3.25.38q.05 0 .07.02c0 .03-.07.07-.1.05q-.07-.04.03-.07m2.38 10.97q.03 0 .05.04.01.08-.07.04-.05-.05.02-.08M3.23.2h.11q.08.03.02.05c-.05.03-.18.02-.19-.02q0-.02.06-.03M4.1 4q.08.07-.04.03Q4 4 4.03 3.99zm1.92 8.63c.07.02.02.07-.06.06q-.08 0-.03-.04a.1.1 0 0 1 .09-.02m-.3-1.1q.1.02 0 .06-.06.02-.05-.02 0-.03.04-.04m-.06-.29q.04.01.02.04c-.02.04-.09.01-.07-.02q.01-.02.05-.02m-.26-1.36.03.04-.09-.03q-.06-.01-.02-.03.03 0 .08.03M4 3.47q.06 0 .1.05.06.1-.08.05-.15-.08-.02-.1M3.47.45q.08 0 0 .06-.04.06-.12.03L3.28.5l.07-.04q.07-.04.12-.02m2.5 12.08q.03 0-.02.02l-.04-.01q.02-.02.05-.01zM3.31.3a.2.2 0 0 1 .13.01l.13.03q.13.02.04.08c-.04.03-.14 0-.11-.04q0-.02-.07 0c-.06 0-.14-.01-.14-.04zm2.34 10.82h.03q0-.03 0 0 0 .04.03.03.03 0 .02.02c-.01.02-.1 0-.1-.04q-.01-.02.01 0zm-1.4-7.04q.08.02-.02.03-.17 0-.08-.04zm1.5 7.3c.05-.03.1.01.06.06q-.07.06-.1-.02zm.12.18q.04 0 .02.05l-.07.03q-.04 0-.02-.05zM5.44 9.8c.08-.01.17 0 .18.03 0 .04-.12.08-.17.05q-.09-.07 0-.08M3.58.88q.11.06.1.07-.04.01-.06-.01L3.58.92c-.02.03-.1-.02-.11-.06q0-.04.11.02m2.46 11.51h.05q0 .04-.05.04H6q0-.02.05-.04m.11.16q.08 0 .09.02c0 .02-.13.07-.16.05q-.05-.04.07-.07m-.35-1.28c.05.01.07.07.03.07l-.05-.04q0-.03.02-.03M3.59 1.01q.02-.02.04 0 .02.04.07-.01c.05-.05.07-.05.15-.02q.1.03.06.08-.07.12-.19.08Q3.5 1.07 3.6 1M3.57.73l.07-.07.12.04.12.06-.07.07c-.07.06-.07.06-.19.02L3.52.8zm.81 3.45q.04.03-.02.03-.12 0-.06-.04zM3.67.51q.07.01.08.04c0 .04-.1.06-.2.04L3.48.57l.06-.04q.06-.05.14-.02m2.15 10.64q.03 0 .05.02.01.03-.02.03t-.05-.02q0-.02.02-.03m.1.27.03.03-.02.04q-.04 0-.04-.03 0-.04.02-.04m.21.88h.03q0 .03-.02.04l-.03-.01zm-.17-1q.03 0 .05.04 0 .04.03 0h.07q.05 0 0 .04-.02.04-.11 0-.15-.05-.04-.08m.3 1.16q.08 0 .05.02c-.05.04-.13.05-.13.02q0-.03.07-.04m-.53-2.33.13-.04a.3.3 0 0 1 .16-.03h.07l-.09.07q-.15.1-.28.07-.09-.04 0-.07m.08-.31q.08 0 .08.02c-.02.04-.2.09-.25.07-.06-.03.08-.1.17-.1m-2-8.56c.04-.02.22.02.23.06 0 .04-.09.1-.11.07l-.1-.04q-.11-.04-.03-.1m2.24 10.2q.05-.02.02.03l-.05.05-.02-.04zm.18.76q.02 0 .01.02l-.03.04q-.03 0-.02-.03zm.17.3q.08-.01 0 .06l-.09.06q-.03 0 0-.05zm-.36-1.32q.04.03 0 .03-.06 0-.05-.04zM4.5 4.2l.06.02-.05.01-.06-.01q0-.02.05-.02m-.57-2.63.04-.07.12.06.12.06-.04.07-.05.07-.11-.05-.11-.06zM3.82.42q.06.02.08.05-.02.08-.17.03Q3.61.47 3.7.43q.06-.03.13 0M4.4 3.6c.04.01.1.08.07.1 0 .02-.1-.05-.11-.09zm-.64-3q.05-.06.16 0 .2.04.07.09C3.93.7 3.73.67 3.72.64zm2.55 11.73c.05-.03.13-.03.14 0q-.02.04-.14.07-.07-.01 0-.07M3.9 1.12c.06-.08.1-.08.22-.02l.1.06-.07.06c-.07.06-.07.06-.18.03l-.12-.06zm-.04-.3.06-.06.1.06.09.06-.05.04q-.07.09-.19.04-.15-.03-.01-.13m2.25 10.4q.04 0 .03.03l-.04.02q-.06-.03.01-.05m-1.6-7.47.07-.02q.04-.03-.02-.03-.06-.02-.07-.04c0-.05.1 0 .2.09l.08.1-.1-.01-.15-.03-.06-.04q0-.03.04-.02m1.65 7.62c.03-.03.09.02.08.05-.02.04-.1.03-.1 0q0-.03.02-.05m.3 1.02q.13-.09.06 0-.04.06-.08.07-.1.02.02-.07m-.09-.27q.02 0 .03.02t-.03.03-.03-.02zm-.08-.25q.02-.01.03.02 0 .04-.02.04l-.03-.02zM4.7 4.26c.03 0 .13.08.1.1 0 .02-.13-.05-.14-.07q0-.03.04-.03m1.66 7.48q.02 0 0 .04l-.03.04v-.04q0-.04.03-.04m-.12-.48c.04 0 .11.04.1.06-.02.02-.1 0-.11-.03zM4.7 3.9l.14.04.12.02.12.06q.1.08.07.02-.05-.06.03-.04h.1l.14.1q.11.08.09.03-.05-.08.05 0c.09.06.13.13.04.08l-.08-.03c-.06 0-.58-.06-.63-.08a1 1 0 0 1-.24-.19zM3.93.48c.05-.03.29.08.27.12q-.02.06-.18-.01-.17-.07-.09-.11m.19.46.07-.07.15.06.15.07-.11.07c-.11.05-.12.05-.23 0L4.04 1zm2.46 11.2.02.03q0 .03-.03.03t-.03.03-.03.03v-.05q.04-.05.07-.06zm-.14-.34h.03q0 .03-.02.04l-.02-.01.02-.03zM4.08.7c.07-.03.21.04.18.09q-.02.03-.07 0a.1.1 0 0 0-.1-.04q-.06-.01.04.05.12.07-.03.02Q4 .76 4.08.7m2.43 11.28h.03q0 .04-.02.04h-.03q0-.03.02-.04m-.09-.65q.1 0 .07.06c-.03.02-.1 0-.11-.03q0-.03.04-.03M4.78 3.72c.06.02.17.15.14.16q-.04 0-.1-.08-.12-.12-.04-.08m1.86 8.61h.03q0 .03-.02.04h-.03q0-.04.02-.04m-.02-.08h.03q0 .03-.02.04H6.6q0-.04.02-.04m-.03-.27.03.03-.02.03-.03-.04q0-.02.02-.03m-.04-.17h.03q0 .04-.02.04h-.03zM4.37 1.55l.06.02q0 .03-.05.04-.05 0-.06-.02t.05-.04m2.2 10.17q.04 0 0 .04-.03.02-.02 0zm-.01-.14.02.04q0 .03-.04.03-.04-.05.02-.07m-.16-.71.07.01q.03.05-.07.05-.08-.04 0-.06M4.98 4.25c.03 0 .18.1.19.14s-.07.04-.14-.03q-.11-.1-.05-.1m2 8.92c.01-.26.19-.65.3-.7l.07-.02-.05.05c-.05.06-.05.13 0 .1q.03 0 .05.02 0 .02-.05.02c-.06 0-.18.09-.14.1q.01.02-.03.15-.04.1-.03.17.01.04-.01.06t-.03.05.03 0q.02 0 .03.02t.03-.01q.03-.05.17-.11.26-.13-.01-.03l-.15.05c-.04-.03 0-.1.06-.1.07-.02.29-.15.22-.14l-.15.06-.12.04c-.04-.02.01-.1.06-.1l.08-.02c.08-.05.23-.1.25-.09q.03 0 .03.04c.01.04.15.14.18.12.04-.02.12.02.13.07q0 .02-.1.04c-.14.02-.19.09-.05.07.1-.01.25.08.27.18q0 .05.04.06.02 0 .03.02t-.02.02-.03.02v.09q0 .04.04.03l.03-.04q0-.04.06-.03c.08.01.07 0 .07.08q0 .07-.08.05-.16 0-.2-.15 0-.07-.03-.08t0 .04l.02.1c0 .1-.11.14-.45.19l-.28.04-.1-.09c-.14-.1-.16-.17-.14-.44m.27.1q.03.04.03.01l-.04-.04q-.06-.03 0 .04m.1.19.1-.05c.07-.05.27-.1.33-.08l.04-.02q0-.03-.13-.03-.2 0-.01-.06c.05-.02-.08 0-.27.07l-.11.03.11-.01q.1 0 .1.02-.01.02-.05.03c-.04 0-.16.1-.12.1m.27-.04.15-.06c.02-.03-.26.05-.28.08zm-.09-.57q.03.01.03-.01a.03.03 0 0 0-.04-.03l-.02.02zm-.85-1.06q.03-.02.03 0t-.02.03h-.03zm-.04-.2.03.02q0 .02-.02.03l-.03-.02q0-.03.02-.03M5.08 3.87q.09.06.04.06c-.04 0-.15-.09-.14-.11q.01-.01.1.05m1.63 7.79q0-.02.03 0l-.02.05h-.03zM5.2 4.27c.06.02.16.11.14.14s-.12-.01-.17-.07q-.11-.11.02-.07m1.6 7.5h.03l-.02.04-.03-.01q0-.03.02-.03m.1.18q.11 0 .06.06c-.03.02-.1 0-.11-.03zm.05-.08q.03.04-.04.03-.04-.01-.01-.03zm.06-.09q.05.01.02.04c-.04.03-.12.02-.1-.02q.03-.03.08-.02m.42 2.03.06.04q0 .02.04.02.03 0 .04.02 0 .02-.02.02t-.02.02.02.03h.06q.05.02.03 0t.01-.05q.07-.06-.01-.07-.05 0-.05-.02 0-.06.09 0l.1.04q.12 0 0-.02-.13-.06.02-.05h.1-.03l-.07-.03q-.03-.03.03-.02c.1.03.28.02.22 0l-.1-.02q-.06 0-.08-.03-.05-.03.19 0 .08.02 0-.02-.08-.03-.02-.05c.05-.03.17 0 .2.04.03.05-.01.2-.08.26q-.05.05-.22.07c-.09 0-.22.03-.28.05-.12.03-.12.03-.2-.07l-.08-.14q-.02-.05.05-.02M7 11.7q.04.05-.04.03-.05-.02 0-.03zm.05.17q.1.01.06.08-.07.07-.1-.02 0-.04.04-.06m.18.87c.04-.04.28-.08.29-.06q0 .03-.04.04l-.2.06c-.05.03-.1 0-.05-.04m-.12-1.3c.14-.03.2.01.08.04q-.05.02.08.01c.17-.02.24.03.1.05-.07 0 0 .02.13.02q.4 0 .07.06c-.14.02-.33 0-.34-.03l-.12-.08-.12-.05zm-.14-.33q.11-.04.13.03 0 .02-.03.03-.04 0-.04-.03l-.04-.02q-.02 0 0 .03 0 .02-.02.03c-.07 0-.06-.05 0-.07M5.42 4q.03.01.04-.01 0-.03.07.02l.08.08q0 .02-.07-.03t-.07-.02q.01.05-.04 0-.04 0-.05-.03zm1.83 8.39c.02-.04.11-.06.12-.03s-.1.1-.13.1q-.03-.01 0-.07m-.05-.68q.06.06.07.02-.01-.05.16.01l.17.07c0 .04-.24.02-.35-.02q-.19-.07-.13-.12.02-.02.08.04M6.1 6.45q.16-.01.2.06c0 .03-.21.04-.26.02q-.11-.05.06-.08m1.31 6.11q.03 0 .03.03l-.03.03q-.04 0-.03-.03zm-.08-.3h.05q0 .04-.04.04H7.3zm-.01-.07h.04l-.03.04h-.05q0-.03.04-.04m-.21-.99h.05q.01.03-.03.04-.1.01-.02-.04m.23.88.02.01-.02.03h-.02q0-.03.02-.04M6.16 6.56h.12q.08 0 .13.06l.06.06h-.12c-.1 0-.22-.06-.23-.1q0-.03.04-.02m1.19 5.45.03.01q0 .03-.02.03h-.03zm-.11-.72q.03.04-.04.03-.05-.01-.01-.03zM5.6 4l.05.04q.06.06 0 .01Q5.56 4 5.6 4m1.98 8.28q.05 0-.04.04l-.12.01c-.04-.01.1-.07.16-.05M5.7 4.14q.06 0 .16.07.09.08.07.09c-.03 0-.16-.1-.16-.13l-.04-.01q-.03 0 .01.04.04.03.03.06l-.06-.03q-.1-.08 0-.09m1.8 8.37q.03-.02.04.03t-.01.06-.04-.03q0-.04.02-.06m.06.13.04.04q0 .02-.03 0l-.03-.03q0-.02.02-.01m-.05-.23a.03.03 0 0 1 .04.03q0 .02-.02.03a.03.03 0 0 1-.04-.03zm-.05-.26q.02 0 .02.04l-.02.04-.02-.04q0-.03.02-.04m-.17-.77q.03 0 .05.02.01.02-.02.03t-.05-.02q0-.02.02-.03m.35 1.34.03.03q0 .02-.02.03a.03.03 0 0 1-.04-.03zm-.01-.16q.02 0 .03.04t-.02.04q-.02 0-.03-.03 0-.05.02-.05m-.02-.08.03.03q0 .02-.02.01-.03 0-.03-.02zm.1.33.03.04q0 .02-.02.03t-.03-.04q0-.04.02-.03m-.06-.44q.03 0 .05.02 0 .03-.04.03t-.04-.02.03-.03m0-.23c.07-.03.2 0 .18.05s-.22.05-.23 0q0-.03.05-.05m.21-.47.1.01q.04.03-.1.03-.11 0-.09.01.04 0 .06.03c0 .04-.16.05-.26.03q-.13-.03.08-.07zM5.87 4.09c.04 0 .14.06.13.08s-.13-.02-.14-.06zM5.24.75l.1.05c0 .02-.12 0-.17-.03-.07-.04-.02-.05.07-.02M7.77 12.8l.03.02v.03l-.04-.02zM6.1 4.24l.06.06c0 .03-.12 0-.18-.03q-.09-.05 0-.06a.1.1 0 0 1 .12.03m1.85 8.82q.06.07-.05.04-.05-.04-.02-.05zm-.18-.52.03.03q0 .03-.02.01-.03 0-.03-.02zm.05-.62q.25-.02-.03.06-.1.04-.11 0t.14-.06M5.39.72h.11q.06 0 .08.02c.02.04-.16.05-.25.02Q5.24.72 5.3.7zm2.63 12.42.03.02q0 .03-.02.03L8 13.17q0-.02.02-.03m0-.19q.05 0 .02.02t-.06.02q-.06-.03.03-.04m-1.3-5.81.08.02q.08.02.08.1t.07.11.06.09c-.02.07-.09.03-.13-.07l-.1-.14q-.1-.1-.07-.12M5.47.89l.09.06-.08-.02Q5.32.87 5.37.84q.03 0 .11.05m2.64 12.37.1.03.06.02-.06-.06q-.09-.06-.02-.04.05 0 .05-.02t.03.03q.05.19-.13.1-.1-.05-.08-.07zm-.26-.97q.03 0 .04.04t.07.06.04.04c-.06.03-.02.07.04.05q.04-.02.02 0c-.05.03 0 .11.08.15.1.04.14.12.05.08s-.06.02.04.06q.08.04.08.07-.01.02-.04.01h-.03l.14.06q.22.07.06.06-.1 0-.02.06c.08.03.45.05.52.02l.08-.02h-.08q-.07 0-.1-.04-.01-.05-.1-.05l-.08-.01q0-.03.04-.03l.15-.02q.14-.02-.07-.02c-.2 0-.27-.05-.1-.07q.15-.02.04-.03c-.11-.01-.13-.07-.03-.08q.07 0 .07-.04 0-.02-.1-.01c-.04 0-.1 0-.1-.02q-.02 0 .03-.03.05 0 .04-.03 0-.02-.07-.02-.12 0-.08-.07.04-.03-.02-.03c-.11 0-.13 0-.15-.02q-.01-.04.09-.05l.1-.02-.12-.01q-.22-.03-.03-.08l.1-.02H8.2q-.02-.03-.05-.01t-.05-.02.1-.06q.1-.02.05-.02-.1.01.03-.1a.7.7 0 0 0 .22-.36c.01-.04.03-.03.15.07a1 1 0 0 0 .32.17c.21.07.3.12.4.28a1 1 0 0 0 .2.2q.19.14.18.3l-.07.15q-.05.12-.08.06t.01-.1q.06-.1-.05-.02-.07.05-.03-.01t-.03-.04c-.06 0-.06 0 0-.09q.04-.08.03-.14-.01-.09-.03 0-.03.16-.11.19-.05 0 .01-.08.05-.08.05-.13-.01-.06-.07.07-.08.2-.15.06-.12-.15-.02.1.06.15.04.23-.06.15-.23.18c-.24.02-.5.02-.59-.02-.16-.05-.34-.26-.48-.53-.13-.28-.13-.27-.1-.27zm.68-.42h.1q.05 0-.04-.02-.17-.01-.06.02m.05.06q.06 0 .03-.02h-.07q-.02.03.04.02m.03.07h.07q.02-.02-.04-.02-.13-.01-.03.02m.34.94q.08 0 .04-.02l-.1.02zm-.27-.88q.02.02.09.01h.07l-.07-.03q-.13-.02-.1.02m.05-.12q.05 0 .03-.02l-.07.01zm.12.27q.11.02.03-.02h-.06zm-.01-.2q.04 0 .01-.02L8.8 12zm.35.45v-.12l-.02-.06v.18l.01.07zm.09-.04-.01-.05q-.03 0-.01.04.01.05.02.01m.07.1q.02-.04.02-.1-.02-.08-.04.02-.04.15.02.08m-1.4-.43.1.03-.08.03q-.08.03-.13 0-.08-.07.1-.06m.1.94q.06.01.06.06-.05.03-.08-.03a.02.02 0 0 1 .02-.03M5.5.98l.11.05c.07.06-.02.06-.11 0q-.15-.09 0-.05m2.72 12.4q.07.04 0 .03-.12 0-.08-.04zm-.29-1.09.04.04q0 .03-.02.02t-.04-.04q0-.03.03-.01zm.16-.58.09-.03h.06l-.04.06a.3.3 0 0 1-.28.12h-.1l.13-.07zm-.04.29c.1-.02.17.02.1.05s-.26.02-.21-.01zm-1-4.43q.1.03.07.07-.04.1-.12-.02-.11-.12.05-.05M5.63.82q.2-.01.16.04H5.7q-.08-.03-.09 0c0 .03-.1.02-.1-.01q0-.03.13-.03m1.29 6.4.07.02c.06.04.04.1-.03.1-.04-.02-.08-.12-.04-.12m-.02-.19.17.05c.02 0-.02.12-.04.12-.04.01-.16-.08-.17-.13a.04.04 0 0 1 .04-.04m1.23 5.51q.05.02.05.04h-.05q-.09-.05 0-.04M8 11.6q.14-.03.09.01c-.04.03-.2.04-.2.01zm-.9-3.87q.02.03.05.03.1.02.08.1-.05.05-.12-.07c-.03-.04-.04-.1-.01-.06m-.03-.28c.02-.04.13-.03.14.02q0 .1-.1.08-.07-.03-.04-.1M5.78 1.13q.1.03.06-.01-.01-.04.02-.04c.03 0 .1.03.11.07 0 .02-.18.03-.24.01-.09-.02-.04-.05.05-.03m-.1-.22q.04.02 0 .02h-.04Q5.65.9 5.69.9zM7.2 7.95l.08.03q.08.03.03.08t.01.1.03.07q-.04.08-.09-.09l-.05-.1c-.02-.03-.03-.09-.01-.1m-1.34-6.7.12.05c0 .02-.17-.02-.22-.04q-.1-.08.1-.01M5.73 1h.08q.02 0 .03.02c0 .03-.07.04-.13 0Q5.63 1 5.73 1m-.1-.28c.04 0 .11.04.1.06-.02.02-.1 0-.11-.03zM7.2 7.65l.07.01c.07.04.01.12-.06.1-.06-.03-.07-.1-.01-.11m1.06 4.92.04.04q-.05.02-.08-.04 0-.03.04 0m-.11-1.08q.05 0-.01.04l-.1.02q-.06-.01 0-.05zm-.8-3.15.05.03q.05.03 0 .07-.03.03-.04-.02-.05-.1-.02-.08m-.22-1.06c.06 0 .16.01.16.03l-.02.07q-.01.07-.09.02c-.06-.03-.1-.12-.05-.12m1.14 5.18.05.02q0 .03-.02.03-.04 0-.05-.02 0-.02.02-.03m-.04-.18.03.02q0 .03-.02.02l-.03-.03zm-.66-3.42q.1.05.08.07-.06.04-.1-.03 0-.03-.05-.05-.04 0-.03-.03.01-.01.1.04m-.13-.18c.05 0 .13.04.14.08q0 .03.04.03c.04-.03.13.01.12.04q-.03.07-.2-.03-.15-.11-.1-.12m-.02-.13q.07.02.07.06c-.02.02-.08 0-.08-.04zm-.1-.72.06.02c.06.05 0 .12-.07.09q-.08-.08 0-.12m1.02 4.84q.03 0 .04.04 0 .03-.02.03l-.04-.04q0-.03.02-.03m-.06-.3.03.03q0 .03-.02.03l-.03-.02q0-.03.02-.03m-.58-2.7q.01-.02.02 0 0 .03-.02.04l-.02-.01zm-.03-.11q.03 0 .03-.02t.03-.02q.03.02 0 .05-.07.06-.08 0 0-.02.02-.01m-.03-.16.03.04q0 .02-.02.03t-.03-.04q0-.04.02-.03m-.02-.28q.07.05.05.07c-.03.01-.11-.04-.12-.09q0-.03.07.02m-.08-.17q.03.01.04.04 0 .02-.03.01l-.03-.04q0-.02.02 0zm-.27-1.47c0-.01.14.01.15.03l-.03.07q-.01.07-.1.03-.08-.02-.05-.07zm1.14 5.3.05.06q.01.04-.04.01l-.05-.05q0-.02.04-.01m-.2-.92.1-.03h.08l-.06.04c-.06.05-.14.07-.15.03zm-.34-1.72q.03-.01.04.01-.01.1-.07.1c-.03-.03-.01-.1.03-.11m-.1-.3q.03-.05.08-.06.08 0 .07-.11 0-.03.03-.04t.02.05c0 .07-.13.3-.18.31q-.06-.02-.01-.14m-.13-.58c.05 0 .07.06.03.07l-.06-.04q0-.04.03-.03m-.18-.83q0-.06.07 0c.06.05.04.12-.04.1q-.07-.02-.03-.1m-.05-.2.08.01q.06.03.01.07-.03.04-.06.03c-.04-.02-.06-.08-.03-.1m-.02-.2q.04.02.06.05 0 .04-.04.05t-.05-.04.03-.05m.98 4.53c.03 0 .08.04.06.06-.01.02-.07 0-.08-.03a.02.02 0 0 1 .02-.03m-.43-2.22c.02.02 0 .07-.03.07q-.03 0 0-.04 0-.04.03-.03m-.06-.06.03.01-.02.03h-.03q0-.04.02-.04m-.23-1.26q.05.02.03.04c-.03.04-.1.02-.08-.02q.01-.03.05-.02m.8 3.68q.04 0 .04.04 0 .02-.04 0c-.05-.03-.05-.07 0-.04m-.06-1.27c.03.02-.1.19-.16.2q-.08.01.04-.1.1-.1.12-.1m-.1-.17c.06-.1.07-.11.14-.1q.14.06.05.08c-.04 0-.14.07-.13.1.01.05-.06.11-.12.12q-.13 0-.06-.05zm-.57-1.9.05.03q0 .06-.06.03-.05-.05.01-.07m-.14-.72q.06.02.05.03c-.02.03-.1 0-.1-.03q0-.03.05 0m-.2-.92h.08q.06.02 0 .07-.03.04-.07.03c-.05 0-.06-.09 0-.1m1.04 4.75a.04.04 0 0 1 .05.03q0 .04-.04.03-.04 0-.04-.03t.03-.03m-.45-2.04.03.03-.02.04-.03-.02q0-.03.02-.05m-.13-.74.03.02q0 .03-.04.03-.03 0-.03-.02zm-.05-.08q.02 0 .03.03t-.02.03l-.03-.03q0-.02.02-.03M7.56 8.1c.06.03.06.03.01.09q-.04.08-.09.03-.06-.02-.01-.08.02-.07.09-.04m-.16-.15c0-.05.1-.07.13-.03s-.03.12-.09.1q-.06.01-.04-.07m1.1 4.85.06.01.02.04q0 .08-.08.02-.08-.07 0-.07m-.73-3.33c.05 0 .07.06.03.07l-.05-.04q0-.04.02-.03m-.04-.25q.04 0 .04.02-.01.06-.05.05-.06-.05 0-.07m0-.12q.04.01.02.04l-.05.02q-.04-.02-.02-.05t.06-.01m-.18-.56q.01-.05.1-.02.13.05.02.1-.16.05-.12-.08m-.03-.22q.02-.04.1 0l.06.02-.04.06q-.05.07-.1.03-.08-.05-.02-.1zm-1.5-7.08q.06.03.04.05c-.01.03-.1-.03-.1-.06q.02-.03.07 0zm2.44 11.34.05.03q0 .07-.05.03t0-.06M7.7 8.94q.04 0 .06.02c.02.03-.04.07-.07.05q-.05-.05.01-.07m.94 3.99q.04.02 0 .03-.1-.01-.07-.05.04 0 .07.02m-.07-.23q.07.06-.02.04-.04 0-.04-.04.02-.03.06 0m-.1-1.15-.03.11q-.04.1-.1.11c-.04 0-.04 0 .03-.11q.06-.1.1-.1m-.34-.71q.02 0 .03.02t-.02.02l-.04-.03zm-.15-.7q.01-.02.02 0l-.01.04-.03-.01zm-.13-.59q.02 0 .03.02l-.01.05-.04-.02q0-.03.02-.05m-.04-.25.06.02q.02.02-.03.03t-.06-.02.03-.03m.85 3.84.2.01q.25.02.02.07c-.1.01-.24-.02-.25-.06q0-.02.03-.02m-.54-2.53q.03 0 .05.04 0 .02-.04 0l-.05-.04zm-.44-1.93h.07c.07.03.05.1-.03.07q-.07-.01-.04-.07m.2.72.02.02-.01.05q-.02.01-.03-.02-.01-.05.01-.05m-.04-.25q.06 0 .05-.02t.04-.06.06 0-.07.1q-.12.09-.12 0-.01-.04.04-.02M7.8 9l.08.02q.07.02 0 .05c-.08.04-.16-.02-.08-.06m.04-.17q.04 0 .05.03-.02.07-.11.05-.07 0-.02-.05.03-.04.08-.03m.38 2.06.04.04q0 .03-.03.02l-.03-.04q0-.03.02-.02m-.08-.37.03.01q0 .03-.02.03h-.03zm-.1-.42h.04q0 .04-.02.04h-.03q0-.03.02-.04m-.13-.6q.05 0 .05.06-.03.03-.07-.03 0-.02.02-.02M7.69 8.4q.02-.06.1-.03.12.03.02.1-.04.06-.1.03-.08-.03-.02-.1m.57 2.6.03.02q0 .02-.03.01l-.03-.02zm-.04-.18q.01-.01.03.01 0 .03-.02.03H8.2zm-.12-.53.05.01q0 .02-.02.03-.08 0-.03-.04m-.2-1.04.04.03q0 .07-.06.03t.01-.06m-.14-.65c.05-.03.14-.01.15.02q0 .03.02.01h.03c0 .03-.17.07-.2.05q-.07-.04 0-.08m.47 2.13.03.02q0 .03-.03.02l-.03-.03zm-.08-.35.02.04-.02.04-.02-.04q0-.03.02-.04m-.13-.73q.04-.05.06-.04c.03.02-.04.13-.07.14q-.05 0 .01-.1m-.04-.27q.04.04-.04.03-.04-.01 0-.03zm.83 3.88.12.05q.1.06.15.04h.06q0 .03-.02.03l-.04.01c-.02.06-.13.04-.22-.03q-.14-.11-.05-.1m-.57-2.65q.03 0 .05.03l-.04.03-.04-.02q0-.03.03-.04m-.18-1.2v.06q-.02.09-.08.04c-.02-.01.04-.09.08-.1m.2 1.1.06.01v.03l-.06.02q-.04.02-.04-.02-.02-.03.04-.05zm-.1-.44q.02 0 .03.04-.05.04-.07-.02 0-.02.03-.02M8.1 9.9l.03.02q0 .03-.02.02l-.03-.03zm-.14-1.02.16-.13q.1-.1.06 0c-.02.07-.13.18-.17.17l-.05.04q-.01.04-.05.03-.1-.03.04-.11m.32 1.46q.06-.05.04-.07v-.06q.03-.04.17-.06.23-.02.05.06a.4.4 0 0 0-.15.14c-.07.12-.16.17-.17.09q0-.04.06-.1m-.05-.1q.02 0 .03.02t-.04.03q-.03 0-.03-.02zm-.03-.08q.03 0 .03.02l-.04.03-.03-.02q0-.02.04-.03M8 9.18q.05-.01.04.02 0 .04-.05.05-.04.02-.04-.02.01-.03.05-.05m.36 1.73q.03-.02.04-.01c.03.02.03.2 0 .21s-.06-.18-.04-.2m0-.12.07-.03c.02.02-.05.1-.08.11q-.06-.02.02-.08M8.03 9.3l.03.02q0 .03-.02.03l-.03-.02q0-.02.02-.03m.5 2c.06.01.1.09.05.12q-.1.04-.1-.06-.02-.05.04-.05m-.12-.72q.05-.03.07-.02c.02.02-.08.16-.12.17-.04 0 0-.1.05-.15m-.19-.69h.04q0 .04-.03.04h-.04zm1.11 3.47h.03c.01.07-.2.14-.32.11q-.05-.01.11-.05zm-1.05-3.4.03.02q0 .05-.02.05l-.03-.02q0-.03.02-.05m.75 3.3q.03-.01.04.01 0 .03-.03.03t-.05-.02q0-.02.04-.03m-.52-2.43q0-.03.12-.05l.13-.02h-.23l.02-.1q.02-.09.08-.08h.01q-.1-.02 0-.1c.05-.07.18-.09.2-.04s.01.18-.04.3c-.04.1-.05.12-.15.11q-.1 0-.1.02.01.03.1.02.13-.02.06.04a.1.1 0 0 1-.11.03q-.1 0-.02.03t.02.08q-.04.04-.06.03zm.15-.14h.07q.02-.01-.04-.03-.13 0-.03.03m0 .8.09.03q.07.04.11.03.04 0 .1.04.1.07 0 .04c-.14-.02-.32-.08-.32-.11zm-.21-1.05c.05-.14.22-.22.3-.14q.05.04-.02.04-.09 0-.24.15-.1.1-.04-.05m.2.7q.08-.01.07.02c-.03.03-.12.06-.12.04q0-.02.04-.05m-.04-1.12.2-.02h-.15l-.19-.02q-.1-.05.26-.1.33-.04.02-.05-.13 0-.14-.04-.02-.03.16-.05t.11-.05h-.07c-.03.02-.08-.05-.06-.08q.01-.01.04.02t.03 0 .1-.06.13-.08l.08-.08h-.28c-.06 0 .01-.08.08-.1l.15-.04.07-.04-.1.01q-.17 0-.08-.08h.04q.01.02.04-.01l.1-.05q.06 0 .04-.04h-.08q-.07.03-.06-.01t.1-.07.04-.02c-.1 0-.08-.07.04-.12l.1-.07h-.05q-.08.04-.05-.05 0-.04.06-.05.07-.01 0-.02-.05 0-.02-.05l.07-.04q.04 0 .03-.03T9.3 8.5q-.12 0 .07-.12l.1-.06-.14.01q-.26.02-.06-.08c.12-.05.25-.04.24.02q-.01.04.04 0l.1-.02-.08-.03q-.14-.04-.1-.07l.09-.03q.18-.04-.13-.07l-.22-.02.13-.06.12-.05h-.13L9.2 7.9c-.02-.08.09-.14.12-.08q.01.03.1-.01.1-.05.02-.03l-.1-.02q-.06-.01.02-.07.06-.06.07-.11 0-.05.06-.1.1-.12-.01-.03-.05.04-.06-.03 0-.05.07-.12.15-.13 0-.03-.08.06-.08 0 0-.04.05-.12.08-.07 0-.03-.05.05-.05-.01-.02-.06.03-.1.05-.06 0-.04-.08.04-.02-.11.03-.06 0-.05c-.04.04-.06-.05-.02-.1q.04-.05.06-.05c.04.04.32.55.42.79.2.5.24.8.16 1.36a3 3 0 0 1-.56 1.43c-.24.36-.48.66-.42.53A.6.6 0 0 0 9 10.2l-.04-.04q0 .03-.1 0l-.16-.01q-.04 0-.04-.03.01-.03-.13-.01h-.16q-.06-.05.23-.1zm.6.26-.02-.1q-.08-.2-.04 0 .02.1.05.1m.04-.3q.04.1.06.23.02.18.03.08l-.03-.22c-.04-.15-.03-.16.03-.2q.05-.02.06-.05 0-.02.02-.01t.03.07.04.08-.02-.12c-.05-.15-.13-.27-.1-.14q.03.07-.03.12c-.07.06-.07.06-.12.01q-.06-.07-.03 0 0 .06.06.15m.13-.55q.07.1.04.02l-.05-.09q-.1-.06.01.07m.1.2q.05.06.08.19l.03.13v-.11c-.01-.12-.07-.27-.12-.3q-.06-.06.02.08m.03-.42q.03.03.03 0l-.04-.04q-.06-.02 0 .04zm.05.14q0-.04-.02-.05v.03q0 .05.02.02m-.05-.36q.04.05.01-.07-.01-.11-.03-.05c-.02.08-.02.08.02.12m.15.08q.03 0 .03-.03L9.68 9q-.03 0-.04.03 0 .03.02.05m-.03-.42c.04 0 .09-.1.07-.15 0-.05-.04-.03-.03.02q0 .03-.03.03t-.03.05.02.05m.16.67-.01-.06q-.02-.02 0 .03 0 .06.01.03m.03-.39.06.22q.02.17.03.06a1 1 0 0 0-.11-.39q-.06-.07.02.11m.1-.11v-.07q-.03-.03-.01.04 0 .05.02.03m-.17-1.07q.03 0 .06.04.08.1.04 0c-.02-.06-.1-.1-.11-.06q-.01.02.01.01m.18.61q.08.14.04.02l-.07-.14q-.09-.09.03.12m-1.22 2.87q.1-.04.02.07-.04.05-.06.02-.04-.06.04-.1m-.33-1.28.04.02q0 .02-.03.03l-.03-.02q0-.03.02-.03m0-.11.04.02q0 .03-.04.03t-.04-.02.03-.03m-.02-.09h.04q0 .02-.03.05h-.04q0-.03.03-.05m.82 3.52.06.02q.05 0 .02.03-.02.03-.09-.01t-.03-.06zm-.71-3.7-.03.06q-.11.1-.04-.02.05-.08.07-.05m.29 1.46q.11-.08.13-.04c0 .04-.12.13-.16.12q-.08 0 .03-.08m.5 2.16q.1-.01.04.02l-.08.02q-.1-.02.04-.04m-.7-3.42q.02-.07.04 0t-.07.08-.04-.02zM9.32 13v-.18l-.01-.16.1.12.14.21c.02.1 0 .24-.06.27q-.04.02-.03 0 .02-.04-.08-.01l-.1.03.08-.06.08-.06H9.3l-.13-.01.06-.07zm-.87-3.29.04.02v.03l-.04-.02zm.1-.06q.04 0 .03.02l-.03.03q-.03 0-.03-.02t.03-.03m.33 1.18q.07-.04.09-.03c.03.02-.07.13-.12.14q-.08-.02.03-.1m-.34-1.32q.06-.03.02.04-.04.04-.04.01t.02-.05m.87 3.78q.03 0-.02.01h-.03q.01-.02.05-.01m-.85-3.9q.03 0 .03.02t-.03.03-.03-.02zm.6 2.17q.1.04.03.06l-.12-.03q-.1-.04-.04-.05.05-.01.13.02m-.5-1.96q.02 0 .03.03t-.03.05c-.04 0-.05-.06 0-.08m.31 1.04h.05q0 .1-.09.12-.05.01-.03-.05a.1.1 0 0 1 .07-.08m-.16-.43.07.01q.04 0 .01.08 0 .06-.06 0-.1-.1-.02-.09m-.16-.72q.04 0 0 .05-.03 0-.02-.01zm.02-.11h.03l-.02.04-.03-.01q0-.03.02-.03m.3 1.13q.07-.08.07-.03l-.05.1-.06.02zm-.06-.18q.02-.05.05-.04c.05.02.05.13 0 .17q-.04.05-.05-.02zm-.16-.87q.03 0 .02.03 0 .05-.03.05c-.04 0-.03-.06 0-.08m.55 2.11q.07.03.08.07t.03 0 .1.02q.12.07.08.1-.04.1-.1-.02-.05-.05-.08-.05l-.2-.14zm-.54-2.22h.02l-.02.04-.02-.01q0-.03.02-.03m-.02-.1.02.01q0 .03-.02.04l-.02-.01zm-.02-.09.02.01-.01.03q-.03.02-.03 0t.02-.04m.2.28c.13-.02.13.05 0 .07q-.1.03-.1-.01-.02-.04.1-.06m-.1-.34q.04 0 .03.02l-.03.03q-.02 0-.03-.02t.03-.03m.04.11q.02 0 .03.02 0 .05-.02.05l-.03-.02q0-.03.02-.05m-.01-.33c.03-.04.1-.05.08-.02-.01.05-.1.1-.1.08zm.06.08.04.01q.02.03-.01.03-.07 0-.03-.04m-.03-.23q.1-.11.13-.06 0 .04-.07.1-.14.08-.06-.04m.08.3.03.03q0 .04-.02.04l-.03-.02zm.67 2.77q.02 0 .03.03t-.03.05c-.04 0-.05-.06 0-.08m-.58-2.89c.03.02 0 .08-.03.06q-.03-.01-.01-.04t.04-.02m-.03-.14c.06 0 .05.06 0 .08q-.05.02-.04-.03 0-.03.05-.05zM9 8.52q.09 0-.01.07-.08.06-.04-.01.01-.05.05-.06m.03-.13h.05c.03 0-.02.1-.05.1s-.04-.08 0-.1m.11.34q.05-.02.07-.01c.02.01-.05.1-.08.1-.05.01-.04-.07 0-.1m-.02-.15.13-.02h.06l-.06.05-.1.08q-.07.03-.07-.03-.01-.06.04-.08m-.07-.32q.04-.03.13-.03h.1l-.08.06-.13.07q-.06-.02-.02-.1m.17.14h.08l-.08.05q-.16.09-.1-.01.04-.04.1-.04m-.05-.29.23-.01q.16-.02.09.03-.05.04-.17.06c-.12.02-.2-.01-.13-.05h-.04q-.08.02-.08 0t.1-.03m.02-.14q.15-.01.04.05-.13.06-.12 0 0-.03.08-.05m-.06-.12q.02-.05.04-.04c.03.02 0 .13-.03.13q-.06 0-.01-.1zm.03-.18q0-.08.04-.09l.02.04q0 .04.04.03.1 0 .03.08-.03.04-.04 0 0-.02-.05.01-.07.08-.04-.07m.05-.26q.05-.03.07-.02.03.04-.05.1-.05.04-.06 0t.04-.07m.1.09c.02.02 0 .1-.04.08q-.03 0 0-.05 0-.04.03-.03m-.06-.3.03.03q0 .08-.07.1c-.02 0 0-.1.04-.12m-.02-.13q.02-.05.05-.04c.02.02 0 .14-.04.14q-.06 0-.01-.1m.12.54v-.1q0-.06.02-.08.04-.03.03.07c0 .1-.05.21-.06.16zm-.03-.29q.02-.03.04-.02c.03.02.02.1-.02.1q-.05 0-.02-.08m-.08-.4q0-.02.03.01 0 .04-.02.06l-.03-.02q0-.04.02-.06m-.68-3.24.27.28c.14.14.39.37.56.51.35.29.39.36.24.4q-.07 0-.23-.06-.27-.14-.01-.05l.13.04c.03 0-.1-.14-.17-.17q-.07-.03-.1-.1 0-.07-.03-.08t0 .05v.06q-.03 0-.06-.1c-.02-.1-.04-.12-.17-.22l-.2-.17-.08-.1-.1-.15q-.1-.17-.05-.14m.79 3.45q.03-.05.04 0l-.02.08q-.04.05-.04 0zm-.14-.53q.05.02.03.07-.02 0-.04-.03zm.12.38V6.9c-.04-.06 0-.12.03-.06q.03.03 0 .05l.01.07q.01.04-.01.08-.04.06-.04 0zm-.06-.29q.02-.02.03.03v.08q-.03.01-.04-.04zm-.07-.3.05.04q.08.1 0 .14c-.02 0-.05-.1-.05-.17M8.69 4q.03.01.03.05t.03.06q.05.06-.02.05-.04-.02-.04-.07T8.68 4t-.02-.03zm.6 2.55c.04-.01.11.09.1.13 0 .07-.07.06-.1 0q-.04-.12 0-.14zm-.5-2.26.03.03q0 .03-.02.03-.04 0-.04-.04 0-.03.02-.02m.14.43q.04.02.03.04c-.01.02-.07-.01-.07-.04q-.01-.03.04 0m.06-.06.14.05c.05.01.08.06.05.06a1 1 0 0 1-.29-.15zm-.13-.42.03.02q0 .03-.02.03l-.03-.02q0-.03.02-.03m.08.18.03.02q.03.02 0 .03l-.04-.02zm0-.14c.03 0 .09.07.07.1h-.04c-.03-.02-.05-.1-.02-.1m.23.53c.08 0 .35.08.3.08l-.35-.05q-.07-.03.05-.03m-.1-.33q.02 0 0-.07-.04-.09 0-.04c.05.03.06.16.02.17q-.03 0-.03-.03zm.07.14q.04 0 .03.03 0 .03-.03.02-.06-.03 0-.05m.2.07q.11.05.1.07l-.1-.04q-.21-.11.01-.03z" style="fill:#000;stroke-width:.260297"/></svg>