<svg xmlns="http://www.w3.org/2000/svg" xml:space="preserve" id="svg39" width="57.35" height="54.63" viewBox="0 0 15.17 14.45"><path id="path16-8" d="M4.6 13.65a9 9 0 0 1-3.27-2.57A5.3 5.3 0 0 1 0 7.64a6.4 6.4 0 0 1 .74-3.03c.45-.83 1.54-2.1 2.38-2.76C3.77 1.35 5.01.7 5.88.42A8.5 8.5 0 0 1 9.32.04c.4.04.56.08 1.2.28 1.28.4 1.79.72 2.57 1.65a8 8 0 0 1 1.06 1.53 7.7 7.7 0 0 1 1 4.48 8 8 0 0 1-1.04 3.2c-.2.36-.3.69-.36 1.16a1.5 1.5 0 0 1-.5 1.07c-.37.39-.73.5-1.42.47-.5-.02-.73.01-1.6.25a7.8 7.8 0 0 1-5.64-.48m1.9.3a12 12 0 0 0 1.55.16l.16-.01-.24-.06-.26-.06-.2-.1a.5.5 0 0 0-.33-.06l-.16.01.19.1-.22-.07c-.6-.23-.65-.25-.79-.24l-.12.01.18.11c.23.14.07.1-.19-.05a1 1 0 0 0-.36-.11 1 1 0 0 1-.38-.14l-.25-.13-.26-.05q-.33-.1-.01-.07l.13.02-.1-.08c-.1-.08-.54-.24-.56-.2q0 .04.13.12.12.09.1.1a4 4 0 0 1-.67-.52 1 1 0 0 0-.26-.17l-.15-.04.1.1.25.23c-.04.01-.33-.21-.43-.33l-.14-.12-.16-.13-.27-.23a1 1 0 0 1-.2-.22q-.05-.1-.32-.26l-.28-.15c-.03.02.52.53.92.87.48.4 1.24.87 2.15 1.3.23.11 1.18.42 1.45.47m.97.02h.12q.06.02-.03.03c-.1 0-.17-.01-.09-.03m-1.77-.48c.02-.04-.17-.13-.3-.14q-.16-.02.03.1c.07.04.26.07.27.04m.44.04q.1.01.12-.01c.01-.05-.21-.14-.37-.14l-.16-.01.1.07q.07.07.15.08zm-.85-.3c.15 0-.05-.12-.23-.14q-.19-.01-.1.04c.08.07.22.11.33.1m-.8-.33c.02-.06-.23-.23-.4-.27l-.19-.05.1.1c.1.11.48.27.5.22m2.56.84.1-.02-.1-.06c-.13-.06-.43-.08-.36-.02a.6.6 0 0 0 .36.1m-1.2-.46q.05 0-.01-.06a.5.5 0 0 0-.33-.1q-.13 0-.07.05c.04.06.33.13.41.11m-.88-.3c.1 0 .09 0-.02-.1-.09-.09-.14-.1-.3-.13l-.21-.02.1.08c.1.09.28.16.43.17m1.67.54c.24-.01.03-.14-.23-.14q-.14 0-.1.05.1.1.33.1m2.17.54c.52-.06.78-.12 1.53-.36l.7-.2c.17-.03.5-.2.63-.32q.09-.1.13-.09c.01 0 .16-.09.31-.21l.33-.23c.05-.01-.25.26-.47.43-.3.23-.33.26-.38.35q-.06.1.02.1c.6.03.76.02.95-.06.34-.14.7-.52.8-.86.05-.13.14-.99.1-.9-.03.08-.6.68-.6.64s.32-.43.53-.63c.07-.07.17-.21.22-.32l.34-.68a7 7 0 0 0 .43-5.9 7 7 0 0 0-.55-1.23 5 5 0 0 1 .04 2.15 8 8 0 0 1-.22.79 7.7 7.7 0 0 1-2.53 3.6A8.3 8.3 0 0 1 7.42 12a7 7 0 0 1-2 .27c-.41 0-.46 0-.41.06.07.1.08.1.53.1.5-.01.57-.02.52-.09q-.03-.04 0-.03.03 0 .08.06.04.05.3 0l.4-.04q.17.02.09-.06t.07-.03l.19.03q.08 0 .04.02c-.05.05.1.18.21.19q.12 0 .06.06-.1.08.37 0 .21-.04.14 0l-.23.08q-.16.03-.17.05t.07.1c.07.06.1.06.34.02q.25-.03.26-.1 0-.17.12-.14c.09.01.1.08 0 .09q-.03 0 .03.02c.04.02.2-.02.34-.09.27-.11.27-.12.19-.17q-.08-.05-.07-.09.02-.06.14.05.04.06.25 0l.2-.07-.12.09a1 1 0 0 1-.26.11c-.21.05-.52.22-.48.26.06.07-.03.1-.17.04q-.13-.03-.16-.02c0 .02-.1.05-.2.08s-.2.05-.19.06l.11.09c.09.06.14.06.36 0 .14-.03.34-.1.44-.17q.17-.1.24-.1c.08.03.06.04-.2.18-.27.14-.45.3-.38.33l.24-.03c.17-.04.23-.08.41-.3a2 2 0 0 1 .36-.32c.13-.08.13-.07-.1.15a1 1 0 0 0-.23.27c.02.04.5-.16.62-.27.2-.15.19-.14-.03.15l-.22.3.3-.14c.26-.14.5-.35.47-.42l-.17-.07-.15-.05.14-.01q.14-.01.14.03t.1.07.02.08c-.06.03-.43.57-.4.58 0 0 .09-.07.18-.17.16-.15.19-.16.26-.12s.1.03.17-.07l.09-.18q.01-.06.1-.05c.1.02.1.03-.02.13l-.1.15q-.05.1.06.04a.3.3 0 0 1 .16-.01q.07.04.17-.12.08-.13.12-.14c.04.01-.18.38-.28.47q-.13.13.1.07l.18-.03q.13.04.42-.17.16-.13.1-.04c-.17.25-.3.31-.8.34q-.17 0-.53.2c-.45.25-.77.31-.44.08q.29-.2-.05-.03a4 4 0 0 1-1.08.3 1 1 0 0 1-.6-.06c-.3-.1-.6-.14-.62-.09 0 .02.17.09.4.16.22.07.4.14.39.15-.02.05.03.05.46 0m-1.34-1.76q.34-.1.1 0l-.2.05q-.01-.01.1-.05m-.1-.1 1.45-.5q.16-.06.16-.04c-.01.05-1.29.53-1.5.57-.1.01-.16 0-.1-.03zm.74.27.4-.14.55-.18.16-.06-.17.1a4 4 0 0 1-.94.28m-.12-.1q.01-.04.1-.05l.31-.08q.22-.07.2-.12-.05-.11.1-.07c.11.04.06.08-.3.23q-.47.2-.41.08m3.62 1.08.2-.13q.18-.1.2-.14l.13-.1c.09-.03.22-.11.3-.16.16-.1.1-.01-.09.13-.2.15-.08.17.17.03q.3-.15.03.07-.12.09.02.07.09 0 .13-.03l.15-.1c.15-.09.05.03-.19.22-.22.17-.26.2-.32.14q-.06-.03-.16 0c-.2.06-.23.06-.2.02.06-.07-.13-.09-.23-.03-.08.04-.16.05-.14.01m.55-.15q.1-.05.03-.07c-.05-.02-.16.02-.17.07q-.01.08.14 0m.32.05c.16-.08.05-.12-.13-.05q-.17.06-.06.08.08.02.2-.03M8.2 12.08c.07-.04.36-.1.37-.08s-.3.11-.36.1q-.03-.01 0-.02m3.04.82c.16-.15.16-.16.14-.05a.2.2 0 0 1-.14.17q-.25.15 0-.12m-1.74-.73q-.04-.07 0-.1.03-.04.06.03.01.1.13.06l.23-.07q.16-.08.08 0c-.16.15-.41.2-.5.08m1.71.6c0-.03.2-.17.4-.32.45-.3.51-.3.1 0q-.51.39-.5.31m.34.07.1-.1.37-.33q.4-.36.08.01c-.1.1-.52.46-.55.45zM9 11.94q-.06-.1.15-.03.13.04.13.07c-.02.06-.24.03-.28-.04m1.94.56c.1-.03.24-.1.32-.14q.22-.14.03.05c-.12.11-.36.2-.45.17q-.1-.02.1-.08m-.87-.23c0-.02.37-.1.4-.09.07.02-.01.09-.14.11s-.27.02-.26-.02m1.89.53c.16-.15.53-.44.51-.4-.01.05-.5.47-.56.48q-.03 0 .05-.08M9 11.73a10 10 0 0 0 1.46-.8q.41-.27.28-.15a7 7 0 0 1-1.2.76q-.87.42-.54.19m.43.07 1.16-.64-.1.09c-.16.13-1.05.62-1.1.6q-.02-.01.04-.05m1.43.48q.1-.04.14-.01.05.06-.15.06l-.1-.01zm2.25.52a.2.2 0 0 1 .11-.1q.11-.01.03.05-.2.17-.14.05m-2.92-1.06q-.06-.1.13-.05.23.05.03.1-.14.02-.16-.05m.93.26.07-.09q.06-.05.02.06-.03.09-.07.08-.03-.01-.02-.05m1.98.54a1 1 0 0 1 .2-.2q.11-.07.05 0-.51.54-.25.2m-2.21-.71q.06-.06-.06-.04h-.1c-.02-.04.27-.1.29-.07.03.03-.07.16-.13.16q-.05 0 0-.05m2.11.6c.07-.13.38-.45.39-.4 0 .03-.1.16-.23.29q-.22.25-.16.12m-.41-.16c0-.13.16-.96.18-.97.05-.02-.1.93-.16 1q-.03.04-.03-.03m-.9-.35a.1.1 0 0 1-.02-.1q.01-.06.05 0 .05.14.22.04.15-.06 0 .1-.1.07-.25-.04m1.14.21.13-.18c.08-.1.1-.26.1-.78 0-.18 0-.19-.12-.2l-.12-.02.1-.04q.13-.03.1-.13-.01-.08.02-.07c.04.01.08.21.08.48v.2l.1-.1c.1-.09.1-.12.1-.31v-.72l.05.25.03.25.1-.1c.1-.1.12-.14.12-.26q0-.15-.06-.1-.09.03-.01-.08a.4.4 0 0 0 .04-.2l-.01-.1.04.1.05.1.11-.13c.1-.13.12-.15.1-.27l-.02-.13-.1.08q-.11.12-.04 0l.1-.18q.04-.1.07-.11c.03-.01.13-.2.25-.4l.2-.4-.05-.13-.05-.13-.07.08q-.09.12 0-.07.08-.17.05-.27-.06-.24-.16 0c-.05.12-.05.2-.02.36l.03.24q0 .03-.04-.1-.06-.3-.1-.17l-.08.1q-.05.06-.08-.01t0-.04q.05 0 .12-.1c.05-.1.05-.16-.03-.4q-.14-.44-.04-.28.03.08.11-.08c.06-.1.06-.16.03-.27q-.05-.17-.08-.1-.04.06-.06.06a1 1 0 0 1 .08-.3c.09-.23.1-.3.07-.37-.04-.1-.05-.09-.14.13l-.1.22.06-.26c.03-.14.05-.3.04-.33q0-.07.02-.07.04-.02.07-.2l.07-.4c.03-.12.04-.25.04-.28l.02-.25v-.28a.4.4 0 0 1 0-.18q.03-.12.07.05l.08.22q.07.13.07 0 0-.06.03.08t.08.26q.06.08.05.05 0-.05.03-.04.03 0 .02.06c-.01.02.03.17.09.32.08.22.1.31.07.47a1 1 0 0 0 0 .3q.08.3 0 .13l-.05-.12-.04.19c-.01.1-.01.27.01.37l.05.2.06-.14.07-.13-.04.21a2 2 0 0 1-.12.41c-.08.16-.09.22-.06.32l.04.13.05-.08.1-.18-.05.2c-.08.25-.1.34-.06.43.04.1.03.13-.12.48l-.21.46a.4.4 0 0 0-.03.25l.02.16.06-.1q.06-.1-.02.1a1 1 0 0 1-.18.3 1 1 0 0 0-.15.28c-.06.15-.05.16.02.12.1-.07.09-.06-.08.17-.22.3-.32.4-.4.45q-.07.06-.12.22-.05.14-.08.14-.02-.03 0-.08.01-.11-.11 0-.07.08-.1.26l-.01.17.21-.2c.34-.34.26-.2-.12.21q-.53.57-.35.33m.77-1.34c.02-.14.01-.14-.06-.1q-.17.13-.15.31v.12l.1-.1a.4.4 0 0 0 .1-.23zm.3-.33v-.12l-.11.12a.4.4 0 0 0-.12.24v.12l.1-.13q.12-.12.12-.23m0-.32q.01-.26-.14-.03a.3.3 0 0 0-.08.24v.12l.1-.1.11-.23m.17-.12a.5.5 0 0 0 .12-.37v-.12l-.12.16c-.1.16-.17.4-.1.42q.02 0 .1-.09m.02-.48a1 1 0 0 0 .07-.3V9.1l-.12.18c-.11.16-.12.2-.12.33q.01.26.17-.06m.32-.63c.15-.32.17-.38.15-.48l-.02-.12-.05.1-.17.35c-.1.18-.12.27-.12.38q0 .14.02.14zm.1-.85q-.03-.12-.06-.15c-.06-.02-.15.3-.12.46l.02.15.08-.16c.07-.12.09-.19.07-.3m-.42-.12c.04-.13.02-.38-.03-.4q-.04 0-.1.1c-.07.1-.08.13-.03.28q.04.16.08.17.03-.02.08-.15m.29-.05q.06-.17 0-.3l-.05-.14-.06.17c-.05.15-.03.41.03.43q.03 0 .08-.16m-.11-.39a.4.4 0 0 0 0-.26l-.06-.14-.06.15q-.08.14-.03.27.08.24.15-.02m.3-.3q-.05-.12-.08-.15c-.06-.02-.1.34-.05.48l.04.13.07-.16c.05-.13.05-.2.02-.3m-.45-.32-.05-.1-.06.17q-.06.18-.01.26.03.16.1-.07.09-.18.02-.26m.3.14a1 1 0 0 0-.02-.29l-.03-.13-.06.2c-.05.14-.06.21-.02.3q.09.2.12-.08m-.15-.32c.04-.14.02-.38-.04-.4q-.04 0-.07.18c-.06.32.02.48.1.22m-.14-.33c.04-.23.04-.29-.02-.33q-.05-.08-.09.15-.05.32.04.36.03 0 .07-.18m.41.15-.02-.27-.06-.14-.03.17c-.02.17 0 .36.05.37q.03 0 .06-.13m-.15-.36a.4.4 0 0 0-.04-.27q-.07-.14-.06-.04 0 .07-.03.16c-.02.07.05.33.09.3zm.2-.33-.08-.18c-.03.02-.02.33.02.44l.04.13.05-.1c.04-.09.03-.16-.02-.3m-.37.01a.4.4 0 0 0-.03-.25l-.05-.1-.02.17c-.03.17 0 .38.05.36zm.21-.15c.02-.12-.05-.39-.09-.37s-.03.3 0 .39q.08.18.1-.02m-.18-.36-.03-.26q-.05-.12-.07.08c-.02.16.01.34.07.35q.03-.01.03-.17m-2.84 6.1c-.02-.04.1-.14.14-.13v.1q-.06.13-.14.03m1.06.15a.2.2 0 0 0 .13-.07q.07-.07.01.03-.03.1-.13.07-.12-.03-.01-.03m-.25-.35q.02-.07.05-.06v.1q-.02.07-.05.06t0-.1m-1.21-.38q0-.03.06-.02t.14-.06c.1-.1.13-.02.03.07-.08.08-.26.08-.23 0m.83-.14c-.02-.05.03-.17.07-.15q.03 0 .02.06t.03.07c.06.02.17-.05.16-.1q0-.04.02-.03c.06.01 0 .17-.07.2-.06.03-.2 0-.23-.05m-.25-.53q.01-.03.07-.04.06 0 .1-.09c.02-.1.08-.1.09 0q0 .13-.15.16t-.11-.03m1.18.28q-.02-.02.03-.05l.08-.1q.04-.06 0 .05-.05.18-.11.1m-.34-.5q.04-.08.07-.06t.01.1q-.02.05-.06.06t-.02-.1m.78-.17-.02-.08c.01-.04.11.01.12.06.02.08-.06.1-.1.02m.02-.46q.04-.08.07-.08.04.03 0 .14-.1.08-.07-.06M12.62 9q.04-.06 0-.08-.06 0 0-.04c.09-.04.13.06.07.14s-.13.07-.07-.02m1.12.1c-.01-.06.11-.13.14-.07s-.04.15-.1.13zm-.55-.35q.05-.03.1-.13.04-.13.04-.03c0 .11-.07.23-.14.21q-.07-.01 0-.05m.22-.57c.07-.1.16-.3.2-.43.06-.13.11-.23.13-.22.04.01-.16.5-.29.7-.14.22-.18.17-.04-.05M13.23 8l.18-.4.1-.22-.07.24a2 2 0 0 1-.18.39l-.11.16zm.9-3.46q-.24-.5 0-.14c.09.15.2.44.15.43zm-8.6 8.47c.09-.02-.16-.2-.3-.21q-.27-.05-.14.07a.7.7 0 0 0 .44.14m.76.26.13-.01-.08-.07c-.07-.06-.13-.07-.26-.06q-.2 0-.1.05.1.11.3.09m1.26.4.14-.02-.1-.06a.5.5 0 0 0-.28-.04q-.22 0-.1.06c.15.08.2.09.34.07m-3.98-1.31c.02-.05-.19-.2-.33-.25l-.15-.05.08.1c.08.1.39.25.4.2m.43.13h.1l-.07-.07a1 1 0 0 0-.27-.14l-.2-.06.1.1q.15.17.34.17m.66.13c.09-.03-.15-.17-.35-.2l-.2-.04.08.1c.1.1.38.18.47.14m2.5.85h.16l-.1-.08c-.09-.06-.15-.07-.28-.06q-.2 0-.11.06c.09.08.16.1.33.08m-1.18-.44q.15-.02.11-.04l-.13-.1q-.09-.1-.18-.09H5.6q-.1-.02.04.12c.15.14.12.13.33.1m2.73.84q.14-.04.02-.07-.07-.02-.19.04l-.12.07h.1zm-5.78-1.9c-.07-.08-.04-.14.03-.07s.34.17.37.12q.03-.04.1.03c.08.1.43.21.42.14q-.04-.07.14.06c.06.05.43.1.44.07q.03-.09-.41-.18a6 6 0 0 1-1.2-.39q-.2-.08-.23-.07.01.03.16.17c.16.15.27.22.18.12m2.18.72h.14l-.1-.08c-.07-.07-.13-.09-.28-.1-.18-.01-.18-.01-.12.06.09.1.18.12.36.12m1.7.55.15-.02-.09-.06c-.11-.07-.49-.06-.4 0q.13.12.35.08m1.6.57q.1-.01.12-.04c.02-.06-.22-.1-.38-.08l-.14.02.15.05zm-.38-.2.13-.01-.1-.07c-.12-.06-.36-.06-.38 0-.01.06.21.1.35.09m-2.38-.89q.16.01.04-.1-.05-.07-.25-.08-.31-.04-.14.1.1.1.35.08m.86.3.16-.01-.1-.1-.14-.12c-.06-.02-.39 0-.4.03 0 .03.18.16.26.2zm1.18.4.14-.01-.12-.08q-.1-.08-.27-.06t-.12.06c.06.08.23.12.37.1m-2.75-1q.07 0 0-.08c-.04-.07-.1-.08-.29-.11-.22-.03-.23-.03-.16.05.06.07.3.14.45.13m2.38.77q.22 0 .03-.12-.1-.06-.26-.03l-.16.02.08.07q.07.06.14.07zm1.9.54q.07-.03 0-.05c-.06-.02-.28.05-.3.1-.01.04.23 0 .3-.05m-.34-.05.14-.07c.02-.07-.2-.1-.37-.04l-.17.06.13.04zm-.37-.16q.28-.06.05-.14a.5.5 0 0 0-.3.02l-.17.06.14.05q.14.04.28 0m-2.36-.8c.19-.02.2-.03.1-.13-.07-.07-.12-.08-.3-.07-.26.01-.26.02-.17.1.11.08.18.1.37.1m.9.11c-.11-.1-.12-.11-.27-.1l-.17.05.09.11c.1.09.11.1.28.07l.18-.02zm1.19.48q.08-.04-.06-.1c-.1-.06-.15-.06-.28-.03-.17.05-.17.06-.01.15.08.05.25.03.35-.02m-.43-.18.15-.03-.1-.08c-.1-.08-.14-.08-.3-.05-.2.03-.2.04-.12.09.14.1.21.1.37.07m-3.19-1.2c1.16.15 2 .05 3.46-.42a7 7 0 0 0 2.5-1.33A7.4 7.4 0 0 0 13.6 5.5c.3-2.12-.67-3.96-2.51-4.73A8 8 0 0 0 9.46.32a8.6 8.6 0 0 0-7.83 3.47A6 6 0 0 0 .35 8.31l.03.1.06-.1c.1-.18.13-.1.04.12-.08.19-.08.22-.02.46.23.83.64 1.43 1.36 1.96.82.6 1.68.94 2.8 1.08m-1.54-.56a.4.4 0 0 0-.16-.11l-.11-.05.12.01q.11.02.18.09.11.14.4.15c.18 0 .19.05 0 .06-.18.01-.36-.05-.43-.15m.63.21q.01-.04.17 0 .26.08-.04.06-.16 0-.13-.06m-1.21-.46-.14-.06q-.1-.01-.16-.13c-.06-.15 0-.14.1 0q.06.1.1.1c.07-.01.22.08.2.13q-.02.06-.1-.04m1.77.56c.12-.05.22-.04.2.02q-.01.03-.08.03h-.14q-.11 0 .03-.05zm.31.06q.15-.03.15.05-.02.03-.11 0-.12-.04-.04-.05m-2.6-.91q-.01-.03.05 0 .12.08 0 .06zm-.18-.2-.14-.17c-.13-.08-.13-.14 0-.07q.23.13.2.2l.04.12q.05.06 0 .05-.04-.02-.1-.13m3.25 1.14q.03-.06.13-.05c.27.03.28.04.25.07q-.04.02-.1 0a.4.4 0 0 0-.19 0c-.1.03-.1.03-.09-.02m.55.07q.04-.03.14-.02.14.03.02.06c-.1.04-.2.01-.16-.04m-4.34-1.7q-.17-.35-.01-.17c.08.1.2.4.15.39zm4.92 1.6a.4.4 0 0 1 .18 0c.11.04 0 .07-.15.05q-.19-.02-.03-.04m-3-1.03c-.63-.34-.89-.73-.69-1.06.1-.15.27-.31 1-.9L4.72 7.7c1.24-1.1 1.34-1.18 1.45-1.08.05.04 0 .18-.63 2.04-.64 1.88-.68 2-.8 2.13-.27.3-.92.27-1.55-.07m.04-.26c-.04-.13-.04-.15.07-.33q.2-.34.72-.83.23-.21.32-.42c.07-.18.16-.3.48-.7q.03-.05-.1.05l-.3.24c-.25.19-.73.69-.88.92a14 14 0 0 0-.56.93c-.04.06-.03.08.1.16q.13.09.17.1zm.39-.98.36-.31q.36-.34.23-.16c-.09.1-.48.46-.58.51q-.23.12-.01-.04m.47 1.35.1-.18.08-.17-.1.09q-.08.09-.12.09-.03-.02.05-.08c.2-.15.35-.46.55-1.08.17-.54.27-.77.4-.92q.03-.05 0-.07-.03 0-.1.12a3 3 0 0 1-.4.44c-.3.3-.32.33-.41.6-.14.4-.48.84-.71.92-.1.03-.08.03.27.14zm-.26-.25.14-.3q.08-.14.05-.2-.04-.03.04-.05.16-.04.4-.37c.16-.22.13-.09-.04.14l-.3.47-.16.3.1-.24q.1-.28.02-.13l-.16.33c-.09.24-.17.29-.09.05m.55.22c.03 0 .09-.16.14-.35s.14-.4.2-.5c.07-.13.06-.08-.07.31-.09.26-.15.48-.14.5 0 .01.06-.02.1-.07.16-.14.36-.64.76-1.87.33-1.02.35-1.07.23-.87-.1.16-.17.36-.28.75-.17.57-.26.75-.52 1-.06.06-.21.3-.33.52l-.27.5c-.05.1-.05.1.04.1zm.25-.32.07-.11q.06-.06.04 0l-.08.12-.05.06zm-1.62-.34c.02-.05.11-.22.2-.36q.39-.6-.04-.18-.35.38-.35.67-.01.11.08.03a.4.4 0 0 0 .11-.16m.45.31c.24-.13.48-.45.6-.8.03-.1.1-.26.15-.33.12-.17.07-.25-.06-.1l-.35.38c-.42.44-.52.59-.5.78q-.02.19.16.07m-.11-.22c.02-.08.28-.42.35-.45q.03-.01-.12.17l-.2.27q-.04.06-.03 0m-.59-.03q-.04-.04.03-.17l.06-.13-.1.12c-.1.14-.1.18-.01.21q.07.02.02-.03m-.02-.24a1 1 0 0 1 .21-.23l.63-.57c.26-.26.53-.5.58-.54q.18-.13.08-.11c-.11.02.05-.21.28-.42q.55-.47.09-.02-.4.38-.26.36c.1-.03.48-.36.62-.56a5 5 0 0 1 .5-.54c.7-.7.47-.56-.41.21-.27.25-.7.62-.96.84-.56.48-.6.53-.6.56q.02.03-.07.08c-.16.09-.64.57-.6.61q.04.04-.02.05-.04.02-.09.13-.03.11-.08.11-.03-.01.04-.15.1-.19-.01-.08-.17.14-.1.32.04.18.17-.05m.23-.44.56-.48c.03 0-.52.5-.6.55q-.07.03.04-.07m.57-.6.1-.06.1-.04-.09.07q-.15.13-.11.04m1.11.84q0-.04-.02.02t0 .05.02-.07m.42-.5q.08-.14.14-.43c.04-.17.08-.34.1-.36q.1-.12-.14.08c-.14.1-.16.13-.3.53a4 4 0 0 0-.17.54c-.01.1 0 .1.14-.06q.15-.16.23-.3m-.43-.33c.2-.2.24-.27.42-.66a6 6 0 0 1 .67-1.13c-.05.02-.72.75-.78.86q-.09.13 0 .07.16-.07-.04.12c-.2.2-.42.54-.5.76q-.05.18-.03.2.05-.02.26-.22m.56-.48c.1-.08.3-.43.56-.96.34-.7.38-.96.07-.44l-.36.6c-.26.4-.45.83-.4.85q.06 0 .13-.05M1 9.88c-.03-.11-.03-.33 0-.32.02 0 .04.08.05.16l.02.19q0 .03-.03.02zm5.66 1.86c.02-.07.17-.15.24-.12q.05.01-.06.07-.08.05-.12.1-.01.03-.05.03-.03-.02-.01-.08M.81 9.54c-.02-.3.04-.38.07-.08.02.22.02.22-.03.2q-.03-.02-.04-.11m6.34 2.16c-.02-.09.14-.18.25-.16l.1.03-.11.02q-.12.03-.14.07c-.02.06-.09.09-.1.04m-2.02-.8c-.12-.19-.1-.3.57-2.34.67-2.07.65-2.02.86-1.95.09.03.12.1.25.47.26.73.9 2.9.94 3.14.03.2.03.24-.05.36-.19.26-.58.4-1.44.5-.48.06-.56.06-.8 0-.22-.07-.27-.1-.33-.18m.6.05h.2l.09-.34c.11-.42.18-.93.13-1.02a.3.3 0 0 1 0-.16c.06-.2.06-.5 0-.58l-.07-.09-.15.5c-.14.46-.15.52-.1.6q.1.2.18-.03.05-.12.1-.13c.05-.02-.1.28-.18.36-.06.04-.13.36-.18.78q-.01.13-.05.06a1 1 0 0 1 .02-.29l.04-.23-.07.2a1 1 0 0 1-.13.26c-.08.06.02-.21.18-.53l.13-.25-.08-.16c-.07-.15-.07-.16-.08-.07-.03.35-.05.46-.1.64-.22.64-.41.33-.24-.36.16-.6.12-.64-.05-.04-.15.5-.17.65-.1.74.06.07.32.14.51.14m-.18-.61.28-.99c.1-.34.19-.7.2-.8V8.4l-.1.24q-.1.23.03-.14c.13-.35.3-1.1.32-1.4 0-.06-.14.38-.33.97a9 9 0 0 0-.49 2q-.17.71-.05.67.05-.04.14-.38m.63.6c.05-.03.1-.87.06-.95q-.03-.07-.03.04c0 .06-.06.28-.12.5-.1.4-.1.41-.03.42q.08 0 .12-.02m.36-.05q.42-.06.25-.08a.2.2 0 0 1-.16-.1c-.07-.08-.07-.08-.09.04q0 .1-.05.1-.03-.03 0-.13c.03-.09.02-.6-.01-.66q-.01-.02-.08.03c-.06.04-.07.08-.09.24-.03.44-.03.56 0 .57zm.33-.25q.13-.27-.08-.74a1 1 0 0 1-.12-.44q.01-.12-.02-.17-.04-.04-.04.1l-.04.38c-.07.58.14 1.2.3.87m.17.14.1-.03v-.27c0-.23-.02-.28-.1-.3l-.07-.03v.2c.01.1 0 .25-.03.32-.04.14-.04.14.1.1m.53-.3c.08-.1.08-.14.04-.37a40 40 0 0 0-1.06-3.32c-.02 0 .09.92.13 1.1q.05.15.1.22c.04.04.08.2.1.35.06.32.25.83.33.86.05.01.19.32.21.49.04.19.03.62 0 .6q-.03-.05-.03-.23-.01-.43-.13-.65l-.07-.12.01.35c0 .2 0 .36-.02.37v.3l.04.27.14-.06.21-.17m-.32-.07c-.07-.22-.08-.32-.01-.22.06.1.14.4.11.42q-.03-.01-.1-.2m-.77-.53c.06-.18.08-.7.04-1.05l-.04-.33-.1.19c-.06.13-.1.27-.13.5-.05.43-.05.46.02.38q.06-.06 0 .05-.09.15 0 .38c.04.08.04.08.1.04a.4.4 0 0 0 .11-.16m.64.07c.06-.28.03-.47-.11-.83l-.15-.45c-.03-.2-.04-.09-.04.24v.37q0 .07-.04.09c-.12.02 0 .47.17.65l.12.12zm-.35-.71c.02-.54-.01-1-.08-1.16a5 5 0 0 1-.21-1.37 4 4 0 0 0-.26.97l-.1.63c-.05.25 0 .52.1.48l.13-.2c.08-.16.08-.22.06-.56a6 6 0 0 1 0-1.06c0-.04.02.2.02.54 0 .33.02.6.04.6q.04.01.03.07c0 .05.1.88.14 1.02.02.07.12.1.13.04m-.55-.99q0-.12.02-.15.02 0 .02.13-.03.3-.04.02m-5.57.89c0-.15.05-.15.07 0q.03.15-.03.12t-.04-.12m7.1 2.28q.13-.09.24-.06.09.03.04.03l-.2.07c-.17.1-.24.06-.08-.04M1.81 9.47c-.57-.34-.9-1.58-.56-2.1.2-.32.3-.35 2.36-.78 1.5-.3 2.2-.42 2.34-.37q.17.06.07.25c-.03.06-.33.32-.67.6l-1.6 1.3-1.2.97c-.33.24-.51.27-.74.13m.53-.14c.24-.14.49-.34 1.86-1.46 1.72-1.4 1.67-1.37 1.68-1.42q.01-.03-.02 0-.03.04-.06 0c-.01 0-.22.05-.46.14-.23.1-.5.18-.61.2h-.1l1.23-.44-.23.02-.3.02h-.11l-.96.19c-.85.15-1.65.32-1.66.34a4 4 0 0 0 1-.1 4 4 0 0 1 .56-.1c.19-.02.47-.08.62-.14.6-.21.7-.21.15 0-.27.1-.7.38-.72.47s.38-.03.84-.25l.63-.28.14-.05-.14.1c-.24.21-.86.66-1.1.8-.13.09-.4.28-.58.45a4 4 0 0 1-.9.56q.15-.1 0-.05c-.08.01-.25.14-.27.22q-.01.04.07.07.11.04.46-.2.15-.11 0 .02c-.17.15-.34.25-.42.25q-.08 0-.08.05c0 .08-.38.44-.59.56l-.17.1.18-.14c.25-.18.45-.38.44-.44q0-.04.06-.1.05-.04.01-.06-.03-.01-.02-.08c0-.07-.59.45-.62.54l-.11.11c-.15.1-.14.12.02.16q.14.03.28-.06m-.28-.05.06-.04q.03 0 0 .04-.08.08-.06 0m.12-.1a1 1 0 0 1 .3-.23l-.1.11q-.24.2-.2.12M2 9.19l.12-.15.07-.07c.19-.12.1-.1-.15.03-.16.09-.29.18-.28.2q.01.02.1-.03.4-.26.07 0-.14.1-.08.12.05 0 .15-.1m.35-.38.06-.04c.01-.03.12-.13.24-.22s.28-.22.35-.3l.13-.12-.26.15q-.66.37-.96.41a1 1 0 0 0-.3.1c-.09.07-.09.07 0 .2l.09.13.3-.17a1 1 0 0 1 .35-.14m-.67.17.1-.1q.15-.09.02-.07-.1 0-.01-.03.05-.03.08-.02.03.02.16-.04.33-.16-.04.1c-.29.18-.32.2-.31.16m.1-.43.04-.11-.2.1c-.17.08-.2.1-.17.16.03.07.04.07.16.02a.3.3 0 0 0 .17-.17m.12-.23c.11-.08.37-.23.57-.33.28-.14.34-.19.29-.2-.17-.06.04-.3.4-.46q.24-.1.12-.12-.16-.05-.01-.17c.08-.08.08-.08-.03-.1l-.5.04a2 2 0 0 0-.73.2l-.47.23q-.18.1-.06-.01.07-.06.12-.07c.03 0 .17-.07.32-.15l.27-.16-.28.08q-.47.13-.56.45c-.06.19-.01.19.3-.02q.23-.16.2-.15c-.2.03.1-.05.56-.17l.64-.17.11-.05-.1.06a5 5 0 0 1-.6.22q-.76.25-.7.32c.02.05.28 0 .65-.11l.43-.13c.16-.04-.32.16-.57.24q-.21.07-.23.1c0 .02-.13.13-.3.24l-.31.24q-.05.14.58-.15c.26-.13.45-.21.43-.19-.06.06-1 .62-1.01.61l.05-.06c.08-.08.08-.07-.03-.11q-.15-.06-.07.2l.04.12.14-.06c.07-.03.23-.13.34-.21m.27.22a10 10 0 0 0 1.16-.59q.16-.12-.04.1c-.4.4.07.22.66-.26l.28-.24-.1.02-.22.03q-.1 0-.06-.08c.02-.07-.03-.06-.31.06-.6.24-1.25.57-1.45.73-.33.25-.3.36.08.23m-.45-.65c.33-.2.34-.2.24-.19-.13.02-.6.31-.62.39q-.03.06.1-.02.11-.09.28-.18m-.15-.06.21-.13-.1-.04c-.16-.04-.36.07-.37.2q0 .1.02.1zm1.6-.16a5 5 0 0 0 .96-.43q.2-.14.1-.11-.1 0-.13-.02c-.04-.05-.85.22-1.05.35-.37.23-.3.36.11.21m-.27-.05.17-.07.13-.03c-.04.04-.3.12-.3.1m1.51-.25c.24-.12 1-.6 1.17-.73l-.66.28c-.67.3-.94.47-.97.58q-.03.11.46-.13m-.83-.22q.46-.08.7-.26l.15-.15s-.16.01-.35.05c-.31.05-.79.25-.81.34q-.02.06.31.02M.63 8.78q.02-.06.02-.02 0 .05-.02.07-.02 0 0-.05m7.54 2.56c.02-.07.28-.2.4-.18q.15 0 .16.02l-.2.05c-.11.02-.23.06-.25.1-.04.06-.13.07-.11.01M.55 8.64l.03-.08q0-.03.04-.03t.01.1q-.02.07-.06.07-.03-.02-.02-.06m8.36 2.4.2-.12q.14-.07.18-.17c.03-.1.23-.23.32-.2q.13.05-.08.07c-.11.02-.14.04-.17.16-.04.11-.08.15-.26.23q-.32.14-.2.03M.46 7.9l.04-.2.03-.1-.08.08-.08.09.02-.15c.01-.08.04-.2.07-.27q.03-.11 0-.16-.03-.04 0-.05c.06-.03.1.14.06.24a.3.3 0 0 0 .01.2.4.4 0 0 1 .02.24c-.04.16-.1.2-.09.08m7.56 2.31a12 12 0 0 1-.67-1.75c-.31-.9-.58-1.72-.58-1.81-.03-.45.34-.48.88-.07q.17.13.2.13s-.1-.1-.25-.21q-.39-.3-.34-.42c.04-.13-.02-.12 3.62-.12.6 0 1.02.02 1.17.06.21.05.23.06.28.17.15.32-.05.95-.5 1.61-.29.42-.41.54-.67.66-.3.13-.39.13-.68 0a21 21 0 0 1-2.05-1.35c-.28-.2-.52-.37-.53-.36s.15.14 1.4 1.05c.86.63 1.03.77 1.1.9.09.15.09.18.03.35-.08.24-.24.4-.74.73q-1.06.7-1.47.57zm.57-.05q.32-.1.2-.13c-.08-.03-.27-.32-.35-.55-.06-.19-.25-.48-.27-.43l.07.32c.1.34.12.5.11.63q0 .13-.03-.03c-.06-.3-.23-1-.28-1.13-.07-.24-.09-.26-.1-.15q-.01.1-.05.11-.05 0-.03-.02 0-.04-.07-.09-.2-.11-.36-.69a10 10 0 0 0-.4-1.16c.1.19.38.85.53 1.3.14.42.26.62.31.47.04-.12-.02-.41-.14-.7l-.1-.26c.05-.02.28.53.3.69.04.23.26.64.43.78q.13.1.18.1l.02-.16q0-.15-.16-.33a3 3 0 0 1-.46-.68q.02-.02.15.19c.16.28.58.71.65.68.06-.03.04-.13-.08-.46l-.1-.26.1.2c.16.25.2.39.15.53-.03.1 0 .17.13.44.2.38.27.45.4.38.1-.04.1-.05.08-.16l-.1-.29q-.08-.15-.07-.18.02-.03-.02-.02-.06-.02-.14-.17-.07-.16-.05-.15c.02 0 .12.12.24.25.22.25.44.43.55.43.08 0 .12-.16.06-.25-.14-.25-.77-.83-.85-.79H8.9c-.1-.04-.39-.27-.49-.41-.07-.1-.08-.1-.14-.06q-.15.09-.43-.26c-.11-.15-.15-.18-.22-.17-.1.03-.15-.03-.42-.48-.1-.18-.22-.32-.24-.32q-.04 0-.03-.03 0-.05-.02-.03-.07.02.56 1.85c.44 1.3.49 1.41.52 1.4q.03 0 .11.13c.1.18.19.2.48.12M7.9 9.5a3 3 0 0 1-.06-.5c0-.07.05.1.1.38a3 3 0 0 1 .05.5s-.05-.16-.09-.38m1.53-.4-.17-.2c.03.01.43.39.42.4 0 .03-.06-.01-.25-.2m-.94-.42-.07-.1.1.1.1.1q-.04.05-.13-.1m.45 1.29q.01-.06-.08-.2L8.7 9.5l-.17-.19-.1-.07.06.21c.08.22.3.56.38.56q.05-.01.08-.05m.1 0q.03-.02 0-.06-.02-.02-.04.02-.03.1.04.04m-.01-.27a2 2 0 0 1-.24-.45c-.05-.14-.11-.27-.14-.28-.07-.02-.08 0-.03.22.04.16.3.58.44.68.12.09.1 0-.03-.17m.74-.15-.11-.07a1 1 0 0 1-.25-.2l-.13-.14.08.18c.05.1.1.22.1.28l.02.1.14-.07zm.38-.34q.11-.13.11-.18a5 5 0 0 0-.5-.43l.08.17q.08.15.08.2C9.9 9 9.9 9 9.76 8.89q-.27-.22.02.11c.1.1.18.22.18.26q-.01.18.19-.05m-.43-.52a3 3 0 0 0-.56-.6q-.1-.09.04 0c.07.03.21.14.32.24a11 11 0 0 0 .74.61q.06.09.05-.08c-.01-.11-.05-.17-.18-.28A51 51 0 0 0 7.4 6.6l-.24-.12q-.06-.04-.07-.01t.03.05c.08.03.36.4.55.76.1.2.25.42.35.5.41.39.26-.13-.17-.57q-.32-.34-.04-.1c.2.17.35.36.53.66q.16.27.36.44c.25.2.3.23.34.14.03-.1-.23-.45-.53-.71l-.31-.3-.38-.32c-.28-.22-.51-.43-.45-.41a11 11 0 0 1 1.11.92c.24.17.48.45.57.65q.14.31.56.56.28.18.11-.06m-2.1-1.22c.06-.08-.4-.8-.62-.96q-.17-.1.03.18c.06.09.2.3.3.48.12.18.21.33.23.33zm3.25.94.15-.03-.17-.1-.19-.1q-.01.01.02.05c.05.04.03.1-.04.07q-.05-.01-.03-.04c.03-.02-.06-.17-.2-.3l-.46-.3-.46-.28c-.03-.02.05.09.18.24.13.16.23.3.22.3q-.05-.02-.26-.23c-.45-.48-.44-.47-.82-.62a5 5 0 0 1-.6-.27q-.46-.28-.04.03c.57.42 1.66 1.14 2.26 1.5a.6.6 0 0 0 .43.08zm.44-.24q0-.03-.13-.08a1 1 0 0 1-.3-.15c-.13-.1-.16-.1-.29-.09l-.14.02.13.14c.07.07.21.17.31.22.17.08.2.09.3.03q.1-.05.12-.09m-.74-.38q.17-.06-.04-.26c-.1-.1-.23-.15-.72-.31A3 3 0 0 1 9.26 7c.1-.02.96.24 1.15.35.1.06.36.17.58.24.32.1.41.14.46.2q.08.13-.01.04l-.42-.19-.35-.13.05.13c.06.16.28.32.53.38.15.04.15.03.3-.16l.16-.2-.17-.03c-.19-.03-.53-.22-.55-.3q-.01-.04.04 0c.1.09.43.23.57.25q.14.03.2-.09.09-.1.02-.15-.13-.12-.4-.08-.36.04-.05-.06a.5.5 0 0 1 .35.02q.18.06.2.05l.06-.1.05-.07-.16.03c-.14.02-.23 0-.48-.08a3 3 0 0 1-.47-.22c-.15-.1-.14-.1.25.06.35.13.45.16.6.15.3 0 .27-.18-.04-.29a4 4 0 0 0-1.13-.1q-.02.04-.11.07c-.1.02-.08.03.16.1.22.05.29.08.4.19q.14.12.14.17c-.02.07-.25.13-.43.12a3 3 0 0 1-1.02-.35 2 2 0 0 0-.41-.18q-.21-.04.02-.02.16 0 .18-.02t.05-.01 0 .03c-.03.03.05.08.5.3.25.11.34.14.54.16.24.02.44-.01.46-.07.04-.11-.34-.26-.8-.33a3 3 0 0 1-.91-.26 3 3 0 0 0-.56-.18L8 6.22q-.78-.16-.56.03l.49.32c.64.4 1.06.56 1.1.43q.01-.05-.05-.12c-.08-.09-.6-.32-.6-.26q0 .03-.17-.05l-.28-.12q-.06-.04.08-.01.23.04-.2-.1c-.32-.12-.36-.14-.24-.13q.14 0 .74.25l.73.28h-.1l.1.1q.17.16.05.22-.08.04 0 .06.06.01.05-.03-.01-.05.05 0c.22.18.9.6 1.12.67q.15.05.25.03zM8.32 6.22c.48.08.89.2 1.45.41.22.09.3.1.46.08q.53-.06.13-.25c-.15-.07-.34-.1-1.2-.2-.17-.03.24-.03.53-.01.31.02.78.16.88.26.06.06.25.08 1.11.12q.16 0 .14.03t.1.1.14.14q.01.13.1-.2c.05-.21.05-.24-.02-.3a1 1 0 0 0-.56-.14q-.4-.01.1.14c.17.06.35.14.4.17q.1.08-.32-.09l-.4-.15-.37.06c-.2.03-.41.04-.46.02q-.15-.03 0-.06h.12q.04.05.04 0c-.01-.01.1-.04.22-.04l.47-.07c.25-.05.66-.01.8.08q.09.08 0-.06c-.08-.14-.22-.17-.84-.18l-.48-.01.17.08c.2.1.19.1-.16.01a2 2 0 0 0-.46-.06l-.25-.03q-.06-.05-.02 0 .05.06-.17.07-.41.03-.07-.04.17-.03.11-.03h-.68l-1.17.02c-.31 0-.51.02-.45.03zm.35-.06.07.02q0 .03-.05 0-.07-.02-.02-.02m.2.02.08.04q.03.03-.05 0t-.04-.03m1.43.39q.05-.03.07 0l-.06.03q-.09 0-.01-.03m-.53 3.95c.02-.06.14-.11.17-.08q.02.03-.08.08t-.1 0m.3-.14q.15-.25.22-.22.04 0-.02.06l-.08.13-.1.11q-.12.09-.01-.08M.5 6.87a.4.4 0 0 1 .09-.17q.06-.05.01.09a.4.4 0 0 1-.1.16q-.05.05 0-.08m9.96 3.2c.11-.18.27-.27.33-.2q.03.04-.08.07a.4.4 0 0 0-.17.14q-.06.09-.1.09-.02-.01.02-.1M.56 6.52l.07-.12-.02.13-.07.12q-.02-.03.02-.13m.75.07c-.1-.2-.05-.63.1-1.01q.4-.93.77-1.3c.45-.43.64-.42 1.51.09 2.1 1.23 2.26 1.34 2.3 1.42q.11.21-.2.3c-.26.09-2.75.55-3.7.7-.48.07-.68.02-.78-.2m.77.08a52 52 0 0 0 2.87-.51c.55-.1.9-.2.92-.26s-.1-.15-.47-.38l-.34-.14-.18-.05.1.1q.08.1.39.2c.32.12.3.12-.48-.08q-.98-.25-1.03-.1c-.02.03.42.16.7.2q.1.02-.08.02a2 2 0 0 1-.52-.12 6 6 0 0 0-1.18-.27c-.32.01 0 .25.51.39.42.1.22.1-.27 0-.57-.13-1.12-.14-1.21-.03-.14.17.3.3.76.24.56-.09.77-.1.9-.09q.12.02-.3.08c-.58.08-.76.12-.72.18.14.17 1.01.17 1.33 0l.1-.05-.07-.03c-.2-.06-.04-.24.2-.25l.26-.01c.13-.01 1.3.1 1.39.14.09.03-.16.03-.65-.02l-.75-.06c-.27-.01-.5.05-.49.12.01.04.31.12.45.11q.06 0 .03.03-.04.03-.15.02c-.14-.02-.34.05-.36.12q-.06.12.38.04l.3-.02c-.02.04-.58.11-.7.09-.15-.04-.29-.02-.65.1-.34.1-.79.2-.97.21a1 1 0 0 1-.36-.05c-.2-.05-.21-.06-.2-.14q.01-.08.07-.12.12-.05-.04-.1c-.13-.05-.16 0-.13.25.02.17.03.17.19.23a1 1 0 0 0 .45.01M2 5.74c.26.01.4.06.16.06l-.27-.04q-.08-.03.11-.02m2.44.27.13-.02-.13-.02q-.1-.02-.1-.05.06-.01.22.01a4 4 0 0 0 1.17 0c-.01.04-.5.1-.86.1-.51 0-.58 0-.43-.02m.14-.4q-.15-.08.06-.02l.4.13c-.24-.02-.36-.05-.46-.12m-2.64.91c.22.02.44-.01.92-.15.5-.13.57-.16.34-.13-.09 0-.33 0-.52-.02-.35-.04-.8 0-.97.07a.2.2 0 0 0-.1.11c-.04.1-.05.1.33.12m-.3-.1a4 4 0 0 1 .73.02c-.05.02-.64.02-.7 0q-.04-.01-.03-.03m.45-.26c.31-.03.34-.04.28-.1q-.06-.07-.21-.08l-.3-.06q-.34-.11-.4.07c-.03.1-.02.1.13.15q.15.06.5.02m-.37-.36-.01-.07q-.02-.06.04-.13.17-.15.7-.07.46.06.21-.07-.12-.06-.1-.13.04-.17.5-.06c.34.07.45.06.21-.02-.15-.05-.34-.2-.32-.26.03-.07.35-.12.55-.1.16.03.23.06.38.17.1.08.22.15.26.17q.07.02.1.07c.01.02.17.08.35.13.27.07.32.08.3.03-.05-.12-.36-.3-.81-.47a7 7 0 0 1-1.16-.52c-.08-.06-.12-.19-.07-.21q.04-.01.2.02c.23.05.65.28.85.45.17.16.86.52 1.1.58.12.03.07 0-.3-.24L4 4.66l-.59-.32q-.55-.31-.6-.24-.01.03-.05.02c-.05-.01-.21.05-.22.09q0 .03.14.1.21.08-.05 0l-.19-.04.35.2c.19.09.34.18.35.2q.03.05-.28-.12l-.33-.17-.15-.07-.13.14q-.11.13-.11.16c0 .02.15.08.32.15.38.16.27.18-.13.04-.21-.08-.26-.09-.29-.04s.02.06.4.18q.5.14.19.08l-.45-.11-.2-.07-.07.12-.06.14c.01 0 .5.09.64.1q.1 0-.03.02l-.37-.02c-.26-.05-.3-.04-.33.03q-.05.08.2.09c.09 0 .22.03.31.05.27.05.08.06-.24 0-.28-.04-.3-.04-.35.06l-.11.25c-.05.15-.05.15.05.14q.1 0 .11-.03m.56-.8.12.05q.04.03-.07 0Q2.22 5 2.3 5m.16-.47.25.03q.24.05.05.05l-.26-.03q-.14-.04-.04-.05M3.6 6.22q.06-.02.05-.04t-.1 0c-.1.03-.05.06.05.04m.35-.87h.22c.03 0-.08-.08-.24-.19-.32-.2-.51-.26-.75-.2q-.2.04-.01.16c.2.14.6.26.78.23m-.12-.57c.03-.08-.6-.44-.8-.47q-.26-.02.14.2c.2.13.65.3.66.27M.47 6.34l.1-.12q.12-.15.06-.01-.04.08-.1.12t-.06 0m10.36 3.4c.03-.1.3-.32.43-.35q.18-.04-.04.07-.1.06-.14.13-.03.07-.08.06-.05 0-.12.08-.1.15-.05 0M.6 5.99q.02-.1.06-.01l.03.09q-.01.03-.07.01-.05-.01-.03-.1m.12-.22v-.1q-.03-.04.04-.1.08-.05.17-.31c.05-.14.1-.26.13-.27q.04-.01.09-.15.04-.12 0-.15c-.05-.02 0-.1.06-.11q.06 0 .1-.1.02-.07.06-.07.05.01-.02.12c-.04.06-.1.2-.12.3q-.05.17-.12.23c-.05.03-.16.29-.3.67q-.03.09-.07.1-.04 0-.02-.06M11.6 9.03c.07-.22.46-.6.5-.5q.01.04-.1.12a1 1 0 0 0-.26.27q-.2.28-.14.1M6.23 6.4l.11-.04q.12-.01.1.04-.03.05-.09.05-.13 0-.12-.05m.23.03q0-.04.06-.04.03 0 .03.02t-.06.05q-.04 0-.03-.03m-.19-.13c.03-.01-.01-.14-.05-.15q-.03 0-.04.05-.02.07-.05 0-.04-.05.02-.08t.14.05c.07.08.07.19 0 .16q-.04 0-.01-.03m.39.03q.02-.1.17-.13l.2-.01q.03.01-.12.05-.17.04-.23.11-.07.11-.02-.02m-.39-.29q.09-.17 0-.23-.06-.04.08-.05c.13-.02.19.02.08.05q-.05.01-.07.15-.03.15-.07.14-.03-.02-.02-.06m6.17 1.87a.4.4 0 0 1 .15-.21q.13-.07.12-.2t.12-.24l.12-.1c.03 0-.09.17-.14.2q-.04.05-.06.17a.3.3 0 0 1-.1.2.4.4 0 0 0-.13.18q-.04.1-.08.11t0-.11M6.99 6.04Q7.07 6 7 5.96c-.05-.05-.04-.15.02-.13q.03 0 .05-.03.01-.05-.1-.09t-.1-.11.02-.02.09.06.05.03.07.04c.1 0 .08.1-.03.15q-.09.03 0 .08.11.08-.02.13c-.08.04-.13.01-.06-.03m-5.46-1.9q.16-.22.13-.06a.2.2 0 0 1-.1.12q-.1.04-.03-.05zm3.62.96A27 27 0 0 1 3.2 3.9a.5.5 0 0 1-.13-.53c.22-.69 2-1.82 2.57-1.63.23.08.28.2.42 1.13.08.5.18 1.06.23 1.27.15.72.22 1.2.18 1.32-.1.28-.3.23-1.3-.36m1.12.4q.1-.05.02-.59c-.06-.35-.39-1.05-.5-1.05q-.05 0-.06-.04c-.03-.09-.09-.06-.1.04-.01.17.08.42.37 1 .3.62.32.74.02.2a3 3 0 0 0-.54-.8q-.16-.18-.09-.15c.05 0 .14.1.22.19l.13.16-.07-.2-.1-.3c-.07-.27-.4-.58-.45-.43-.03.09.04.37.12.46q.06.08.05.12c-.02.07.11.39.22.51.28.32.67.82.65.83s-.36-.36-.7-.75q-.29-.33-.44-.34c-.1 0-.08.05.1.28.14.18.27.3.58.53q.03.03.02.05c-.03.01-.39-.26-.68-.52a2 2 0 0 0-.6-.42c-.05.02.14.3.28.4.19.16 1.18.73 1.35.78q.14.04.2.03m-.13-.66c-.14-.48-.14-.62.01-.16.1.33.17.6.15.61zm-1.64-.28q-.23-.3-.14-.32c.08-.02-.32-.4-.6-.56-.24-.14-.41-.31-.42-.41q0-.09-.06 0c-.13.19-.13.21.11.38q.12.1.04-.04-.03-.08-.01-.11.02 0 .06.1c.03.12.05.15.45.45q.27.2.14.16L3.75 4c-.5-.39-.57-.44-.58-.43l.02.12q.04.11.3.28l1.07.68zm.54.02q-.02-.05-.06-.06-.05-.03-.07-.1t.09-.1c.1 0 .15.01.28.12.1.08-.1-.39-.23-.53l-.2-.15q-.21-.08 0 .31.12.2.06.19a1 1 0 0 1-.2-.23c-.22-.36-.3-.46-.44-.52q-.13-.08-.17-.01-.2.25.59.86c.33.26.36.28.35.22m-1.1-.97c-.02-.08-.01-.11.05-.17.08-.08.08-.09-.03-.26q-.1-.17-.13-.15 0 .04.05.1.05.07.04.12 0 .04.04.08.05.04.03.05l-.23-.15a1 1 0 0 0-.24-.15q-.02 0-.02-.03.04-.07.2.06.2.14.04-.04c-.13-.14-.18-.14-.28-.02-.09.12-.1.24-.02.22q.04 0 0 .02c-.04.04 0 .09.24.25.28.19.3.2.26.07m-.3-.16q0-.03.07 0 .08.05.08.07c0 .02-.14-.04-.15-.07m-.12-.09q-.04-.05 0-.04l.05.06q.03.08-.05-.02m1.18.36q.01-.21.28.05l.13.12-.04-.2c-.03-.2-.03-.24.04-.3q.12-.06.35.25c.1.15.12.16.15.1.04-.04.06-.04.15.02l.18.16q.09.13.06.01l.02-.15q0-.06-.02-.07-.03 0 0-.04.04-.05.01-.05-.04-.02-.07-.21a1 1 0 0 0-.11-.36l-.08-.14-.02.15c-.02.08-.01.27 0 .41q.03.24 0 .2c-.05-.08-.1-.43-.08-.68 0-.2-.13-.7-.22-.8-.15-.16-.25-.06-.21.2.01.1.1.29.18.44.09.14.17.33.19.4q.04.2-.1-.14-.21-.42-.09.01.05.16.02.18l-.08-.22c-.1-.4-.33-.74-.55-.8-.22-.08-.19.13.13.74.1.19.15.31.1.27l-.26-.46q-.2-.4-.2-.31c0 .05.07.23.17.41s.16.32.14.31q-.04-.02-.1-.14-.07-.12-.1-.1c-.03 0 0 .09.06.18l.07.16q-.04 0-.24-.43-.05-.1-.15-.13c-.1-.02-.1 0-.13.1q-.03.14.05.26c.29.43.17.37-.13-.08-.24-.34-.31-.4-.36-.34-.06.06-.03.13.14.42q.16.25.25.28c.11.04.33.23.37.34q.07.16.1-.02m-.1-.48c-.13-.18-.25-.41-.2-.43q.02 0 .14.22c.07.12.15.27.2.31q.05.08.03.08zm.8-.88-.07-.1q-.06-.05-.04-.06c.03-.02.14.1.14.17l-.01.05zm.73 1.77q-.12-.59-.1-.2c.02.14.1.38.13.4zM3.8 2.89c-.02-.12-.02-.12-.09-.08-.12.08-.11.09.09.2q.02 0 0-.12m.47 0-.04-.08c-.05-.06-.05-.06.02-.09s.08-.03 0-.14l-.08-.11-.1.08-.11.07.09.08.12.14q.06.12.1.06m.33-.14-.06-.21c-.06-.22-.06-.26.01-.2q.05.03.08-.05a.2.2 0 0 1 .1-.1c.1-.02.29.08.38.19s.1.01 0-.17q-.08-.16-.13-.18c-.05-.02-.3.1-.55.28-.17.1-.17.12-.13.2.04.1.28.29.3.24m1.3-.13c-.08-.57-.12-.67-.23-.71-.06-.02-.06 0 .03.17.1.19.23.73.19.75q-.03-.01-.07-.2c-.08-.42-.26-.8-.37-.74-.01 0 .02.12.08.25.06.12.13.33.15.46q.06.23.13.28a.3.3 0 0 1 .11.16q.1.35-.02-.42m-.58-.56.1.03q.05.05 0-.07l-.05-.13c0-.01-.19.03-.31.08q-.02.01.04.1c.06.09.07.1.12.05zM6.53 5.6l.07-.04q.05.02.05.05-.02.03-.07.04-.06 0-.05-.05m.2-.01q.02-.05.06-.04.03 0 .02.04-.01.03-.05.04-.04 0-.03-.04m.65.25q-.03-.04 0-.13.01-.1.41-.32c.6-.34 3.9-1.98 4.13-2.05q.6-.19.86.65c.13.4.14.65.02 1.08-.12.42-.23.6-.46.7-.13.06-.33.07-2.34.08l-1.54.03c-.83.02-1 .02-1.08-.04m.53-.15.66-.13q.83-.15.83-.2c-.04-.08-.77.03-1.25.19-.15.05-.28.08-.29.06q-.01-.02-.1.03-.08.06-.11.02a9 9 0 0 1 1.73-.8c.43-.12.52-.17.84-.47l.32-.3q.2-.14-.18.06-.23.12-.16.12.09 0-.03.04a30 30 0 0 0-2.42 1.2c-.12.09-.25.23-.21.25zm.47.07c.66-.03 1.11-.12 1.2-.21.07-.09-.13-.1-.46-.02l-.88.16c-.48.07-.62.1-.56.11zm-.07-.31c.24-.08.55-.17.7-.2.28-.03.9-.28.93-.37.02-.06 0-.06-.16-.04a4 4 0 0 0-.95.29l-.38.14q-.1.02-.08.05h.1l-.4.17c-.38.15-.2.12.24-.04m1.56.3 1.05-.02c1.3-.01 1.35-.02 1.53-.24q.1-.12.1-.16c-.02-.05-.17 0-.27.1-.12.12-.46.2-.88.2H11l-.2.02q-.07 0 .08-.03l.17-.03-.16-.03a6 6 0 0 0-1.23.04l-.2.1q-.17.05-.11.06zm.22-.27c.24-.04.54-.15.56-.21.03-.07-.52-.08-.9-.01q-.5.08-.1.2a1 1 0 0 0 .44.02m-.46-.24c.33-.1.69-.13.92-.08q.38.08.06.23l-.16.09h.16c.08 0 .27.01.4.03.48.08.9.04 1.15-.09q.22-.1.02-.15c-.13-.05-.21-.04-.5.05-.23.08-.52.13-.54.1q-.01-.03.02-.02c.12.04.86-.34.82-.42a3 3 0 0 0-.76-.01h-.3c0-.03.79-.1.98-.08q.18.02.21-.03c.02-.05.44-.14.53-.1.06.01.06 0 .06-.16l-.04-.37-.04-.2-.14.07-.16.07q-.02-.01.13-.1c.16-.07.16-.08.12-.16q-.04-.1-.06-.02l-.14.15c-.15.11-.14.14.13.24q.16.06.1.05-.09 0-.05.06c.04.1-.15.24-.4.29-.95.18-1.14.18-.3 0 .5-.1.66-.2.6-.33q-.04-.07-.18-.08c-.17 0-.64.16-.8.28-.25.19-.47.28-.84.34a5 5 0 0 0-1.1.3q-.4.19.1.05m1.4.1.15-.01-.07.03h-.15zm-.5-.47.56-.16c.2-.08.36-.22.34-.28q0-.04.04-.01c.02.02.13-.02.25-.08l.22-.1h-.16c-.3.03-.58.1-1.28.37l-.47.18.4-.19q.64-.29.15-.14-.13.05.18-.1c.33-.16.58-.34.55-.4-.02-.04-.3 0-.5.1a2 2 0 0 0-.44.3 3 3 0 0 1-.42.33q-.22.14-.1.1.21 0 .13.14-.09.1.06.04zm1.7.36c.26.07.35.04.4-.12q.08-.24-.07-.16l-.28.09-.3.1q-.1.06 0 .04zm.27-.32q.17-.07.17-.1a1 1 0 0 0-.44.05.3.3 0 0 0-.13.1l-.05.07.13-.02zm-1.36-.59a3 3 0 0 1 .55-.13c.28-.03.53-.12.67-.25q.18-.14-.01-.2c-.29-.08-.76.07-1 .33-.09.1-.24.2-.36.25-.28.13-.18.13.15 0m.06-.43q.12.02.5-.18l.5-.22.11-.02-.1-.04a1 1 0 0 0-.32.01c-.23.07-.93.4-1.1.52-.1.07-.1.07.1 0a1 1 0 0 1 .31-.07m.91-.24.23.02.13.04-.05-.1-.05-.1-.2.06-.22.07q0 .04.16 0m-10.3.15c.13-.12.23-.16.2-.1a1 1 0 0 1-.3.22q-.04 0 .09-.12m4.77 1.45c-.06-.13-.41-2.35-.48-3.02-.06-.54.02-.73.38-.94.2-.1.8-.27 1.16-.3a6 6 0 0 1 1.47.06c.17.06.21.09.27.2.1.2.05.32-.3.84-.39.58-1.37 2.12-1.74 2.73-.17.28-.35.54-.4.58-.11.09-.28.02-.36-.15m.19-.32V4.2q.02-.48-.1-.42l-.05.23q-.06.45-.05-.05c.03-.39 0-.6-.1-.83l-.13-.38a3 3 0 0 1 .06-.98q.11-.37-.06-.2c-.19.22-.2.38-.04 1.46.1.69.31 1.95.34 2 .01.02.02-.13.02-.35-.01-.45.01-.72.05-.68q.02.04 0 .09c-.02.07-.02 1.06 0 1.14q.06.19.06-.31m.79-.68c.35-.55.64-1.01.64-1.04 0-.09-.16.12-.4.53-.15.23-.23.35-.18.26.1-.24.47-.82.51-.82.1 0 .16-.06.36-.37.11-.19.33-.52.48-.74.43-.63.45-.78.09-.86a4 4 0 0 0-.6-.06c-.36 0-.4 0-.41.07 0 .05-.08.22-.17.39l-.16.3.15-.38c.15-.38.15-.42 0-.37q-.09.01-.13.23-.06.19-.1.21-.04 0 0 .05c.06.09 0 .38-.18 1.01a4 4 0 0 1-.22.64c0-.02.06-.32.16-.66.15-.53.17-.67.16-.9-.01-.32-.03-.38-.13-.35-.16.06-.33.58-.38 1.13-.01.22-.03.4-.04.41s-.02-.18-.01-.41c.02-.54.14-.97.33-1.13q.2-.2.26.07l.03.13.07-.22.06-.21-.32.04c-.17.02-.4.07-.5.1l-.19.06v.22q.01.36-.05.18-.1-.2-.05.05c.09.25.1.47.06.8-.05.38-.08.88-.06 1.02q.01.1.08.13c.06.02.08 0 .11-.17.08-.36.25-.43.28-.13l.02.17.13-.25c.18-.34.26-.43.34-.38q.07.07.11-.09c.05-.16.27-.49.4-.6.07-.07.1-.15.17-.41.1-.36.11-.63.04-.63q-.16.02-.4.78c-.07.27-.14.48-.15.47 0 0 0-.14.03-.29.03-.31.17-.79.2-.68q.01.06.04-.07.01-.15.04-.06t.03 0c0-.1.16-.26.23-.23q.1.04.09.27l-.01.13.09-.13q.25-.37.25.07 0 .16.03.05l.16-.22c.24-.27.3.03.1.46-.12.22-.37.6-.39.57l.18-.33q.28-.48.26-.68.01-.1-.11.04-.22.23-.44.86c-.1.3-.12.34-.1.2.01-.09.08-.35.16-.57.1-.3.12-.44.1-.5-.03-.08-.03-.08-.1 0l-.16.3-.16.36q-.06.14-.03.15t.03-.05.06.04c.05.1.04.15-.05.43-.05.17-.1.3-.12.28q-.02-.01-.06.09c-.02.06-.16.27-.32.47-.23.3-.32.46-.51.9l-.26.54a15 15 0 0 0 .43-1.18c.16-.5.18-.59.14-.66s-.04-.07-.1 0l-.2.4a3 3 0 0 0-.18.74c-.05.34-.09.48-.16.63l-.1.2.09-.35c.04-.2.1-.47.1-.6.04-.31 0-.75-.06-.74-.07.01-.14.38-.15.79-.04.93-.03 1.14.02 1.12.03-.02.34-.48.7-1.02m-.83-1.3.02-.26q0-.04.02 0c.03.03 0 .45-.04.47zm.18.13-.07-.55c-.1-.37-.03-.9.12-1.1.1-.12.22-.16.27-.08q.03.07-.04.02c-.13-.09-.28.19-.33.6-.02.2 0 .52.05.63.02.04.03.2.03.35.01.3-.01.39-.03.13m.22-.73.06-.3c.03-.13.08-.29.11-.35q.08-.13-.04.29c-.06.22-.12.4-.13.4zm1.08.31q.12-.35.08-.37c-.06-.05-.26.17-.43.47a1 1 0 0 0-.18.48l-.06.32q-.04.12.21-.22c.22-.28.27-.37.38-.68m-1.6.4c0-.08.01-.29.04-.45a1.6 1.6 0 0 0-.07-.83q-.05-.17-.1-.1c-.06.08-.11.66-.07.93.03.25.14.63.18.62zm-.14-.78v-.3l.03.29v.3a1 1 0 0 1-.03-.29m.23-.71c0-.18-.02-.2-.1-.15-.12.06-.11.17 0 .2q.11.05.1-.05m.48 3.9c-.08-.08.02-.3.37-.81l.76-1.16a16 16 0 0 1 1.36-1.93c.3-.26.78-.26 1.26 0 .5.27.9.63 1.06.95q.22.42-.3.74c-.1.07-.67.37-1.26.67l-2 1.06c-.79.44-1 .54-1.19.55zm.37-.16.66-.35c.41-.21.68-.4.65-.45q-.02-.01-.14.08a4 4 0 0 1-1.03.54q-.08.08-.12.08c-.03-.01.3-.3.67-.55.2-.13.36-.24.37-.23 0 .01-.17.15-.4.3-.21.16-.4.3-.38.31.03.08 1.44-.87 1.65-1.12l.12-.14-.06.13-.06.13.27-.15a3 3 0 0 1 .53-.22c.34-.09.64-.28.59-.37-.03-.05-.3.02-.58.14l-.28.13.23-.14c.13-.08.43-.3.66-.47.24-.19.54-.38.66-.42.2-.1.22-.1.17-.17l-.09-.09c-.04-.01-.57.24-.7.33a1 1 0 0 0-.2.23 1 1 0 0 1-.24.3 4 4 0 0 1-.9.53c0-.01.15-.12.35-.23s.43-.28.53-.37c.17-.16.25-.3.19-.33-.06-.02-.43.18-.68.37l-.29.2c-.07.03.1-.12.26-.24q.27-.21.06-.12-.1.04-.13.01T9.86 3q0 .06-.03.07c-.02 0-.17.1-.33.21-.35.24-.68.42-.59.33.04-.03.16-.12.27-.18.4-.24.76-.55.86-.77q.1-.27-.34.04a3 3 0 0 0-.78.78l-.17.22c-.02-.04.27-.49.4-.63.1-.09.29-.25.44-.35q.46-.33.12-.17a4.5 4.5 0 0 0-1.28 1.38q-.04.04.11-.07c.25-.19.39-.15.26.08-.05.08-.04.08.13-.01.24-.13.5-.21.55-.17q.03.03-.09.05c-.22.03-.6.27-.92.56-.17.15-.31.27-.32.25a2 2 0 0 0-.34.28c-.18.17-.32.3-.33.29-.02-.04.72-.73.74-.7s.23-.18.44-.46q.35-.43-.15-.05A9 9 0 0 0 7.4 5.2c0-.07.16-.3.39-.57.5-.56.88-1.16.92-1.43q.02-.15-.04-.08a.3.3 0 0 0-.07.16c-.01.13-.07.21-.12.16q-.02-.03-.02.02c.01.02-.1.2-.24.39-.3.42-.79 1.15-.9 1.37q-.16.3.22.09m2.84-1.85.08-.04q.1-.04 0 .02t-.08.02m-.04.4c1.08-.56 1.34-.72 1.5-.93.07-.1.08-.14.05-.25q-.06-.27-.16-.1c-.15.25-.23.32-.55.47q-.47.23-.01-.04c.23-.12.41-.28.44-.37l.03-.1-.14.07c-.19.09-.9.62-.86.64q.04 0 .07-.02c.06-.04.2.03.2.1q0 .06.27-.16c.25-.2.54-.35.62-.32l-.18.12-.47.3c-.4.3-.64.44-.84.47-.18.02-.68.25-1.07.49-.2.12-.24.17-.3.28q0 .02-.03-.03-.02-.08-.02.02-.01.07-.05.1l-.06.05q.02.03.24-.1zM8.9 3.2c.08-.11.2-.39.18-.4l-.12.1c-.14.1-.12.03.02-.1.13-.1.91-1.04.93-1.1q.01-.05-.05-.08c-.1-.04-.38.25-.75.82-.34.5-.38.58-.31.57q.04 0-.02.17-.1.31.12.02m.6-1.16q.3-.46.33-.39.01.03-.04.08l-.23.31-.22.28q-.02 0 .16-.28m-.23.76c.06-.06.24-.2.4-.31q.46-.31.62-.55c.12-.18-.14-.12-.46.12-.3.23-.8.81-.7.84zm.85.1.3-.11c.17-.08.32-.14.33-.13l.1-.05c.12-.1.4-.46.36-.45-.07.02-.04-.04.05-.09.1-.05.09-.06-.01-.13-.08-.06-.1-.05-.1.14q0 .14-.07.17l-.25.2c-.2.17-.58.4-.6.38q.02-.04.23-.19c.36-.25.59-.46.6-.57l.03-.1-.18.05-.17.04.17-.07q.18-.08.1-.08c-.1-.01-.39.14-.53.28l-.3.37c-.08.14-.18.28-.21.31q-.15.13.04.05.1-.05.1-.02zm-.02-.44q.06.05.12-.06c.09-.16.35-.4.49-.47a1 1 0 0 1 .3-.07h.15l-.14-.08q-.26-.12-.28.02-.01.05-.14.07c-.12.01-.19.06-.31.19l-.3.27c-.12.1-.14.18-.02.12q.07-.02.13.01m.22-.67q.09 0 .11-.08t.04-.01a.2.2 0 0 1-.02.13q-.04.06.16-.04l.21-.11-.12-.07a1 1 0 0 0-.6-.1c-.11.02-.13.04-.15.14l-.02.17q-.01.04-.11.14-.15.1.15-.04c.14-.08.3-.14.35-.13m-.36.02c.01-.05.3-.11.35-.07q.04.03-.02.01a.4.4 0 0 0-.2.04q-.13.05-.13.02m1.62.4-.11-.09c-.1-.07-.1-.07-.16.01l-.21.3q-.01.03.22-.08c.15-.07.27-.13.26-.14m-9.5 1.23c.04-.04.11-.15.17-.25q.15-.24.07-.04c-.05.17-.2.4-.25.38q-.03-.02.02-.09M12.9 6.97q.04-.08.1-.12.1-.03.04.01l-.1.12-.06.09zm.21-.3q-.04-.1.14-.25.13-.12.07-.01-.2.33-.2.26zM2.55 2.96c.02-.09.4-.48.48-.5.07-.01.03.03-.24.31q-.26.26-.24.19m10.7 3.14a1 1 0 0 1 .1-.28c.08-.14.1-.19.07-.29s-.01-.12.04-.15q.06-.03.03.06l-.01.15c0 .04-.04.2-.11.34q-.13.32-.12.17M3.2 2.34c.03-.08.11-.14.12-.09q0 .05-.06.1-.08.05-.06-.01M3.62 2q.02-.05.07-.07.1 0-.01.08-.09.07-.06 0m.34-.25q.17-.08.2-.05c.02.04-.29.16-.34.14q-.02-.01.14-.1m9.52 3.32v-.09q.03-.06.05 0v.09q-.03.03-.05 0m-.07-.48a.3.3 0 0 1 .02-.16q.04-.08-.03-.2c-.05-.1-.06-.16-.02-.27q.05-.15.08-.11c.01.01 0 .08-.01.13a.3.3 0 0 0 .03.22.3.3 0 0 1 .02.23.3.3 0 0 0 0 .2q.06.11-.02.07-.05-.03-.07-.1zM4.47 1.4c.14-.07.58-.19.6-.15q-.01.02-.25.09l-.33.11q-.06.04-.1.03-.03-.01.08-.07m.7-.34c.1-.05.58-.1.53-.05l-.33.06q-.3.03-.2-.01m.68-.2q.01-.03.11-.07l.1-.04-.1.07-.11.07q-.02.01 0-.02m7.3 2.39q-.12-.14-.12-.26t-.08-.19q-.08-.06-.09-.14t-.1-.2-.08-.17-.03-.17-.02-.1c.07.03.15.17.15.26q0 .1.06.15c.03.02.08.1.1.15l.13.2q.11.09.07.18t.04.18l.13.18c.1.13-.02.08-.16-.07M6.1.8c.02-.07.18-.15.24-.13q.06.02.18-.04a1 1 0 0 1 .53-.1c.28.02.19.07-.1.07a1 1 0 0 0-.39.07q-.12.06-.2.05Q6.31.7 6.2.78q-.09.05-.1.03M7.46.5q0-.02.1-.04h.07q0 .03-.09.04zm.5-.1L8 .37V.4q0 .03-.04.02t0-.04m.17.03q.01-.03.16-.04h.19q.03 0 0 .03-.04.03-.19.04c-.19 0-.18 0-.16-.03m4.18 1.34c-.12-.1-.17-.18-.06-.1.1.07.25.22.2.2zM8.61.41l.18-.07q.14-.03.17.04.04.06.15.06c.16 0 .75.07.77.1.01.02-.51.01-.59-.01L9.11.5q-.14.01-.2-.06Q8.85.36 8.78.4q-.21.07-.16 0zm3.22.97c-.18-.13-.1-.14.12-.02.11.07.21.13.22.15.02.04-.21-.05-.34-.13m-.42-.2q-.03-.07-.08-.09l-.06-.06c-.01-.06.13 0 .17.08a.2.2 0 0 0 .1.1q.05.01.02.04-.09.05-.15-.07M10 .6q-.08-.06.12 0l.2.06c.04.06-.24.02-.32-.06m.5.11q.03-.03.15 0c.15.04.12.1-.04.06q-.11-.02-.1-.06m.33.11q-.03-.06.01-.06.04.02.04.07t.06.02q.17-.05.07.03-.06.03-.1.02t-.08-.08M9.56 13.6l.15-.1c.01-.04-.3.06-.41.13-.14.08.12.05.26-.03m-2.9-.92.2-.02-.1-.11c-.1-.1-.11-.11-.28-.08l-.18.05q0 .03.08.1l.09.07zm2.45.83q.16-.11-.02-.06-.1.02-.12.06c-.02.05.07.05.14 0m-1.66-.6.18-.03-.07-.08-.16-.1c-.08-.03-.33-.02-.34.02 0 .02.17.18.2.2zm1.28.44q.1-.1-.07-.05-.15.05-.04.1.05 0 .11-.05m.33.06c.21-.06.27-.1.5-.43.07-.09-.6.25-.69.35-.13.15-.1.16.2.08zm.46.07.28-.13-.15-.04c-.14-.03-.16-.03-.31.12q-.15.13-.13.16zm-1.1-.33q.15-.14-.1-.04-.19.06-.07.08.08.02.17-.04m1.68.27H10l-.1-.01c0-.03-.24.18-.26.23q.02.02.23-.08zm-2.8-.83-.1-.12c-.12-.1-.12-.1-.28-.07l-.18.05q0 .02.1.11c.09.09.1.1.27.08q.16-.02.19-.05m3.1.89.15-.08-.14.02c-.13.01-.4.18-.42.25q0 .02.12-.03zm-.08-.25c.12-.13.12-.13.03-.16q-.07-.03-.22.12l-.15.16h.12a.4.4 0 0 0 .22-.12m-.38-.09.12-.14-.1.04-.2.11-.1.08.08.03c.08.02.11 0 .2-.12m.6.19c.13-.03.33-.18.32-.25 0-.09-.28.01-.4.13-.13.15-.12.16.08.12" style="fill:#000;stroke-width:.563897"/></svg>