<svg xmlns="http://www.w3.org/2000/svg" xml:space="preserve" id="svg39" width="33.32" height="46.02" viewBox="0 0 8.82 12.17"><path id="path15-5" d="M4.77 12.13a4.3 4.3 0 0 0 2.29-.83c.25-.2.36-.35.86-1.11.76-1.18.76-1.2.85-2.13.1-1.1.1-1.12-.7-3.14a4 4 0 0 1-.27-.98 6 6 0 0 0-.7-2.4c-.28-.46-.5-.7-.94-1A2.5 2.5 0 0 0 4.9.04a2 2 0 0 0-.91.03C3.23.22 2.96.3 2.64.55A4 4 0 0 0 1.4 2.16c-.1.25-.15.44-.26 1.26-.07.53-.16 1.06-.2 1.18-.03.11-.2.51-.37.89a4.5 4.5 0 0 0-.28 3.74A7 7 0 0 0 2.3 11.5a3 3 0 0 0 2.47.63m-1.78-.43c-.3-.14-.63-.39-1.08-.81-.16-.16-.38-.35-.47-.43A5 5 0 0 1 .6 9.44a4.4 4.4 0 0 1-.38-2.25l.06-.58.31-.68a5 5 0 0 0 .7-2.38c.1-.83.11-.92.25-1.23.26-.61.77-1.3 1.2-1.6.3-.22.62-.35 1.24-.46.4-.08.49-.08.92-.02.4.06.53.1.76.22q1.55.81 1.83 2.85c.15 1.04.22 1.31.61 2.24.42 1 .48 1.26.51 2.13.01.36-.09 1.06-.15 1.01q-.03 0-.05.14c-.02.2-.15.46-.2.43q-.05 0-.04.05c.02.07-.7 1.21-1 1.56-.48.58-1.27.91-2.56 1.07-.5.07-1.2-.04-1.62-.24m.54-.27a2 2 0 0 0-.2-.35c-.05 0 .11.34.24.53q.14.2-.04-.18m-.15.26c0-.03-.23-.55-.33-.73l.09.25c.11.32.23.55.24.48m.69-.07q-.05-.21-.14-.24-.1.02.06.23l.1.12zm-.2.03q0-.05-.08-.16c-.1-.15-.1-.06 0 .1q.06.1.08.06m-.83-.1-.08-.2-.15-.4q-.12-.39-.05 0c.07.27.27.7.28.6m1.47.06c.12-.1.3-.33.26-.33a2.04 1.96 44.4 0 0-.22.21q-.33.35-.04.12m.37-.08q.16-.16.15-.2s-.09.06-.18.16q-.3.36.03.04m-.51-.05c.16-.18.31-.39.28-.4a.71.69 44.4 0 0-.13.15 2.04 1.96 44.4 0 1-.21.24l-.1.09-.05-.11q-.05-.15-.05-.01a.2.2 44.4 0 0 .05.15c.04.05.08.03.2-.11m-1.68-.08-.12-.31q-.15-.4-.21-.9-.02-.11-.04-.11a3 3 0 0 0 .36 1.35q.02 0 .01-.03m2.5.1c.18-.2.37-.5.38-.6q0-.03-.12.17c-.07.13-.2.3-.29.4q-.14.14-.14.17c.01.02.1-.05.18-.15m-1.48-.17q0-.05-.06-.08-.09-.05-.02.04.08.13.08.04m-1.39-.22a.61.59 44.4 0 0-.05-.14q-.06-.1-.03-.16.03-.04-.02-.12a.4.4 44.4 0 1-.07-.2q0-.15-.03.01c-.04.28-.13.05-.18-.43l-.02-.2-.02.2c-.02.2-.03.2-.1.16s-.09-.11-.07-.33l.01-.27-.03.23a1 1 0 0 1-.1.28q-.04.05.02.1.05.04.09.2l.03.15v-.14q0-.13.03-.14c.05 0 .2.24.2.31l.04.14q.08.15.04 0-.02-.24.13.13.13.3.13.22m1.53.15q-.01-.04-.1-.1-.17-.12-.05.02.13.16.15.08m.26-.03q-.02-.05-.11-.08c-.12-.04-.1.05.03.1q.09.03.08-.02m1.46.12.18-.28q.12-.2.17-.17c.08.04.31-.1.32-.18q0-.07-.1.03-.17.18-.17.02c.01-.13-.15.05-.32.36q-.26.47-.08.22m.75-.01c.25-.21.4-.45.17-.27q-.23.16-.17 0c.05-.12-.01-.11-.07 0-.06.13-.24.2-.23.1q0-.06-.11.04-.2.2-.02.1.08-.05.07.03c0 .06.03.05.18-.04q.3-.17.1.05-.15.18.08-.01m-1.19-.13q.06-.08.04-.11t-.08.06q-.05.08-.04.11.03.02.08-.06m-1.8-.29-.14-.08-.1-.05.1.08c.1.1.2.13.14.05m.4-.09q-.01-.03-.07-.03-.05 0-.17-.07l-.13-.08.07.1c.07.1.34.17.3.08m3 .34q.18-.15.34-.64c.12-.34.2-.73.14-.66a1 1 0 0 0-.1.32c-.06.33-.2.65-.33.73q-.08.07-.06.11 0 .06-.06.13c-.11.1-.06.1.06 0m-3.4-.42q-.01-.04-.11-.13l-.11-.1.1.13c.1.14.11.16.12.1m-1.81-.4q0-.07-.04-.08-.03 0-.02.06t.03.07zm.61-.07q0-.09-.01-.06l-.01.11q.01.04.02-.05m-.64-.18a.82.78 44.4 0 0-.02-.24q-.03-.1-.03.12c0 .25.04.34.05.12m-.22-.3v-.42a3 3 0 0 0-.03.67q0 .09.03-.26m5.23.98c.13-.05.27-.26.23-.34s-.1-.02-.09.07q.02.1-.15.17c-.24.11-.23.2.01.1m.8-.22c.09-.19.25-.95.23-1.02q0-.04-.03.06a7.15 6.86 44.4 0 1-.15.6q-.2.7-.04.36m-.46.04c.02-.01.04-.1.04-.18l.01-.15-.05.13c-.06.15-.06.25 0 .2m-2.97-.4q-.01-.05-.13-.14-.15-.11-.08-.02c.07.1.2.2.2.15m-2.8-.45.01-.34q.02-.23-.04-.23c-.07-.01-.15-.3-.1-.4q.03-.05-.02-.03-.04.02-.05.08 0 .06-.05.03v-.24q.03-.28-.03-.13a.51.49 44.4 0 0-.04.23c0 .13.14.4.25.5.08.07.08.3 0 .26L.9 9.33l-.17-.24q-.11-.13-.12-.24.01-.09-.04-.04-.14.07.2.48c.12.15.25.33.27.4q.06.18.04.03m3.92.5c.08-.08.08-.09.02-.17q-.09-.13-.07.03 0 .1-.06.1t-.04-.1-.04-.03q-.07.04-.03.12.08.18.22.04zm-1.25-.38q.06-.01.08-.05-.02-.09-.14 0l-.04.06zm2.5.24q.21-.05 0-.06-.12.03-.1-.08a.61.59 44.4 0 1 .08-.2q.08-.11.07-.04t.03.09q.04-.02.04-.17c.01-.21.08-.23.09-.03q0 .15.02-.05c.01-.17.03-.2.15-.25l.22-.08c.11-.02.1-.1-.02-.08q-.74.13-.78.82 0 .17.2.13M2.43 9.4c.04-.03 0-.26-.13-.55-.12-.3-.27-.45-.56-.53-.21-.06-.25-.01-.04.06q.15.04.27.22l.21.3c.05.08.12.22.16.33q.06.17.1.17m-.4-.11c0-.04-.2-.18-.23-.16q-.02.03.1.1.12.09.14.06m5.7.4c.04-.2.07-.38.06-.39l-.1.34c-.05.2-.08.38-.07.4zm-3.3-.3q.07-.06.08-.1 0-.03-.1.05c-.11.1-.17.07-.07-.04q.09-.09-.04 0c-.12.08-.19.04-.1-.05q.06-.05.05-.09-.03-.02-.08.06c-.12.17.1.32.26.18zM2.1 9q0-.04-.06-.03-.07.02-.07-.06.01-.06.05-.03c.08.06 0-.13-.1-.24q-.11-.12-.07-.02.02.08.06.09.02 0 .05.08t-.04.01q-.05-.07-.09.01-.02.08.01.12.06.06.03-.02-.01-.08.02-.05.04.04.03.11 0 .08.08.09T2.1 9m5.81.6c.03-.1.06-.28.07-.41.01-.22.01-.22-.06.1-.07.37-.08.57 0 .3m-3.44-.5q-.01-.04-.1-.04-.07 0-.1.02-.01.02.1.04.11.01.1-.02M.7 8.32q.02-.21 0-.2-.04.05-.07.05-.05-.01 0-.23l.05-.22-.08.16a1.63 1.57 44.4 0 0-.1.43q-.03.3.02.11.04-.13.1-.15.07-.03.01.14-.04.15 0 .16.06 0 .08-.25m5.08.88q0-.04-.06-.14-.07-.13-.01.03.06.2.07.11m.13-.03A.61.59 44.4 0 0 5.84 9q-.13-.24-.02.06.08.2.1.11m2.3-.13q0-.18-.01-.1a.61.59 44.4 0 0-.02.19q0 .07.03-.1m-5.1-.63q.05-.05.05-.1-.01-.03-.07.06-.1.17.02.05m-.15-.03q.09-.08-.08-.07-.13 0-.06.05.08.08.14.02m4.56.32c0-.16-.03-.36-.06-.43q-.04-.12-.03-.07a7.15 6.86 44.4 0 1 .03.43q.05.67.05.07m-1.13.04q0-.06-.04-.1-.07-.05 0 .1.03.1.04 0m-5.9-.9c.18-.35.24-.48.3-.54l.07-.12c.01-.1-.27.28-.36.49-.1.22-.11.36-.02.17zm7.4.9q0-.07-.02-.02t-.01.08.03-.05zm-.56-.09c.01-.11-.04-.46-.07-.44l.02.28q.03.24.05.16m-.19-.15c-.01-.16-.1-.43-.11-.35 0 .02.02.15.06.27q.07.28.05.08m-.63 0-.04-.08q-.03-.02-.02.04.04.13.06.04m.42-.03a.51.49 44.4 0 0-.08-.19q-.08-.1 0 .09.12.3.08.1m-.23-.04q-.01-.08-.04-.11-.03-.01-.02.06.01.08.04.12.03.01.02-.07m-5.54-.78q0-.11-.02-.05a.26.24 44.4 0 0 0 .13zM1 7.6q-.03-.3-.05-.05 0 .12.03.17.03.02.02-.12m7.1 1a.71.69 44.4 0 0 .12-.23c.08-.22.09-.28.04-.29-.03 0-.25.54-.22.57zm-7.29-1L.8 7.54l-.05.06q-.02.05.01.07.05 0 .05-.06m6.87.8q.01-.14-.01-.07a.51.49 44.4 0 0-.02.17q.01.06.03-.1M.56 7.33a2.04 1.96 44.4 0 1 .34-.39q.16-.13.14-.15a1 1 0 0 0-.23.17c-.16.13-.25.26-.46.58q0 .03.02.04c.02 0 .1-.11.2-.25m7.82.83q-.04-.54-.04-.08a1 1 0 0 0 .03.3q.02.02.01-.22m-.7 0q0-.08-.02-.03t0 .08.02-.05m.36 0q0-.08-.03-.13-.08-.05-.02.13.03.15.05 0m-2.97-.38q.21-.06-.04-.04a4.08 3.92 44.4 0 1-.26.02q-.12 0 .04.02a.82.78 44.4 0 0 .26 0M.6 6.95c.08-.1.25-.27.38-.38q.21-.18.2-.2c-.07-.02-.57.45-.68.61q-.16.28.1-.03m7.93 1.08a.51.49 44.4 0 0-.02-.16q-.03-.08-.04-.02a.51.49 44.4 0 0 .02.15q.03.09.04.03M5.1 7.36c.09-.1.15-.2.15-.2-.02-.03-.18.14-.28.28q-.14.22.13-.08m.55.2a.26.24 44.4 0 0-.13-.01q-.04 0 .07.03.12 0 .06-.02m-.76-.15a1 1 0 0 0 .2-.27c0-.05-.13.08-.23.22q-.13.2.03.05m-.78-.11c-.1-.11-.28-.16-.33-.1q-.02.04.1.06a.61.59 44.4 0 1 .23.08q.13.1 0-.04m4.03.55a1.3 1.3 0 0 0-.23-.58q-.1-.14-.06-.07l.17.4c.06.17.12.28.12.25M5.3 7.39q.1-.1.05-.1c-.08.01-.22.14-.19.17q.02.01.14-.07m-.53-.04c.14-.13.16-.19.02-.09q-.12.1-.1.13t.08-.04m3.17.43c0-.04-.14-.33-.16-.34q-.03.02.05.19.1.26.11.15m-3.27-.5q.17-.2.02-.1-.1.08-.09.11.04.02.07-.02M.7 6.53c.1-.1.25-.26.36-.35s.17-.16.15-.16c-.1-.01-.73.62-.69.67.01.02.1-.06.18-.16m3.92.58q.1-.08-.02-.02-.11.08-.06.09zm-2.7-.34c.09-.04.14-.24.06-.25q-.03 0-.05.08a.1.1 44.4 0 1-.1.1q-.08.02-.06.06.02.07.16.01m6.3.7a1 1 0 0 0-.17-.4c-.02-.03 0 .07.05.2q.17.44.11.2m.14.02c.02-.1-.2-.57-.36-.8-.14-.2-.14-.19.05.16a4.6 4.4 44.4 0 1 .25.54q.05.13.06.1m.06-.32-.06-.15q-.03-.03 0 .1c.04.17.09.2.06.05M.79 6.13c0-.02.12-.14.26-.25s.25-.2.23-.2-.13.07-.25.17c-.3.24-.36.31-.3.32zm7.17.75-.08-.12c-.03 0 .05.17.1.21q.04.02-.02-.09m-1.22-.16q0-.1-.03-.1-.05 0-.04.09 0 .1.04.1.02 0 .03-.1m-.17.01a.61.59 44.4 0 1-.01-.17q.01-.1-.04-.05c-.07.06-.06.24.01.27q.07.03.04-.05m.35 0q.04-.09-.03-.03-.04.04-.03.07.01.02.06-.04m1.41.18c0-.05-.27-.48-.42-.65q-.16-.2.02.07c.1.13.2.31.27.42q.14.28.13.16m-1.42-.32-.04-.1c-.06-.07-.25-.1-.25-.04v.05l.15.06q.13.04.14.03M1.15 5.54q.24-.2.08-.1c-.17.08-.33.22-.3.25q.02.02.22-.15m7.21 1.07a2 2 0 0 0-.44-.69l-.2-.21.21.29c.12.16.25.37.3.47.1.18.13.2.13.14M3 5.42q.4-.31-.05-.07c-.2.12-.24.13-.4.09a1.53 1.47 44.4 0 1-.24-.09q-.06-.03-.07 0c0 .06.28.19.43.21q.13.01.33-.14m5.2.6a2 2 0 0 0-.48-.6q-.03.02.11.17l.29.36q.14.18.09.06m-5.3-.8q.07-.05.06-.08t-.11.05q-.15.13.04.03zm-.2-.01a.4.4 44.4 0 0 .14-.12q.08-.11-.09.02-.28.2-.05.1m-1.3-.28q.1-.12-.03-.02-.07.06-.06.09.02.01.08-.07m1.24.14c.13-.1.07-.14-.06-.03q-.11.09-.07.1.04 0 .13-.07M2.51 5c.06-.07 0-.1-.06-.03q-.06.06-.02.07zm-1.2-.28c.16-.16.48-.65.49-.74 0-.03-.1.1-.23.3a4.08 3.92 44.4 0 1-.3.41q-.13.15-.12.17a.82.78 44.4 0 0 .17-.14m.44.02c.1-.17.2-.38.16-.34s-.3.48-.28.48a.61.59 44.4 0 0 .12-.15M1.6 4.7a.71.69 44.4 0 0 .1-.16q0-.1-.14.12-.18.3.04.04m3.1.26q.1-.07.07-.17c-.04-.14-.17-.18-.31-.08l-.12.07.15-.05c.21-.07.28.02.16.18q-.15.2.05.05m3.15.34q-.12-.15-.14-.14 0 .02.12.16l.15.15zM1.8 4.36q.04-.1.03-.13-.02-.04-.1.18c-.05.1.01.06.07-.05m-.4-.04c.06-.07.33-.5.28-.45-.07.05-.38.5-.36.5zm5.43.72q.07-.02 0-.06-.06-.03-.1 0c-.03.05.03.1.1.06m-.34-.38q.12-.05.13-.1.02-.08-.18 0-.25.13-.53-.15-.18-.18-.3-.2h-.12l.12.05c.06.02.19.13.27.23q.27.3.61.17M1.54 3.8c.06-.12.16-.25.22-.3l.1-.09-.1.05c-.12.05-.37.4-.36.48q.03.04.13-.14m6.05.77a.61.59 44.4 0 0-.05-.2l-.52-1.03a2 2 0 0 0 .21.51c.07.12.17.34.24.5s.11.25.12.22m-5.8-.84q.04-.08-.03-.02-.05.04-.03.07 0 .02.06-.05m5.59.75c0-.1-.42-1.04-.46-1l.15.33c.09.18.16.35.16.37a.61.59 44.4 0 0 .07.19q.07.13.08.1M6.26 4.2c-.12-.12-.05-.12.08 0q.08.07.1.03c0-.06-.24-.18-.34-.16q-.14 0 .06.12.3.2.1.01m.84 0c0-.05-.28-.62-.32-.63-.03 0-.02.01.17.4q.13.24.15.23m-5.31-.98q.37-.36.04-.11c-.13.1-.33.3-.3.31q.05-.02.26-.2m.5.2q0-.06-.11-.05c-.13 0-.12.08.01.1q.08 0 .1-.05m4.49.42-.15-.26q-.04-.04.03.13c.12.26.22.38.12.13m-.21-.07q0-.04-.09-.13l-.08-.1.06.13q.1.2.1.1m-4.75-.86q.2-.18.19-.21-.04 0-.1.04c-.1.09-.04-.07.08-.18.13-.13.14-.2.01-.13q-.07.05-.07.02a.71.69 44.4 0 1 .15-.22 1.02.98 44.4 0 0 .1-.1q.1-.1-.05.01-.12.07-.18.06-.04-.03.15-.18.2-.15.17-.16c-.07-.01-.49.34-.5.41q0 .07-.04.1-.03.04-.05.15a1.33 1.27 44.4 0 1-.06.24l-.05.12.1-.07q.2-.12-.01.17l-.1.14a3.06 2.94 44.4 0 0 .26-.2m-.06-.3q.15-.18.02-.13-.13.02 0-.1.08-.05.05-.11t.04 0c.06.06.06.1 0 .23-.07.19-.09.21-.14.2q-.04 0 .03-.1M6.31 3.7q0-.05-.07-.12-.09-.1-.01.03l.06.11q.01.02.02-.02m1.05 0q0-.04-.03-.07l-.04-.08q.01-.04.05 0c.07.05-.12-.42-.22-.52q-.08-.1.05.15l.13.3q-.01.04-.07-.06c-.09-.16-.22-.34-.18-.25.07.16.28.57.3.57zM3.2 2.95q.2-.07.12-.22t-.26.01c-.09.08-.1.1-.06.17.06.08.07.09.2.04m-.1-.19q.1-.07.16-.04c.1.05.05.14-.06.13q-.1 0-.13.02H3q0-.04.08-.1m1.88.31q.03-.08 0-.11-.04-.02-.05.08-.02.2.05.03m.34 0a.51.49 44.4 0 0-.04-.22c-.06-.15-.32-.42-.37-.38-.02 0 .02.07.08.12q.1.1.07.15t.02.02c.05-.02.15.11.2.27q.03.12.04.03m-.19-.13q.02-.05-.01-.1-.05-.03-.02.02.01.05-.02.05-.05 0-.05-.04 0-.05-.06-.08-.09-.04.02.08c.1.15.1.15.14.07m2.18.12-.13-.23q-.13-.18-.14-.15l.13.23q.12.17.14.15m-3.9-.74q.21-.02.1-.14c-.1-.13-.43-.1-.44.03q.01.04.08-.02c.1-.06.28-.06.27.01q-.01.04-.08.06a2.04 1.96 44.4 0 0-.17.04l-.09.02.09.02zm3.85.38a1.02.98 44.4 0 0-.15-.21q-.15-.2.02.08.2.32.13.13M2.2 1.73q.17-.1.23-.1l.14-.05q.14-.07-.03-.02-.31.06-.47.19-.19.16.13-.02m4.92.49c-.07-.13-.28-.36-.28-.33l.18.24q.16.2.1.09m-1-.17q.15-.1.07-.26-.04-.08-.05.07-.02.14-.1.17T6 2.1q.03.02.12-.05m-3.6-.63q.5-.19.05-.08a1.33 1.27 44.4 0 0-.32.11q-.14.12.26-.03m3.38.41q0-.06.03-.1.06 0 .01-.1c-.04-.12-.12-.13-.1-.03q.03.1-.04-.01-.06-.13-.07-.03c0 .04.04.14.1.21q.08.12.07.06M2.94.93q.2-.07.12-.06c-.13.01-.36.09-.37.12 0 .02 0 .03.25-.06m3.63.52q0-.06-.05-.16-.08-.15-.03 0a3.06 2.94 44.4 0 1 .05.16q.01.09.03 0m-.2-.18-.06-.13q-.05-.09-.05-.06l.05.14q.04.08.06.05m-.22-.16C6.1.97 5.95.77 5.91.8l.14.23q.19.26.1.08M4.5.87c.1-.03.21-.09.25-.12q.11-.11-.1-.04-.15.07 0-.04Q4.82.5 4.5.7q-.25.16-.01-.08.05-.06-.13.07c-.1.08-.2.13-.22.1Q4.1.77 4.2.72t.1-.1-.12.05c-.16.12-.24.12-.12 0l.1-.08-.11.07q-.11.08-.31.03l-.2-.04.24.13c.32.15.47.17.7.1m1.33.06Q5.72.8 5.69.81q-.02.03.1.14l.13.12z" style="fill:#000;stroke-width:.426606"/></svg>