<svg xmlns="http://www.w3.org/2000/svg" xml:space="preserve" style="fill-rule:evenodd;clip-rule:evenodd;stroke-linejoin:round;stroke-miterlimit:2" viewBox="0 0 1077 1510"><path d="M1069.575 53.475v15.988h-15.988V53.475zm0 23.15v1356.629h-23.15v23.15h-23.154v23.154h-23.154v23.154H76.625v-23.154H53.471v-23.154H30.317v-23.15H7.167V76.625h23.15v-23.15h23.154V30.321h23.154V7.171h923.492v23.15h23.154v23.154h23.154v23.15zm0 1379.779h-15.988v-15.987h15.988zm0 30.321v15.987h-15.988v-15.987zm-23.15-7.167h-15.988v-15.987h15.988zm-23.154 23.154h-15.988v-15.987h15.988zm-953.813 0H53.47v-15.987h15.988zm-23.154-23.154H30.316v-15.987h15.988zm-23.15-23.154H7.167v-15.987h15.987zM7.167 53.475h15.987v15.988H7.167zm0-30.321V7.171h15.987v15.983zm23.15 7.167h15.988v15.988H30.317zm23.154-23.15h15.988v15.983H53.471zm953.813 0h15.988v15.983h-15.988zm23.154 23.15h15.988v15.988h-15.988zM23.155 1502.713H7.168v-15.987h15.987zM1053.588 7.171h15.988v15.983h-15.988zm23.154 23.15V0h-30.317v23.154h-15.988V0H46.304v23.154H30.316V0H-.001v30.321h23.154v15.988H-.001v1417.263h23.154v15.987H-.001v30.321h30.317v-23.154h15.988v23.154h984.133v-23.154h15.988v23.154h30.317v-30.321h-23.154v-15.987h23.154V46.309h-23.154V30.321z" style="fill:#fcb418;fill-rule:nonzero"/></svg>