<?xml version="1.0" encoding="UTF-8" standalone="no"?><!DOCTYPE svg PUBLIC "-//W3C//DTD SVG 1.1//EN" "http://www.w3.org/Graphics/SVG/1.1/DTD/svg11.dtd"><svg width="100%" height="100%" viewBox="0 0 3937 1179" version="1.1" xmlns="http://www.w3.org/2000/svg" xmlns:xlink="http://www.w3.org/1999/xlink" xml:space="preserve" xmlns:serif="http://www.serif.com/" style="fill-rule:evenodd;clip-rule:evenodd;stroke-linejoin:round;stroke-miterlimit:2;"><path d="M1958.823,358.092c8.854,-127.117 -84.038,-239.742 -211.867,-254.075c-30.683,-3.438 -60.638,-0.846 -88.746,6.729c-37.237,-38.292 -87.458,-64.408 -144.679,-70.825c-80.762,-9.054 -156.583,23.275 -206.425,80.042c-92.033,-2.004 -172.029,66.525 -182.483,159.775c-1.629,14.529 -1.433,28.837 0.321,42.729c-60.058,11.812 -108.2,61.321 -115.379,125.383c-5.175,46.171 12.088,89.658 43.071,119.654c-2.354,8.838 -4.096,17.954 -5.146,27.317c-11.425,101.908 61.929,193.783 163.842,205.208c10.758,1.208 21.396,1.412 31.85,0.796c24.538,41.717 67.725,71.771 119.521,77.579c63.204,7.087 121.888,-23.883 153.225,-74.629c37.233,38.271 87.442,64.375 144.646,70.788c111.225,12.471 213.138,-53.492 250.6,-153.787c58.621,-37.538 100.458,-100.204 108.817,-174.775c7.996,-71.317 -16.3,-138.775 -61.167,-187.908Z" style="fill:#b61f24;fill-rule:nonzero;"/><path d="M1260.535,486.713c11.746,-168.637 -111.492,-318.054 -281.075,-337.067c-40.708,-4.562 -80.442,-1.121 -117.737,8.925c-49.4,-50.796 -116.025,-85.45 -191.933,-93.958c-107.138,-12.012 -207.733,30.879 -273.854,106.183c-122.096,-2.658 -228.221,88.254 -242.088,211.966c-2.162,19.275 -1.904,38.258 0.425,56.688c-79.679,15.671 -143.542,81.354 -153.067,166.337c-6.867,61.25 16.038,118.95 57.138,158.742c-3.121,11.725 -5.429,23.817 -6.825,36.238c-15.154,135.196 82.158,257.083 217.358,272.237c14.275,1.604 28.388,1.875 42.254,1.058c32.554,55.342 89.846,95.217 158.567,102.921c83.85,9.4 161.696,-31.688 203.271,-99.013c49.392,50.775 116,85.408 191.892,93.917c147.554,16.542 282.762,-70.967 332.458,-204.021c77.775,-49.804 133.271,-132.938 144.362,-231.867c10.604,-94.613 -21.625,-184.108 -81.146,-249.288Z" style="fill:#d52727;fill-rule:nonzero;"/><path d="M1176.31,534.313c58.417,22.375 96.925,87.908 88.046,149.829c-8.887,61.917 -64.262,113.983 -126.608,119.038c4.521,14.987 -0.008,31.808 -12.321,41.483c-12.308,9.671 -30.608,10.904 -44.104,2.967c1.363,22.767 -27.042,32.15 -47.333,21.737c-1.183,13.658 -7.871,24.525 -20.346,30.204c-12.475,5.683 -27.954,4.117 -39.037,-3.95c-21.021,47.746 -61.188,81.404 -112.979,87.688c-51.788,6.279 -106.15,-16.508 -137.979,-57.842c-5.079,28.817 -48.842,42.733 -73.838,27.517c-4.562,16.496 -12.929,31.846 -29.846,34.458c-16.917,2.617 -35.017,-5.475 -44.346,-19.825c-19.538,35.938 -54.7,68.675 -95.525,71.208c-40.825,2.533 -81.387,-12.275 -115.221,-35.267c-33.829,-22.992 -61.604,-53.796 -86.908,-85.933c-60.962,-77.429 -94.525,-159.875 -71.567,-255.712c22.958,-95.838 92.208,-179.454 182.083,-219.875c89.867,-40.417 193.167,-37.808 290.571,-22.896c97.396,14.917 193.325,41.358 291.742,46.254c40.479,2.012 81.425,0.392 121.133,8.512c39.708,8.121 63.187,25.863 84.383,60.404Z" style="fill:#eb3427;fill-rule:nonzero;"/><path d="M934.41,1076.55c-13.687,-12.021 -31.004,-17.238 -47.837,-15.95c0.9,16.862 8.308,33.358 21.996,45.379c13.692,12.017 31.008,17.238 47.842,15.946c-0.9,-16.858 -8.313,-33.354 -22,-45.375Z" style="fill:#b61f24;fill-rule:nonzero;"/><path d="M1204.41,831.188c-16.158,8.417 -27.283,22.675 -32.171,38.833c16.042,5.263 34.104,4.317 50.263,-4.1c16.154,-8.412 27.283,-22.671 32.167,-38.829c-16.042,-5.263 -34.104,-4.317 -50.258,4.096Z" style="fill:#b61f24;fill-rule:nonzero;"/><path d="M981.652,771.438c-17.758,-4.058 -35.471,-0.412 -49.667,8.729c8.808,14.404 23.179,25.388 40.933,29.45c17.758,4.063 35.475,0.412 49.667,-8.729c-8.808,-14.4 -23.175,-25.388 -40.933,-29.45Z" style="fill:#b61f24;fill-rule:nonzero;"/><path d="M882.548,868.638c-4.312,-17.7 -15.504,-31.908 -30.033,-40.509c-8.933,14.325 -12.329,32.088 -8.013,49.788c4.317,17.696 15.504,31.904 30.033,40.504c8.938,-14.321 12.329,-32.088 8.013,-49.783Z" style="fill:#b61f24;fill-rule:nonzero;"/><path d="M1149.756,648.583c-18.208,0.538 -34.437,8.529 -45.871,20.95c12.15,11.721 28.825,18.733 47.033,18.192c18.208,-0.538 34.433,-8.529 45.867,-20.95c-12.15,-11.721 -28.821,-18.733 -47.029,-18.192Z" style="fill:#b61f24;fill-rule:nonzero;"/><path d="M728.115,1035.029c13.946,-11.717 21.717,-28.05 22.979,-44.883c-16.8,-1.658 -34.225,3.183 -48.167,14.9c-13.95,11.717 -21.721,28.05 -22.983,44.883c16.8,1.658 34.221,-3.179 48.171,-14.9Z" style="fill:#b61f24;fill-rule:nonzero;"/><path d="M846.281,1044.963c-3.158,-17.942 -13.404,-32.842 -27.342,-42.367c-9.85,13.713 -14.387,31.221 -11.225,49.158c3.158,17.942 13.404,32.846 27.346,42.371c9.846,-13.717 14.383,-31.221 11.221,-49.163Z" style="fill:#b61f24;fill-rule:nonzero;"/><path d="M1076.019,928.309c-18.213,0.104 -34.625,7.708 -46.354,19.85c11.871,12.004 28.371,19.417 46.583,19.308c18.217,-0.104 34.629,-7.708 46.354,-19.854c-11.867,-12.004 -28.367,-19.412 -46.583,-19.304Z" style="fill:#b61f24;fill-rule:nonzero;"/><path d="M983.948,1000.517c-18.158,-1.442 -35.158,4.733 -47.875,15.837c10.804,12.975 26.613,21.758 44.771,23.204c18.158,1.442 35.154,-4.734 47.875,-15.838c-10.804,-12.971 -26.613,-21.758 -44.771,-23.204Z" style="fill:#b61f24;fill-rule:nonzero;"/><path d="M1977.452,319.679c-8.854,-127.117 84.038,-239.742 211.867,-254.075c30.683,-3.438 60.633,-0.842 88.746,6.729c37.238,-38.292 87.458,-64.408 144.679,-70.825c80.758,-9.054 156.583,23.279 206.425,80.037c92.033,-2.004 172.025,66.529 182.479,159.779c1.629,14.529 1.438,28.837 -0.321,42.729c60.063,11.813 108.2,61.321 115.379,125.384c5.179,46.171 -12.088,89.658 -43.067,119.658c2.346,8.834 4.092,17.95 5.142,27.313c11.425,101.908 -61.929,193.783 -163.838,205.208c-10.758,1.208 -21.396,1.412 -31.85,0.796c-24.537,41.717 -67.725,71.775 -119.525,77.579c-63.204,7.087 -121.883,-23.883 -153.221,-74.629c-37.233,38.271 -87.442,64.379 -144.646,70.792c-111.225,12.467 -213.142,-53.496 -250.6,-153.792c-58.625,-37.538 -100.458,-100.2 -108.817,-174.771c-7.996,-71.321 16.3,-138.779 61.167,-187.912Z" style="fill:#b61f24;fill-rule:nonzero;"/><path d="M2675.74,448.3c-11.746,-168.637 111.492,-318.054 281.075,-337.067c40.704,-4.562 80.442,-1.121 117.733,8.925c49.4,-50.796 116.025,-85.446 191.938,-93.958c107.142,-12.012 207.733,30.879 273.854,106.183c122.096,-2.658 228.217,88.254 242.088,211.967c2.162,19.279 1.9,38.258 -0.425,56.688c79.675,15.671 143.542,81.354 153.067,166.337c6.866,61.25 -16.037,118.95 -57.138,158.742c3.121,11.725 5.429,23.817 6.821,36.238c15.158,135.196 -82.154,257.083 -217.354,272.241c-14.275,1.6 -28.383,1.875 -42.254,1.054c-32.55,55.342 -89.846,95.217 -158.562,102.921c-83.85,9.4 -161.7,-31.688 -203.275,-99.013c-49.396,50.775 -116.004,85.408 -191.892,93.917c-147.558,16.542 -282.762,-70.967 -332.458,-204.021c-77.775,-49.804 -133.271,-132.933 -144.363,-231.862c-10.608,-94.617 21.621,-184.108 81.146,-249.292Z" style="fill:#d52727;fill-rule:nonzero;"/><path d="M2759.96,495.9c-58.412,22.375 -96.925,87.908 -88.042,149.829c8.883,61.917 64.263,113.987 126.608,119.038c-4.521,14.987 0.008,31.808 12.317,41.483c12.308,9.671 30.613,10.904 44.104,2.967c-1.363,22.767 27.042,32.15 47.333,21.742c1.187,13.654 7.875,24.521 20.346,30.204c12.475,5.679 27.954,4.112 39.038,-3.954c21.025,47.746 61.192,81.408 112.979,87.688c51.792,6.279 106.15,-16.504 137.979,-57.842c5.079,28.821 48.846,42.738 73.842,27.517c4.563,16.5 12.933,31.846 29.846,34.458c16.917,2.617 35.017,-5.475 44.35,-19.821c19.533,35.933 54.7,68.671 95.525,71.204c40.825,2.533 81.387,-12.275 115.217,-35.267c33.829,-22.992 61.604,-53.792 86.908,-85.933c60.958,-77.429 94.525,-159.875 71.567,-255.712c-22.958,-95.833 -92.204,-179.454 -182.083,-219.875c-89.867,-40.417 -193.167,-37.808 -290.571,-22.896c-97.4,14.917 -193.329,41.358 -291.742,46.254c-40.479,2.017 -81.429,0.392 -121.137,8.512c-39.708,8.121 -63.183,25.863 -84.383,60.404Z" style="fill:#eb3427;fill-rule:nonzero;"/><path d="M3001.86,1038.138c13.688,-12.017 31.004,-17.238 47.838,-15.946c-0.896,16.858 -8.308,33.354 -21.996,45.375c-13.688,12.017 -31.004,17.238 -47.838,15.946c0.896,-16.858 8.308,-33.354 21.996,-45.375Z" style="fill:#b61f24;fill-rule:nonzero;"/><path d="M2731.865,792.775c16.154,8.417 27.283,22.675 32.167,38.833c-16.042,5.263 -34.1,4.317 -50.258,-4.096c-16.154,-8.417 -27.283,-22.675 -32.167,-38.833c16.042,-5.263 34.104,-4.317 50.258,4.096Z" style="fill:#b61f24;fill-rule:nonzero;"/><path d="M2954.623,733.029c17.754,-4.062 35.471,-0.412 49.663,8.729c-8.808,14.4 -23.175,25.388 -40.933,29.446c-17.758,4.063 -35.471,0.412 -49.667,-8.729c8.812,-14.4 23.179,-25.388 40.938,-29.446Z" style="fill:#b61f24;fill-rule:nonzero;"/><path d="M3053.723,830.225c4.317,-17.696 15.504,-31.908 30.033,-40.509c8.937,14.325 12.329,32.087 8.012,49.788c-4.312,17.696 -15.504,31.904 -30.033,40.504c-8.933,-14.321 -12.329,-32.088 -8.012,-49.783Z" style="fill:#b61f24;fill-rule:nonzero;"/><path d="M2786.519,610.171c18.208,0.538 34.433,8.529 45.867,20.95c-12.15,11.721 -28.821,18.733 -47.029,18.196c-18.208,-0.542 -34.433,-8.533 -45.867,-20.954c12.15,-11.721 28.821,-18.733 47.029,-18.192Z" style="fill:#b61f24;fill-rule:nonzero;"/><path d="M3208.16,996.617c-13.95,-11.717 -21.721,-28.046 -22.983,-44.883c16.8,-1.654 34.225,3.183 48.175,14.9c13.946,11.717 21.717,28.05 22.984,44.883c-16.804,1.658 -34.229,-3.179 -48.175,-14.9Z" style="fill:#b61f24;fill-rule:nonzero;"/><path d="M3089.99,1006.55c3.158,-17.937 13.404,-32.842 27.346,-42.367c9.846,13.713 14.383,31.221 11.225,49.163c-3.163,17.937 -13.408,32.842 -27.346,42.367c-9.846,-13.712 -14.383,-31.221 -11.225,-49.162Z" style="fill:#b61f24;fill-rule:nonzero;"/><path d="M2860.252,889.896c18.212,0.104 34.625,7.708 46.354,19.85c-11.871,12.008 -28.367,19.417 -46.588,19.313c-18.213,-0.108 -34.621,-7.708 -46.35,-19.854c11.867,-12.008 28.367,-19.417 46.583,-19.308Z" style="fill:#b61f24;fill-rule:nonzero;"/><path d="M2952.327,962.104c18.158,-1.442 35.154,4.737 47.875,15.837c-10.804,12.975 -26.612,21.758 -44.771,23.204c-18.158,1.446 -35.158,-4.734 -47.875,-15.838c10.804,-12.971 26.613,-21.758 44.771,-23.204Z" style="fill:#b61f24;fill-rule:nonzero;"/></svg>