<?xml version="1.0" encoding="UTF-8" standalone="no"?><!DOCTYPE svg PUBLIC "-//W3C//DTD SVG 1.1//EN" "http://www.w3.org/Graphics/SVG/1.1/DTD/svg11.dtd"><svg width="100%" height="100%" viewBox="0 0 397 2218" version="1.1" xmlns="http://www.w3.org/2000/svg" xmlns:xlink="http://www.w3.org/1999/xlink" xml:space="preserve" xmlns:serif="http://www.serif.com/" style="fill-rule:evenodd;clip-rule:evenodd;stroke-linejoin:round;stroke-miterlimit:2;"><g><path d="M175.925,2217.371l-10.158,0l28.375,-270.05l1.262,0l-19.479,270.05Z" style="fill:#fcc54a;fill-rule:nonzero;"/><path d="M194.142,2217.371l-10.154,0l12.421,-270.05l1.262,0l-3.529,270.05Z" style="fill:#fcc54a;fill-rule:nonzero;"/><path d="M212.363,2217.371l-10.154,0l-3.537,-270.05l1.271,0l12.421,270.05Z" style="fill:#fcc54a;fill-rule:nonzero;"/><path d="M230.583,2217.371l-10.158,0l-19.488,-270.05l1.271,0l28.375,270.05Z" style="fill:#fcc54a;fill-rule:nonzero;"/><path d="M396.35,1563.988c0,104.162 -88.725,188.604 -198.179,188.604c-109.446,0 -198.171,-84.442 -198.171,-188.604c0,-104.163 88.725,-188.6 198.171,-188.6c109.454,0 198.179,84.437 198.179,188.6Z" style="fill:#eb3427;fill-rule:nonzero;"/><path d="M347.125,1563.988l-13.542,0c0.012,50.704 -15.529,96.487 -40.279,129.287c-12.366,16.408 -27.008,29.567 -43.1,38.592c-16.1,9.025 -33.617,13.954 -52.033,13.954c-18.413,0 -35.925,-4.929 -52.025,-13.954c-24.133,-13.529 -45.021,-36.396 -59.837,-65.5c-14.817,-29.092 -23.546,-64.35 -23.546,-102.379c-0.008,-50.7 15.533,-96.483 40.283,-129.288c12.367,-16.404 27.008,-29.563 43.1,-38.587c16.1,-9.029 33.612,-13.95 52.025,-13.958c18.413,0.008 35.933,4.929 52.033,13.958c24.134,13.529 45.021,36.396 59.838,65.5c14.817,29.087 23.546,64.35 23.542,102.375l13.542,0c-0.013,-53.458 -16.296,-101.979 -43.008,-137.438c-13.363,-17.721 -29.354,-32.183 -47.287,-42.246c-17.921,-10.062 -37.804,-15.692 -58.658,-15.687c-20.846,-0.004 -40.733,5.625 -58.65,15.687c-26.9,15.1 -49.433,40.063 -65.275,71.163c-15.842,31.113 -25.017,68.425 -25.021,108.521c0.013,53.462 16.296,101.979 43.008,137.437c13.363,17.725 29.354,32.188 47.287,42.25c17.917,10.062 37.804,15.692 58.65,15.687c20.854,0.004 40.737,-5.625 58.658,-15.687c26.9,-15.104 49.429,-40.063 65.275,-71.163c15.842,-31.113 25.017,-68.425 25.021,-108.525Z" style="fill:#fcb418;fill-rule:nonzero;"/><path d="M257.554,1563.988l-13.538,0c0.008,51.558 -5.862,98.254 -15.162,131.546c-4.621,16.629 -10.158,29.908 -15.85,38.508c-2.833,4.308 -5.687,7.408 -8.229,9.262c-2.579,1.867 -4.65,2.508 -6.604,2.517c-1.954,-0.008 -4.025,-0.65 -6.596,-2.517c-4.483,-3.217 -9.771,-10.387 -14.529,-20.842c-7.204,-15.663 -13.471,-38.442 -17.829,-65.667c-4.367,-27.237 -6.883,-58.967 -6.883,-92.808c-0.008,-51.558 5.863,-98.25 15.163,-131.542c4.621,-16.629 10.158,-29.908 15.854,-38.513c2.829,-4.304 5.683,-7.404 8.225,-9.258c2.571,-1.867 4.642,-2.508 6.596,-2.521c1.954,0.012 4.025,0.654 6.604,2.521c4.479,3.217 9.771,10.387 14.529,20.842c7.204,15.663 13.471,38.442 17.825,65.667c4.371,27.237 6.888,58.963 6.888,92.804l13.538,0c-0.008,-52.604 -5.913,-100.213 -15.658,-135.179c-4.896,-17.5 -10.696,-31.842 -17.592,-42.329c-3.462,-5.237 -7.217,-9.55 -11.521,-12.721c-4.279,-3.158 -9.3,-5.154 -14.613,-5.142c-5.304,-0.012 -10.329,1.983 -14.604,5.142c-7.508,5.579 -13.458,14.508 -18.825,26.108c-7.979,17.412 -14.379,41.108 -18.892,69.171c-4.5,28.054 -7.054,60.438 -7.054,94.95c0.008,52.604 5.913,100.212 15.658,135.183c4.892,17.5 10.696,31.842 17.588,42.329c3.462,5.237 7.217,9.546 11.525,12.721c4.275,3.158 9.3,5.154 14.604,5.142c5.313,0.012 10.333,-1.983 14.613,-5.142c7.504,-5.579 13.458,-14.508 18.825,-26.108c7.979,-17.412 14.379,-41.108 18.892,-69.171c4.5,-28.054 7.054,-60.438 7.054,-94.954Z" style="fill:#fcb418;fill-rule:nonzero;"/><rect x="105.387" y="1317.508" width="184.783" height="79.508" style="fill:#732113;fill-rule:nonzero;"/><rect x="105.387" y="1730.45" width="184.783" height="79.504" style="fill:#732113;fill-rule:nonzero;"/><path d="M196.283,1362.592l0,-1362.592l-13.542,0l0,1362.592" style="fill:#732113;fill-rule:nonzero;"/><path d="M191.008,1809.954l0,116.438l13.538,0l0,-116.438" style="fill:#732113;fill-rule:nonzero;"/><path d="M197.779,1975.842c-16.1,0 -29.154,-13.05 -29.154,-29.15c0,-16.096 13.054,-29.146 29.154,-29.146c16.096,0 29.146,13.05 29.146,29.146c0,16.1 -13.05,29.15 -29.146,29.15Z" style="fill:#732113;fill-rule:nonzero;"/><path d="M218.637,1197.838c0,15.721 -12.742,28.462 -28.462,28.462c-15.725,0 -28.467,-12.742 -28.467,-28.462c0,-15.721 12.742,-28.467 28.467,-28.467c15.721,0 28.462,12.746 28.462,28.467Z" style="fill:#fcb418;fill-rule:nonzero;"/><path d="M218.637,1049.633c0,15.721 -12.742,28.467 -28.462,28.467c-15.725,0 -28.467,-12.746 -28.467,-28.467c0,-15.717 12.742,-28.462 28.467,-28.462c15.721,0 28.462,12.746 28.462,28.462Z" style="fill:#fcb418;fill-rule:nonzero;"/></g></svg>