<svg xmlns="http://www.w3.org/2000/svg" width="1439" height="212" fill="none" viewBox="0 0 1439 212"><path d="M-1 0h1440v212H-1z"/><g fill="#742529" fill-rule="evenodd" clip-path="url(#clip0)" clip-rule="evenodd"><path d="M31.742 78.898h1.742l5.18 1.583a9.5 9.5 0 0 1-.312 1.191c-1.55 5.168-3.606 11.324-6.01 17.73 5.938 7.276 6.503 11.169 6.515 14.098 0 11.908-8.714 11.693-13.221 11.538a19.5 19.5 0 0 0-1.9-7.001v14.36h-8.51l-.18-53.487zm-8.03 8.168.108 29.983h3.078c3.029 0 3.605-1.691 3.605-4.263 0-2.989-1.718-6.275-6.695-12.003 1.563-4.977 2.873-9.525 3.943-13.776zM6.885 78.874h6.335q.084 1.376 0 2.75c-.998 22.184-1.888 23.327-14.7 23.065a19.8 19.8 0 0 0-2.405-8.014 43 43 0 0 0 4.952.227c2.777 0 3.005-2.465 3.534-10.3h-5.6c-1.912 8.514-5.506 16.003-11.287 20.445a43 43 0 0 0-6.118-5.121c4.64-3.19 7.584-8.704 9.123-15.288h-7.008v-7.716zm-21.383 53.631-.084-25.339 26.215-.083.096 24.588H3.315v-1.881H-6.3v2.69zm17.705-17.54H-6.41v6.942h9.616zm98.26 23.16h1.118l3.33.988q-.077.394-.205.774c-.997 3.322-2.404 7.276-3.882 11.395 3.822 4.68 4.183 7.144 4.183 9.061 0 7.693-5.601 7.514-8.414 7.419a12.5 12.5 0 0 0-1.202-4.501v9.228h-5.469l-.168-34.364zm-5.108 5.262v19.267h1.983c1.948 0 2.332-1.084 2.32-2.739 0-1.917-1.106-4.037-4.303-7.716.998-3.203 1.851-6.156 2.536-8.859zm-10.818-5.262h4.075q.056.886 0 1.774c-.65 14.288-1.202 15.003-9.423 14.848a12.7 12.7 0 0 0-1.527-5.155q1.589.163 3.185.142c1.791 0 1.936-1.584 2.272-6.62h-3.606c-1.202 5.465-3.534 10.288-7.212 13.098a27.7 27.7 0 0 0-3.93-3.299c2.98-2.047 4.868-5.596 5.865-9.835h-4.675v-4.953zm-13.786 34.46v-16.266h16.827v15.801H83.15v-1.262h-6.214v1.727zm11.382-11.265h-6.214v4.465h6.214zm95.977-94.103h2.284l6.791 2.012q-.157.81-.421 1.596c-2.031 6.775-4.807 14.836-7.921 23.255 7.789 9.526 8.522 14.645 8.534 18.492 0 15.682-11.43 15.336-17.284 15.122a25.5 25.5 0 0 0-2.488-9.181v18.838h-11.166l-.241-70.146zm-10.529 10.716.132 39.294a92 92 0 0 0 4.039.071c3.966 0 4.808-2.214 4.736-5.596 0-3.917-2.248-8.227-8.775-15.741 2.044-6.525 3.762-12.562 5.169-18.063zM146.517 67.17h8.33c.053 1.19.033 2.383-.06 3.571-1.323 29.126-2.404 30.614-19.232 30.281a26 26 0 0 0-3.137-10.526 56 56 0 0 0 6.491.297c3.605 0 3.942-3.239 4.639-13.515h-7.44c-2.512 11.158-7.212 20.981-14.808 26.816a56.3 56.3 0 0 0-8.017-6.716c6.094-4.18 9.94-11.407 12.019-20.052h-9.183V67.205zm-28.018 70.324-.12-33.198 34.376-.107.12 32.245h-11.094v-2.584h-12.668v3.573zm23.21-22.993h-12.681v9.097h12.669zm203.264-1.191 5.061.119 15.06 4.453a27.5 27.5 0 0 1-.925 3.572c-4.508 15.027-10.614 32.901-17.573 51.535 17.272 21.159 18.895 32.46 18.919 40.997.132 34.769-25.326 33.996-38.307 33.531a56.5 56.5 0 0 0-5.517-20.349l.132 41.746-24.748.084-.529-155.474zm-23.342 23.743.301 87.138c3.702.166 6.863.143 8.954.143 8.787 0 10.529-4.906 10.505-12.396 0-8.692-4.988-18.242-19.459-34.888 4.519-14.456 8.353-27.84 11.466-40.044zm-48.896-23.838h5.289l13.137-.095a64 64 0 0 1-.144 8.001c-2.933 64.561-5.373 67.872-42.61 67.121a57.6 57.6 0 0 0-6.911-23.302c4.791.504 9.607.731 14.424.679 8.089 0 8.75-7.145 10.277-29.947h-16.503c-5.553 24.732-15.999 46.521-32.814 59.441a125 125 0 0 0-17.777-14.896c13.498-9.264 22.032-25.303 26.527-44.45l-20.361.083-.072-22.433zm-62.189 155.89-.253-73.576 76.193-.237.264 71.444-24.58.083v-5.727l-28.09.095v7.823zm51.444-50.975-28.102.107.084 20.171 28.078-.095zM249.189 54.714h1.49l4.447 1.322q-.103.526-.276 1.036c-1.334 4.43-3.125 9.704-5.181 15.205 5.097 6.24 5.578 9.526 5.578 12.098 0 10.252-7.477 10.026-11.299 9.895a16.7 16.7 0 0 0-1.635-5.954v12.313h-7.295l-.121-45.855zm-6.888 7.002.085 25.708h2.644c2.596 0 3.101-1.453 3.101-3.656 0-2.56-1.466-5.382-5.745-10.288 1.334-4.263 2.404-8.216 3.377-11.812zm-14.423-7.038h5.433q.075 1.191 0 2.382c-.866 19.052-1.587 20.016-12.573 19.802a17 17 0 0 0-2.043-6.87q2.115.223 4.243.201c2.404 0 2.584-2.119 3.029-8.835h-4.808c-1.635 7.3-4.724 13.718-9.676 17.54a37 37 0 0 0-5.24-4.394c3.978-2.739 6.502-7.466 7.824-13.098h-6.009v-6.62zm-18.33 45.986-.072-21.707 22.477-.071.072 21.135h-7.212v-1.714h-8.282v2.31zm15.181-15.039h-8.294v5.954h8.282zM94.905 75.766h1.49l4.447 1.322a8 8 0 0 1-.276 1.036c-1.334 4.43-3.125 9.704-5.18 15.205 5.096 6.24 5.577 9.527 5.577 12.098 0 10.253-7.477 10.026-11.299 9.895a16.7 16.7 0 0 0-1.635-5.954v12.313h-7.295l-.12-45.867zm-6.888 7.002.085 25.708h2.644c2.596 0 3.1-1.454 3.1-3.656 0-2.56-1.466-5.382-5.745-10.288 1.335-4.263 2.404-8.216 3.378-11.812zM73.594 75.73h5.432q.075 1.191 0 2.382c-.865 19.052-1.586 20.016-12.572 19.802a17 17 0 0 0-2.043-6.87q2.115.222 4.243.202c2.404 0 2.584-2.12 3.029-8.836h-4.808c-1.767 7.264-4.808 13.694-9.772 17.504a37 37 0 0 0-5.217-4.394c3.979-2.738 6.503-7.465 7.825-13.098h-6.01v-6.62zm-18.33 45.999-.072-21.708 22.476-.07.085 21.087H70.54v-1.691h-8.282v2.31zm15.18-15.04h-8.293v5.954h8.282zm126.88-74.611h.865l2.561.762q-.059.303-.157.596c-.769 2.56-1.803 5.596-2.993 8.764 2.933 3.572 3.21 5.513 3.222 6.965 0 5.954-4.303 5.775-6.515 5.704a9.6 9.6 0 0 0-.937-3.465v7.144h-4.207l-.133-26.398zm-3.966 4.037v14.813h1.526c1.49 0 1.791-.834 1.791-2.108 0-1.477-.853-3.096-3.305-5.954a140 140 0 0 0 1.947-6.81zm-8.366-4.061h3.137q.042.68 0 1.358c-.505 10.978-.913 11.538-7.212 11.407a9.8 9.8 0 0 0-1.202-3.965q1.199.127 2.404.12c1.37 0 1.491-1.192 1.743-5.097h-2.801c-.949 4.203-2.716 7.906-5.577 10.109a21.3 21.3 0 0 0-3.017-2.536 12.24 12.24 0 0 0 4.508-7.561h-3.462v-3.74zM174.427 58.56V46.045h12.957v12.146h-4.183v-1.036h-4.808v1.334zm8.75-8.668h-4.808v3.453h4.808zm-24.484 105.391h.865l2.56.762a5 5 0 0 1-.156.595c-.769 2.561-1.803 5.597-2.993 8.765 2.933 3.572 3.21 5.513 3.222 6.965 0 5.954-4.303 5.775-6.515 5.704a9.6 9.6 0 0 0-.938-3.465v7.144h-4.206l-.097-26.434zm-3.967 4.037v14.812h1.527c1.49 0 1.791-.833 1.791-2.107 0-1.477-.854-3.096-3.306-5.954.77-2.453 1.419-4.763 1.948-6.81zm-8.305-4.049h3.137q.042.68 0 1.357c-.505 10.979-.914 11.539-7.212 11.408a9.8 9.8 0 0 0-1.202-3.965q1.199.128 2.404.119c1.37 0 1.491-1.191 1.743-5.097h-2.801c-.949 4.203-2.716 7.907-5.577 10.11a21.3 21.3 0 0 0-3.017-2.536 12.25 12.25 0 0 0 4.508-7.562h-3.462v-3.81zm-10.565 26.494V169.25h12.957v12.146h-4.183v-.976h-4.808v1.333zm8.75-8.669h-4.808v3.43h4.808zM50.612-6.097H52.8l6.515 1.93a12 12 0 0 1-.397 1.524c-1.947 6.501-4.592 14.288-7.597 22.302 7.477 9.157 8.174 14.039 8.186 17.73 0 15.039-10.962 14.705-16.575 14.503a24.5 24.5 0 0 0-2.404-8.8v18.064h-10.71l-.168-67.17zM40.516 4.18l.132 37.699c1.599.072 2.969.06 3.87.06 3.798 0 4.556-2.12 4.544-5.37 0-3.763-2.152-7.895-8.414-15.1a350 350 0 0 0 4.964-17.324zM19.361-6.132h7.969a28 28 0 0 1-.06 3.465C25.996 25.232 24.95 26.66 8.832 26.339A24.9 24.9 0 0 0 5.84 16.254c2.068.215 4.147.31 6.226.285 3.498 0 3.787-3.108 4.448-12.955h-7.14C6.969 14.301 2.45 23.707-4.822 29.304a54 54 0 0 0-7.693-6.442c5.83-4 9.532-10.955 11.515-19.218h-8.81v-9.705zM-7.527 61.31l-.108-31.827 32.958-.108.12 30.96H14.806v-2.49l-12.2.048v3.382zm22.26-22.016H2.607v8.728h12.152zM361.32-8.395l3.245.084 9.676 2.87a18 18 0 0 1-.589 2.262c-2.897 9.657-6.815 21.135-11.286 33.126 11.094 13.598 12.139 20.862 12.164 26.339.084 22.338-16.275 21.85-24.617 21.552a36.3 36.3 0 0 0-3.606-13.098l.085 26.827H330.49l-.301-99.902zM346.368 6.86l.192 55.964c2.404.107 4.411.095 5.757.095 5.649 0 6.767-3.155 6.755-7.966 0-5.584-3.209-11.717-12.5-22.421 2.909-9.288 5.373-17.861 7.368-25.732zM314.9-8.454h11.815a41 41 0 0 1-.096 5.144c-1.887 41.413-3.425 43.569-27.356 43.08a37 37 0 0 0-4.448-14.979c3.07.32 6.157.464 9.243.429 5.193 0 5.626-4.62 6.599-19.243h-10.601c-3.606 15.897-10.277 29.9-21.095 38.2a80.3 80.3 0 0 0-11.43-9.527c8.678-5.953 14.159-16.253 17.044-28.577h-13.09V-8.335zm-39.929 100.14-.168-47.284 48.956-.154.168 45.926h-15.794v-3.68l-18.029.06v5.025zm33.054-32.757-18.029.072v12.967l18.029-.06zM444.664.143h1.971l5.878 1.738q-.135.697-.361 1.37c-1.754 5.858-4.134 12.836-6.851 20.1 6.731 8.251 7.368 12.657 7.38 15.99 0 13.563-9.88 13.253-14.94 13.099a22 22 0 0 0-2.152-7.942v16.277h-9.615l-.205-60.56zm-9.099 9.264.12 33.983c1.443.072 2.681 0 3.486 0 3.426 0 4.111-1.917 4.099-4.834 0-3.394-1.947-7.144-7.585-13.61 1.767-5.644 3.258-10.86 4.472-15.623zM416.49.107h7.188a25 25 0 0 1 0 3.12c-1.202 25.172-2.092 26.47-16.611 26.196a22.5 22.5 0 0 0-2.753-9.18c1.864.195 3.739.282 5.613.261 3.149 0 3.414-2.798 4.003-11.68h-6.431c-2.163 9.644-6.238 18.146-12.801 23.183a48.7 48.7 0 0 0-6.947-5.81c5.265-3.573 8.594-9.872 10.349-17.338h-7.945V.107zm-24.232 60.787-.096-28.744h29.713l.108 27.875h-9.616v-2.25h-10.95v3.047zm20.061-19.885h-10.962v7.87h10.95zm128.334-11.241 2.861.072 8.51 2.524a16 16 0 0 1-.517 1.989c-2.548 8.49-6.01 18.587-9.929 29.125 9.76 11.907 10.674 18.337 10.686 23.16.072 19.646-14.316 19.206-21.636 18.944a31.9 31.9 0 0 0-3.125-11.502l.073 23.588h-13.979l-.301-87.84zm-13.222 13.42.169 49.225c2.091.095 3.87.083 5.06.083 4.964 0 5.95-2.774 5.938-7.001 0-4.906-2.813-10.3-10.998-19.707 2.56-8.169 4.723-15.73 6.478-22.624zm-27.597-13.42h10.421q.099 2.265-.084 4.525c-1.659 36.472-3.029 38.342-24.039 37.925a32.6 32.6 0 0 0-3.943-13.23c2.699.284 5.412.411 8.126.382 4.567 0 4.94-4.06 5.805-16.92h-9.327c-3.137 13.979-9.039 26.279-18.546 33.578a70.6 70.6 0 0 0-10.097-8.394c7.621-5.24 12.452-14.29 14.989-25.113h-11.503v-12.67zm-35.109 88.114-.144-41.675 43.042-.143.156 40.377h-13.883v-3.143h-15.865v4.417zm29.063-28.803-15.878.06v11.395h15.866zm-35.277 53.809 2.632.059 7.825 2.323q-.18.931-.481 1.833c-2.344 7.811-5.517 17.111-9.135 26.803 8.979 11.003 9.82 16.885 9.844 21.314.072 18.076-13.221 17.682-19.916 17.433a29.4 29.4 0 0 0-2.873-10.586l.072 21.707h-12.873l-.276-80.85zm-12.14 12.348.156 45.307c1.923.083 3.606.071 4.652.071 4.567 0 5.469-2.548 5.469-6.442 0-4.524-2.597-9.526-10.121-18.147 2.404-7.513 4.339-14.479 6.01-20.825zm-25.422-12.419h9.58a34 34 0 0 1-.072 4.154c-1.527 33.568-2.789 35.295-22.152 34.901a30 30 0 0 0-3.606-12.121c2.483.258 4.979.374 7.476.345 4.207 0 4.555-3.739 5.337-15.575h-8.582c-2.885 12.86-8.318 24.184-17.068 30.959a65 65 0 0 0-9.243-7.752c7.019-4.763 11.454-13.097 13.798-23.112h-10.589v-11.657zm-32.308 81.04-.133-38.258 39.665-.131.144 37.163H415.54v-2.977h-14.603v4.203zm26.755-26.506H400.78v10.491h14.604zM140.832-19.326h2.404l7.043 2.084q-.161.842-.433 1.655c-2.103 7.038-4.964 15.396-8.221 24.125 8.053 9.966 8.822 15.277 8.822 19.254.06 16.277-11.851 15.908-17.933 15.694a26.5 26.5 0 0 0-2.584-9.526l.084 19.54h-11.587l-.252-72.778zm-10.926 11.11.108 40.794c1.731.084 3.209.072 4.195.072 4.111 0 4.928-2.298 4.916-5.799 0-4.072-2.332-8.537-9.111-16.325 2.115-6.763 3.906-13.027 5.373-18.742zM107.02-19.361h8.631a30 30 0 0 1-.061 3.703c-1.394 30.22-2.524 31.769-19.952 31.423a27 27 0 0 0-3.245-10.907c2.235.233 4.483.336 6.731.31 3.786 0 4.098-3.358 4.807-14.015h-7.716c-2.596 11.598-7.488 21.79-15.361 27.84a58.5 58.5 0 0 0-8.318-6.978C78.846 7.68 82.837.178 84.952-8.788h-9.531V-19.29zM77.933 53.583l-.12-34.436 35.662-.095.132 33.447h-11.503v-2.643h-13.15v3.727zm24.039-23.815H88.859v9.443h13.149zm142.229-80.052h2.404l7.043 2.083q-.161.842-.433 1.655c-2.103 7.038-4.964 15.397-8.221 24.124 8.053 9.967 8.822 15.278 8.822 19.255.06 16.277-11.851 15.908-17.933 15.694A26.5 26.5 0 0 0 233.299 3l.084 19.54h-11.587l-.252-72.778zm-10.926 11.109.108 40.794c1.731.084 3.209.072 4.195.072 4.111 0 4.928-2.298 4.916-5.799 0-4.072-2.332-8.538-9.111-16.325 2.115-6.763 3.906-13.026 5.373-18.742zm-51.973 61.799-.12-34.436 35.662-.12.132 33.448h-11.503v-2.62h-13.149v3.728zm24.039-23.815h-13.113v9.443h13.149zM419.423 81.22h1.274l3.774 1.119a7 7 0 0 1-.228.881c-1.13 3.775-2.669 8.252-4.412 12.932 4.34 5.31 4.736 8.144 4.748 10.288 0 8.728-6.358 8.525-9.616 8.417a14.2 14.2 0 0 0-1.382-5.107v10.478h-6.214l-.132-39.008zm-5.854 5.953.108 21.862h2.248c2.2 0 2.644-1.19 2.632-3.107 0-2.18-1.202-4.573-4.88-8.752 1.13-3.573 2.092-6.99 2.873-10.05zm-12.284-5.977h4.628q.063 1.006 0 2.012c-.733 16.194-1.346 17.027-10.686 16.837a14.5 14.5 0 0 0-1.73-5.846q1.797.187 3.605.166c2.032 0 2.2-1.798 2.573-7.513h-4.135c-1.394 6.204-4.015 11.67-8.234 14.908a31.4 31.4 0 0 0-4.459-3.739c3.39-2.382 5.529-6.347 6.659-11.157h-5.108v-5.609zm-15.589 39.067-.06-18.467 19.111-.06.072 17.932h-6.166v-1.369h-7.044v1.964zm12.909-12.788h-7.056v5.061h7.044zm109.042 29.078h.829l2.488.738a4.5 4.5 0 0 1-.156.583c-.745 2.477-1.755 5.43-2.897 8.502 2.849 3.489 3.114 5.359 3.126 6.764 0 5.739-4.183 5.608-6.323 5.537a9.3 9.3 0 0 0-.913-3.358v6.894h-4.087l-.084-25.66zm-3.822 3.953v14.384h1.478c1.455 0 1.743-.81 1.731-2.048 0-1.428-.817-3.012-3.209-5.763a121 121 0 0 0 1.887-6.608zm-8.101-3.965h3.041q.04.661 0 1.321c-.481 10.658-.89 11.206-7.032 11.087a9.5 9.5 0 0 0-1.142-3.847q1.199.125 2.404.107c1.334 0 1.442-1.191 1.695-4.941h-2.729c-.913 4.084-2.644 7.68-5.421 9.811a21 21 0 0 0-2.932-2.465 11.9 11.9 0 0 0 4.375-7.334h-3.39v-3.703zm-10.253 25.732v-12.145h12.572v11.799h-4.062v-.941h-4.58v1.287zm8.486-8.418h-4.64v3.321h4.64zm120.292-28.138 3.342.083 9.94 2.941a18 18 0 0 1-.613 2.382c-2.969 9.919-7.008 21.719-11.599 34.019 11.394 13.967 12.476 21.434 12.488 27.054.084 22.945-16.719 22.445-25.241 22.135a37.3 37.3 0 0 0-3.606-13.431l.084 27.554H582.71l-.349-102.63zm-15.469 15.67.204 57.513c2.404.107 4.532.095 5.914.095 5.805 0 6.947-3.239 6.935-8.18 0-5.74-3.293-12.039-12.849-23.029 2.981-9.526 5.517-18.374 7.573-26.435zm-32.225-15.729h12.152a42 42 0 0 1-.096 5.287c-1.935 42.616-3.546 44.795-28.126 44.307a38 38 0 0 0-4.567-15.384c3.153.329 6.324.476 9.495.44 5.337 0 5.781-4.763 6.779-19.766h-10.89c-3.666 16.325-10.553 30.708-21.635 39.234a82.6 82.6 0 0 0-11.743-9.835c8.906-6.12 14.544-16.67 17.512-29.339h-13.438V125.8zm-41.011 102.903-.168-48.57 50.29-.155.18 47.176H559.62v-3.786l-18.534.06v5.168zM559.5 194.91l-18.547.073v13.311l18.535-.059zM655.176 2.512l3.341.084 9.977 2.94a18 18 0 0 1-.613 2.382c-2.969 9.92-7.008 21.72-11.599 34.02 11.394 13.967 12.476 21.433 12.488 27.053.084 22.945-16.719 22.445-25.241 22.136a37.3 37.3 0 0 0-3.606-13.432l.084 27.554h-16.334l-.349-102.63zm-15.409 15.67.204 57.513c2.404.107 4.532.095 5.914.095 5.805 0 6.947-3.239 6.935-8.18 0-5.74-3.293-12.039-12.849-23.03 2.981-9.525 5.517-18.372 7.573-26.433zM607.494 2.453h12.152a42 42 0 0 1-.096 5.287c-1.935 42.616-3.546 44.795-28.126 44.307a38.05 38.05 0 0 0-4.568-15.384c3.154.33 6.325.476 9.496.44 5.337 0 5.781-4.763 6.779-19.766h-10.89c-3.666 16.325-10.553 30.709-21.635 39.235a82.6 82.6 0 0 0-11.743-9.836c8.906-6.12 14.543-16.67 17.512-29.34h-13.438v-14.8zm-41.011 102.891-.156-48.57 50.29-.155.192 47.177h-16.226v-3.786l-18.631.118v5.169zm33.956-33.65-18.547.071v13.313l18.535-.06zM734.914-17.86h1.767l5.265 1.559a10 10 0 0 1-.325 1.19c-1.574 5.264-3.714 11.515-6.154 18.04 6.01 7.407 6.611 11.36 6.623 14.289 0 12.17-8.871 11.907-13.414 11.74a19.8 19.8 0 0 0-1.935-7.144v14.61h-8.666l-.193-54.416zm-8.173 8.334.108 30.495c1.298.06 2.404 0 3.137 0 3.077 0 3.69-1.715 3.678-4.334 0-3.037-1.743-6.383-6.815-12.205 1.587-4.99 2.945-9.67 4.015-13.956zm-17.104-8.334h6.454c.058.93.058 1.865 0 2.797-1.081 22.6-1.923 23.755-14.964 23.493a20.2 20.2 0 0 0-2.404-8.156q2.511.264 5.036.238c2.825 0 3.065-2.512 3.606-10.478h-5.781c-1.971 8.668-5.625 16.289-11.455 20.814a44 44 0 0 0-6.226-5.216c4.664-3.25 7.656-8.859 9.231-15.563h-7.128v-7.847zm-21.743 54.582-.097-25.755 26.672-.084.096 25.006h-8.606v-1.965h-9.832v2.739zm18.029-17.86h-9.832v7.06h9.832zM810.325 47.01l4.424.107 13.221 3.906a24 24 0 0 1-.805 3.084c-3.943 13.098-9.291 28.78-15.373 45.093 15.108 18.515 16.527 28.398 16.551 35.865.108 30.423-22.164 29.768-33.523 29.339a49.5 49.5 0 0 0-4.808-17.86l.12 36.531-21.635.071-.469-136.04zm-20.433 20.778.264 76.207c3.246.155 6.01.131 7.837.131 7.693 0 9.207-4.298 9.195-10.847 0-7.61-4.363-15.957-17.032-30.531 3.955-12.645 7.308-24.362 10.037-35.043zm-42.766-20.861h4.628l11.491-.06a56 56 0 0 1-.121 7.002c-2.572 56.488-4.699 59.382-37.261 58.739a50.4 50.4 0 0 0-6.009-20.386c4.18.437 8.382.632 12.584.584 7.08 0 7.657-6.287 8.991-26.197h-14.424c-4.807 21.648-13.99 40.7-28.715 52.012a109.3 109.3 0 0 0-15.553-13.039c11.803-8.109 19.231-22.136 23.21-38.901l-17.825.071-.06-19.623zm-54.365 136.445-.228-64.43 66.661-.214.24 62.537-21.503.071v-5.012l-24.568.083v6.846zm45.014-44.604-24.592.095.072 17.646 24.568-.083zM911.579 29.637l2.62.06 7.801 2.31q-.18.926-.481 1.822c-2.332 7.787-5.493 17.039-9.099 26.696 8.943 10.967 9.784 16.813 9.796 21.242.072 18.017-13.125 17.612-19.844 17.373a29.3 29.3 0 0 0-2.861-10.538l.072 21.624h-12.825l-.276-80.458zm-12.092 12.3.156 45.141c1.924.083 3.606.072 4.64.072 4.555 0 5.457-2.549 5.445-6.419 0-4.5-2.584-9.442-10.085-18.075 2.404-7.49 4.327-14.42 5.938-20.742zM874.15 29.59h9.543q.103 2.055-.048 4.108c-1.526 33.447-2.776 35.162-22.068 34.769a29.85 29.85 0 0 0-3.606-12.074c2.476.259 4.964.374 7.453.345 4.182 0 4.531-3.715 5.324-15.48h-8.546c-2.884 12.801-8.293 24.09-17.02 30.781a64.7 64.7 0 0 0-9.207-7.74c6.996-4.763 11.419-13.098 13.739-23.028h-10.553l.012-11.503zm-32.189 80.755-.132-38.103 39.472-.131.144 37.031h-12.728v-2.941h-14.544v4.049zm26.66-26.41h-14.556v10.454h14.544zm41.011 40.818h1.947l5.817 1.727q-.135.689-.36 1.357c-1.743 5.798-4.099 12.705-6.779 19.897 6.671 8.168 7.296 12.526 7.308 15.825 0 13.419-9.772 13.097-14.785 12.943a21.8 21.8 0 0 0-2.127-7.859v16.111h-9.556l-.204-60.013zm-9.015 9.169.12 33.637c1.43.072 2.644 0 3.45 0 3.389 0 4.062-1.893 4.05-4.763 0-3.357-1.923-7.036-7.512-13.467 1.743-5.584 3.221-10.716 4.423-15.479zm-18.883-9.216h7.116a25 25 0 0 1 0 3.083c-1.13 24.922-2.068 26.196-16.443 25.91a22.2 22.2 0 0 0-2.669-8.989q2.77.291 5.554.261c3.125 0 3.377-2.774 3.966-11.562h-6.43c-2.14 9.527-6.179 17.957-12.669 22.946a48.3 48.3 0 0 0-6.863-5.752c5.204-3.572 8.51-9.764 10.24-17.158h-7.86v-8.656zm-23.979 60.179-.096-28.399 29.412-.095.108 27.588h-9.484v-2.214h-10.817v3.025zm19.88-19.672h-10.817v7.788h10.817zm202.935-88.816 5.07.12 15.06 4.453q-.345 1.817-.93 3.572c-4.51 15.027-10.61 32.9-17.57 51.534 17.27 21.16 18.89 32.46 18.92 40.998.13 34.768-25.33 33.995-38.31 33.53a56.7 56.7 0 0 0-5.52-20.349l.14 41.747-24.75.084-.53-155.474zm-23.34 23.743.3 87.138c3.71.167 6.87.143 8.96.143 8.78 0 10.53-4.906 10.5-12.395 0-8.693-4.99-18.242-19.46-34.889 4.52-14.456 8.36-27.839 11.47-40.044zm-48.89-23.838h5.29l13.13-.095c.12 2.667.07 5.34-.14 8.002-2.93 64.561-5.37 67.871-42.611 67.121a57.6 57.6 0 0 0-6.911-23.303c4.79.505 9.606.731 14.423.679 8.089 0 8.749-7.145 10.279-29.947h-16.505c-5.553 24.732-15.998 46.522-32.813 59.442a125 125 0 0 0-17.777-14.897c13.498-9.264 22.032-25.302 26.527-44.45l-20.361.084-.072-22.434zm-62.193 155.891-.252-73.575 76.195-.239.26 71.444-24.578.083v-5.727l-28.09.095v7.823zm51.444-50.976-28.102.107.085 20.171 28.077-.095zm99.329-226.524 3.25.083 9.67 2.87a16 16 0 0 1-.59 2.262c-2.89 9.657-6.81 21.136-11.28 33.126 11.09 13.598 12.14 20.862 12.16 26.34.09 22.337-16.27 21.85-24.61 21.551a36.3 36.3 0 0 0-3.61-13.098l.08 26.827h-15.9l-.3-99.902zm-14.95 15.253.19 55.964c2.41.107 4.41.096 5.76.096 5.65 0 6.77-3.156 6.75-7.966 0-5.585-3.21-11.717-12.5-22.422 2.91-9.287 5.38-17.86 7.37-25.732zm-31.47-15.313h11.82a42 42 0 0 1-.1 5.144c-1.89 41.414-3.42 43.569-27.36 43.08a36.9 36.9 0 0 0-4.44-14.979q4.605.482 9.24.429c5.19 0 5.63-4.62 6.6-19.242h-10.6c-3.61 15.896-10.28 29.9-21.1 38.198a80 80 0 0 0-11.43-9.525c8.68-5.954 14.16-16.254 17.05-28.578h-13.09v-14.408zm-39.93 100.141-.17-47.284 48.96-.155.17 45.926h-15.8v-3.679l-18.02.06v5.024zm33.06-32.757-18.03.071v12.967l18.03-.06zm136.64-58.787h1.97l5.87 1.739q-.135.695-.36 1.37c-1.75 5.857-4.13 12.835-6.85 20.099 6.73 8.251 7.37 12.657 7.38 15.991 0 13.563-9.88 13.253-14.94 13.098-.21-2.757-.94-5.45-2.15-7.942v16.277h-9.61l-.21-60.632zm-9.1 9.264.12 33.984c1.44.071 2.68 0 3.48 0 3.43 0 4.11-1.918 4.1-4.835 0-3.393-1.95-7.144-7.58-13.61 1.76-5.644 3.25-10.86 4.47-15.622zm-43.31 51.487-.1-28.744h29.72l.1 27.875h-9.61v-2.25h-10.95v3.048zm20.06-19.885h-10.96v7.87h10.95zm128.33-11.24 2.87.071 8.51 2.524c-.13.674-.31 1.338-.52 1.989-2.55 8.49-6.01 18.587-9.93 29.125 9.76 11.908 10.67 18.338 10.69 23.16.07 19.647-14.32 19.206-21.64 18.944a32 32 0 0 0-3.12-11.502l.07 23.588h-13.98l-.3-87.84zm-13.22 13.42.17 49.224c2.09.095 3.87.083 5.06.083 4.97 0 5.95-2.774 5.94-7.001 0-4.906-2.81-10.3-11-19.707 2.56-8.168 4.73-15.73 6.48-22.624zm-27.59-13.42h10.42c.06 1.508.03 3.02-.09 4.524-1.66 36.473-3.03 38.342-24.04 37.925a32.5 32.5 0 0 0-3.94-13.229q4.05.425 8.13.381c4.56 0 4.94-4.06 5.8-16.92h-9.33c-3.13 13.98-9.03 26.28-18.54 33.579a71 71 0 0 0-10.1-8.395c7.62-5.24 12.45-14.289 14.99-25.113h-11.5V-7.06zm-35.11 88.114-.15-41.676 43.04-.143.16 40.378h-13.88v-3.144h-15.87v4.418zm29.06-28.804-15.88.06V63.62h15.87zm-35.28 53.809 2.63.06 7.83 2.322q-.18.932-.48 1.833c-2.35 7.812-5.52 17.111-9.14 26.804 8.98 11.002 9.82 16.884 9.85 21.314.07 18.075-13.22 17.682-19.92 17.432a29.4 29.4 0 0 0-2.87-10.586l.07 21.707h-12.87l-.28-80.85zm-12.14 12.324.16 45.308c1.92.083 3.6.071 4.65.071 4.57 0 5.47-2.548 5.47-6.442 0-4.525-2.6-9.525-10.12-18.147 2.4-7.513 4.34-14.48 6.01-20.826zm-25.42-12.395h9.58a33 33 0 0 1-.02 4.119c-1.53 33.567-2.79 35.294-22.16 34.901a29.9 29.9 0 0 0-3.6-12.122c2.48.259 4.98.375 7.47.346 4.21 0 4.56-3.74 5.34-15.575h-8.58c-2.89 12.86-8.32 24.184-17.07 30.959a64.7 64.7 0 0 0-9.24-7.752c7.02-4.763 11.45-13.098 13.8-23.112h-10.59v-11.657zm-32.31 81.04-.13-38.258 39.66-.13.15 37.162h-12.78v-2.977h-14.6v4.203zm26.76-26.505h-14.62v10.49h14.61zm4.02-116.132h1.28l3.77 1.12c-.05.298-.13.592-.23.88-1.13 3.775-2.66 8.252-4.41 12.932 4.34 5.31 4.74 8.144 4.75 10.288 0 8.728-6.36 8.525-9.61 8.418a14.2 14.2 0 0 0-1.39-5.108v10.478h-6.21l-.13-39.008zm-5.85 5.954.11 21.862h2.25c2.2 0 2.64-1.191 2.63-3.108 0-2.18-1.2-4.573-4.88-8.752a186 186 0 0 0 2.87-10.05zm-12.28-5.978h4.62q.075 1.006 0 2.013c-.73 16.194-1.34 17.027-10.68 16.837a14.7 14.7 0 0 0-1.73-5.847q1.8.187 3.6.167c2.04 0 2.2-1.798 2.58-7.514h-4.14c-1.39 6.204-4.01 11.67-8.23 14.908a31.6 31.6 0 0 0-4.46-3.739c3.39-2.381 5.53-6.346 6.66-11.157H1120v-5.608zm-15.59 39.068-.06-18.468 19.11-.06.07 17.933h-6.17v-1.37h-7.04v1.965zm12.91-12.788h-7.06v5.06h7.04zm109.04 29.077h.83l2.49.739c-.04.197-.1.392-.16.584-.75 2.476-1.76 5.428-2.9 8.501 2.85 3.488 3.12 5.358 3.13 6.764 0 5.738-4.18 5.608-6.32 5.536a9.6 9.6 0 0 0-.92-3.358v6.895h-4.08l-.09-25.661zm-3.82 3.954v14.384h1.47c1.46 0 1.75-.81 1.74-2.049 0-1.428-.82-3.012-3.21-5.762.74-2.382 1.38-4.597 1.88-6.609zm-8.1-3.966h3.04q.03.662 0 1.322c-.48 10.657-.89 11.205-7.04 11.086a9.5 9.5 0 0 0-1.14-3.847c.8.084 1.6.119 2.41.108 1.33 0 1.44-1.19 1.69-4.942h-2.73c-.91 4.084-2.64 7.681-5.42 9.812-.9-.91-1.88-1.735-2.93-2.464a11.86 11.86 0 0 0 4.37-7.336h-3.39v-3.703zm-10.26 25.732v-12.145h12.57v11.8h-4.06v-.941H1225v1.286zm8.49-8.418h-4.64v3.321h4.64zm120.29-28.137 3.34.083 9.94 2.941a18 18 0 0 1-.61 2.382c-2.97 9.919-7.01 21.718-11.6 34.018 11.4 13.968 12.48 21.434 12.49 27.054.08 22.946-16.72 22.445-25.24 22.136a37.2 37.2 0 0 0-3.61-13.432l.09 27.554h-16.34l-.35-102.63zm-15.47 15.669.21 57.513c2.4.107 4.53.095 5.91.095 5.81 0 6.95-3.239 6.93-8.18 0-5.74-3.29-12.038-12.84-23.029 2.98-9.526 5.51-18.372 7.57-26.434zm-32.22-15.729h12.15c.08 1.763.04 3.528-.1 5.287-1.93 42.616-3.54 44.795-28.12 44.307a38.1 38.1 0 0 0-4.57-15.384c3.15.33 6.32.477 9.49.44 5.34 0 5.79-4.762 6.78-19.766h-10.89c-3.66 16.325-10.55 30.71-21.63 39.235a83 83 0 0 0-11.74-9.836c8.9-6.12 14.54-16.67 17.51-29.339h-13.44V88.888zm-41.01 102.903-.17-48.57 50.29-.154.18 47.177h-16.23v-3.788l-18.53.06v5.168zm33.95-33.65-18.54.072v13.312l18.53-.059zM1390.78-34.4l3.34.083 9.94 2.941c-.15.807-.36 1.602-.61 2.382-2.97 9.919-7.01 21.719-11.6 34.019 11.39 13.967 12.47 21.433 12.49 27.053.08 22.946-16.72 22.446-25.25 22.136a37.2 37.2 0 0 0-3.6-13.431l.08 27.553h-16.33l-.35-102.629zm-15.41 15.67.2 57.512c2.41.107 4.53.095 5.92.095 5.8 0 6.94-3.238 6.93-8.18 0-5.74-3.29-12.038-12.85-23.029 2.98-9.525 5.52-18.373 7.58-26.434zm-32.27-15.73h12.15c.08 1.763.04 3.529-.1 5.287-1.93 42.616-3.54 44.795-28.12 44.307a38.1 38.1 0 0 0-4.57-15.384c3.15.33 6.32.477 9.49.44 5.34 0 5.79-4.762 6.78-19.766h-10.89c-3.66 16.325-10.55 30.71-21.63 39.235a82.4 82.4 0 0 0-11.75-9.835c8.91-6.12 14.55-16.67 17.52-29.34h-13.44v-14.8zm-41.02 102.891-.15-48.57 50.29-.154.18 47.176h-16.23v-3.786l-18.53.06v5.167zm33.96-33.65-18.55.072v13.312l18.54-.06zm81.45-13.538-.1-25.756 26.67-.083.1 25.005h-8.61v-1.965h-9.83v2.74zm18.02-17.861h-9.83v7.06h9.83zm12.36 72.122h4.63l11.49-.06c.1 2.335.06 4.673-.12 7.002-2.57 56.488-4.7 59.382-37.26 58.739a50.4 50.4 0 0 0-6.01-20.386c4.18.437 8.38.632 12.58.584 7.08 0 7.66-6.287 8.99-26.196h-14.42c-4.81 21.648-13.99 40.699-28.71 52.011-4.77-4.815-9.98-9.18-15.56-13.039 11.8-8.108 19.23-22.135 23.21-38.9l-17.82.07-.06-19.622zm-54.36 136.446-.23-64.383 66.66-.214.24 62.537-21.5.071v-5.012l-24.57.083v6.846zm45.01-44.605-24.59.095.07 17.647 24.57-.083zM975.283-66.812l2.62.06 7.801 2.31q-.18.926-.481 1.821c-2.332 7.788-5.493 17.04-9.099 26.697 8.943 10.966 9.784 16.813 9.796 21.242.072 18.016-13.125 17.611-19.844 17.373a29.3 29.3 0 0 0-2.861-10.538l.072 21.624h-12.825l-.276-80.458zm-12.092 12.3.156 45.141c1.923.083 3.606.071 4.64.071 4.555 0 5.457-2.548 5.445-6.418 0-4.5-2.584-9.442-10.085-18.075 2.404-7.49 4.327-14.42 5.938-20.742zm-57.526 68.408-.132-38.103 39.472-.131.145 37.031h-12.729v-2.94h-14.544V13.8zm26.66-26.41h-14.556V-2.06h14.544zm-88.056 211.235 2.62.06 7.801 2.31q-.18.925-.481 1.822c-2.332 7.786-5.493 17.039-9.099 26.696 8.943 10.966 9.784 16.812 9.796 21.242.072 18.016-13.125 17.611-19.844 17.373a29.3 29.3 0 0 0-2.861-10.538l.072 21.624h-12.825l-.276-80.458zm-12.092 12.3.156 45.14c1.924.085 3.606.073 4.64.073 4.555 0 5.457-2.549 5.445-6.419 0-4.5-2.584-9.443-10.085-18.075 2.404-7.49 4.327-14.42 5.938-20.743zm-25.337-12.347h9.543a33 33 0 0 1-.072 4.143c-1.526 33.448-2.776 35.162-22.068 34.77a29.8 29.8 0 0 0-3.606-12.074c2.475.258 4.964.373 7.452.344 4.183 0 4.532-3.715 5.325-15.479h-8.546c-2.885 12.812-8.281 24.101-17.008 30.793a64.7 64.7 0 0 0-9.207-7.716c6.996-4.763 11.419-13.099 13.739-23.029h-10.554v-11.622zm-757.069-44.01 2.62.059 7.801 2.311q-.18.926-.48 1.821c-2.333 7.788-5.494 17.04-9.1 26.697 8.943 10.966 9.784 16.813 9.796 21.242.072 18.016-13.125 17.611-19.844 17.373a29.3 29.3 0 0 0-2.86-10.538l.071 21.624H24.95l-.276-80.458zm-12.092 12.3.157 45.141c1.923.083 3.605.071 4.639.071 4.556 0 5.457-2.548 5.445-6.418 0-4.501-2.584-9.442-10.084-18.076a351 351 0 0 0 5.937-20.742zm-25.337-12.348h9.543a33 33 0 0 1-.048 4.109c-1.526 33.447-2.776 35.162-22.068 34.769a29.9 29.9 0 0 0-3.606-12.075c2.476.259 4.964.375 7.453.346 4.182 0 4.53-3.715 5.324-15.48H.382c-2.872 12.8-8.281 24.089-17.007 30.781a65 65 0 0 0-9.208-7.74c6.996-4.763 11.42-13.098 13.739-23.029h-10.553v-11.621zm-32.189 80.756-.132-38.104 39.473-.131.144 37.032H6.908v-2.965H-7.634v4.049zm26.66-26.41H-7.743v10.454H6.801zm171.664-13.777 3.786.095 11.287 3.346a21 21 0 0 1-.697 2.643c-3.378 11.264-7.957 24.661-13.222 38.64 12.945 15.86 14.159 24.338 14.183 30.732.096 26.065-18.991 25.481-28.715 25.137a42.4 42.4 0 0 0-4.134-15.253l.096 31.291-18.559.06-.348-116.596zm-17.5 17.801.228 65.312c2.777.13 5.144.107 6.707.107 6.587 0 7.885-3.68 7.873-9.3 0-6.513-3.738-13.67-14.592-26.196 3.39-10.835 6.262-20.874 8.594-30.018zm-36.66-17.873h13.81a48 48 0 0 1-.108 5.954c-2.199 48.391-4.026 50.879-31.936 50.32a43.2 43.2 0 0 0-5.181-17.468c3.593.376 7.205.543 10.818.501 6.01 0 6.563-5.383 7.705-22.446h-12.368c-4.171 18.539-12.02 34.864-24.605 44.557a93.7 93.7 0 0 0-13.33-11.169c10.121-6.942 16.516-18.969 19.881-33.34H73.738v-16.814zm620.285 3.644 3.786.095 11.287 3.345q-.262 1.346-.697 2.645c-3.378 11.263-7.957 24.659-13.222 38.639 12.945 15.86 14.159 24.338 14.183 30.732.096 26.065-18.991 25.482-28.715 25.137a42.4 42.4 0 0 0-4.134-15.254l.096 31.293-18.559.059-.348-116.596zm-17.5 17.801.228 65.312c2.776.131 5.144.107 6.707.107 6.587 0 7.885-3.679 7.873-9.299 0-6.514-3.738-13.67-14.592-26.197 3.389-10.835 6.262-20.873 8.594-30.018zm-36.66-17.872h13.81a48 48 0 0 1-.108 5.952c-2.2 48.392-4.027 50.88-31.936 50.321a43.2 43.2 0 0 0-5.181-17.467c3.593.375 7.205.541 10.818.499 6.01 0 6.563-5.381 7.705-22.445h-12.369c-4.17 18.54-12.019 34.865-24.604 44.557a93.7 93.7 0 0 0-13.33-11.169c10.121-6.942 16.515-18.968 19.881-33.34h-15.265v-16.813zm610.438 9.584 3.49.084 10.37 3.072c-.16.807-.37 1.602-.64 2.382-3.1 10.347-7.3 22.624-12.1 35.483 11.89 14.575 13.01 22.35 13.03 28.221.08 23.933-17.44 23.409-26.38 23.088a39.1 39.1 0 0 0-3.8-14.015l.09 28.744h-17.04l-.37-107.047zm-16.07 16.349.21 60.001c2.55.12 4.72.096 6.16.096 6.01 0 7.21-3.382 7.21-8.538 0-5.953-3.43-12.562-13.4-24.017 3.12-9.955 5.75-19.171 7.9-27.578zm-33.66-16.408h12.65c.08 1.838.05 3.679-.09 5.513-2.02 44.45-3.69 46.736-29.34 46.225a39.7 39.7 0 0 0-4.81-16.052q4.935.518 9.9.465c5.57 0 6.01-4.942 7.07-20.624h-11.36c-3.82 17.028-11.01 32.031-22.6 40.925a86 86 0 0 0-12.24-10.251c9.29-6.383 15.17-17.421 18.27-30.602h-14.03v-15.479zm-79.49-3.68h1.95l5.81 1.727q-.135.691-.36 1.357c-1.74 5.8-4.09 12.706-6.78 19.898 6.68 8.169 7.3 12.526 7.31 15.824 0 13.42-9.77 13.099-14.78 12.944a21.8 21.8 0 0 0-2.13-7.859v16.11h-9.55l-.21-60.012zm-9.02 9.169.13 33.639c1.43.071 2.64 0 3.44 0 3.39 0 4.07-1.893 4.06-4.763 0-3.358-1.93-7.038-7.52-13.467 1.75-5.585 3.22-10.717 4.43-15.48zm-18.88-9.216h7.12c.06 1.027.06 2.058 0 3.084-1.13 24.922-2.07 26.197-16.45 25.91a22.1 22.1 0 0 0-2.66-8.99c1.84.194 3.7.283 5.55.263 3.12 0 3.38-2.775 3.97-11.562h-6.43c-2.14 9.525-6.18 17.955-12.67 22.944a48.3 48.3 0 0 0-6.87-5.75c5.21-3.573 8.51-9.764 10.24-17.159h-7.86v-8.657z"/></g><defs><clipPath id="clip0"><path fill="#fff" d="M-1 0h1440v212H-1z"/></clipPath></defs></svg>