<?xml version="1.0" encoding="UTF-8" standalone="no"?>
<!DOCTYPE svg PUBLIC "-//W3C//DTD SVG 1.1//EN" "http://www.w3.org/Graphics/SVG/1.1/DTD/svg11.dtd">
<svg width="100%" height="100%" viewBox="0 0 193 116" version="1.1"
    xmlns="http://www.w3.org/2000/svg" xmlns:xlink="http://www.w3.org/1999/xlink"
    xml:space="preserve" xmlns:serif="http://www.serif.com/"
    style="fill-rule:evenodd;clip-rule:evenodd;stroke-linejoin:round;stroke-miterlimit:2;"><g><path d="M879.459,-310.04l-26.337,0c-0.004,209.108 -84.721,398.3 -221.746,535.35c-137.05,137.029 -326.242,221.742 -535.35,221.75c-209.112,-0.008 -398.3,-84.721 -535.35,-221.75c-137.029,-137.05 -221.742,-326.242 -221.75,-535.35c0.008,-209.108 84.721,-398.3 221.75,-535.35c137.05,-137.025 326.237,-221.742 535.35,-221.746c209.108,0.004 398.3,84.721 535.346,221.746c137.029,137.05 221.746,326.242 221.75,535.35l26.337,0c0.004,-216.296 -87.712,-412.237 -229.462,-553.971c-141.733,-141.75 -337.675,-229.467 -553.971,-229.463c-216.3,-0.004 -412.242,87.713 -553.971,229.463c-141.754,141.733 -229.471,337.675 -229.462,553.971c-0.008,216.3 87.708,412.242 229.462,553.971c141.729,141.754 337.671,229.471 553.971,229.462c216.296,0.008 412.238,-87.708 553.971,-229.462c141.75,-141.729 229.467,-337.671 229.462,-553.971Z" style="fill:#eb3427;fill-rule:nonzero;"/><path d="M86.209,9.76c3.629,-5.988 11.421,-7.9 17.408,-4.271c5.988,3.629 7.896,11.421 4.271,17.408c-3.629,5.983 -11.425,7.896 -17.408,4.271c-5.988,-3.629 -7.896,-11.425 -4.271,-17.408Z" style="fill:#eb3427;fill-rule:nonzero;"/><path d="M118.626,18.135c0,0 37.158,-17 58.483,-17.162c7.983,-0.063 14.667,5.992 14.929,13.975c0.267,7.979 -5.992,14.704 -13.975,14.929c-23.896,0.675 -59.437,-11.742 -59.437,-11.742Z" style="fill:#eb3427;fill-rule:nonzero;"/><path d="M111.826,34.377c0,0 35.737,19.813 48.525,36.875c4.788,6.392 3.883,15.362 -2.383,20.312c-6.271,4.95 -15.392,3.908 -20.312,-2.383c-14.729,-18.833 -25.829,-54.804 -25.829,-54.804Z" style="fill:#eb3427;fill-rule:nonzero;"/><path d="M96.043,42.518c0,0 14.758,38.1 13.65,59.396c-0.417,7.975 -6.858,14.283 -14.842,14.075c-7.983,-0.212 -14.321,-6.858 -14.071,-14.842c0.746,-23.896 15.262,-58.629 15.262,-58.629Z" style="fill:#eb3427;fill-rule:nonzero;"/><path d="M79.593,34.885c0,0 -11.758,39.133 -25.717,55.258c-5.225,6.038 -14.183,7.058 -20.354,1.987c-6.171,-5.071 -7.087,-14.208 -1.987,-20.354c15.271,-18.396 48.058,-36.892 48.058,-36.892Z" style="fill:#eb3427;fill-rule:nonzero;"/><path d="M73.484,14.348c0,0 -37.871,15.35 -59.179,14.575c-7.983,-0.292 -14.392,-6.633 -14.304,-14.617c0.087,-7.987 6.633,-14.429 14.621,-14.304c23.904,0.375 58.862,14.346 58.862,14.346Z" style="fill:#eb3427;fill-rule:nonzero;"/></g></svg>