<?xml version="1.0" encoding="UTF-8" standalone="no"?><!DOCTYPE svg PUBLIC "-//W3C//DTD SVG 1.1//EN" "http://www.w3.org/Graphics/SVG/1.1/DTD/svg11.dtd"><svg width="100%" height="100%" viewBox="0 0 4180 1064" version="1.1" xmlns="http://www.w3.org/2000/svg" xmlns:xlink="http://www.w3.org/1999/xlink" xml:space="preserve" xmlns:serif="http://www.serif.com/" style="fill-rule:evenodd;clip-rule:evenodd;stroke-linejoin:round;stroke-miterlimit:2;"><g><path d="M2344.971,1055.721l-21.583,0l0,-383.929l-95.333,0l0,383.929l-21.625,0l0,-383.929l-286.667,0l0,383.929l-21.625,0l0,-383.929l-95.333,0l0,383.929l-21.583,0l0,-383.929l-18.75,0l0,-23.583l-20.875,0l0,-64.75c-101.5,-18.004 -154.042,-49.333 -154.042,-49.333c26.525,3.625 50.442,5.212 72.029,5.212c103.158,-0.004 152.604,-36.329 173.971,-60.171l20.083,-20.333l-46.25,-102.083c-71.75,-27.333 -99.625,-67.921 -99.625,-67.921c24.013,5.308 46.571,7.725 67.746,7.725c177.287,0 257.404,-169.438 280.296,-229.846l2.458,-22.417l4.833,-44.292l4.833,44.292l2.458,22.417c22.892,60.413 102.983,229.871 280.296,229.846c21.162,0 43.746,-2.417 67.746,-7.725c0,0 -27.875,40.587 -99.625,67.921l-46.25,102.083c0,0 39.146,80.5 193.837,80.5c21.733,0 45.742,-1.588 72.246,-5.208c0,0 -51.292,32.667 -154.042,50.458l0,63.625l-20.875,0l0,23.583l-18.75,0l0,383.929Zm-564.5,-408.888l0,9.833l565.25,0l0,-9.833l-565.25,0Zm-22.917,-63l0,8.208l611.083,0l0,-8.208l-611.083,0Zm501.875,-124.333l0,20.875l4.917,0l0,-20.875l-4.917,0Zm-14.708,0l0,20.875l4.875,0l0,-20.875l-4.875,0Zm-14.75,0l0,20.875l4.917,0l0,-20.875l-4.917,0Zm-14.708,0l0,20.875l4.917,0l0,-20.875l-4.917,0Zm-14.75,0l0,20.875l4.917,0l0,-20.875l-4.917,0Zm-14.708,0l0,20.875l4.917,0l0,-20.875l-4.917,0Zm-14.708,0l0,20.875l4.875,0l0,-20.875l-4.875,0Zm-14.75,0l0,20.875l4.917,0l0,-20.875l-4.917,0Zm-14.708,0l0,20.875l4.917,0l0,-20.875l-4.917,0Zm-14.75,0l0,20.875l4.917,0l0,-20.875l-4.917,0Zm-14.708,0l0,20.875l4.917,0l0,-20.875l-4.917,0Zm-14.708,0l0,20.875l4.875,0l0,-20.875l-4.875,0Zm-14.75,0l0,20.875l4.917,0l0,-20.875l-4.917,0Zm-14.708,0l0,20.875l4.917,0l0,-20.875l-4.917,0Zm-14.75,0l0,20.875l4.917,0l0,-20.875l-4.917,0Zm-14.708,0l0,20.875l4.917,0l0,-20.875l-4.917,0Zm-14.708,0l0,20.875l4.875,0l0,-20.875l-4.875,0Zm-14.75,0l0,20.875l4.917,0l0,-20.875l-4.917,0Zm-14.708,0l0,20.875l4.917,0l0,-20.875l-4.917,0Zm-14.75,0l0,20.875l4.917,0l0,-20.875l-4.917,0Zm-14.708,0l0,20.875l4.917,0l0,-20.875l-4.917,0Zm-14.708,0l0,20.875l4.875,0l0,-20.875l-4.875,0Zm-14.75,0l0,20.875l4.917,0l0,-20.875l-4.917,0Zm-14.708,0l0,20.875l4.917,0l0,-20.875l-4.917,0Zm-14.75,0l0,20.875l4.917,0l0,-20.875l-4.917,0Zm-14.708,0l0,20.875l4.917,0l0,-20.875l-4.917,0Zm-14.708,0l0,20.875l4.875,0l0,-20.875l-4.875,0Zm-14.75,0l0,20.875l4.913,0l0,-20.875l-4.913,0Zm231.5,-93.25l0,70.333l40.917,0l0,-70.333l-40.917,0Zm-55.625,0l0,70.333l40.917,0l0,-70.333l-40.917,0Zm-55.625,0l0,70.333l40.917,0l0,-70.333l-40.917,0Z" style="fill:#e0baa9;fill-rule:nonzero;"/><path d="M3652.642,827.9c68.258,0 123.592,55.333 123.592,123.596c0,6.604 -0.667,13.037 -1.662,19.362l309.383,0l-92.071,-47.496l-13.692,0l0,-7.062l-77.233,-39.842c-16.271,-8.396 -32.421,-17.021 -48.446,-25.871l0,2.037l-24.037,0l0,-15.538c-42.938,-24.525 -84.879,-50.738 -125.679,-78.604l0,23.404l-24.033,0l0,-40.121c-43.338,-30.654 -85.321,-63.221 -125.679,-97.8l0,67.183l-24.037,0l0,-88.142c-25.458,-22.371 -54.658,-45.771 -87.221,-68.287l0,50.321l-24.037,0l0,-66.358c-38.054,-24.504 -80.138,-47.321 -125.679,-65.813l0,61.433l-24.033,0l0,-70.646c-33.804,-12.233 -69.358,-21.942 -106.45,-28.146l0,74.071l-24.038,0l0,-77.596c-34.304,-4.225 -69.846,-5.358 -106.45,-2.658l0,80.254l-24.037,0l0,-77.892c-34.629,4.112 -70.146,11.675 -106.45,23.4l0,68.225l-24.033,0l0,-59.829c-30.871,11.429 -62.254,25.833 -94.088,43.667l0,55.075l-24.037,0l0,-40.975c-30.992,18.904 -62.375,41.083 -94.087,66.825l0,69.613l-24.038,0l0,-49.521c-0.45,0.388 -0.896,0.75 -1.346,1.142c-33.921,29.446 -69.021,57.425 -105.104,84.046l0,41.25l-24.037,0l0,-23.825c-38.775,27.604 -78.638,53.663 -119.496,78.108l0,41.179l-24.037,0l0,-27.021c-39.025,22.558 -78.917,43.654 -119.5,63.4l0,21.308l-24.033,0l0,-9.721l-195.046,92.821l354.304,0c-2.333,-9.487 -3.708,-19.354 -3.708,-29.562c0,-68.258 55.338,-123.596 123.596,-123.596c68.258,0 123.596,55.337 123.596,123.596c0,10.208 -1.375,20.075 -3.708,29.562l97.029,0c-1.021,-10.717 -1.588,-21.567 -1.588,-32.55c0,-186.992 151.583,-381.571 338.575,-381.571c186.992,0 338.575,194.579 338.575,381.571c0,10.983 -0.567,21.833 -1.592,32.55l137.862,0c-0.996,-6.325 -1.662,-12.758 -1.662,-19.362c0,-68.262 55.333,-123.596 123.596,-123.596Z" style="fill:#732113;fill-rule:nonzero;"/><path d="M2366.346,761.579c0,0 104.758,-64.658 143.533,-92.267l24.037,-17.421c36.083,-26.625 71.183,-54.604 105.104,-84.05c0.45,-0.392 0.896,-0.754 1.346,-1.142l24.038,-20.092c31.712,-25.742 63.096,-47.921 94.087,-66.825l24.037,-14.1c31.833,-17.833 63.217,-32.237 94.088,-43.667l24.033,-8.396c36.304,-11.725 71.821,-19.283 106.45,-23.4l24.037,-2.363c36.604,-2.7 72.146,-1.567 106.45,2.658l24.038,3.525c37.092,6.204 72.646,15.913 106.45,28.146l24.033,9.212c45.542,18.496 87.625,41.313 125.679,65.812l24.037,16.038c32.563,22.517 61.762,45.917 87.221,68.287l24.037,20.958c40.358,34.579 82.342,67.146 125.679,97.804l24.033,16.713c40.8,27.867 82.742,54.079 125.679,78.604l24.037,15.538l0,-2.038c16.025,8.85 32.175,17.475 48.446,25.871l77.233,39.842l13.692,7.062l24.208,12.488l67.863,0l-92.071,-47.496l-13.692,-7.063l-77.233,-39.842c-16.271,-8.396 -32.421,-17.021 -48.446,-25.867l0,2.033l-24.037,-15.538c-42.938,-24.525 -84.879,-50.737 -125.679,-78.604l-24.033,-16.713c-43.338,-30.658 -85.321,-63.225 -125.679,-97.804l-24.037,-20.954c-25.458,-22.375 -54.658,-45.771 -87.221,-68.292l-24.037,-16.037c-38.054,-24.5 -80.138,-47.317 -125.679,-65.808l-24.033,-9.217c-33.804,-12.229 -69.358,-21.942 -106.45,-28.146l-24.038,-3.525c-34.304,-4.225 -69.846,-5.358 -106.45,-2.658l-24.037,2.363c-34.629,4.117 -70.146,11.675 -106.45,23.404l-24.033,8.392c-30.871,11.429 -62.254,25.833 -94.088,43.667l-24.037,14.1c-30.992,18.904 -62.375,41.083 -94.087,66.825l-24.038,20.092c-0.45,0.387 -0.896,0.754 -1.346,1.142c-33.921,29.446 -69.021,57.425 -105.104,84.05l-24.037,17.425c-38.775,27.604 -143.533,92.262 -143.533,92.262c-39.025,22.558 -338.579,167.808 -338.579,167.808l71.962,0c91.229,-44.483 239.912,-117.362 266.617,-132.8Z" style="fill:#732113;fill-rule:nonzero;"/><path d="M2717.346,894.379l1.529,0c-0.488,-5.113 -0.854,-10.258 -1.125,-15.429c-0.262,5.146 -0.367,10.287 -0.404,15.429Z" style="fill:#732113;fill-rule:nonzero;"/><path d="M2621.846,894.379l3.433,0c-0.179,-4.062 -0.542,-8.067 -1.1,-12.021c-0.608,4.067 -1.367,8.083 -2.333,12.021Z" style="fill:#732113;fill-rule:nonzero;"/><path d="M2378.638,894.379l3.433,0c-0.967,-3.937 -1.721,-7.954 -2.329,-12.021c-0.563,3.954 -0.925,7.958 -1.104,12.021Z" style="fill:#732113;fill-rule:nonzero;"/><path d="M2246.846,887.758l0,-21.308c-5.083,2.475 -10.158,4.983 -15.267,7.412l-8.767,4.175l0,9.721l24.033,0Z" style="fill:#732113;fill-rule:nonzero;"/><path d="M2390.383,830.071l0,-41.179c-7.979,4.775 -15.988,9.504 -24.037,14.158l0,27.021l24.037,0Z" style="fill:#732113;fill-rule:nonzero;"/><path d="M2533.917,734.608l0,-41.25c-7.962,5.879 -15.975,11.688 -24.037,17.425l0,23.825l24.037,0Z" style="fill:#732113;fill-rule:nonzero;"/><path d="M2664.404,657.692l0,-69.613c-7.996,6.487 -16.004,13.142 -24.038,20.092l0,49.521l24.038,0Z" style="fill:#732113;fill-rule:nonzero;"/><path d="M2782.529,562.229l0,-55.075c-7.983,4.471 -16,9.196 -24.037,14.1l0,40.975l24.037,0Z" style="fill:#732113;fill-rule:nonzero;"/><path d="M2900.65,523.317l0,-68.225c-7.971,2.575 -15.992,5.417 -24.033,8.396l0,59.829l24.033,0Z" style="fill:#732113;fill-rule:nonzero;"/><path d="M3031.138,509.583l0,-80.254c-7.958,0.588 -15.979,1.404 -24.037,2.363l0,77.892l24.037,0Z" style="fill:#732113;fill-rule:nonzero;"/><path d="M3161.625,509.583l0,-74.071c-7.95,-1.329 -15.95,-2.529 -24.038,-3.525l0,77.596l24.038,0Z" style="fill:#732113;fill-rule:nonzero;"/><path d="M3292.108,534.304l0,-61.433c-7.904,-3.208 -15.921,-6.279 -24.033,-9.212l0,70.646l24.033,0Z" style="fill:#732113;fill-rule:nonzero;"/><path d="M2258.867,932.763l0,-184.317l-24.038,0l0,196.908l8.767,-4.533c5.113,-2.642 10.183,-5.367 15.271,-8.058Z" style="fill:#732113;fill-rule:nonzero;"/><path d="M2392.971,667.996l-24.038,0l0,228.575c8.054,-6.492 16.058,-13.088 24.038,-19.746l0,-208.829Z" style="fill:#732113;fill-rule:nonzero;"/><path d="M2527.075,579l-24.033,0l0,212.813c8.058,-7.308 16.071,-14.704 24.033,-22.192l0,-190.621Z" style="fill:#732113;fill-rule:nonzero;"/><path d="M2661.183,481.038l-24.038,0l0,180.087c8.033,-8.854 16.042,-17.325 24.038,-25.587l0,-154.5Z" style="fill:#732113;fill-rule:nonzero;"/><path d="M2795.288,375.721l-24.038,0l0,187.396c8.038,-6.129 16.054,-12.029 24.038,-17.621l0,-169.775Z" style="fill:#732113;fill-rule:nonzero;"/><path d="M2929.392,324.346l-24.037,0l0,157.429c8.046,-3.575 16.062,-6.988 24.037,-10.079l0,-147.35Z" style="fill:#732113;fill-rule:nonzero;"/><path d="M3063.496,307.85l-24.037,0l0,135.742c8.058,-1.15 16.079,-2.133 24.037,-2.837l0,-132.904Z" style="fill:#732113;fill-rule:nonzero;"/><path d="M3197.6,318.663l-24.037,0l0,136.746c8.087,1.2 16.092,2.65 24.037,4.25l0,-140.996Z" style="fill:#732113;fill-rule:nonzero;"/><path d="M3331.704,348.492l-24.037,0l0,145.129c8.113,3.542 16.133,7.242 24.037,11.117l0,-156.246Z" style="fill:#732113;fill-rule:nonzero;"/><path d="M1667.479,827.9c68.258,0 123.596,55.333 123.596,123.596c0,6.604 -0.667,13.037 -1.667,19.362l309.388,0l-92.075,-47.496l-13.687,0l0,-7.062l-77.233,-39.842c-16.275,-8.396 -32.425,-17.021 -48.45,-25.871l0,2.037l-24.033,0l0,-15.538c-42.942,-24.525 -84.879,-50.738 -125.679,-78.604l0,23.404l-24.037,0l0,-40.121c-43.338,-30.654 -85.321,-63.221 -125.679,-97.8l0,67.183l-24.033,0l0,-88.142c-25.462,-22.371 -54.658,-45.771 -87.221,-68.287l0,50.321l-24.037,0l0,-66.358c-38.054,-24.504 -80.138,-47.321 -125.679,-65.813l0,61.433l-24.038,0l0,-70.646c-33.8,-12.233 -69.354,-21.942 -106.45,-28.146l0,74.071l-24.037,0l0,-77.596c-34.304,-4.225 -69.842,-5.358 -106.45,-2.658l0,80.254l-24.033,0l0,-77.892c-34.633,4.112 -70.15,11.675 -106.45,23.4l0,68.225l-24.038,0l0,-59.829c-30.867,11.429 -62.25,25.833 -94.087,43.667l0,55.075l-24.033,0l0,-40.975c-30.988,18.904 -62.375,41.083 -94.088,66.825l0,69.613l-24.037,0l0,-49.521c-0.45,0.388 -0.896,0.75 -1.346,1.142c-33.921,29.446 -69.021,57.425 -105.104,84.046l0,41.25l-24.033,0l0,-23.825c-38.775,27.604 -78.642,53.663 -119.5,78.108l0,41.179l-24.037,0l0,-27.021c-39.025,22.558 -78.921,43.654 -119.5,63.4l0,21.308l-24.037,0l0,-9.721l-195.042,92.821l354.308,0c-2.337,-9.487 -3.708,-19.354 -3.708,-29.562c0,-68.258 55.333,-123.596 123.592,-123.596c68.262,0 123.596,55.337 123.596,123.596c0,10.208 -1.375,20.075 -3.708,29.562l97.033,0c-1.025,-10.717 -1.592,-21.567 -1.592,-32.55c0,-186.992 151.579,-381.571 338.571,-381.571c186.992,0 338.579,194.579 338.579,381.571c0,10.983 -0.567,21.833 -1.592,32.55l137.863,0c-0.996,-6.325 -1.663,-12.758 -1.663,-19.362c0,-68.262 55.333,-123.596 123.592,-123.596Z" style="fill:#732113;fill-rule:nonzero;"/><path d="M1789.408,894.379l0.571,0c-0.087,-0.683 -0.212,-1.354 -0.312,-2.037c-0.096,0.675 -0.15,1.367 -0.258,2.037Z" style="fill:#732113;fill-rule:nonzero;"/><path d="M1407.688,894.379l1.529,0c-0.038,-5.142 -0.142,-10.283 -0.404,-15.429c-0.271,5.171 -0.637,10.317 -1.125,15.429Z" style="fill:#732113;fill-rule:nonzero;"/><path d="M381.188,761.579c0,0 104.762,-64.658 143.537,-92.267l24.033,-17.421c36.083,-26.625 71.183,-54.604 105.104,-84.05c0.45,-0.392 0.896,-0.754 1.346,-1.142l24.037,-20.092c31.713,-25.742 63.1,-47.921 94.088,-66.825l24.033,-14.1c31.838,-17.833 63.221,-32.237 94.087,-43.667l24.038,-8.396c36.3,-11.725 71.817,-19.283 106.45,-23.4l24.033,-2.363c36.608,-2.7 72.146,-1.567 106.45,2.658l24.037,3.525c37.096,6.204 72.65,15.913 106.45,28.146l24.038,9.212c45.542,18.496 87.625,41.313 125.679,65.812l24.037,16.038c32.563,22.517 61.758,45.917 87.221,68.287l24.033,20.958c40.358,34.579 82.342,67.146 125.679,97.804l24.037,16.713c40.8,27.867 82.738,54.079 125.679,78.604l24.033,15.538l0,-2.038c16.025,8.85 32.175,17.475 48.45,25.871l77.233,39.842l13.687,7.062l24.213,12.488l67.863,0l-92.075,-47.496l-13.687,-7.063l-77.233,-39.842c-16.275,-8.396 -32.425,-17.021 -48.45,-25.867l0,2.033l-24.033,-15.538c-42.942,-24.525 -84.879,-50.737 -125.679,-78.604l-24.037,-16.713c-43.338,-30.658 -85.321,-63.225 -125.679,-97.804l-24.033,-20.954c-25.462,-22.375 -54.658,-45.771 -87.221,-68.292l-24.037,-16.037c-38.054,-24.5 -80.138,-47.317 -125.679,-65.808l-24.038,-9.217c-33.8,-12.229 -69.354,-21.942 -106.45,-28.146l-24.037,-3.525c-34.304,-4.225 -69.842,-5.358 -106.45,-2.658l-24.033,2.363c-34.633,4.117 -70.15,11.675 -106.45,23.404l-24.038,8.392c-30.867,11.429 -62.25,25.833 -94.087,43.667l-24.033,14.1c-30.988,18.904 -62.375,41.083 -94.088,66.825l-24.037,20.092c-0.45,0.387 -0.896,0.754 -1.346,1.142c-33.921,29.446 -69.021,57.425 -105.104,84.05l-24.033,17.425c-38.775,27.604 -143.537,92.262 -143.537,92.262c-39.025,22.558 -338.579,167.808 -338.579,167.808l71.963,0c91.225,-44.483 239.908,-117.362 266.617,-132.8Z" style="fill:#732113;fill-rule:nonzero;"/><path d="M1544.983,894.379l0.567,0c-0.104,-0.671 -0.158,-1.362 -0.254,-2.037c-0.1,0.683 -0.225,1.354 -0.312,2.037Z" style="fill:#732113;fill-rule:nonzero;"/><path d="M797.367,562.229l0,-55.075c-7.983,4.471 -15.996,9.196 -24.033,14.1l0,40.975l24.033,0Z" style="fill:#732113;fill-rule:nonzero;"/><path d="M915.492,523.317l0,-68.225c-7.971,2.575 -15.992,5.417 -24.038,8.396l0,59.829l24.038,0Z" style="fill:#732113;fill-rule:nonzero;"/><path d="M1045.975,509.583l0,-80.254c-7.958,0.588 -15.979,1.404 -24.033,2.363l0,77.892l24.033,0Z" style="fill:#732113;fill-rule:nonzero;"/><path d="M1176.463,509.583l0,-74.071c-7.946,-1.329 -15.95,-2.529 -24.037,-3.525l0,77.596l24.037,0Z" style="fill:#732113;fill-rule:nonzero;"/><path d="M1306.95,534.304l0,-61.433c-7.904,-3.208 -15.925,-6.279 -24.038,-9.212l0,70.646l24.038,0Z" style="fill:#732113;fill-rule:nonzero;"/><path d="M1456.667,605.042l0,-50.321c-7.821,-5.408 -15.837,-10.758 -24.037,-16.037l0,66.358l24.037,0Z" style="fill:#732113;fill-rule:nonzero;"/><path d="M1567.921,711.15l0,-67.183c-7,-6 -13.958,-12.058 -20.863,-18.179c-1.042,-0.921 -2.117,-1.854 -3.171,-2.779l0,88.142l24.033,0Z" style="fill:#732113;fill-rule:nonzero;"/><path d="M1717.638,781.887l0,-23.404c-8.058,-5.504 -16.067,-11.079 -24.037,-16.717l0,40.121l24.037,0Z" style="fill:#732113;fill-rule:nonzero;"/><path d="M1867.35,852.625l0,-2.037c-8.046,-4.442 -16.054,-8.946 -24.033,-13.5l0,15.538l24.033,0Z" style="fill:#732113;fill-rule:nonzero;"/><path d="M810.125,375.721l-24.033,0l0,187.396c8.033,-6.129 16.05,-12.029 24.033,-17.621l0,-169.775Z" style="fill:#732113;fill-rule:nonzero;"/><path d="M944.229,324.346l-24.038,0l0,157.429c8.046,-3.575 16.067,-6.988 24.038,-10.079l0,-147.35Z" style="fill:#732113;fill-rule:nonzero;"/><path d="M1078.333,307.85l-24.037,0l0,135.742c8.058,-1.15 16.079,-2.133 24.037,-2.837l0,-132.904Z" style="fill:#732113;fill-rule:nonzero;"/><path d="M1212.442,318.663l-24.038,0l0,136.746c8.083,1.2 16.092,2.65 24.038,4.25l0,-140.996Z" style="fill:#732113;fill-rule:nonzero;"/><path d="M1346.546,348.492l-24.037,0l0,145.129c8.108,3.542 16.129,7.242 24.037,11.117l0,-156.246Z" style="fill:#732113;fill-rule:nonzero;"/><path d="M1480.65,409.042l-24.037,0l0,159.271c8.2,6.75 16.221,13.596 24.037,20.508l0,-179.779Z" style="fill:#732113;fill-rule:nonzero;"/><path d="M1614.754,702.938l0,-179.621l-24.033,0l0,149.2c1.05,1.346 2.129,2.696 3.171,4.038c6.904,8.879 13.862,17.675 20.862,26.383Z" style="fill:#732113;fill-rule:nonzero;"/><path d="M1748.858,635.167l-24.033,0l0,192.829c7.967,7.208 15.975,14.333 24.033,21.375l0,-214.204Z" style="fill:#732113;fill-rule:nonzero;"/><path d="M1882.967,732.587l-24.042,0l0,211.629c7.983,5.496 15.988,10.929 24.042,16.292l0,-227.921Z" style="fill:#732113;fill-rule:nonzero;"/><path d="M2017.071,960.508l0,-142.567l-24.037,0l0,137.292l13.687,5.275l10.35,0Z" style="fill:#732113;fill-rule:nonzero;"/><path d="M2006.721,923.363l-13.687,-7.062l0,7.062l13.687,0Z" style="fill:#732113;fill-rule:nonzero;"/><path d="M1794.354,970.858l-112.571,0l62.538,-758.833l70.883,0l-20.85,758.833Z" style="fill:#732113;fill-rule:nonzero;"/><path d="M2319.7,970.858l112.575,0l-62.542,-758.833l-70.879,0l20.846,758.833Z" style="fill:#732113;fill-rule:nonzero;"/><rect x="1556.7" y="316.262" width="1025.671" height="62.538" style="fill:#732113;fill-rule:nonzero;"/><rect x="2036.179" y="187.008" width="54.204" height="129.254" style="fill:#732113;fill-rule:nonzero;"/><rect x="1527.513" y="141.146" width="1088.217" height="70.879" style="fill:#732113;fill-rule:nonzero;"/><path d="M1406.6,20.233l120.913,120.912l1088.217,0l104.233,-120.912c0,0 -654.596,220.979 -1313.363,0Z" style="fill:#732113;fill-rule:nonzero;"/><rect x="1606.733" y="279.779" width="22.929" height="135.504" style="fill:#732113;fill-rule:nonzero;"/><rect x="2503.154" y="279.779" width="22.929" height="135.504" style="fill:#732113;fill-rule:nonzero;"/><path d="M3029.617,367.671c-15.325,-5.092 -27.333,-15.417 -34.875,-28.321c12.475,-7.683 28.067,-10.433 43.754,-5.525c6.779,2.121 12.988,5.5 18.413,9.833c-8.879,-16.417 -18.325,-32.546 -28.333,-48.354c-11.513,5.946 -25.267,7.746 -39.175,4.621c-15.783,-3.562 -28.812,-12.683 -37.658,-24.829c11.633,-8.904 26.892,-13.183 43.025,-9.829c6.979,1.446 13.508,4.208 19.358,7.996c-6.233,-9.179 -12.658,-18.242 -19.275,-27.183c-12.175,-4.004 -23.5,-11.525 -32.396,-22.438c-10.787,-13.262 -16.05,-29.137 -15.962,-44.629c15.404,1.337 31.071,9.279 42.35,23.15c9.283,11.392 14.017,24.846 14.35,37.746c11.933,16.125 23.254,32.646 33.95,49.525c-1.183,-6.933 -1.354,-14.108 -0.321,-21.313c2.383,-16.612 10.725,-30.263 22.883,-38.496c10.017,14.05 14.871,31.667 12.112,48.496c-2.421,14.867 -10.242,26.533 -20.779,34.05c9.613,16.3 18.65,32.908 27.104,49.796c-0.471,-6.996 0.092,-14.133 1.85,-21.175c4.063,-16.246 13.75,-28.963 26.671,-35.938c8.517,14.921 11.55,32.883 7.1,49.312c-3.913,14.521 -12.871,25.329 -24.108,31.746c7.908,17.142 15.225,34.542 21.942,52.175c0.233,-7.004 1.508,-14.042 3.971,-20.867c5.671,-15.742 16.592,-27.408 30.146,-33.054c6.967,15.667 8.179,33.821 2.104,49.721c-5.35,14.046 -15.346,23.9 -27.167,29.167c6.15,17.842 11.692,35.896 16.617,54.142c0.933,-6.954 2.904,-13.837 6.033,-20.388c7.217,-15.104 19.25,-25.621 33.304,-29.879c5.362,16.292 4.758,34.5 -2.875,49.729c-6.721,13.458 -17.65,22.279 -29.942,26.333c13.658,57.921 21.133,117.533 22.042,177.858c-3.458,0.054 -6.917,0.104 -10.375,0.158c-1.029,-68.329 -10.588,-135.729 -28.108,-200.746c-12.758,2.267 -26.421,-0.079 -38.767,-7.146c-14.004,-8.042 -23.708,-20.533 -28.513,-34.637c13.758,-5.042 29.575,-4.65 43.963,3.262c6.225,3.421 11.629,7.963 16.083,13.283c-5.425,-17.838 -11.458,-35.483 -18.083,-52.896c-12.467,3.537 -26.292,2.579 -39.279,-3.208c-14.733,-6.583 -25.637,-18.033 -31.829,-31.596c13.183,-6.392 28.962,-7.579 44.071,-1.15c6.529,2.779 12.362,6.754 17.325,11.596c-7.179,-17.192 -14.946,-34.146 -23.287,-50.821c-12.05,4.767 -25.904,5.192 -39.412,0.721Z" style="fill:#fcb418;fill-rule:nonzero;"/><path d="M1963.45,1057.267c-6.529,-45.533 -44.383,-81.675 -92.075,-84.346c-19.092,-1.071 -37.167,3.458 -52.783,12.021c-23.067,-50.992 -74.275,-86.533 -133.879,-86.533c-18.579,0 -36.279,3.588 -52.642,9.875c-40.725,-76.142 -120.979,-127.967 -213.367,-127.967c-92.446,0 -172.746,51.896 -213.442,128.125c-25.617,-21.296 -58.529,-34.108 -94.442,-34.108c-19.238,0 -37.596,3.713 -54.454,10.4c-25.029,-99.413 -114.996,-173.017 -222.175,-173.017c-44.954,0 -86.842,12.996 -122.221,35.362c-47.562,-99.575 -149.188,-168.383 -266.896,-168.383c-134.458,0 -247.875,89.792 -283.75,212.658c-91.354,14 -161.325,92.929 -161.325,188.2c0,27.692 5.958,53.975 16.588,77.713l1946.863,0Z" style="fill:#b61f24;fill-rule:nonzero;"/><path d="M2675.183,649.712c-12.367,-9.55 -20.033,-22.817 -22.792,-37.012c13.85,-3.029 28.967,-0.554 41.721,8.942c5.517,4.108 10.104,9.179 13.671,14.871c-2.858,-17.829 -6.329,-35.579 -10.408,-53.217c-12.417,1.75 -25.55,-1.004 -37.25,-8.304c-13.275,-8.304 -22.25,-20.796 -26.45,-34.717c13.475,-4.408 28.771,-3.437 42.433,4.783c5.908,3.554 10.987,8.162 15.117,13.492c-2.754,-10.375 -5.725,-20.704 -8.908,-30.983c-9.833,-7.55 -17.771,-18.037 -22.4,-30.85c-5.613,-15.563 -5.342,-31.738 -0.308,-45.858c13.637,6.15 25.404,18.408 31.271,34.679c4.833,13.371 4.85,27.171 1.029,39.058c5.742,18.542 10.796,37.246 15.163,56.079c1.142,-6.708 3.279,-13.312 6.525,-19.562c7.487,-14.408 19.471,-24.204 33.204,-27.833c4.654,16.033 3.454,33.671 -4.45,48.158c-6.963,12.8 -17.833,20.95 -29.858,24.446c3.563,17.958 6.504,36.017 8.825,54.137c1.808,-6.538 4.604,-12.875 8.463,-18.746c8.904,-13.533 21.817,-22.046 35.846,-24.283c3.004,16.35 0.033,33.717 -9.288,47.3c-8.217,12.004 -19.85,19.008 -32.167,21.279c1.742,18.179 2.858,36.408 3.35,54.654c2.454,-6.317 5.871,-12.337 10.3,-17.783c10.212,-12.558 23.917,-19.721 38.1,-20.538c1.35,16.533 -3.346,33.496 -13.979,46.071c-9.379,11.112 -21.654,16.921 -34.133,17.946c-0.092,18.258 -0.804,36.521 -2.142,54.754c3.079,-6.054 7.075,-11.704 12.029,-16.688c11.421,-11.483 25.771,-17.238 39.963,-16.633c-0.308,16.592 -6.683,33.021 -18.525,44.487c-10.442,10.142 -23.242,14.7 -35.758,14.471c-6.054,57.263 -18.292,114.083 -36.754,169.462c-3.175,-1.058 -6.35,-2.117 -9.525,-3.175c20.913,-62.725 33.737,-127.325 38.533,-192.3c-12.379,-2.008 -24.104,-8.521 -33.117,-18.921c-10.217,-11.821 -15.083,-26.329 -14.958,-40.746c14.175,-0.204 28.492,5.212 39.1,17.042c4.588,5.113 8.071,10.983 10.438,17.267c0.75,-18.025 0.883,-36.062 0.404,-54.083c-12.517,-0.754 -24.833,-6.054 -34.842,-15.487c-11.346,-10.725 -17.646,-24.667 -18.958,-39.029c14.079,-1.625 28.867,2.338 40.608,13.042c5.075,4.625 9.129,10.121 12.108,16.129c-1.054,-17.996 -2.725,-35.958 -5.008,-53.858c-12.529,0.5 -25.317,-3.542 -36.221,-11.942Z" style="fill:#fcb418;fill-rule:nonzero;"/><path d="M2063.283,1057.267c7.037,-49.079 47.842,-88.042 99.25,-90.921c20.583,-1.154 40.062,3.729 56.9,12.958c24.867,-54.967 80.062,-93.279 144.317,-93.279c20.021,0 39.104,3.871 56.742,10.646c43.896,-82.079 130.408,-137.937 229.992,-137.937c99.654,0 186.217,55.937 230.083,138.108c27.608,-22.954 63.088,-36.767 101.796,-36.767c20.737,0 40.529,4.004 58.704,11.208c26.979,-107.158 123.958,-186.496 239.492,-186.496c48.454,0 93.612,14.008 131.75,38.117c51.271,-107.338 160.812,-181.508 287.7,-181.508c144.933,0 267.188,96.792 305.858,229.233c98.475,15.092 173.9,100.171 173.9,202.867c0,29.85 -6.421,58.183 -17.879,83.771l-2098.604,0Z" style="fill:#b61f24;fill-rule:nonzero;"/><path d="M2535.663,1057.267c-2.192,-15.279 -14.896,-27.408 -30.9,-28.304c-6.408,-0.358 -12.471,1.162 -17.712,4.033c-7.742,-17.112 -24.925,-29.038 -44.929,-29.038c-6.233,0 -12.171,1.204 -17.662,3.313c-13.667,-25.55 -40.596,-42.942 -71.6,-42.942c-31.025,0 -57.971,17.417 -71.625,42.996c-8.596,-7.146 -19.642,-11.446 -31.692,-11.446c-6.454,0 -12.617,1.246 -18.275,3.492c-8.396,-33.362 -38.588,-58.062 -74.554,-58.062c-15.088,0 -29.142,4.362 -41.017,11.867c-15.958,-33.413 -50.063,-56.504 -89.562,-56.504c-45.121,0 -83.179,30.133 -95.217,71.363c-30.658,4.7 -54.137,31.183 -54.137,63.154c0,9.292 2,18.113 5.567,26.079l653.317,0Z" style="fill:#b61f24;fill-rule:nonzero;"/><path d="M1880.025,793.729c17.675,-4.429 32.063,-15.029 41.646,-28.913c-13.388,-9.704 -30.696,-14.121 -48.771,-9.929c-7.812,1.812 -15.079,5.092 -21.55,9.504c11.383,-17.717 23.379,-35.067 35.983,-52.008c12.45,7.671 27.771,10.858 43.687,8.525c18.063,-2.675 33.492,-11.833 44.479,-24.746c-12.337,-11.004 -29.142,-17.113 -47.579,-14.708c-7.975,1.038 -15.554,3.592 -22.458,7.354c7.787,-9.8 15.787,-19.454 23.992,-28.95c14.037,-3.475 27.417,-10.979 38.35,-22.504c13.267,-14.008 20.533,-31.425 21.75,-48.867c-17.446,0.2 -35.75,7.808 -49.617,22.458c-11.413,12.029 -17.879,26.771 -19.346,41.258c-14.796,17.133 -28.938,34.763 -42.4,52.85c1.917,-7.704 2.717,-15.762 2.167,-23.954c-1.271,-18.896 -9.504,-34.963 -22.483,-45.258c-12.467,14.963 -19.421,34.375 -17.742,53.546c1.462,16.933 9.275,30.721 20.492,40.071c-12.196,17.529 -23.775,35.454 -34.717,53.738c1.121,-7.833 1.092,-15.908 -0.292,-23.988c-3.192,-18.621 -13.017,-33.75 -26.963,-42.692c-10.85,16.067 -15.788,36.017 -12.171,54.883c3.175,16.667 12.337,29.592 24.437,37.767c-10.35,18.617 -20.058,37.575 -29.112,56.846c0.329,-7.9 -0.508,-15.925 -2.696,-23.817c-5.05,-18.192 -16.35,-32.246 -31.125,-39.746c-9.162,17.038 -12.071,37.362 -6.579,55.767c4.829,16.258 15.237,28.196 28.096,35.121c-8.433,19.554 -16.2,39.404 -23.287,59.517c-0.463,-7.904 -2.096,-15.813 -5.063,-23.45c-6.842,-17.608 -19.492,-30.462 -34.937,-36.446c-7.421,17.879 -8.283,38.417 -0.987,56.2c6.425,15.712 17.975,26.567 31.462,32.171c-20.279,64.017 3.954,22.621 20.429,-24.183c14.163,3.633 29.738,2.15 44.225,-4.754c16.438,-7.858 28.421,-21.092 35.021,-36.558c-15.054,-6.842 -32.888,-7.737 -49.746,-0.054c-7.292,3.321 -13.758,7.971 -19.221,13.583c7.617,-19.613 15.9,-38.954 24.829,-57.987c13.729,5.037 29.367,5.129 44.471,-0.279c17.138,-6.163 30.379,-18.121 38.492,-32.854c-14.287,-8.312 -31.946,-10.988 -49.487,-5.033c-7.587,2.575 -14.483,6.55 -20.479,11.579c9.538,-18.737 19.713,-37.154 30.513,-55.212c13.154,6.388 28.704,8.038 44.287,4.154Z" style="fill:#d52727;fill-rule:nonzero;"/><path d="M1963.762,1021.479l114.933,-38.692c-0.933,-2.958 -1.925,-5.892 -2.967,-8.8l-59.346,5.396l52.854,-21.663c-11.071,-25.096 -26.188,-47.996 -44.538,-67.879l-81.983,50.454l71.275,-61.379c-2.504,-2.4 -5.067,-4.738 -7.671,-7.033l-50.075,27.821l36.604,-38.867c-25.129,-19.175 -54.042,-33.638 -85.429,-42.071l-35.367,52.371l12.658,-57.329c-3.558,-0.604 -7.142,-1.142 -10.754,-1.592l-30.775,73.954l8.396,-75.704c-2.787,-0.092 -5.583,-0.154 -8.396,-0.154c-34.817,0 -67.946,7.217 -97.987,20.221c-3.65,29.012 -6.942,55.962 -6.942,58.646c0,2.917 -5.312,-22.833 -10.779,-50.121c-2.704,1.438 -5.383,2.917 -8.029,4.45l5.275,90.279l-22.596,-79.233c-25.929,18.079 -48.225,41 -65.579,67.458l13.004,57.371l-23.717,-39.454c-4.95,9.146 -9.325,18.646 -13.108,28.442l47.35,53.108l-54.554,-31.542c-6.054,21.404 -9.296,43.988 -9.296,67.329l493.913,0c0,-19.663 -2.308,-38.787 -6.654,-57.125l-119.721,21.337Z" style="fill:#d52727;fill-rule:nonzero;"/><path d="M1568.379,864.212c14.037,-3.521 25.467,-11.942 33.075,-22.967c-10.629,-7.708 -24.379,-11.217 -38.733,-7.883c-6.204,1.438 -11.979,4.042 -17.121,7.546c9.042,-14.075 18.575,-27.85 28.579,-41.308c9.892,6.092 22.062,8.625 34.704,6.771c14.346,-2.125 26.6,-9.4 35.329,-19.658c-9.8,-8.738 -23.146,-13.592 -37.792,-11.683c-6.333,0.825 -12.358,2.854 -17.837,5.846c6.188,-7.783 12.538,-15.45 19.054,-22.996c11.15,-2.758 21.779,-8.717 30.463,-17.875c10.537,-11.129 16.308,-24.958 17.275,-38.812c-13.858,0.158 -28.396,6.204 -39.412,17.837c-9.063,9.554 -14.196,21.262 -15.362,32.771c-11.754,13.608 -22.983,27.612 -33.679,41.975c1.521,-6.117 2.158,-12.517 1.721,-19.025c-1.008,-15.004 -7.55,-27.767 -17.858,-35.946c-9.9,11.883 -15.425,27.304 -14.092,42.529c1.163,13.45 7.367,24.404 16.275,31.829c-9.683,13.925 -18.879,28.158 -27.575,42.683c0.892,-6.221 0.871,-12.637 -0.229,-19.054c-2.533,-14.792 -10.338,-26.808 -21.417,-33.912c-8.617,12.762 -12.538,28.613 -9.667,43.596c2.521,13.242 9.8,23.504 19.408,29.996c-8.217,14.787 -15.929,29.846 -23.121,45.154c0.263,-6.275 -0.404,-12.65 -2.142,-18.917c-4.013,-14.45 -12.988,-25.617 -24.721,-31.571c-7.279,13.533 -9.588,29.675 -5.225,44.292c3.833,12.917 12.1,22.4 22.313,27.9c-6.696,15.529 -12.867,31.296 -18.496,47.271c-0.367,-6.279 -1.663,-12.562 -4.021,-18.625c-5.433,-13.987 -15.479,-24.196 -27.75,-28.95c-5.892,14.2 -6.579,30.512 -0.783,44.638c5.104,12.483 14.275,21.104 24.987,25.554c-16.104,50.85 -3.808,37.721 16.229,-19.208c11.25,2.887 23.617,1.708 35.129,-3.775c13.054,-6.242 22.571,-16.754 27.813,-29.038c-11.954,-5.433 -26.121,-6.146 -39.513,-0.042c-5.792,2.637 -10.925,6.329 -15.267,10.787c6.05,-15.579 12.629,-30.942 19.721,-46.058c10.908,4 23.329,4.075 35.325,-0.221c13.612,-4.896 24.129,-14.396 30.575,-26.1c-11.35,-6.6 -25.375,-8.725 -39.308,-3.996c-6.025,2.046 -11.504,5.204 -16.267,9.2c7.575,-14.883 15.654,-29.513 24.233,-43.858c10.45,5.075 22.804,6.388 35.179,3.304Z" style="fill:#d52727;fill-rule:nonzero;"/><path d="M2310.879,855.983c-17.675,-4.429 -32.067,-15.029 -41.646,-28.912c13.387,-9.704 30.696,-14.121 48.763,-9.929c7.812,1.812 15.083,5.092 21.558,9.504c-11.383,-17.717 -23.383,-35.067 -35.983,-52.008c-12.45,7.671 -27.775,10.858 -43.688,8.525c-18.067,-2.675 -33.492,-11.829 -44.479,-24.746c12.337,-11.004 29.142,-17.113 47.579,-14.708c7.975,1.038 15.554,3.592 22.458,7.354c-7.792,-9.8 -15.788,-19.45 -23.992,-28.95c-14.037,-3.475 -27.421,-10.975 -38.35,-22.504c-13.267,-14.008 -20.537,-31.425 -21.75,-48.867c17.446,0.2 35.746,7.808 49.617,22.458c11.412,12.033 17.879,26.771 19.346,41.258c14.796,17.133 28.933,34.763 42.4,52.85c-1.917,-7.704 -2.717,-15.762 -2.167,-23.954c1.271,-18.892 9.504,-34.962 22.483,-45.258c12.462,14.963 19.421,34.375 17.742,53.546c-1.463,16.933 -9.275,30.721 -20.492,40.071c12.192,17.529 23.771,35.454 34.717,53.737c-1.121,-7.833 -1.096,-15.908 0.288,-23.983c3.192,-18.625 13.017,-33.754 26.967,-42.696c10.85,16.067 15.783,36.017 12.167,54.883c-3.171,16.671 -12.333,29.592 -24.433,37.767c10.35,18.617 20.058,37.575 29.108,56.846c-0.329,-7.9 0.513,-15.925 2.7,-23.817c5.05,-18.192 16.35,-32.246 31.121,-39.746c9.167,17.038 12.075,37.363 6.583,55.767c-4.829,16.258 -15.238,28.2 -28.096,35.121c8.433,19.554 16.2,39.404 23.287,59.517c0.463,-7.904 2.096,-15.813 5.063,-23.45c6.837,-17.608 19.488,-30.463 34.937,-36.446c7.417,17.879 8.283,38.417 0.983,56.2c-6.425,15.712 -17.971,26.567 -31.458,32.171c9.267,29.255 -11.191,2.065 -20.429,-24.183c-14.167,3.633 -29.738,2.15 -44.229,-4.754c-16.437,-7.858 -28.417,-21.092 -35.017,-36.558c15.05,-6.842 32.883,-7.738 49.746,-0.054c7.292,3.321 13.758,7.975 19.221,13.583c-7.617,-19.612 -15.9,-38.954 -24.829,-57.987c-13.733,5.037 -29.371,5.129 -44.475,-0.279c-17.133,-6.163 -30.375,-18.121 -38.492,-32.854c14.292,-8.312 31.946,-10.987 49.492,-5.033c7.583,2.575 14.483,6.55 20.479,11.583c-9.538,-18.742 -19.712,-37.158 -30.512,-55.217c-13.158,6.387 -28.708,8.037 -44.287,4.154Z" style="fill:#d52727;fill-rule:nonzero;"/><path d="M2990.85,885.004c-14.038,-3.521 -25.467,-11.938 -33.075,-22.967c10.625,-7.708 24.379,-11.217 38.729,-7.883c6.208,1.438 11.983,4.042 17.125,7.546c-9.042,-14.071 -18.575,-27.85 -28.583,-41.308c-9.887,6.092 -22.062,8.625 -34.7,6.771c-14.346,-2.125 -26.608,-9.396 -35.329,-19.658c9.796,-8.738 23.142,-13.592 37.792,-11.679c6.333,0.825 12.354,2.85 17.838,5.842c-6.187,-7.783 -12.542,-15.45 -19.054,-22.996c-11.154,-2.758 -21.779,-8.717 -30.462,-17.875c-10.538,-11.129 -16.308,-24.958 -17.275,-38.813c13.858,0.158 28.392,6.204 39.404,17.837c9.071,9.558 14.204,21.263 15.371,32.771c11.754,13.608 22.983,27.612 33.679,41.975c-1.525,-6.117 -2.158,-12.517 -1.721,-19.025c1.008,-15.004 7.55,-27.767 17.858,-35.946c9.9,11.883 15.425,27.304 14.091,42.529c-1.162,13.45 -7.367,24.404 -16.275,31.829c9.683,13.925 18.879,28.158 27.575,42.683c-0.892,-6.221 -0.871,-12.638 0.229,-19.054c2.533,-14.792 10.338,-26.808 21.417,-33.912c8.617,12.762 12.537,28.613 9.662,43.596c-2.517,13.242 -9.796,23.504 -19.404,29.996c8.217,14.787 15.929,29.846 23.121,45.154c-0.262,-6.275 0.404,-12.65 2.142,-18.917c4.013,-14.45 12.988,-25.613 24.721,-31.571c7.279,13.533 9.588,29.675 5.225,44.296c-3.833,12.913 -12.1,22.396 -22.317,27.896c6.7,15.533 12.871,31.296 18.5,47.271c0.367,-6.279 1.662,-12.558 4.021,-18.625c5.433,-13.987 15.479,-24.196 27.75,-28.95c5.892,14.2 6.579,30.512 0.783,44.637c-5.104,12.483 -21.179,63.279 -41.217,6.346c-11.25,2.887 -23.621,1.708 -35.129,-3.775c-13.054,-6.242 -22.571,-16.754 -27.812,-29.037c11.954,-5.433 26.121,-6.146 39.513,-0.042c5.787,2.637 10.925,6.329 15.267,10.787c-6.05,-15.579 -12.629,-30.942 -19.725,-46.058c-10.904,4 -23.325,4.075 -35.321,-0.221c-13.613,-4.896 -24.129,-14.396 -30.575,-26.096c11.35,-6.604 25.375,-8.729 39.308,-4c6.025,2.046 11.504,5.204 16.267,9.2c-7.575,-14.883 -15.654,-29.512 -24.234,-43.854c-10.45,5.071 -22.804,6.383 -35.179,3.3Z" style="fill:#d52727;fill-rule:nonzero;"/><path d="M1618.154,1033.975l74.808,-25.183c-0.608,-1.929 -1.254,-3.838 -1.933,-5.729l-38.629,3.512l34.404,-14.1c-7.204,-16.333 -17.046,-31.242 -28.988,-44.183l-53.363,32.842l46.392,-39.95c-1.629,-1.562 -3.3,-3.087 -4.992,-4.579l-32.596,18.108l23.825,-25.3c-16.354,-12.479 -35.175,-21.892 -55.604,-27.379l-23.017,34.083l8.238,-37.317c-2.317,-0.392 -4.65,-0.738 -7,-1.033l-20.033,48.137l5.467,-49.275c-1.812,-0.058 -3.633,-0.104 -5.467,-0.104c-22.662,0 -44.221,4.7 -63.775,13.163c-2.375,18.888 -4.521,36.425 -4.521,38.175c0,1.896 -3.454,-14.862 -7.012,-32.625c-1.762,0.937 -3.508,1.9 -5.229,2.9l3.433,58.758l-14.708,-51.571c-16.875,11.767 -31.387,26.683 -42.683,43.904l8.467,37.346l-15.438,-25.679c-3.221,5.95 -6.071,12.133 -8.533,18.508l30.821,34.571l-35.512,-20.529c-3.938,13.929 -6.046,28.629 -6.046,43.821l321.479,0c0,-12.8 -1.504,-25.246 -4.333,-37.183l-77.921,13.892Z" style="fill:#eb3427;fill-rule:nonzero;"/><path d="M2528.633,1033.975l74.808,-25.183c-0.608,-1.929 -1.254,-3.838 -1.933,-5.729l-38.629,3.512l34.404,-14.1c-7.204,-16.333 -17.046,-31.242 -28.988,-44.183l-53.363,32.842l46.392,-39.95c-1.633,-1.562 -3.3,-3.087 -4.992,-4.579l-32.596,18.108l23.825,-25.3c-16.354,-12.479 -35.175,-21.892 -55.604,-27.379l-23.017,34.083l8.237,-37.317c-2.317,-0.392 -4.65,-0.738 -7,-1.033l-20.033,48.137l5.467,-49.275c-1.812,-0.058 -3.633,-0.104 -5.467,-0.104c-22.663,0 -44.225,4.7 -63.775,13.163c-2.375,18.888 -4.521,36.425 -4.521,38.175c0,1.896 -3.458,-14.862 -7.012,-32.625c-1.763,0.937 -3.508,1.9 -5.229,2.9l3.433,58.758l-14.708,-51.571c-16.875,11.767 -31.388,26.683 -42.683,43.904l8.467,37.346l-15.438,-25.679c-3.221,5.95 -6.071,12.133 -8.533,18.508l30.821,34.571l-35.512,-20.529c-3.938,13.929 -6.046,28.629 -6.046,43.821l321.479,0c0,-12.8 -1.504,-25.246 -4.333,-37.183l-77.921,13.892Z" style="fill:#d52727;fill-rule:nonzero;"/><path d="M2778.887,1025.258l102.8,-34.608c-0.837,-2.646 -1.725,-5.267 -2.654,-7.871l-53.083,4.825l47.275,-19.375c-9.9,-22.446 -23.421,-42.929 -39.833,-60.713l-73.333,45.125l63.754,-54.896c-2.242,-2.146 -4.533,-4.242 -6.863,-6.292l-44.787,24.883l32.742,-34.767c-22.479,-17.15 -48.338,-30.083 -76.413,-37.625l-31.633,46.842l11.321,-51.279c-3.183,-0.542 -6.387,-1.021 -9.617,-1.421l-27.529,66.146l7.512,-67.713c-2.496,-0.083 -4.996,-0.142 -7.512,-0.142c-31.142,0 -60.771,6.458 -87.642,18.087c-3.262,25.95 -6.212,50.054 -6.212,52.458c0,2.608 -4.75,-20.425 -9.637,-44.833c-2.421,1.288 -4.817,2.612 -7.183,3.983l4.721,80.75l-20.213,-70.871c-23.192,16.167 -43.133,36.671 -58.654,60.333l11.629,51.317l-21.213,-35.287c-4.425,8.179 -8.342,16.675 -11.725,25.437l42.35,47.504l-48.796,-28.212c-5.413,19.146 -8.312,39.346 -8.312,60.221l441.775,0c0,-17.587 -2.067,-34.692 -5.954,-51.096l-107.079,19.088Z" style="fill:#eb3427;fill-rule:nonzero;"/><path d="M1001.338,715.429c24.412,-6.121 44.283,-20.763 57.513,-39.933c-18.488,-13.4 -42.392,-19.5 -67.346,-13.713c-10.788,2.504 -20.829,7.029 -29.771,13.125c15.721,-24.471 32.292,-48.425 49.696,-71.825c17.196,10.592 38.354,14.996 60.338,11.771c24.946,-3.692 46.254,-16.337 61.429,-34.175c-17.042,-15.2 -40.25,-23.633 -65.712,-20.317c-11.012,1.438 -21.483,4.963 -31.017,10.163c10.758,-13.533 21.804,-26.867 33.133,-39.983c19.387,-4.8 37.867,-15.163 52.963,-31.079c18.325,-19.35 28.362,-43.4 30.042,-67.488c-24.096,0.279 -49.371,10.783 -68.525,31.013c-15.758,16.617 -24.692,36.975 -26.717,56.983c-20.437,23.663 -39.962,48.008 -58.558,72.987c2.646,-10.637 3.754,-21.767 2.992,-33.083c-1.758,-26.092 -13.125,-48.283 -31.054,-62.504c-17.213,20.667 -26.817,47.475 -24.496,73.95c2.017,23.387 12.804,42.429 28.296,55.346c-16.838,24.208 -32.829,48.962 -47.946,74.212c1.55,-10.817 1.512,-21.975 -0.396,-33.125c-4.413,-25.721 -17.979,-46.617 -37.242,-58.967c-14.983,22.187 -21.8,49.746 -16.804,75.8c4.379,23.021 17.033,40.867 33.746,52.158c-14.296,25.708 -27.704,51.896 -40.204,78.508c0.454,-10.908 -0.704,-21.996 -3.725,-32.892c-6.975,-25.125 -22.583,-44.537 -42.983,-54.896c-12.658,23.533 -16.671,51.604 -9.088,77.021c6.667,22.454 21.042,38.942 38.8,48.504c-11.646,27.008 -22.375,54.421 -32.163,82.196c-0.637,-10.917 -2.896,-21.842 -6.992,-32.388c-9.446,-24.317 -26.912,-42.071 -48.246,-50.333c-10.246,24.692 -11.442,53.054 -1.362,77.617c8.875,21.7 24.821,36.688 43.446,44.429c-19.149,60.455 -6.625,65.592 28.212,-33.4c19.563,5.021 41.071,2.971 61.083,-6.567c22.7,-10.854 39.246,-29.129 48.363,-50.488c-20.788,-9.446 -45.417,-10.683 -68.704,-0.075c-10.067,4.587 -19,11.012 -26.542,18.758c10.517,-27.087 21.958,-53.796 34.292,-80.083c18.963,6.958 40.558,7.083 61.417,-0.383c23.667,-8.512 41.954,-25.029 53.158,-45.379c-19.733,-11.479 -44.117,-15.171 -68.346,-6.946c-10.475,3.554 -20.004,9.046 -28.283,15.992c13.171,-25.879 27.225,-51.312 42.138,-76.254c18.171,8.821 39.65,11.1 61.167,5.742Z" style="fill:#fcb418;fill-rule:nonzero;"/><path d="M1453.238,669.517c16.85,-11.083 28.017,-27.412 32.958,-45.412c-17.529,-5.254 -37.229,-3.55 -54.579,7.425c-7.5,4.746 -13.9,10.825 -19.054,17.8c5.425,-22.667 11.633,-45.175 18.613,-67.479c15.812,3.471 32.983,1.208 48.763,-7.042c17.9,-9.387 30.675,-24.588 37.442,-42.096c-16.908,-6.992 -36.696,-7.242 -55.087,2.004c-7.95,3.992 -14.938,9.429 -20.779,15.883c4.562,-13.083 9.396,-26.092 14.5,-39.008c13.4,-8.754 24.646,-21.479 31.858,-37.512c8.746,-19.483 9.988,-40.333 4.888,-59.004c-18.154,6.579 -34.504,21.213 -43.646,41.579c-7.533,16.737 -8.908,34.5 -5.154,50.175c-9.204,23.304 -17.542,46.883 -25.008,70.696c-0.812,-8.746 -2.917,-17.458 -6.483,-25.817c-8.225,-19.279 -22.692,-33.062 -40.012,-39.083c-7.563,20.183 -7.746,43.008 1.008,62.425c7.708,17.163 20.904,28.717 36.042,34.396c-6.346,22.767 -11.9,45.721 -16.663,68.821c-1.687,-8.596 -4.662,-17.025 -9.054,-24.958c-10.137,-18.296 -25.925,-30.517 -43.763,-34.767c-5.471,20.746 -3.346,43.396 7.321,61.792c9.4,16.254 23.692,26.413 39.317,30.542c-4.017,23.229 -7.237,46.583 -9.663,70.025c-2.542,-8.375 -6.346,-16.458 -11.513,-23.904c-11.921,-17.163 -28.858,-27.725 -47.033,-30.167c-3.354,21.146 1.029,43.446 13.483,60.671c10.983,15.225 26.217,23.9 42.179,26.442c-1.675,23.513 -2.546,47.087 -2.608,70.688c-3.367,-8.087 -7.962,-15.758 -13.85,-22.654c-13.575,-15.9 -31.488,-24.712 -49.813,-25.325c-1.225,21.387 5.371,43.163 19.488,59.079c12.45,14.075 28.479,21.2 44.617,22.129c2.179,74.296 12.325,51.379 12.517,-32.725c16.129,-1.371 31.858,-8.608 44.479,-21.112c14.308,-14.212 21.996,-32.412 23.246,-50.983c-18.225,-1.65 -37.188,3.921 -52,18.104c-6.404,6.133 -11.463,13.354 -15.125,21.208c0.8,-23.275 2.396,-46.504 4.775,-69.654c16.187,0.254 32.562,-5.358 46.367,-16.525c15.658,-12.696 25.125,-30.025 28.229,-48.383c-17.967,-3.467 -37.392,0.183 -53.55,12.808c-6.983,5.458 -12.742,12.133 -17.171,19.579c3.125,-23.062 7.033,-46.021 11.725,-68.833c16.079,1.871 32.933,-2.079 47.796,-11.825Z" style="fill:#fcb418;fill-rule:nonzero;"/><path d="M2111.354,920.175c-17.958,-9.183 -30.829,-24.204 -37.696,-41.563c16.85,-7.129 36.621,-7.575 55.058,1.454c7.971,3.9 14.996,9.25 20.875,15.625c-7.854,-21.946 -16.467,-43.646 -25.833,-65.058c-15.337,5.167 -32.654,4.783 -49.238,-1.704c-18.812,-7.387 -33.167,-21.113 -41.792,-37.779c16.05,-8.788 35.692,-11.187 54.979,-3.996c8.338,3.108 15.875,7.754 22.379,13.533c-5.954,-12.508 -12.175,-24.912 -18.65,-37.204c-14.271,-7.246 -26.829,-18.675 -35.742,-33.829c-10.813,-18.417 -14.308,-39.008 -11.271,-58.121c18.762,4.567 36.604,17.338 47.904,36.592c9.304,15.821 12.604,33.325 10.575,49.317c11.683,22.167 22.533,44.704 32.542,67.562c-0.146,-8.783 1,-17.671 3.638,-26.367c6.083,-20.058 18.967,-35.333 35.533,-43.2c9.708,19.246 12.367,41.913 5.775,62.167c-5.796,17.896 -17.662,30.817 -32.087,38.104c8.775,21.942 16.792,44.158 24.033,66.604c0.746,-8.725 2.788,-17.429 6.296,-25.796c8.083,-19.283 22.454,-33.15 39.725,-39.313c7.692,20.029 8.038,42.775 -0.567,62.221c-7.579,17.183 -20.683,28.833 -35.767,34.629c6.517,22.658 12.258,45.525 17.212,68.562c1.617,-8.6 4.521,-17.046 8.85,-25.008c9.983,-18.358 25.671,-30.7 43.471,-35.1c5.637,20.658 3.7,43.3 -6.808,61.775c-9.262,16.329 -23.463,26.608 -39.058,30.871c4.217,23.187 -14.142,-6.604 -19.025,-29.354c-16.067,2.008 -32.95,-1.792 -47.888,-11.392c-16.946,-10.921 -28.242,-27.117 -33.317,-45.029c17.483,-5.4 37.187,-3.883 54.625,6.917c7.537,4.667 13.983,10.675 19.192,17.596c-5.608,-22.588 -11.987,-44.983 -19.133,-67.154c-15.779,3.608 -32.963,1.512 -48.792,-6.562Z" style="fill:#fcb418;fill-rule:nonzero;"/><path d="M1557.15,1057.267c-3.3,-23.004 -22.425,-41.267 -46.525,-42.617c-9.646,-0.542 -18.779,1.746 -26.671,6.075c-11.654,-25.767 -37.525,-43.725 -67.646,-43.725c-9.383,0 -18.329,1.812 -26.596,4.992c-20.575,-38.475 -61.133,-64.658 -107.808,-64.658c-46.712,0 -87.287,26.221 -107.85,64.738c-12.942,-10.763 -29.571,-17.237 -47.717,-17.237c-9.721,0 -18.996,1.879 -27.513,5.258c-12.646,-50.229 -58.104,-87.421 -112.262,-87.421c-22.713,0 -43.879,6.567 -61.754,17.867c-24.033,-50.313 -75.379,-85.079 -134.854,-85.079c-67.933,0 -125.237,45.371 -143.367,107.45c-46.158,7.075 -81.512,46.954 -81.512,95.092c0,13.992 3.008,27.275 8.379,39.267l983.696,0Z" style="fill:#d52727;fill-rule:nonzero;"/><path d="M2653.517,1057.267c3.3,-23.004 22.429,-41.267 46.525,-42.617c9.646,-0.542 18.779,1.746 26.671,6.075c11.654,-25.767 37.529,-43.725 67.646,-43.725c9.387,0 18.329,1.812 26.6,4.992c20.575,-38.475 61.125,-64.658 107.804,-64.658c46.712,0 87.288,26.221 107.846,64.738c12.942,-10.763 29.575,-17.237 47.721,-17.237c9.721,0 18.996,1.879 27.513,5.258c12.646,-50.229 58.104,-87.421 112.262,-87.421c22.712,0 43.879,6.567 61.754,17.867c24.033,-50.313 75.379,-85.079 134.854,-85.079c67.937,0 125.242,45.371 143.371,107.45c46.158,7.075 81.512,46.954 81.512,95.092c0,13.992 -3.012,27.275 -8.383,39.267l-983.696,0Z" style="fill:#d52727;fill-rule:nonzero;"/><path d="M3534.517,1015.554l133.958,-45.092c-1.087,-3.45 -2.246,-6.867 -3.458,-10.258l-69.171,6.287l61.6,-25.246c-12.896,-29.246 -30.517,-55.942 -51.904,-79.112l-95.554,58.804l83.075,-71.537c-2.921,-2.796 -5.908,-5.525 -8.942,-8.2l-58.363,32.425l42.663,-45.3c-29.287,-22.346 -62.988,-39.2 -99.567,-49.029l-41.221,61.038l14.75,-66.821c-4.15,-0.704 -8.325,-1.329 -12.533,-1.85l-35.871,86.192l9.792,-88.233c-3.254,-0.108 -6.512,-0.183 -9.792,-0.183c-40.579,0 -79.187,8.417 -114.204,23.567c-4.25,33.817 -8.091,65.229 -8.091,68.354c0,3.404 -6.188,-26.613 -12.558,-58.417c-3.154,1.675 -6.279,3.404 -9.358,5.192l6.146,105.221l-26.337,-92.35c-30.221,21.071 -56.204,47.783 -76.429,78.621l15.158,66.867l-27.646,-45.979c-5.767,10.658 -10.867,21.729 -15.275,33.142l55.183,61.9l-63.583,-36.758c-7.054,24.946 -10.829,51.267 -10.829,78.471l575.654,0c0,-22.921 -2.692,-45.208 -7.754,-66.579l-139.538,24.867Z" style="fill:#eb3427;fill-rule:nonzero;"/><path d="M993.425,1015.554l133.958,-45.092c-1.092,-3.45 -2.246,-6.867 -3.463,-10.258l-69.167,6.287l61.6,-25.246c-12.896,-29.246 -30.521,-55.942 -51.904,-79.112l-95.554,58.804l83.071,-71.537c-2.917,-2.796 -5.904,-5.525 -8.942,-8.2l-58.362,32.425l42.667,-45.3c-29.287,-22.346 -62.988,-39.2 -99.571,-49.029l-41.217,61.038l14.75,-66.821c-4.15,-0.704 -8.325,-1.329 -12.533,-1.85l-35.871,86.192l9.787,-88.233c-3.25,-0.108 -6.508,-0.183 -9.787,-0.183c-40.579,0 -79.183,8.417 -114.2,23.567c-4.25,33.817 -8.092,65.229 -8.092,68.354c0,3.404 -6.187,-26.613 -12.558,-58.417c-3.154,1.675 -6.279,3.404 -9.363,5.192l6.15,105.221l-26.337,-92.35c-30.221,21.071 -56.204,47.783 -76.429,78.621l15.154,66.867l-27.642,-45.979c-5.767,10.658 -10.871,21.729 -15.275,33.142l55.183,61.9l-63.583,-36.758c-7.054,24.946 -10.833,51.267 -10.833,78.471l575.654,0c0,-22.921 -2.692,-45.208 -7.754,-66.579l-139.537,24.867Z" style="fill:#eb3427;fill-rule:nonzero;"/></g></svg>