<?xml version="1.0" encoding="UTF-8" standalone="no"?><!DOCTYPE svg PUBLIC "-//W3C//DTD SVG 1.1//EN" "http://www.w3.org/Graphics/SVG/1.1/DTD/svg11.dtd"><svg width="100%" height="100%" viewBox="0 0 1567 1567" version="1.1" xmlns="http://www.w3.org/2000/svg" xmlns:xlink="http://www.w3.org/1999/xlink" xml:space="preserve" xmlns:serif="http://www.serif.com/" style="fill-rule:evenodd;clip-rule:evenodd;stroke-linejoin:round;stroke-miterlimit:2;"><g><path d="M1553.696,783.433c0,425.408 -344.858,770.267 -770.263,770.267c-425.408,0 -770.267,-344.858 -770.267,-770.267c-0,-425.404 344.858,-770.262 770.267,-770.262c425.404,0 770.263,344.858 770.263,770.262Z" style="fill:#732113;fill-rule:nonzero;"/><path d="M1566.867,783.433l-26.337,0c-0.004,209.108 -84.721,398.3 -221.746,535.35c-137.05,137.029 -326.242,221.742 -535.35,221.75c-209.112,-0.008 -398.3,-84.721 -535.35,-221.75c-137.029,-137.05 -221.742,-326.242 -221.75,-535.35c0.008,-209.108 84.721,-398.3 221.75,-535.35c137.05,-137.025 326.237,-221.742 535.35,-221.746c209.108,0.004 398.3,84.721 535.346,221.746c137.029,137.05 221.746,326.242 221.75,535.35l26.337,0c0.004,-216.296 -87.712,-412.237 -229.462,-553.971c-141.733,-141.75 -337.675,-229.467 -553.971,-229.463c-216.3,-0.004 -412.242,87.713 -553.971,229.463c-141.754,141.733 -229.471,337.675 -229.462,553.971c-0.008,216.3 87.708,412.242 229.462,553.971c141.729,141.754 337.671,229.471 553.971,229.462c216.296,0.008 412.238,-87.708 553.971,-229.462c141.75,-141.729 229.467,-337.671 229.462,-553.971Z" style="fill:#eb3427;fill-rule:nonzero;"/><path d="M1448.825,1023.938l-1.004,-0.175l-93.367,-33.329c-0.754,-0.267 -1.358,-0.821 -1.696,-1.538c-0.342,-0.725 -0.379,-1.546 -0.108,-2.296c10.888,-29.846 19.504,-62.504 25.629,-97.096l0.029,-0.196c6.15,-35.421 9.296,-69.775 9.342,-102.1c0,-0.796 0.321,-1.554 0.879,-2.117c0.567,-0.558 1.25,-0.921 2.125,-0.867l99.137,0.609c1.65,0.008 2.979,1.354 2.971,3.004c-0.183,33.558 -2.954,68.146 -8.454,105.746c-0.117,0.787 -0.542,1.5 -1.183,1.971c-0.65,0.471 -1.454,0.667 -2.237,0.55l-75.667,-11.808c-1.617,-0.25 -2.729,-1.754 -2.496,-3.379c1.05,-7.271 1.958,-14.579 2.875,-21.875c0.492,-3.925 0.979,-7.846 1.487,-11.767c0.279,-4.037 0.613,-8.25 0.942,-12.458c0.554,-7.067 1.1,-14.142 1.508,-21.217c0.096,-1.633 1.487,-2.95 3.121,-2.813l51.296,2.434c0.804,0.033 1.554,0.396 2.092,0.996c0.533,0.604 0.8,1.392 0.746,2.196l-0.517,7.554c-1.046,15.442 -2.125,31.417 -4.417,47.062c-0.237,1.613 -1.733,2.742 -3.337,2.533l-31.642,-4.046c-1.633,-0.208 -2.796,-1.7 -2.588,-3.342l1.937,-15.225c0.337,-3.192 0.571,-6.458 0.813,-9.721l0.412,-5.442c0.133,-1.646 1.633,-2.808 3.217,-2.729l13.546,1.083c1.646,0.129 2.871,1.571 2.737,3.217c-0.129,1.642 -1.612,2.838 -3.217,2.733l-10.554,-0.846l-0.188,2.417c-0.237,3.329 -0.483,6.662 -0.833,9.983l-1.571,12.325l25.767,3.292c1.983,-14.5 2.983,-29.329 3.958,-43.696l0.313,-4.525l-45.304,-2.15c-0.383,6.138 -0.863,12.262 -1.342,18.388c-0.325,4.2 -0.654,8.396 -0.95,12.592c-0.529,4.083 -1.021,7.996 -1.504,11.913c-0.8,6.358 -1.592,12.717 -2.475,19.063l69.771,10.887c5.021,-35.062 7.625,-67.492 7.937,-98.946l-93.15,-0.571c-0.229,31.167 -3.279,64.133 -9.071,98.083l-0.038,0.279c-6.012,34.571 -14.492,67.267 -25.221,97.242l87.738,31.317c10.271,-28.721 18.858,-60.142 26.2,-95.846l-69.246,-13.463c-1.179,6.208 -2.646,12.387 -4.075,18.383c-0.938,3.962 -1.879,7.917 -2.742,11.892c-1.771,7.092 -3.767,14.025 -5.762,20.954c-0.875,3.046 -1.75,6.087 -2.608,9.129l43.358,13.442l6.625,-23.346c1.667,-5.613 2.971,-11.433 4.233,-17.071c0.475,-2.142 0.963,-4.283 1.458,-6.417l-25.292,-5.654c-0.379,1.646 -0.754,3.283 -1.125,4.929c-1.438,6.321 -2.917,12.829 -4.763,19.225l10.162,2.783c1.592,0.437 2.533,2.083 2.096,3.666c-0.442,1.596 -2.096,2.509 -3.671,2.096l-13.108,-3.592c-0.779,-0.217 -1.442,-0.738 -1.833,-1.45c-0.388,-0.704 -0.471,-1.546 -0.233,-2.312c2.2,-7.121 3.887,-14.554 5.521,-21.742c0.596,-2.617 1.196,-5.238 1.812,-7.85c0.379,-1.592 1.933,-2.567 3.558,-2.229l31.138,6.959c0.783,0.175 1.458,0.662 1.883,1.342c0.429,0.683 0.554,1.508 0.363,2.288c-0.75,3.075 -1.446,6.175 -2.142,9.267c-1.283,5.729 -2.608,11.65 -4.317,17.425l-7.454,26.258c-0.221,0.775 -0.746,1.425 -1.454,1.808c-0.712,0.387 -1.533,0.467 -2.308,0.229l-49.046,-15.204c-1.542,-0.479 -2.421,-2.087 -1.996,-3.646c1.1,-4.004 2.25,-7.992 3.4,-11.983c1.979,-6.867 3.95,-13.733 5.688,-20.662c0.854,-3.917 1.796,-7.912 2.75,-11.908c1.633,-6.879 3.325,-13.992 4.537,-21.025c0.142,-0.796 0.587,-1.496 1.25,-1.95c0.662,-0.463 1.467,-0.625 2.267,-0.479l75.179,14.617c0.779,0.15 1.471,0.612 1.913,1.271c0.437,0.662 0.6,1.475 0.442,2.258c-7.775,38.388 -16.95,71.896 -28.05,102.446c-0.438,1.212 -1.583,1.963 -2.804,1.963Z" style="fill:#fcb418;fill-rule:nonzero;"/><path d="M1327.383,1237.146c-0.692,0 -1.371,-0.238 -1.908,-0.687l-76.308,-63.292c-1.263,-1.05 -1.446,-2.929 -0.396,-4.2c21.733,-26.358 41.388,-54.7 58.417,-84.233l0.088,-0.138c17.379,-30.221 31.787,-60.796 42.837,-90.9c0.275,-0.746 0.838,-1.354 1.558,-1.687c0.725,-0.321 1.55,-0.354 2.287,-0.087l92.946,34.496c0.742,0.275 1.35,0.837 1.675,1.558c0.333,0.721 0.363,1.542 0.087,2.283c-11.738,31.583 -26.667,64.037 -44.383,96.463c-0.379,0.7 -1.021,1.221 -1.787,1.442c-0.763,0.217 -1.592,0.129 -2.279,-0.254l-66.988,-37.117c-0.7,-0.387 -1.212,-1.037 -1.429,-1.808c-0.217,-0.771 -0.117,-1.592 0.279,-2.288c3.529,-6.183 6.817,-12.679 9.996,-18.962c1.867,-3.696 3.733,-7.396 5.663,-11.058c4.708,-10.104 9.354,-20.413 13.917,-30.754c0.654,-1.487 2.396,-2.175 3.883,-1.546l47.338,19.883c0.742,0.308 1.325,0.904 1.621,1.65c0.3,0.742 0.283,1.575 -0.046,2.313l-0.508,1.15c-7.092,16.067 -14.433,32.675 -22.892,48.475c-0.775,1.438 -2.554,1.988 -4.008,1.242l-28.321,-14.683c-1.463,-0.758 -2.033,-2.558 -1.279,-4.021l1.638,-3.196c4.046,-7.85 8.229,-15.971 11.738,-24.179c0.325,-0.738 0.925,-1.325 1.675,-1.617c0.746,-0.288 1.588,-0.262 2.325,0.079l12.35,5.675c1.5,0.687 2.15,2.463 1.463,3.962c-0.688,1.492 -2.475,2.15 -3.963,1.463l-9.583,-4.404c-3.308,7.433 -7.054,14.7 -10.688,21.754l-0.279,0.542l23.05,11.954c7.496,-14.288 14.15,-29.263 20.592,-43.829l-41.829,-17.567c-4.196,9.475 -8.458,18.921 -12.842,28.308c-1.975,3.767 -3.833,7.429 -5.688,11.1c-2.762,5.467 -5.612,11.096 -8.646,16.592l61.725,34.2c16.429,-30.338 30.396,-60.675 41.542,-90.246l-87.337,-32.412c-11.237,30.079 -25.763,60.571 -43.196,90.696l-0.008,0.004l-0.004,0.013l-0.113,0.167c-16.462,28.35 -35.317,55.583 -56.092,81.025l71.704,59.475c20.842,-25.621 40.167,-52.825 57.517,-80.946l-60.475,-36.504c-5.512,8.779 -11.117,17.496 -16.804,26.162c-2.504,3.442 -4.875,6.808 -7.242,10.171c-3.525,5.013 -7.154,10.171 -10.958,15.167l36.133,27.5c2.983,-3.867 5.833,-7.921 8.596,-11.867c1.846,-2.625 3.688,-5.25 5.579,-7.833c4.642,-6.304 8.913,-12.85 13.487,-20.029l-21.829,-14.008l-6.671,10.396l-7.246,10.192l8.646,6.15c1.342,0.958 1.658,2.817 0.7,4.167c-0.954,1.342 -2.821,1.654 -4.162,0.7l-11.079,-7.879c-0.642,-0.454 -1.079,-1.154 -1.213,-1.933c-0.129,-0.783 0.05,-1.583 0.513,-2.229l8.896,-12.508l8.204,-12.796c0.425,-0.671 1.1,-1.138 1.879,-1.304c0.767,-0.183 1.579,-0.025 2.25,0.4l26.85,17.233c1.379,0.887 1.783,2.733 0.9,4.112c-5.25,8.275 -10.025,15.7 -15.313,22.871c-1.862,2.546 -3.679,5.138 -5.5,7.729c-3.375,4.808 -6.863,9.779 -10.638,14.463c-1.021,1.271 -2.863,1.487 -4.133,0.504l-40.858,-31.104c-0.633,-0.483 -1.05,-1.2 -1.154,-1.992c-0.1,-0.796 0.117,-1.596 0.613,-2.225c4.388,-5.6 8.575,-11.558 12.625,-17.308c2.387,-3.396 4.771,-6.787 7.213,-10.142c6.117,-9.321 12.225,-18.837 18.212,-28.417c0.863,-1.4 2.683,-1.812 4.079,-0.975l65.567,39.579c0.675,0.408 1.167,1.075 1.354,1.85c0.192,0.771 0.063,1.587 -0.35,2.262c-18.413,30.117 -39.096,59.221 -61.467,86.508c-0.508,0.613 -1.233,1 -2.025,1.079l-0.288,0.008Z" style="fill:#fcb418;fill-rule:nonzero;"/><path d="M1140.446,1395.95l-0.742,-0.096c-0.775,-0.196 -1.433,-0.692 -1.838,-1.379l-50.179,-85.504c-0.833,-1.425 -0.354,-3.25 1.063,-4.083c29.408,-17.312 57.575,-37.217 83.717,-59.154l0.412,-0.288c24.742,-20.679 48.612,-44.492 70.975,-70.817c0.512,-0.6 1.242,-0.971 2.033,-1.037c0.712,-0.058 1.571,0.188 2.179,0.7l75.513,64.233c1.25,1.063 1.408,2.933 0.358,4.196c-21.571,25.754 -45.971,50.446 -74.6,75.483c-0.6,0.521 -1.317,0.783 -2.171,0.738c-0.787,-0.054 -1.529,-0.421 -2.046,-1.021l-50.333,-57.729c-0.525,-0.6 -0.787,-1.383 -0.725,-2.175c0.054,-0.8 0.429,-1.533 1.037,-2.054c15.208,-13.017 30.633,-27.962 48.538,-47.033c1.121,-1.212 3.004,-1.258 4.208,-0.15l37.692,34.867c0.583,0.542 0.933,1.304 0.958,2.1c0.021,0.8 -0.275,1.583 -0.829,2.158l-18.875,19.746l-19.871,18.954c-0.575,0.542 -1.246,0.817 -2.158,0.821c-0.8,-0.029 -1.55,-0.375 -2.1,-0.963l-21.621,-23.462c-1.096,-1.192 -1.042,-3.042 0.125,-4.175c2.629,-2.546 5.296,-5.067 7.963,-7.587c4.679,-4.421 9.512,-8.996 14.058,-13.663c0.563,-0.579 1.296,-0.992 2.142,-0.904c0.787,0 1.542,0.308 2.1,0.863l9.667,9.55c1.175,1.154 1.183,3.05 0.025,4.225c-1.162,1.171 -3.054,1.183 -4.225,0.021l-7.537,-7.442c-3.992,4 -8.117,7.904 -12.129,11.692c-1.942,1.838 -3.883,3.667 -5.808,5.517l17.583,19.083l17.571,-16.762l16.675,-17.446l-33.292,-30.792c-16.313,17.271 -30.629,31.163 -44.692,43.358l46.383,53.2c26.592,-23.421 49.467,-46.558 69.792,-70.588l-70.975,-60.375c-22.554,26.3 -46.608,50.079 -71.521,70.721l-0.367,0.258c-25.142,20.946 -52.112,40.025 -80.229,56.762l47.146,80.338c31.458,-18.854 58.233,-37.358 81.688,-56.454l-44.458,-54.958c-2.083,1.625 -4.15,3.262 -6.217,4.908c-5.975,4.742 -12.15,9.65 -18.633,14.025l-1.675,1.2c-7.717,5.533 -15.667,11.225 -23.888,16.412l24.558,38.096l8.987,-5.771l11.058,-7.792c2.475,-1.817 5.025,-3.608 7.579,-5.396c4.012,-2.821 8.146,-5.713 12.054,-8.783l-15.754,-20.604c-4.475,3.488 -9.129,6.75 -13.654,9.917c-2.183,1.525 -4.367,3.05 -6.525,4.596l6.079,8.775c0.942,1.362 0.6,3.221 -0.75,4.162c-1.35,0.925 -3.217,0.6 -4.162,-0.754l-7.742,-11.179c-0.921,-1.333 -0.613,-3.154 0.688,-4.112c2.967,-2.171 5.971,-4.275 8.979,-6.383c5.263,-3.679 10.7,-7.487 15.729,-11.571c0.629,-0.517 1.446,-0.754 2.233,-0.65c0.808,0.096 1.537,0.508 2.025,1.15l19.375,25.342c0.975,1.279 0.767,3.1 -0.479,4.125c-4.729,3.887 -9.783,7.433 -14.667,10.858c-2.517,1.767 -5.038,3.533 -7.517,5.354l-11.217,7.9l-11.596,7.454c-1.396,0.883 -3.233,0.492 -4.125,-0.896l-27.821,-43.154c-0.437,-0.671 -0.583,-1.496 -0.404,-2.283c0.175,-0.779 0.667,-1.463 1.35,-1.883c8.958,-5.488 17.688,-11.738 26.129,-17.783l1.742,-1.246c6.354,-4.296 12.442,-9.129 18.325,-13.804c2.854,-2.271 5.708,-4.533 8.596,-6.75c1.287,-0.975 3.121,-0.771 4.142,0.492l48.167,59.542c1.033,1.271 0.838,3.142 -0.429,4.183c-24.858,20.475 -53.413,40.229 -87.292,60.392c-0.467,0.279 -1,0.421 -1.529,0.421Z" style="fill:#fcb418;fill-rule:nonzero;"/><path d="M910.358,1481.283c-1.412,0 -2.671,-1.008 -2.933,-2.458l-17.713,-97.542c-0.292,-1.621 0.783,-3.175 2.404,-3.471c33.012,-6.017 65.562,-14.717 96.767,-25.875l0.433,-0.2c32.046,-11.738 63.308,-26.242 92.929,-43.113c1.425,-0.804 3.25,-0.312 4.071,1.117l49.117,86.112c0.392,0.692 0.496,1.508 0.288,2.271c-0.212,0.762 -0.717,1.417 -1.408,1.808c-33.042,18.792 -64.429,33.692 -95.95,45.546c-1.533,0.592 -3.242,-0.192 -3.838,-1.721l-27.537,-71.467c-0.588,-1.529 0.171,-3.25 1.692,-3.85l15.8,-6.225c3.354,-1.287 6.596,-2.787 9.842,-4.283c1.854,-0.85 3.717,-1.708 5.588,-2.525l15.442,-6.983l14.975,-7.683c1.467,-0.733 3.262,-0.175 4.021,1.292l23.542,45.633c0.746,1.45 0.192,3.238 -1.25,4.004c-16.042,8.571 -32.937,15.963 -49.279,23.112c-0.742,0.308 -1.775,0.412 -2.508,0.121c-0.742,-0.3 -1.542,-0.796 -1.842,-1.533l-12.296,-29.442c-0.633,-1.517 0.083,-3.267 1.6,-3.9c6.038,-2.533 11.996,-5.246 17.958,-7.967c3.329,-1.521 6.662,-3.038 10.004,-4.525c1.487,-0.658 3.208,-0.017 3.917,1.446l5.825,12.283c0.708,1.492 0.071,3.271 -1.417,3.983c-1.483,0.675 -3.271,0.062 -3.983,-1.417l-4.575,-9.646c-2.433,1.096 -4.867,2.204 -7.3,3.317c-5.104,2.325 -10.212,4.654 -15.371,6.871l9.975,23.892c14.813,-6.483 29.696,-13.062 43.879,-20.492l-20.821,-40.354l-12.458,6.387l-15.608,7.063c-1.875,0.817 -3.7,1.654 -5.521,2.492c-3.358,1.55 -6.721,3.096 -10.167,4.421l-13.025,5.129l25.408,65.929c29.467,-11.254 58.875,-25.225 89.729,-42.625l-46.163,-80.929c-28.446,16.025 -58.367,29.888 -89.017,41.246l-0.533,0.254c-31.242,11.304 -63.838,20.171 -96.925,26.362l16.65,91.692c7.233,-1.271 15.154,-2.725 22.813,-4.633c2.925,-0.687 5.825,-1.35 8.725,-2.013c5.683,-1.3 11.367,-2.596 17.013,-4.046l25.387,-7.213c5.517,-1.458 10.992,-3.354 16.292,-5.187c1.958,-0.675 3.921,-1.354 5.892,-2.013l-22.904,-66.771l-13.267,4.496l-16.454,4.725c-1.983,0.546 -3.937,1.112 -5.883,1.675c-3.512,1.013 -7.025,2.021 -10.571,2.908l-13.7,3.158l9.988,44.308c15.321,-3.367 30.629,-7.796 45.463,-12.088l1.333,-0.387l-7.725,-24.758l-23.904,6.817l2.687,10.329c0.417,1.6 -0.537,3.225 -2.138,3.642c-1.604,0.454 -3.233,-0.55 -3.642,-2.138l-3.425,-13.154c-0.412,-1.571 0.508,-3.179 2.075,-3.621l29.513,-8.417c1.571,-0.475 3.183,0.442 3.671,1.979l9.504,30.454c0.238,0.771 0.154,1.6 -0.225,2.308c-0.379,0.708 -1.033,1.233 -1.8,1.454l-4.267,1.233c-15.863,4.587 -32.267,9.333 -48.767,12.808c-1.667,0.329 -3.175,-0.683 -3.529,-2.262l-11.296,-50.092c-0.358,-1.604 0.638,-3.2 2.242,-3.571l16.546,-3.812c3.425,-0.854 6.867,-1.85 10.308,-2.842c1.971,-0.567 3.95,-1.138 5.929,-1.687l16.287,-4.671l15.95,-5.404c1.562,-0.513 3.25,0.317 3.779,1.862l24.846,72.442c0.263,0.754 0.204,1.583 -0.15,2.304c-0.363,0.717 -0.992,1.258 -1.754,1.504c-2.9,0.937 -5.783,1.929 -8.667,2.929c-5.396,1.867 -10.979,3.796 -16.654,5.3l-25.412,7.217c-5.771,1.483 -11.504,2.792 -17.242,4.104c-2.887,0.658 -5.767,1.317 -8.65,1.996c-8.867,2.208 -18.029,3.808 -26.112,5.221l-0.521,0.046Z" style="fill:#fcb418;fill-rule:nonzero;"/><path d="M796.504,1492.554c-1.629,0 -2.958,-1.3 -2.987,-2.933l-1.396,-76.579c-0.029,-1.637 1.271,-2.996 2.917,-3.037l3.408,-0.075c9.962,-0.225 20.275,-0.45 30.312,-1.438l17.008,-1.288c3.517,-0.329 7.071,-0.796 10.629,-1.262c2.029,-0.267 4.067,-0.537 6.1,-0.775c1.587,-0.246 3.113,0.958 3.321,2.592l6.413,50.942c0.204,1.633 -0.946,3.121 -2.579,3.337l-0.671,0.087c-8.717,1.138 -17.725,2.308 -26.708,2.825c-3.129,0.208 -6.288,0.467 -9.45,0.717c-5.946,0.479 -11.896,0.95 -17.854,1.171c-1.888,-0.029 -3.021,-1.212 -3.092,-2.854l-1.446,-31.871c-0.042,-0.792 0.246,-1.567 0.779,-2.15c0.537,-0.583 1.287,-0.933 2.079,-0.971c6.521,-0.267 13.037,-0.792 19.55,-1.313c3.662,-0.292 7.321,-0.583 10.983,-0.833c1.729,-0.163 3.029,1.096 3.179,2.708l1.258,13.533c0.15,1.642 -1.058,3.1 -2.704,3.25c-1.633,0.104 -3.096,-1.054 -3.25,-2.7l-0.983,-10.625c-2.667,0.2 -5.338,0.408 -8.004,0.625c-5.596,0.45 -11.183,0.892 -16.788,1.183l1.175,25.917c4.883,-0.246 9.758,-0.638 14.638,-1.029c3.183,-0.25 6.371,-0.508 9.562,-0.725c8.021,-0.454 16.129,-1.462 24.025,-2.487l-5.667,-45.033c-1.033,0.133 -2.058,0.267 -3.092,0.4c-3.629,0.479 -7.258,0.958 -10.904,1.296l-16.987,1.292c-10.204,0.996 -20.625,1.225 -30.704,1.45l-0.425,0.008l1.287,70.642c30.471,-0.412 62.867,-3.417 98.833,-9.183l-15.496,-91.854c-32.108,5.192 -65.104,7.942 -98.183,8.183l-0.15,0.012c-0.671,0.025 -1.346,0.025 -2.021,0l-0.146,-0.012c-33.079,-0.242 -66.083,-2.992 -98.188,-8.183l-15.496,91.854c35.967,5.767 68.363,8.771 98.838,9.183l1.287,-70.642l-0.425,-0.008c-10.083,-0.225 -20.504,-0.454 -30.771,-1.458l-16.875,-1.275c-3.7,-0.346 -7.337,-0.825 -10.971,-1.304c-1.025,-0.133 -2.046,-0.267 -3.075,-0.4l-5.667,45.033c7.896,1.025 16.004,2.033 23.992,2.487c3.225,0.217 6.417,0.475 9.604,0.733c4.875,0.387 9.75,0.775 14.625,1.021l1.183,-25.917c-5.604,-0.292 -11.196,-0.733 -16.787,-1.183c-2.671,-0.217 -5.342,-0.425 -8.013,-0.625l-0.983,10.625c-0.15,1.646 -1.575,2.858 -3.25,2.7c-1.642,-0.15 -2.85,-1.608 -2.7,-3.25l1.254,-13.533c0.154,-1.612 1.596,-2.788 3.179,-2.708c3.662,0.25 7.325,0.542 10.987,0.833c6.517,0.521 13.025,1.046 19.554,1.313c0.796,0.038 1.542,0.388 2.075,0.971c0.537,0.583 0.817,1.358 0.783,2.15l-1.45,31.871c-0.071,1.642 -1.55,2.913 -3.092,2.854c-5.958,-0.221 -11.9,-0.692 -17.842,-1.171c-3.167,-0.25 -6.329,-0.508 -9.5,-0.717c-8.946,-0.517 -17.954,-1.687 -26.667,-2.825l-0.675,-0.087c-1.629,-0.217 -2.779,-1.704 -2.579,-3.337l6.413,-50.942c0.204,-1.629 1.679,-2.821 3.317,-2.592c2.033,0.238 4.067,0.508 6.092,0.775c3.558,0.467 7.121,0.933 10.696,1.267l16.888,1.279c10.104,0.992 20.412,1.217 30.383,1.442l3.404,0.075c1.642,0.042 2.946,1.4 2.917,3.037l-1.396,76.579c-0.029,1.642 -1.371,2.754 -3.008,2.933c-32.475,-0.258 -67.042,-3.454 -105.675,-9.771c-0.783,-0.129 -1.483,-0.563 -1.946,-1.208c-0.463,-0.646 -0.65,-1.454 -0.517,-2.233l16.492,-97.754c0.275,-1.629 1.792,-2.738 3.438,-2.45c33.075,5.512 67.158,8.4 101.304,8.592c34.142,-0.192 68.225,-3.079 101.304,-8.592c1.579,-0.283 3.163,0.821 3.433,2.45l16.496,97.754c0.133,0.779 -0.054,1.587 -0.521,2.233c-0.462,0.646 -1.162,1.079 -1.942,1.208c-38.638,6.317 -73.204,9.513 -105.679,9.771l-0.021,0Z" style="fill:#fcb418;fill-rule:nonzero;"/><path d="M656.5,1481.283l-0.517,-0.046c-8.079,-1.408 -17.237,-3.004 -26.15,-5.229c-2.846,-0.671 -5.733,-1.329 -8.621,-1.987c-5.733,-1.313 -11.467,-2.621 -17.163,-4.083l-25.537,-7.246c-5.621,-1.496 -11.204,-3.425 -16.604,-5.292c-2.879,-1 -5.762,-1.992 -8.662,-2.929c-0.762,-0.246 -1.396,-0.788 -1.754,-1.504c-0.358,-0.721 -0.417,-1.55 -0.158,-2.304l24.85,-72.442c0.537,-1.554 2.229,-2.371 3.783,-1.862l16.083,5.442l16.192,4.646c1.946,0.537 3.921,1.108 5.896,1.675c3.437,0.992 6.879,1.987 10.354,2.854l16.492,3.8c1.604,0.371 2.608,1.967 2.246,3.571l-11.296,50.092c-0.363,1.587 -1.95,2.608 -3.529,2.262c-16.5,-3.475 -32.908,-8.221 -48.771,-12.808l-4.263,-1.233c-0.779,-0.221 -1.425,-0.746 -1.804,-1.454c-0.379,-0.708 -0.458,-1.537 -0.217,-2.308l9.504,-30.454c0.479,-1.538 2.1,-2.45 3.671,-1.979l29.513,8.417c1.562,0.442 2.483,2.05 2.071,3.621l-3.425,13.154c-0.417,1.596 -2.062,2.567 -3.642,2.138c-1.6,-0.417 -2.558,-2.042 -2.142,-3.642l2.692,-10.329l-23.908,-6.817l-7.725,24.758l1.333,0.387c14.833,4.292 30.142,8.721 45.467,12.088l9.988,-44.308l-13.646,-3.146c-3.6,-0.9 -7.108,-1.908 -10.621,-2.921c-1.95,-0.562 -3.9,-1.129 -5.858,-1.667l-16.354,-4.696l-13.392,-4.533l-22.904,66.771c1.967,0.658 3.925,1.338 5.892,2.013c5.296,1.833 10.775,3.729 16.233,5.175l25.517,7.242c5.567,1.429 11.246,2.729 16.929,4.025c2.904,0.667 5.804,1.329 8.7,2.013c7.692,1.912 15.617,3.367 22.846,4.637l16.65,-91.692c-33.083,-6.192 -65.675,-15.054 -96.925,-26.362l-0.525,-0.246c-30.646,-11.358 -60.575,-25.229 -89.029,-41.254l-46.154,80.929c30.842,17.4 60.254,31.363 89.725,42.625l25.404,-65.929l-13.037,-5.142c-3.433,-1.317 -6.796,-2.863 -10.158,-4.408c-1.821,-0.842 -3.642,-1.675 -5.479,-2.483l-15.508,-7.004l-12.592,-6.458l-20.821,40.358c14.296,7.487 29.279,14.1 43.875,20.492l9.983,-23.892c-5.15,-2.213 -10.25,-4.538 -15.35,-6.863c-2.442,-1.112 -4.883,-2.229 -7.325,-3.325l-4.579,9.646c-0.704,1.479 -2.483,2.104 -3.979,1.417c-1.492,-0.713 -2.125,-2.492 -1.417,-3.983l5.829,-12.283c0.692,-1.463 2.425,-2.104 3.913,-1.446c3.354,1.492 6.696,3.017 10.037,4.537c5.95,2.713 11.896,5.429 17.925,7.954c1.521,0.633 2.238,2.383 1.604,3.9l-12.296,29.442c-0.308,0.738 -0.904,1.325 -1.646,1.621c-0.746,0.296 -1.583,0.288 -2.308,-0.033c-16.771,-7.333 -33.646,-14.721 -49.683,-23.288c-1.437,-0.767 -1.996,-2.554 -1.246,-4.004l23.538,-45.633c0.758,-1.462 2.558,-2.037 4.017,-1.292l15.117,7.75l15.342,6.929c1.833,0.804 3.692,1.658 5.546,2.512c3.25,1.496 6.492,2.987 9.825,4.271l15.821,6.238c1.529,0.6 2.288,2.321 1.696,3.85l-27.538,71.467c-0.592,1.529 -2.308,2.312 -3.842,1.721c-31.525,-11.854 -62.908,-26.754 -95.946,-45.546c-0.692,-0.392 -1.196,-1.046 -1.408,-1.808c-0.204,-0.763 -0.104,-1.579 0.288,-2.271l49.113,-86.112c0.817,-1.429 2.633,-1.925 4.075,-1.117c29.625,16.879 60.892,31.383 92.929,43.113l0.425,0.2c31.212,11.158 63.758,19.867 96.775,25.875c1.625,0.296 2.7,1.85 2.404,3.471l-17.713,97.542c-0.262,1.45 -1.517,2.458 -2.937,2.458Z" style="fill:#fcb418;fill-rule:nonzero;"/><path d="M426.417,1395.95c-0.537,0 -1.062,-0.142 -1.529,-0.421c-33.888,-20.167 -62.442,-39.921 -87.3,-60.392c-1.263,-1.042 -1.454,-2.913 -0.421,-4.183l48.167,-59.542c1.021,-1.254 2.854,-1.471 4.142,-0.492c2.892,2.217 5.742,4.479 8.6,6.75c5.879,4.675 11.962,9.508 18.254,13.758l1.721,1.229c8.467,6.063 17.225,12.337 26.217,17.846c0.687,0.421 1.175,1.104 1.35,1.883c0.183,0.787 0.038,1.612 -0.4,2.283l-27.821,43.154c-0.892,1.388 -2.742,1.792 -4.125,0.896l-11.5,-7.379l-11.267,-7.946c-2.521,-1.837 -5.033,-3.604 -7.542,-5.367c-4.896,-3.429 -9.95,-6.975 -14.692,-10.879c-1.242,-1.021 -1.454,-2.842 -0.475,-4.121l19.371,-25.342c0.492,-0.642 1.221,-1.054 2.025,-1.15c0.808,-0.1 1.612,0.142 2.233,0.65c5.025,4.083 10.463,7.883 15.717,11.567c3.012,2.104 6.021,4.217 8.983,6.387c1.304,0.958 1.612,2.779 0.692,4.108l-7.738,11.179c-0.942,1.358 -2.8,1.696 -4.158,0.758c-1.354,-0.942 -1.692,-2.8 -0.754,-4.154l6.075,-8.783c-2.162,-1.55 -4.346,-3.071 -6.525,-4.6c-4.525,-3.171 -9.183,-6.429 -13.654,-9.913l-15.75,20.604c3.921,3.075 8.054,5.975 12.079,8.8c2.546,1.783 5.087,3.571 7.6,5.408l11.113,7.842l8.883,5.692l24.562,-38.096c-8.25,-5.204 -16.237,-10.929 -23.979,-16.475l-1.654,-1.183c-6.413,-4.329 -12.587,-9.238 -18.563,-13.979c-2.067,-1.646 -4.133,-3.283 -6.212,-4.908l-44.463,54.958c23.442,19.087 50.221,37.592 81.683,56.454l47.15,-80.338c-28.121,-16.737 -55.092,-35.817 -80.229,-56.762l-0.367,-0.258c-24.908,-20.638 -48.958,-44.417 -71.517,-70.721l-70.983,60.375c20.321,24.025 43.2,47.163 69.792,70.588l46.387,-53.2c-14.046,-12.179 -28.367,-26.067 -44.696,-43.367l-33.287,30.8l16.775,17.546l17.475,16.662l17.579,-19.083c-1.921,-1.842 -3.858,-3.675 -5.8,-5.508c-4.012,-3.792 -8.142,-7.692 -12.137,-11.7l-7.538,7.442c-1.179,1.162 -3.063,1.15 -4.229,-0.021c-1.158,-1.175 -1.146,-3.071 0.025,-4.225l9.671,-9.55c0.567,-0.563 1.371,-0.825 2.129,-0.863c0.796,0.004 1.558,0.329 2.113,0.904c4.55,4.671 9.392,9.25 14.071,13.675c2.662,2.512 5.325,5.033 7.954,7.575c1.163,1.133 1.213,2.983 0.117,4.175l-21.621,23.462c-0.542,0.588 -1.296,0.933 -2.1,0.963c-0.788,0.042 -1.575,-0.275 -2.158,-0.821l-19.771,-18.858l-18.971,-19.842c-0.554,-0.575 -0.854,-1.358 -0.829,-2.158c0.025,-0.796 0.371,-1.558 0.958,-2.1l37.696,-34.867c1.204,-1.108 3.075,-1.054 4.204,0.15c17.921,19.088 33.346,34.038 48.542,47.033c0.604,0.521 0.975,1.254 1.033,2.054c0.058,0.792 -0.204,1.575 -0.725,2.175l-50.329,57.729c-0.525,0.6 -1.263,0.967 -2.054,1.021c-0.8,0.05 -1.571,-0.212 -2.167,-0.738c-28.633,-25.046 -53.038,-49.733 -74.6,-75.483c-1.05,-1.263 -0.892,-3.133 0.358,-4.196l75.517,-64.233c0.6,-0.512 1.362,-0.771 2.179,-0.7c0.787,0.067 1.517,0.438 2.029,1.037c22.371,26.329 46.242,50.146 70.979,70.817l0.408,0.288c26.142,21.938 54.304,41.842 83.713,59.154c1.421,0.833 1.896,2.658 1.063,4.083l-50.179,85.504c-0.404,0.688 -1.063,1.183 -1.833,1.379l-0.742,0.096Z" style="fill:#fcb418;fill-rule:nonzero;"/><path d="M239.479,1237.146l-0.288,-0.008c-0.787,-0.079 -1.517,-0.467 -2.021,-1.079c-22.367,-27.275 -43.05,-56.375 -61.471,-86.508c-0.412,-0.675 -0.537,-1.492 -0.35,-2.262c0.187,-0.775 0.675,-1.442 1.358,-1.85l65.567,-39.579c1.4,-0.846 3.217,-0.412 4.079,0.975c5.983,9.587 12.092,19.096 18.292,28.542c2.367,3.242 4.763,6.65 7.158,10.058c4.038,5.737 8.217,11.679 12.596,17.267c0.492,0.629 0.713,1.429 0.613,2.225c-0.104,0.792 -0.521,1.508 -1.158,1.992l-40.85,31.104c-1.283,0.992 -3.121,0.758 -4.133,-0.496c-3.783,-4.692 -7.271,-9.663 -10.646,-14.471c-1.817,-2.596 -3.633,-5.183 -5.504,-7.742c-5.3,-7.179 -10.071,-14.6 -15.308,-22.858c-0.879,-1.388 -0.471,-3.225 0.912,-4.112l26.846,-17.233c0.662,-0.425 1.475,-0.583 2.25,-0.4c0.775,0.167 1.45,0.633 1.879,1.304l8.283,12.917l8.813,12.387c0.463,0.646 0.646,1.446 0.517,2.229c-0.133,0.779 -0.571,1.479 -1.217,1.933l-11.079,7.879c-1.346,0.962 -3.208,0.642 -4.167,-0.7c-0.954,-1.35 -0.637,-3.208 0.708,-4.167l8.642,-6.15l-7.167,-10.067l-6.75,-10.525l-21.833,14.017c4.567,7.158 8.833,13.7 13.487,20.013c1.9,2.596 3.737,5.221 5.579,7.846c2.767,3.946 5.613,8 8.604,11.867l36.121,-27.5c-3.792,-4.983 -7.408,-10.125 -10.921,-15.125c-2.379,-3.375 -4.754,-6.763 -7.188,-10.092c-5.758,-8.775 -11.379,-17.504 -16.883,-26.283l-60.475,36.504c17.35,28.133 36.683,55.338 57.512,80.946l71.7,-59.475c-20.771,-25.45 -39.638,-52.696 -56.112,-81.054l-0.088,-0.137c-17.442,-30.142 -31.971,-60.642 -43.208,-90.712l-87.333,32.412c11.142,29.567 25.104,59.896 41.538,90.246l61.729,-34.2c-3.046,-5.5 -5.9,-11.142 -8.667,-16.621c-1.85,-3.658 -3.7,-7.317 -5.608,-10.938c-4.438,-9.508 -8.712,-18.967 -12.904,-28.442l-41.833,17.567c6.437,14.562 13.1,29.538 20.6,43.829l23.05,-11.954l-0.25,-0.483c-3.646,-7.075 -7.404,-14.362 -10.725,-21.812l-9.583,4.404c-1.508,0.687 -3.275,0.038 -3.958,-1.463c-0.692,-1.5 -0.038,-3.275 1.462,-3.962l12.346,-5.675c0.738,-0.333 1.567,-0.363 2.325,-0.079c0.75,0.292 1.354,0.879 1.671,1.617c3.521,8.225 7.717,16.367 11.771,24.237l1.617,3.138c0.754,1.462 0.179,3.262 -1.283,4.021l-28.325,14.683c-1.446,0.75 -3.229,0.196 -4.008,-1.242c-8.425,-15.742 -15.737,-32.292 -22.812,-48.296l-0.588,-1.329c-0.325,-0.738 -0.337,-1.562 -0.046,-2.313c0.3,-0.746 0.883,-1.342 1.621,-1.65l47.337,-19.883c1.496,-0.625 3.238,0.054 3.892,1.546c4.558,10.342 9.2,20.65 13.975,30.887c1.858,3.525 3.725,7.208 5.587,10.896c3.183,6.296 6.471,12.8 10.004,18.992c0.396,0.696 0.5,1.517 0.283,2.288c-0.217,0.771 -0.729,1.417 -1.429,1.808l-66.992,37.117c-0.696,0.383 -1.525,0.471 -2.279,0.254c-0.762,-0.221 -1.408,-0.742 -1.788,-1.442c-17.721,-32.433 -32.65,-64.892 -44.379,-96.463c-0.275,-0.742 -0.246,-1.562 0.083,-2.283c0.333,-0.721 0.933,-1.283 1.679,-1.558l92.946,-34.496c0.75,-0.275 1.571,-0.238 2.288,0.087c0.721,0.333 1.279,0.942 1.554,1.687c11.058,30.117 25.475,60.704 42.867,90.946l0.058,0.092l0.013,0.021c17.033,29.538 36.683,57.867 58.404,84.212c1.046,1.271 0.867,3.15 -0.396,4.2l-76.304,63.292c-0.542,0.45 -1.213,0.687 -1.908,0.687Z" style="fill:#fcb418;fill-rule:nonzero;"/><path d="M118.038,1023.938c-1.225,0 -2.367,-0.75 -2.808,-1.963c-11.1,-30.562 -20.275,-64.071 -28.05,-102.446c-0.158,-0.783 0.004,-1.596 0.446,-2.258c0.446,-0.658 1.133,-1.121 1.917,-1.271l75.179,-14.617c0.783,-0.138 1.604,0.017 2.262,0.479c0.662,0.454 1.112,1.154 1.25,1.95c1.217,7.033 2.908,14.146 4.542,21.025c0.946,3.996 1.896,7.992 2.767,12.004c1.708,6.817 3.683,13.667 5.65,20.508c1.154,4.008 2.308,8.021 3.413,12.041c0.429,1.558 -0.454,3.167 -1.996,3.646l-49.042,15.204c-0.767,0.233 -1.6,0.15 -2.308,-0.229c-0.704,-0.384 -1.229,-1.034 -1.45,-1.808l-7.471,-26.288c-1.696,-5.742 -3.021,-11.658 -4.304,-17.379c-0.696,-3.1 -1.387,-6.2 -2.146,-9.283c-0.187,-0.779 -0.058,-1.604 0.367,-2.288c0.421,-0.679 1.1,-1.167 1.888,-1.342l31.133,-6.959c1.592,-0.333 3.183,0.642 3.554,2.229c0.629,2.629 1.229,5.267 1.829,7.908c1.629,7.171 3.317,14.587 5.504,21.683c0.242,0.766 0.154,1.608 -0.233,2.312c-0.392,0.713 -1.05,1.233 -1.829,1.45l-13.104,3.592c-1.604,0.421 -3.238,-0.496 -3.675,-2.096c-0.433,-1.583 0.504,-3.229 2.092,-3.666l10.162,-2.783c-1.833,-6.379 -3.308,-12.862 -4.742,-19.167c-0.379,-1.663 -0.758,-3.325 -1.142,-4.988l-25.292,5.654c0.5,2.142 0.983,4.287 1.462,6.433c1.262,5.629 2.567,11.446 4.213,17.025l6.642,23.375l43.354,-13.442c-0.858,-3.062 -1.737,-6.125 -2.621,-9.187c-1.988,-6.912 -3.975,-13.825 -5.725,-20.796c-0.883,-4.075 -1.825,-8.029 -2.767,-11.992c-1.425,-5.996 -2.888,-12.175 -4.067,-18.383l-69.254,13.463c7.346,35.692 15.933,67.108 26.2,95.846l87.738,-31.317c-10.721,-29.958 -19.2,-62.658 -25.221,-97.242l-0.038,-0.288c-5.792,-33.963 -8.837,-66.933 -9.062,-98.075l-93.154,0.571c0.317,31.442 2.917,63.879 7.933,98.946l69.779,-10.887c-0.892,-6.371 -1.687,-12.75 -2.483,-19.134c-0.492,-3.891 -0.975,-7.783 -1.483,-11.667c-0.317,-4.429 -0.65,-8.675 -0.979,-12.929c-0.475,-6.075 -0.946,-12.146 -1.329,-18.225l-45.296,2.15l0.3,4.433c0.975,14.404 1.975,29.267 3.967,43.787l25.758,-3.292l-1.558,-12.262c-0.358,-3.392 -0.604,-6.721 -0.846,-10.054l-0.179,-2.408l-10.558,0.846c-1.692,0.112 -3.087,-1.092 -3.221,-2.733c-0.129,-1.646 1.1,-3.087 2.742,-3.217l13.55,-1.083c1.679,-0.142 3.075,1.083 3.217,2.729l0.412,5.438c0.233,3.267 0.471,6.533 0.817,9.787l1.929,15.162c0.208,1.642 -0.95,3.133 -2.583,3.342l-31.646,4.046c-1.646,0.196 -3.1,-0.921 -3.333,-2.533c-2.296,-15.671 -3.379,-31.671 -4.429,-47.15l-0.508,-7.467c-0.054,-0.804 0.217,-1.592 0.75,-2.196c0.533,-0.6 1.287,-0.962 2.087,-0.996l51.292,-2.434c1.55,-0.196 3.029,1.175 3.121,2.813c0.408,7.016 0.954,14.037 1.5,21.05c0.333,4.271 0.667,8.533 0.967,12.8c0.492,3.721 0.979,7.617 1.467,11.521c0.917,7.321 1.833,14.65 2.883,21.946c0.233,1.625 -0.879,3.129 -2.496,3.379l-75.671,11.808c-0.796,0.117 -1.592,-0.075 -2.233,-0.55c-0.642,-0.471 -1.067,-1.184 -1.179,-1.971c-5.504,-37.612 -8.271,-72.2 -8.454,-105.746c-0.008,-1.65 1.317,-2.996 2.967,-3.004l99.137,-0.609c0.887,0.008 1.558,0.308 2.121,0.867c0.567,0.563 0.883,1.321 0.883,2.117c0.05,32.3 3.192,66.659 9.342,102.1l0.025,0.192c6.133,34.608 14.754,67.267 25.629,97.1c0.271,0.75 0.238,1.571 -0.1,2.296c-0.337,0.717 -0.954,1.271 -1.7,1.538l-93.367,33.329l-1.004,0.175Z" style="fill:#fcb418;fill-rule:nonzero;"/><path d="M176.229,782.646l-0.021,0l-99.137,-0.604c-1.65,-0.008 -2.975,-1.354 -2.967,-3.004c0.183,-33.55 2.95,-68.142 8.454,-105.75c0.112,-0.792 0.537,-1.5 1.179,-1.971c0.642,-0.479 1.438,-0.671 2.233,-0.55l75.671,11.808c1.617,0.254 2.729,1.758 2.496,3.379c-1.05,7.292 -1.963,14.608 -2.879,21.925c-0.488,3.904 -0.979,7.817 -1.488,11.717c-0.283,4.096 -0.617,8.367 -0.95,12.634c-0.55,7.012 -1.092,14.025 -1.5,21.046c-0.092,1.633 -1.546,2.863 -3.121,2.812l-51.292,-2.433c-0.8,-0.037 -1.554,-0.4 -2.087,-1c-0.533,-0.6 -0.804,-1.392 -0.75,-2.192l0.508,-7.467c1.05,-15.475 2.129,-31.479 4.429,-47.154c0.233,-1.613 1.687,-2.725 3.333,-2.529l31.646,4.046c1.633,0.208 2.792,1.704 2.583,3.342l-1.938,15.221c-0.337,3.2 -0.575,6.467 -0.808,9.737l-0.412,5.429c-0.133,1.638 -1.533,2.846 -3.217,2.733l-13.55,-1.083c-1.642,-0.133 -2.871,-1.575 -2.742,-3.221c0.137,-1.642 1.538,-2.842 3.221,-2.738l10.558,0.846l0.179,-2.4c0.242,-3.333 0.488,-6.671 0.838,-9.996l1.567,-12.325l-25.758,-3.292c-1.992,14.525 -2.992,29.383 -3.967,43.783l-0.3,4.433l45.296,2.15c0.383,-6.075 0.854,-12.142 1.329,-18.212c0.329,-4.254 0.662,-8.508 0.963,-12.767c0.525,-4.066 1.012,-7.963 1.5,-11.862c0.796,-6.375 1.596,-12.75 2.483,-19.112l-69.779,-10.892c-5.017,35.071 -7.617,67.508 -7.933,98.95l93.154,0.571c0.225,-31.142 3.271,-64.109 9.062,-98.075l0.038,-0.283c6.021,-34.592 14.5,-67.283 25.221,-97.237l-87.738,-31.321c-10.267,28.733 -18.854,60.15 -26.2,95.846l69.254,13.459c1.179,-6.209 2.642,-12.384 4.067,-18.384c0.942,-3.958 1.883,-7.917 2.742,-11.892c1.771,-7.062 3.754,-13.967 5.742,-20.867c0.883,-3.071 1.771,-6.142 2.629,-9.217l-43.354,-13.442l-6.633,23.35c-1.658,5.608 -2.962,11.429 -4.221,17.058c-0.483,2.146 -0.963,4.292 -1.462,6.429l25.292,5.65c0.383,-1.662 0.762,-3.325 1.142,-4.987c1.433,-6.3 2.908,-12.788 4.742,-19.162l-10.162,-2.783c-1.587,-0.437 -2.525,-2.079 -2.092,-3.671c0.437,-1.592 2.075,-2.517 3.675,-2.092l13.104,3.592c0.779,0.213 1.438,0.733 1.829,1.442c0.387,0.708 0.475,1.546 0.233,2.321c-2.188,7.096 -3.875,14.508 -5.504,21.679c-0.6,2.637 -1.2,5.279 -1.829,7.912c-0.371,1.592 -1.962,2.579 -3.554,2.221l-31.133,-6.954c-0.787,-0.175 -1.467,-0.654 -1.888,-1.337c-0.425,-0.683 -0.554,-1.504 -0.367,-2.283c0.758,-3.083 1.45,-6.183 2.146,-9.279c1.279,-5.725 2.608,-11.646 4.313,-17.417l7.463,-26.262c0.221,-0.775 0.746,-1.425 1.45,-1.808c0.708,-0.379 1.546,-0.467 2.308,-0.229l49.042,15.204c1.542,0.479 2.425,2.092 1.996,3.646c-1.108,4.033 -2.262,8.05 -3.421,12.071c-1.967,6.838 -3.933,13.675 -5.667,20.575c-0.846,3.921 -1.796,7.917 -2.742,11.917c-1.633,6.875 -3.325,13.983 -4.542,21.021c-0.138,0.792 -0.588,1.496 -1.25,1.95c-0.658,0.458 -1.483,0.633 -2.262,0.471l-75.179,-14.612c-0.783,-0.154 -1.471,-0.613 -1.917,-1.271c-0.442,-0.662 -0.604,-1.475 -0.446,-2.254c7.775,-38.375 16.95,-71.887 28.05,-102.446c0.563,-1.546 2.262,-2.35 3.813,-1.787l93.367,33.329c0.746,0.267 1.363,0.825 1.7,1.546c0.338,0.721 0.371,1.546 0.1,2.292c-10.875,29.825 -19.496,62.483 -25.629,97.096l-0.025,0.187c-6.15,35.446 -9.292,69.8 -9.342,102.1c0,0.796 -0.317,1.554 -0.883,2.117c-0.558,0.554 -1.313,0.867 -2.1,0.867Z" style="fill:#fcb418;fill-rule:nonzero;"/><path d="M213.942,575.138l-1.038,-0.187l-92.946,-34.496c-0.746,-0.275 -1.346,-0.833 -1.679,-1.554c-0.329,-0.721 -0.358,-1.542 -0.083,-2.288c11.725,-31.554 26.654,-64.012 44.379,-96.467c0.379,-0.696 1.025,-1.213 1.788,-1.433c0.754,-0.233 1.583,-0.129 2.279,0.254l66.992,37.113c0.7,0.387 1.213,1.042 1.429,1.808c0.217,0.767 0.112,1.596 -0.283,2.288c-3.533,6.192 -6.821,12.696 -10,18.988c-1.867,3.688 -3.733,7.379 -5.658,11.033c-4.708,10.108 -9.35,20.417 -13.908,30.754c-0.654,1.496 -2.387,2.179 -3.892,1.546l-47.337,-19.883c-0.738,-0.308 -1.321,-0.904 -1.621,-1.65c-0.292,-0.746 -0.279,-1.579 0.046,-2.312l0.588,-1.329c7.075,-16 14.387,-32.546 22.812,-48.288c0.779,-1.441 2.567,-1.987 4.008,-1.242l28.325,14.679c1.462,0.754 2.037,2.554 1.283,4.017l-1.613,3.133c-4.058,7.871 -8.25,16.012 -11.775,24.246c-0.317,0.742 -0.921,1.321 -1.671,1.613c-0.75,0.292 -1.588,0.271 -2.325,-0.075l-12.346,-5.675c-1.496,-0.687 -2.154,-2.458 -1.462,-3.958c0.683,-1.5 2.446,-2.167 3.958,-1.467l9.583,4.404c3.321,-7.454 7.079,-14.746 10.725,-21.825l0.25,-0.479l-23.05,-11.95c-7.5,14.296 -14.163,29.267 -20.6,43.829l41.833,17.571c4.192,-9.471 8.463,-18.921 12.838,-28.313c1.975,-3.758 3.825,-7.417 5.675,-11.075c2.771,-5.475 5.621,-11.117 8.667,-16.617l-61.729,-34.2c-16.442,30.363 -30.4,60.696 -41.538,90.246l87.333,32.413c11.242,-30.079 25.771,-60.583 43.208,-90.704l0.088,-0.146c16.475,-28.358 35.342,-55.604 56.112,-81.05l-71.7,-59.475c-20.833,25.608 -40.162,52.821 -57.512,80.95l60.475,36.5c5.504,-8.775 11.117,-17.5 16.8,-26.162c2.508,-3.446 4.879,-6.817 7.25,-10.188c3.521,-5.008 7.142,-10.162 10.942,-15.15l-36.121,-27.504c-2.987,3.871 -5.833,7.921 -8.596,11.862c-1.846,2.629 -3.687,5.254 -5.579,7.842c-4.683,6.346 -8.942,12.879 -13.496,20.029l21.833,14.008l6.671,-10.404l7.246,-10.188l-8.642,-6.142c-1.346,-0.958 -1.663,-2.821 -0.708,-4.167c0.958,-1.346 2.817,-1.667 4.167,-0.704l11.079,7.875c0.646,0.458 1.083,1.158 1.217,1.933c0.129,0.784 -0.054,1.588 -0.517,2.233l-8.896,12.504l-8.2,12.8c-0.429,0.667 -1.104,1.138 -1.879,1.304c-0.775,0.171 -1.587,0.025 -2.25,-0.404l-26.846,-17.229c-1.383,-0.887 -1.792,-2.725 -0.912,-4.112c5.229,-8.242 9.983,-15.65 15.317,-22.871c1.863,-2.546 3.683,-5.146 5.504,-7.742c3.371,-4.804 6.854,-9.771 10.638,-14.458c1.012,-1.258 2.842,-1.488 4.133,-0.5l40.85,31.104c0.637,0.483 1.054,1.204 1.158,1.996c0.1,0.792 -0.121,1.596 -0.613,2.221c-4.387,5.6 -8.567,11.546 -12.617,17.3c-2.387,3.4 -4.775,6.796 -7.225,10.15c-6.112,9.321 -12.221,18.842 -18.208,28.421c-0.858,1.383 -2.675,1.825 -4.075,0.975l-65.567,-39.575c-0.683,-0.412 -1.171,-1.075 -1.358,-1.85c-0.187,-0.771 -0.062,-1.587 0.35,-2.267c18.421,-30.129 39.1,-59.233 61.471,-86.504c0.504,-0.617 1.233,-1.004 2.021,-1.079c0.812,-0.071 1.587,0.167 2.196,0.671l76.304,63.296c1.263,1.05 1.442,2.929 0.396,4.196c-21.721,26.346 -41.371,54.679 -58.404,84.217l-0.008,0.017l-0.004,0l-0.058,0.096c-17.383,30.229 -31.804,60.821 -42.867,90.95c-0.275,0.742 -0.833,1.35 -1.554,1.679c-0.396,0.187 -0.821,0.275 -1.25,0.275Z" style="fill:#fcb418;fill-rule:nonzero;"/><path d="M320.733,393.292c-0.704,0 -1.392,-0.254 -1.933,-0.713l-75.517,-64.229c-1.25,-1.063 -1.408,-2.938 -0.358,-4.192c21.563,-25.758 45.967,-50.45 74.6,-75.492c0.596,-0.521 1.375,-0.754 2.167,-0.733c0.792,0.054 1.529,0.421 2.054,1.017l50.329,57.729c0.521,0.6 0.783,1.383 0.725,2.183c-0.058,0.792 -0.429,1.529 -1.033,2.05c-15.208,13.008 -30.629,27.954 -48.542,47.033c-1.129,1.196 -3,1.262 -4.204,0.15l-37.696,-34.867c-0.588,-0.546 -0.933,-1.3 -0.958,-2.104c-0.025,-0.796 0.275,-1.575 0.829,-2.154l18.875,-19.746l19.867,-18.95c0.583,-0.55 1.371,-0.892 2.158,-0.825c0.804,0.025 1.558,0.371 2.1,0.963l21.621,23.458c1.096,1.196 1.046,3.042 -0.117,4.171c-2.629,2.55 -5.292,5.063 -7.954,7.579c-4.679,4.425 -9.521,9.004 -14.071,13.675c-0.554,0.575 -1.317,0.896 -2.113,0.904c-0.725,-0.071 -1.562,-0.3 -2.129,-0.859l-9.671,-9.55c-1.171,-1.162 -1.183,-3.05 -0.025,-4.229c1.167,-1.167 3.05,-1.184 4.229,-0.025l7.538,7.45c3.996,-4.008 8.125,-7.912 12.137,-11.708c1.942,-1.829 3.879,-3.663 5.8,-5.504l-17.579,-19.079l-17.571,16.754l-16.683,17.454l33.292,30.796c16.321,-17.279 30.637,-31.175 44.696,-43.362l-46.387,-53.2c-26.592,23.425 -49.471,46.558 -69.792,70.587l70.983,60.371c22.562,-26.304 46.612,-50.087 71.517,-70.717l0.35,-0.254c25.158,-20.954 52.133,-40.033 80.246,-56.771l-47.15,-80.333c-31.483,18.875 -58.263,37.379 -81.683,56.446l44.463,54.962c2.079,-1.621 4.146,-3.263 6.212,-4.904c5.975,-4.746 12.15,-9.654 18.633,-14.033l1.458,-1.042c7.783,-5.579 15.812,-11.329 24.104,-16.563l-24.562,-38.096l-8.988,5.767l-11.054,7.8c-2.458,1.8 -4.996,3.579 -7.533,5.358c-4.029,2.825 -8.175,5.733 -12.1,8.812l15.75,20.608c4.479,-3.492 9.137,-6.754 13.662,-9.925c2.179,-1.521 4.358,-3.046 6.517,-4.596l-6.075,-8.771c-0.937,-1.358 -0.6,-3.221 0.754,-4.158c1.358,-0.942 3.217,-0.6 4.158,0.754l7.738,11.175c0.921,1.333 0.612,3.154 -0.692,4.112c-2.954,2.171 -5.962,4.271 -8.971,6.379c-5.258,3.683 -10.7,7.492 -15.729,11.579c-0.625,0.512 -1.433,0.758 -2.233,0.65c-0.804,-0.096 -1.533,-0.508 -2.025,-1.15l-19.375,-25.346c-0.975,-1.279 -0.762,-3.1 0.479,-4.121c4.746,-3.904 9.812,-7.458 14.712,-10.896c2.504,-1.758 5.008,-3.513 7.475,-5.317l11.204,-7.908l11.608,-7.45c1.383,-0.883 3.233,-0.488 4.125,0.896l27.821,43.158c0.437,0.675 0.583,1.5 0.4,2.283c-0.175,0.783 -0.662,1.463 -1.35,1.883c-9.038,5.538 -17.838,11.842 -26.346,17.938l-1.525,1.092c-6.358,4.292 -12.442,9.129 -18.325,13.804c-2.854,2.267 -5.704,4.533 -8.596,6.75c-1.283,0.983 -3.121,0.763 -4.142,-0.496l-48.167,-59.542c-1.033,-1.275 -0.842,-3.142 0.421,-4.179c24.833,-20.454 53.387,-40.208 87.3,-60.391c0.683,-0.408 1.496,-0.517 2.271,-0.329c0.771,0.2 1.429,0.696 1.833,1.383l50.179,85.5c0.833,1.421 0.358,3.25 -1.063,4.084c-29.396,17.304 -57.558,37.208 -83.713,59.15l-0.396,0.283c-24.742,20.671 -48.612,44.488 -70.992,70.821c-0.513,0.604 -1.242,0.979 -2.029,1.046l-0.246,0.008Z" style="fill:#fcb418;fill-rule:nonzero;"/><path d="M483.142,258.637c-1.038,0 -2.046,-0.537 -2.6,-1.508l-49.113,-86.117c-0.392,-0.688 -0.492,-1.504 -0.288,-2.271c0.213,-0.763 0.721,-1.413 1.408,-1.804c33.046,-18.792 64.429,-33.687 95.946,-45.542c1.533,-0.587 3.25,0.183 3.842,1.721l27.538,71.463c0.592,1.529 -0.167,3.25 -1.696,3.854l-15.796,6.225c-3.35,1.287 -6.592,2.783 -9.829,4.275c-1.863,0.858 -3.725,1.717 -5.6,2.533l-15.442,6.979l-14.983,7.683c-1.462,0.763 -3.258,0.179 -4.017,-1.287l-23.538,-45.638c-0.75,-1.45 -0.192,-3.229 1.246,-4c16.038,-8.567 32.913,-15.95 49.238,-23.096c0.733,-0.308 1.788,-0.425 2.533,-0.129c0.742,0.296 1.558,0.783 1.867,1.521l12.296,29.438c0.633,1.521 -0.083,3.271 -1.604,3.904c-6.021,2.529 -11.967,5.237 -17.913,7.946c-3.346,1.525 -6.692,3.054 -10.05,4.546c-1.479,0.662 -3.217,0.017 -3.913,-1.45l-5.829,-12.279c-0.708,-1.488 -0.075,-3.271 1.417,-3.975c1.496,-0.7 3.275,-0.079 3.979,1.417l4.579,9.642c2.45,-1.104 4.892,-2.217 7.342,-3.333c5.092,-2.325 10.188,-4.646 15.333,-6.854l-9.983,-23.891c-14.829,6.492 -29.704,13.071 -43.875,20.487l20.821,40.358l12.462,-6.388l15.604,-7.058c1.879,-0.821 3.7,-1.662 5.529,-2.5c3.358,-1.546 6.713,-3.092 10.163,-4.421l13.017,-5.129l-25.404,-65.921c-29.462,11.254 -58.871,25.225 -89.725,42.621l46.154,80.929c28.454,-16.029 58.383,-29.896 89.029,-41.25l0.525,-0.25c31.25,-11.308 63.842,-20.171 96.925,-26.363l-16.65,-91.692c-7.246,1.275 -15.183,2.725 -22.808,4.629c-2.921,0.687 -5.804,1.346 -8.692,2.004c-5.696,1.304 -11.392,2.604 -17.05,4.063l-25.392,7.204c-5.525,1.467 -11.017,3.367 -16.329,5.2c-1.95,0.675 -3.896,1.35 -5.846,2l22.904,66.771l13.254,-4.492l16.458,-4.729c1.992,-0.546 3.942,-1.108 5.892,-1.671c3.512,-1.012 7.021,-2.025 10.567,-2.912l13.7,-3.158l-9.988,-44.3c-15.279,3.35 -30.542,7.767 -45.325,12.042l-1.475,0.425l7.725,24.758l23.908,-6.813l-2.692,-10.329c-0.417,-1.596 0.542,-3.229 2.142,-3.646c1.583,-0.396 3.225,0.542 3.642,2.138l3.425,13.154c0.412,1.571 -0.508,3.179 -2.071,3.625l-29.513,8.417c-1.554,0.442 -3.187,-0.433 -3.671,-1.983l-9.504,-30.45c-0.242,-0.767 -0.163,-1.6 0.217,-2.304c0.379,-0.708 1.025,-1.233 1.804,-1.458l4.396,-1.271c15.821,-4.575 32.188,-9.312 48.638,-12.771c1.583,-0.333 3.167,0.667 3.529,2.267l11.296,50.087c0.363,1.604 -0.642,3.2 -2.246,3.567l-16.542,3.812c-3.425,0.854 -6.867,1.846 -10.304,2.837c-1.975,0.575 -3.95,1.142 -5.929,1.688l-16.292,4.675l-15.946,5.408c-1.558,0.533 -3.25,-0.3 -3.787,-1.858l-24.85,-72.446c-0.258,-0.758 -0.2,-1.587 0.158,-2.304c0.358,-0.717 0.992,-1.258 1.75,-1.504c2.888,-0.933 5.758,-1.925 8.625,-2.916c5.412,-1.871 11.012,-3.808 16.692,-5.317l25.421,-7.209c5.779,-1.492 11.529,-2.804 17.279,-4.117c2.871,-0.658 5.746,-1.313 8.612,-1.992c8.833,-2.204 18.012,-3.804 26.112,-5.221c1.617,-0.271 3.163,0.796 3.454,2.413l17.713,97.542c0.296,1.625 -0.779,3.179 -2.404,3.471c-33.017,6.017 -65.563,14.721 -96.775,25.883l-0.425,0.192c-32.038,11.733 -63.304,26.242 -92.929,43.117c-0.467,0.262 -0.975,0.387 -1.475,0.387Z" style="fill:#fcb418;fill-rule:nonzero;"/><path d="M885.233,187.783l-0.496,-0.041c-33.067,-5.512 -67.146,-8.408 -101.304,-8.596c-34.167,0.188 -68.242,3.084 -101.304,8.596c-1.65,0.275 -3.163,-0.825 -3.438,-2.45l-16.492,-97.758c-0.133,-0.783 0.054,-1.587 0.517,-2.233c0.462,-0.646 1.162,-1.083 1.946,-1.213c38.617,-6.313 73.183,-9.509 105.675,-9.767c1.725,-0.104 2.983,1.296 3.008,2.929l1.396,76.575c0.029,1.646 -1.275,3 -2.917,3.042l-3.633,0.083c-9.896,0.225 -20.125,0.454 -30.088,1.433l-17.008,1.283c-3.521,0.329 -7.083,0.796 -10.642,1.267c-2.025,0.267 -4.058,0.533 -6.092,0.775c-1.633,0.204 -3.113,-0.962 -3.317,-2.592l-6.413,-50.946c-0.2,-1.629 0.95,-3.121 2.579,-3.333l0.671,-0.087c8.717,-1.138 17.725,-2.317 26.704,-2.825c3.104,-0.213 6.242,-0.463 9.379,-0.713c5.971,-0.479 11.946,-0.958 17.929,-1.175c1.692,-0.05 3.021,1.212 3.092,2.85l1.45,31.867c0.033,0.792 -0.246,1.571 -0.783,2.154c-0.533,0.583 -1.279,0.933 -2.075,0.967c-6.525,0.275 -13.037,0.796 -19.546,1.317c-3.667,0.292 -7.329,0.583 -10.996,0.833c-1.583,0.133 -3.025,-1.092 -3.179,-2.704l-1.254,-13.533c-0.15,-1.642 1.058,-3.096 2.7,-3.25c1.687,-0.154 3.096,1.054 3.25,2.696l0.983,10.625c2.675,-0.196 5.346,-0.412 8.021,-0.625c5.588,-0.446 11.175,-0.892 16.779,-1.183l-1.183,-25.912c-4.908,0.242 -9.808,0.638 -14.713,1.029c-3.158,0.254 -6.321,0.504 -9.483,0.721c-8.021,0.454 -16.129,1.463 -24.025,2.487l5.667,45.038c1.029,-0.133 2.05,-0.267 3.075,-0.404c3.633,-0.479 7.271,-0.954 10.921,-1.292l16.992,-1.283c10.121,-0.992 20.462,-1.229 30.471,-1.454l0.658,-0.017l-1.287,-70.638c-30.487,0.412 -62.887,3.421 -98.838,9.179l15.496,91.858c32.087,-5.192 65.096,-7.942 98.188,-8.184l0.117,-0.008c0.696,-0.033 1.383,-0.033 2.079,0l0.121,0.008c33.087,0.242 66.092,2.992 98.183,8.184l15.496,-91.858c-35.95,-5.758 -68.35,-8.767 -98.833,-9.179l-1.287,70.638l0.658,0.017c10.004,0.225 20.346,0.462 30.533,1.458l16.879,1.275c3.692,0.342 7.321,0.817 10.95,1.296c1.033,0.138 2.058,0.271 3.092,0.404l5.667,-45.038c-7.896,-1.025 -16.004,-2.033 -23.996,-2.487c-3.192,-0.217 -6.35,-0.467 -9.504,-0.721c-4.908,-0.392 -9.813,-0.788 -14.725,-1.029l-1.175,25.912c5.596,0.292 11.192,0.738 16.779,1.183c2.675,0.213 5.338,0.429 8.013,0.625l0.983,-10.625c0.154,-1.637 1.629,-2.821 3.25,-2.696c1.646,0.154 2.854,1.608 2.704,3.25l-1.258,13.533c-0.15,1.608 -1.45,2.771 -3.179,2.704c-3.662,-0.25 -7.325,-0.542 -10.988,-0.833c-6.512,-0.521 -13.025,-1.042 -19.546,-1.317c-0.792,-0.033 -1.546,-0.383 -2.079,-0.967c-0.533,-0.583 -0.821,-1.363 -0.779,-2.15l1.446,-31.871c0.075,-1.633 1.3,-2.958 3.092,-2.85c5.988,0.217 11.963,0.696 17.942,1.175c3.133,0.25 6.267,0.504 9.396,0.713c8.95,0.508 17.963,1.687 26.675,2.825l0.671,0.087c1.633,0.213 2.783,1.704 2.579,3.333l-6.413,50.946c-0.208,1.633 -1.737,2.775 -3.321,2.592c-2.033,-0.242 -4.071,-0.508 -6.1,-0.779c-3.558,-0.467 -7.113,-0.934 -10.683,-1.263l-16.887,-1.279c-10.029,-0.983 -20.258,-1.212 -30.15,-1.437l-3.637,-0.083c-1.646,-0.042 -2.946,-1.396 -2.917,-3.042l1.396,-76.575c0.029,-1.625 1.358,-2.929 2.987,-2.929l0.021,0c32.492,0.258 67.058,3.454 105.679,9.767c0.779,0.129 1.479,0.567 1.942,1.213c0.467,0.646 0.654,1.45 0.521,2.233l-16.496,97.758c-0.242,1.458 -1.508,2.492 -2.937,2.492Z" style="fill:#fcb418;fill-rule:nonzero;"/><path d="M1083.721,258.637c-0.5,0 -1.008,-0.125 -1.475,-0.387c-29.621,-16.875 -60.883,-31.379 -92.929,-43.117l-0.433,-0.196c-31.204,-11.158 -63.754,-19.863 -96.767,-25.879c-1.621,-0.292 -2.696,-1.846 -2.404,-3.471l17.713,-97.542c0.296,-1.621 1.871,-2.688 3.454,-2.413c8.104,1.417 17.283,3.021 26.154,5.234c2.821,0.667 5.692,1.321 8.562,1.975c5.754,1.317 11.504,2.629 17.217,4.1l25.537,7.246c5.633,1.492 11.233,3.429 16.65,5.3c2.863,0.992 5.733,1.983 8.617,2.916c0.763,0.246 1.392,0.788 1.754,1.504c0.354,0.717 0.412,1.546 0.15,2.304l-24.846,72.446c-0.537,1.554 -2.217,2.4 -3.779,1.858l-16.083,-5.446l-16.183,-4.646c-1.95,-0.537 -3.929,-1.104 -5.9,-1.675c-3.442,-0.992 -6.883,-1.987 -10.362,-2.854l-16.492,-3.8c-1.604,-0.367 -2.6,-1.963 -2.242,-3.567l11.296,-50.087c0.354,-1.587 1.908,-2.625 3.525,-2.267c16.458,3.458 32.817,8.196 48.638,12.771l4.4,1.271c0.767,0.225 1.421,0.75 1.8,1.458c0.379,0.704 0.462,1.538 0.225,2.304l-9.504,30.45c-0.479,1.542 -2.125,2.425 -3.671,1.983l-29.513,-8.417c-1.567,-0.446 -2.487,-2.054 -2.075,-3.625l3.425,-13.154c0.417,-1.592 2.038,-2.55 3.642,-2.138c1.6,0.417 2.554,2.05 2.138,3.646l-2.687,10.329l23.904,6.813l7.725,-24.758l-1.471,-0.425c-14.792,-4.275 -30.05,-8.692 -45.325,-12.042l-9.988,44.3l13.646,3.146c3.6,0.9 7.113,1.912 10.625,2.925c1.946,0.563 3.9,1.125 5.854,1.662l16.35,4.696l13.4,4.533l22.904,-66.771c-1.954,-0.65 -3.904,-1.325 -5.854,-2c-5.308,-1.833 -10.8,-3.733 -16.275,-5.187l-25.517,-7.237c-5.592,-1.438 -11.283,-2.737 -16.983,-4.042c-2.883,-0.658 -5.762,-1.317 -8.642,-1.996c-7.658,-1.908 -15.6,-3.362 -22.85,-4.637l-16.65,91.692c33.088,6.192 65.683,15.054 96.925,26.363l0.533,0.25c30.65,11.362 60.571,25.225 89.017,41.25l46.163,-80.929c-30.858,-17.4 -60.267,-31.367 -89.729,-42.621l-25.408,65.921l13.046,5.138c3.421,1.321 6.775,2.863 10.129,4.404c1.825,0.846 3.658,1.687 5.5,2.492l15.513,7.013l12.592,6.45l20.821,-40.358c-14.296,-7.479 -29.283,-14.1 -43.879,-20.487l-9.975,23.891c5.15,2.213 10.254,4.538 15.362,6.867c2.433,1.113 4.871,2.221 7.308,3.321l4.575,-9.642c0.712,-1.496 2.5,-2.121 3.983,-1.417c1.487,0.704 2.125,2.487 1.417,3.975l-5.825,12.279c-0.708,1.471 -2.429,2.104 -3.917,1.45c-3.35,-1.492 -6.688,-3.008 -10.021,-4.529c-5.954,-2.717 -11.908,-5.429 -17.942,-7.962c-1.517,-0.633 -2.233,-2.383 -1.6,-3.904l12.296,-29.438c0.3,-0.738 0.896,-1.321 1.638,-1.617c0.754,-0.3 1.583,-0.283 2.308,0.033c16.746,7.321 33.642,14.713 49.683,23.287c1.442,0.771 1.996,2.55 1.25,4l-23.542,45.638c-0.758,1.467 -2.554,2.042 -4.021,1.287l-15.108,-7.75l-15.342,-6.929c-1.846,-0.804 -3.712,-1.663 -5.571,-2.521c-3.238,-1.492 -6.479,-2.983 -9.804,-4.263l-15.821,-6.233c-1.521,-0.604 -2.279,-2.325 -1.692,-3.854l27.537,-71.463c0.596,-1.534 2.317,-2.296 3.838,-1.721c31.517,11.854 62.904,26.75 95.95,45.542c0.692,0.392 1.196,1.042 1.408,1.804c0.208,0.766 0.104,1.583 -0.288,2.271l-49.117,86.117c-0.554,0.967 -1.562,1.508 -2.596,1.508Z" style="fill:#fcb418;fill-rule:nonzero;"/><path d="M1246.129,393.292l-0.242,-0.008c-0.792,-0.067 -1.521,-0.441 -2.033,-1.046c-22.367,-26.325 -46.246,-50.142 -70.988,-70.821l-0.4,-0.283c-26.15,-21.942 -54.317,-41.846 -83.717,-59.15c-1.417,-0.833 -1.896,-2.663 -1.063,-4.084l50.179,-85.5c0.404,-0.683 1.063,-1.183 1.838,-1.383c0.771,-0.183 1.588,-0.075 2.271,0.329c33.9,20.179 62.454,39.933 87.292,60.391c1.267,1.038 1.463,2.904 0.429,4.179l-48.167,59.542c-1.021,1.266 -2.854,1.479 -4.142,0.496c-2.888,-2.217 -5.742,-4.483 -8.596,-6.75c-5.883,-4.675 -11.963,-9.512 -18.258,-13.758l-1.687,-1.208c-8.475,-6.071 -17.246,-12.35 -26.25,-17.867c-0.683,-0.421 -1.175,-1.1 -1.35,-1.883c-0.179,-0.783 -0.033,-1.608 0.404,-2.283l27.821,-43.158c0.9,-1.388 2.738,-1.779 4.125,-0.896l11.492,7.379l11.271,7.946c2.521,1.841 5.029,3.604 7.546,5.367c4.888,3.433 9.946,6.979 14.687,10.879c1.246,1.021 1.454,2.842 0.479,4.121l-19.375,25.346c-0.488,0.642 -1.217,1.054 -2.025,1.15c-0.787,0.116 -1.604,-0.138 -2.233,-0.65c-5.029,-4.088 -10.471,-7.9 -15.742,-11.583c-3,-2.104 -6.008,-4.208 -8.967,-6.375c-1.3,-0.959 -1.608,-2.779 -0.688,-4.112l7.742,-11.175c0.946,-1.363 2.808,-1.692 4.162,-0.754c1.35,0.938 1.692,2.8 0.75,4.158l-6.079,8.771c2.158,1.55 4.338,3.071 6.504,4.592c4.533,3.175 9.196,6.437 13.675,9.933l15.754,-20.612c-3.921,-3.071 -8.058,-5.975 -12.079,-8.796c-2.542,-1.783 -5.092,-3.575 -7.592,-5.408l-11.129,-7.842l-8.871,-5.692l-24.567,38.096c8.258,5.217 16.258,10.942 24.013,16.496l1.621,1.158c6.413,4.329 12.587,9.238 18.562,13.983c2.067,1.642 4.133,3.283 6.217,4.904l44.458,-54.962c-23.429,-19.071 -50.208,-37.579 -81.688,-56.446l-47.146,80.333c28.117,16.738 55.088,35.817 80.242,56.771l0.354,0.254c24.913,20.638 48.962,44.421 71.521,70.717l70.975,-60.371c-20.325,-24.033 -43.2,-47.171 -69.792,-70.587l-46.383,53.2c14.071,12.204 28.387,26.092 44.692,43.362l33.292,-30.796l-16.775,-17.554l-17.471,-16.654l-17.583,19.079c1.925,1.846 3.867,3.679 5.808,5.517c4.013,3.792 8.138,7.692 12.129,11.696l7.537,-7.446c1.171,-1.167 3.063,-1.146 4.225,0.021c1.158,1.179 1.15,3.067 -0.025,4.225l-9.667,9.55c-0.567,0.563 -1.246,0.879 -2.129,0.863c-0.8,-0.008 -1.558,-0.329 -2.112,-0.904c-4.546,-4.667 -9.379,-9.237 -14.058,-13.662c-2.667,-2.521 -5.333,-5.042 -7.963,-7.592c-1.167,-1.129 -1.221,-2.979 -0.125,-4.171l21.621,-23.458c0.55,-0.592 1.3,-0.937 2.1,-0.963c0.912,-0.075 1.583,0.275 2.158,0.825l19.775,18.85l18.971,19.85c0.554,0.575 0.85,1.354 0.829,2.154c-0.025,0.8 -0.375,1.554 -0.958,2.1l-37.692,34.867c-1.204,1.113 -3.088,1.046 -4.208,-0.15c-17.892,-19.063 -33.317,-34.009 -48.538,-47.033c-0.608,-0.521 -0.983,-1.258 -1.037,-2.05c-0.062,-0.8 0.2,-1.583 0.725,-2.183l50.333,-57.729c0.517,-0.596 1.258,-0.963 2.046,-1.017c0.854,-0.033 1.571,0.212 2.171,0.733c28.629,25.038 53.025,49.729 74.6,75.492c1.05,1.254 0.892,3.129 -0.358,4.192l-75.513,64.229c-0.542,0.459 -1.233,0.713 -1.937,0.713Z" style="fill:#fcb418;fill-rule:nonzero;"/><path d="M1352.921,575.138c-0.425,0 -0.854,-0.087 -1.25,-0.275c-0.721,-0.329 -1.283,-0.938 -1.558,-1.679c-11.054,-30.121 -25.462,-60.696 -42.833,-90.9l-0.092,-0.146c-17.029,-29.533 -36.683,-57.871 -58.417,-84.233c-1.05,-1.267 -0.867,-3.146 0.396,-4.196l76.308,-63.296c0.613,-0.504 1.425,-0.742 2.196,-0.671c0.792,0.075 1.517,0.463 2.025,1.079c22.371,27.283 43.054,56.392 61.467,86.504c0.412,0.679 0.542,1.496 0.35,2.267c-0.187,0.775 -0.679,1.437 -1.354,1.85l-65.567,39.575c-1.396,0.833 -3.217,0.412 -4.079,-0.975c-5.987,-9.579 -12.096,-19.096 -18.296,-28.542c-2.35,-3.221 -4.733,-6.604 -7.113,-9.987c-4.054,-5.767 -8.242,-11.729 -12.642,-17.342c-0.496,-0.625 -0.712,-1.429 -0.613,-2.221c0.104,-0.792 0.521,-1.512 1.154,-1.996l40.858,-31.104c1.271,-0.971 3.113,-0.758 4.133,0.5c3.775,4.683 7.262,9.654 10.629,14.458c1.829,2.596 3.646,5.192 5.512,7.754c5.304,7.183 10.079,14.604 15.308,22.854c0.883,1.392 0.479,3.229 -0.9,4.117l-26.85,17.229c-0.671,0.433 -1.475,0.575 -2.25,0.404c-0.779,-0.167 -1.454,-0.637 -1.879,-1.304l-8.288,-12.921l-8.812,-12.383c-0.462,-0.646 -0.642,-1.45 -0.513,-2.233c0.133,-0.775 0.571,-1.475 1.213,-1.933l11.079,-7.875c1.342,-0.958 3.208,-0.642 4.162,0.704c0.958,1.346 0.642,3.208 -0.7,4.167l-8.646,6.142l7.167,10.071l6.75,10.521l21.829,-14.008c-4.563,-7.162 -8.825,-13.704 -13.483,-20.017c-1.9,-2.604 -3.746,-5.225 -5.588,-7.854c-2.767,-3.942 -5.608,-7.992 -8.592,-11.862l-36.133,27.504c3.817,5.004 7.45,10.171 10.983,15.192c2.354,3.358 4.717,6.713 7.133,10.025c5.762,8.775 11.375,17.504 16.887,26.283l60.475,-36.5c-17.342,-28.121 -36.675,-55.325 -57.517,-80.95l-71.704,59.475c20.775,25.446 39.629,52.679 56.092,81.021l0.113,0.175l0.004,0.012c17.433,30.108 31.958,60.604 43.204,90.692l87.337,-32.413c-11.146,-29.558 -25.108,-59.896 -41.542,-90.246l-61.729,34.204c3.038,5.487 5.887,11.117 8.65,16.587c1.854,3.667 3.713,7.338 5.625,10.971c4.438,9.509 8.708,18.967 12.904,28.442l41.829,-17.571c-6.442,-14.562 -13.096,-29.537 -20.592,-43.829l-23.05,11.95l0.275,0.538c3.638,7.058 7.379,14.333 10.692,21.767l9.583,-4.404c1.508,-0.692 3.275,-0.038 3.963,1.467c0.687,1.5 0.038,3.271 -1.463,3.962l-12.35,5.675c-0.738,0.337 -1.579,0.363 -2.325,0.071c-0.75,-0.292 -1.35,-0.871 -1.675,-1.613c-3.508,-8.217 -7.692,-16.333 -11.738,-24.187l-1.638,-3.192c-0.754,-1.463 -0.183,-3.263 1.279,-4.017l28.321,-14.679c1.467,-0.75 3.238,-0.204 4.008,1.242c8.458,15.8 15.792,32.404 22.892,48.467l0.508,1.15c0.329,0.733 0.346,1.567 0.046,2.312c-0.296,0.746 -0.879,1.342 -1.621,1.65l-47.338,19.883c-1.487,0.633 -3.229,-0.058 -3.883,-1.546c-4.563,-10.337 -9.208,-20.646 -13.979,-30.883c-1.867,-3.537 -3.733,-7.233 -5.608,-10.929c-3.171,-6.279 -6.458,-12.779 -9.988,-18.963c-0.396,-0.696 -0.496,-1.521 -0.279,-2.288c0.217,-0.766 0.729,-1.421 1.429,-1.808l66.988,-37.113c0.687,-0.383 1.517,-0.487 2.279,-0.254c0.767,0.221 1.408,0.738 1.787,1.433c17.721,32.446 32.65,64.9 44.383,96.467c0.275,0.746 0.246,1.567 -0.087,2.288c-0.325,0.721 -0.933,1.279 -1.675,1.554l-92.946,34.496l-1.037,0.187Z" style="fill:#fcb418;fill-rule:nonzero;"/><path d="M1390.638,782.646c-0.787,0 -1.546,-0.313 -2.108,-0.867c-0.558,-0.563 -0.879,-1.321 -0.879,-2.117c-0.046,-32.325 -3.192,-66.675 -9.342,-102.1l-0.029,-0.191c-6.125,-34.596 -14.742,-67.25 -25.629,-97.092c-0.271,-0.746 -0.233,-1.571 0.108,-2.292c0.337,-0.721 0.942,-1.279 1.696,-1.546l93.367,-33.329c1.558,-0.563 3.25,0.242 3.808,1.787c11.1,30.546 20.275,64.054 28.05,102.446c0.158,0.779 -0.004,1.591 -0.442,2.254c-0.442,0.658 -1.133,1.117 -1.913,1.271l-75.179,14.612c-0.8,0.158 -1.604,-0.012 -2.267,-0.471c-0.662,-0.454 -1.108,-1.158 -1.25,-1.95c-1.213,-7.037 -2.904,-14.146 -4.537,-21.021c-0.954,-4 -1.896,-7.996 -2.767,-12.012c-1.717,-6.825 -3.688,-13.683 -5.667,-20.538c-1.146,-4 -2.296,-8 -3.404,-12.012c-0.425,-1.554 0.454,-3.167 1.996,-3.646l49.046,-15.204c0.771,-0.246 1.592,-0.158 2.308,0.229c0.708,0.383 1.233,1.033 1.454,1.808l7.467,26.292c1.696,5.746 3.021,11.671 4.313,17.4c0.688,3.092 1.383,6.187 2.133,9.267c0.192,0.779 0.067,1.6 -0.363,2.283c-0.425,0.683 -1.1,1.162 -1.883,1.337l-31.138,6.954c-1.625,0.367 -3.179,-0.633 -3.558,-2.221c-0.617,-2.613 -1.217,-5.233 -1.812,-7.854c-1.633,-7.187 -3.321,-14.625 -5.521,-21.737c-0.238,-0.775 -0.154,-1.613 0.233,-2.321c0.392,-0.708 1.054,-1.229 1.833,-1.442l13.108,-3.592c1.617,-0.417 3.238,0.508 3.671,2.092c0.438,1.592 -0.504,3.233 -2.096,3.671l-10.162,2.783c1.846,6.396 3.325,12.9 4.763,19.221c0.371,1.646 0.746,3.288 1.125,4.929l25.292,-5.65c-0.496,-2.133 -0.975,-4.275 -1.458,-6.413c-1.263,-5.638 -2.567,-11.463 -4.221,-17.046l-6.637,-23.379l-43.358,13.442c0.858,3.054 1.737,6.104 2.612,9.154c1.996,6.925 3.988,13.846 5.742,20.833c0.879,4.071 1.821,8.029 2.767,11.987c1.421,6 2.887,12.175 4.067,18.384l69.246,-13.459c-7.35,-35.708 -15.929,-67.125 -26.2,-95.846l-87.738,31.321c10.729,29.966 19.208,62.663 25.221,97.237l0.038,0.279c5.792,33.95 8.842,66.917 9.071,98.079l93.15,-0.571c-0.313,-31.454 -2.917,-63.888 -7.937,-98.95l-69.771,10.892c0.883,6.337 1.675,12.691 2.467,19.042c0.492,3.921 0.983,7.841 1.496,11.758c0.312,4.379 0.642,8.579 0.967,12.775c0.479,6.125 0.958,12.25 1.342,18.379l45.304,-2.15l-0.313,-4.517c-0.975,-14.371 -1.975,-29.204 -3.958,-43.7l-25.767,3.292l1.567,12.267c0.354,3.383 0.6,6.717 0.837,10.05l0.188,2.404l10.554,-0.846c1.608,-0.104 3.087,1.092 3.217,2.738c0.133,1.646 -1.092,3.087 -2.737,3.221l-13.546,1.083c-1.596,0.113 -3.083,-1.092 -3.217,-2.733l-0.412,-5.433c-0.242,-3.271 -0.475,-6.538 -0.817,-9.796l-1.933,-15.158c-0.208,-1.638 0.954,-3.133 2.588,-3.342l31.642,-4.046c1.617,-0.179 3.1,0.917 3.337,2.533c2.292,15.646 3.371,31.617 4.417,47.063l0.517,7.554c0.054,0.8 -0.213,1.592 -0.746,2.192c-0.537,0.6 -1.287,0.963 -2.092,1l-51.296,2.433c-1.617,0.142 -3.025,-1.179 -3.121,-2.812c-0.408,-7.079 -0.954,-14.142 -1.508,-21.208c-0.329,-4.213 -0.663,-8.429 -0.958,-12.646c-0.496,-3.75 -0.987,-7.679 -1.475,-11.612c-0.912,-7.292 -1.825,-14.583 -2.871,-21.854c-0.233,-1.621 0.879,-3.125 2.496,-3.379l75.667,-11.808c0.8,-0.112 1.596,0.075 2.237,0.55c0.642,0.471 1.067,1.179 1.183,1.971c5.5,37.604 8.271,72.192 8.454,105.75c0.008,1.65 -1.321,2.996 -2.971,3.004l-99.137,0.604l-0.017,0Z" style="fill:#fcb418;fill-rule:nonzero;"/></g></svg>