<?xml version="1.0" encoding="UTF-8" standalone="no"?><!DOCTYPE svg PUBLIC "-//W3C//DTD SVG 1.1//EN" "http://www.w3.org/Graphics/SVG/1.1/DTD/svg11.dtd"><svg width="100%" height="100%" viewBox="0 0 86 84" version="1.1" xmlns="http://www.w3.org/2000/svg" xmlns:xlink="http://www.w3.org/1999/xlink" xml:space="preserve" xmlns:serif="http://www.serif.com/" style="fill-rule:evenodd;clip-rule:evenodd;stroke-linejoin:round;stroke-miterlimit:2;"><g><path d="M985.402,-310.041l-26.337,0c-0.004,209.108 -84.721,398.3 -221.746,535.35c-137.05,137.029 -326.242,221.742 -535.35,221.75c-209.112,-0.008 -398.3,-84.721 -535.35,-221.75c-137.029,-137.05 -221.742,-326.242 -221.75,-535.35c0.008,-209.108 84.721,-398.3 221.75,-535.35c137.05,-137.025 326.237,-221.742 535.35,-221.746c209.108,0.004 398.3,84.721 535.346,221.746c137.029,137.05 221.746,326.242 221.75,535.35l26.337,0c0.004,-216.296 -87.712,-412.237 -229.462,-553.971c-141.733,-141.75 -337.675,-229.467 -553.971,-229.463c-216.3,-0.004 -412.242,87.713 -553.971,229.463c-141.754,141.733 -229.471,337.675 -229.462,553.971c-0.008,216.3 87.708,412.242 229.462,553.971c141.729,141.754 337.671,229.471 553.971,229.462c216.296,0.008 412.238,-87.708 553.971,-229.462c141.75,-141.729 229.467,-337.671 229.462,-553.971Z" style="fill:#eb3427;fill-rule:nonzero;"/><path d="M30.294,70.789c0,-6.908 12.504,-31.596 12.504,-31.596c0,0 12.504,24.687 12.504,31.596c0,6.904 -5.6,12.504 -12.504,12.504c-6.904,0 -12.504,-5.6 -12.504,-12.504Z" style="fill:#fcb418;fill-rule:nonzero;"/><path d="M9.44,34.918c6.696,-1.696 33.696,4.367 33.696,4.367c0,0 -20.862,18.183 -27.562,19.875c-6.692,1.696 -13.492,-2.358 -15.188,-9.05c-1.696,-6.696 2.358,-13.496 9.054,-15.192Z" style="fill:#fcb418;fill-rule:nonzero;"/><path d="M75.89,34.918c-6.696,-1.696 -33.696,4.367 -33.696,4.367c0,0 20.863,18.183 27.558,19.875c6.696,1.696 13.496,-2.358 15.192,-9.05c1.692,-6.696 -2.358,-13.496 -9.054,-15.192Z" style="fill:#fcb418;fill-rule:nonzero;"/><path d="M35.64,6.03c3.875,5.717 7.392,33.163 7.392,33.163c0,0 -24.208,-13.404 -28.087,-19.121c-3.879,-5.713 -2.387,-13.487 3.329,-17.367c5.713,-3.879 13.487,-2.387 17.367,3.325Z" style="fill:#fcb418;fill-rule:nonzero;"/><path d="M69.761,18.843c-3.5,5.954 -26.787,20.9 -26.787,20.9c0,0 1.729,-27.621 5.229,-33.575c3.5,-5.95 11.162,-7.942 17.117,-4.442c5.95,3.5 7.942,11.162 4.442,17.117Z" style="fill:#fcb418;fill-rule:nonzero;"/><path d="M32.373,16.026l7.421,2.9c1.458,0.571 3.083,0.563 4.537,-0.021l7.388,-2.979c4.183,-1.687 8.7,1.558 8.433,6.058l-0.467,7.954c-0.092,1.567 0.417,3.108 1.425,4.308l5.117,6.108c2.896,3.458 1.208,8.754 -3.158,9.892l-7.708,2.013c-1.517,0.4 -2.825,1.358 -3.658,2.687l-4.225,6.754c-2.396,3.825 -7.954,3.854 -10.387,0.054l-4.296,-6.708c-0.846,-1.321 -2.163,-2.271 -3.683,-2.65l-7.733,-1.933c-4.375,-1.092 -6.121,-6.371 -3.258,-9.858l5.054,-6.163c0.996,-1.212 1.488,-2.758 1.379,-4.321l-0.55,-7.95c-0.312,-4.5 4.171,-7.792 8.371,-6.146Z" style="fill:#eb3427;fill-rule:nonzero;"/><path d="M34.911,39.193c0,-4.354 3.529,-7.888 7.888,-7.888c4.358,0 7.888,3.533 7.888,7.888c0,4.358 -3.529,7.892 -7.888,7.892c-4.358,0 -7.888,-3.533 -7.888,-7.892Z" style="fill:#fcb418;fill-rule:nonzero;"/></g></svg>